M48
; DRILL file {KiCad 6.99.0-unknown-3b63ce8a48~154~ubuntu22.04.1} date Wed 12 Oct 2022 06:00:42 AM MDT
; FORMAT={-:-/ absolute / inch / decimal}
; #@! TF.CreationDate,2022-10-12T06:00:42-06:00
; #@! TF.GenerationSoftware,Kicad,Pcbnew,6.99.0-unknown-3b63ce8a48~154~ubuntu22.04.1
; #@! TF.FileFunction,Plated,1,2,PTH
FMAT,2
INCH
; #@! TA.AperFunction,Plated,PTH,ViaDrill
T1C0.0157
; #@! TA.AperFunction,Plated,PTH,ComponentDrill
T2C0.0280
; #@! TA.AperFunction,Plated,PTH,ComponentDrill
T3C0.0315
; #@! TA.AperFunction,Plated,PTH,ComponentDrill
T4C0.0354
; #@! TA.AperFunction,Plated,PTH,ComponentDrill
T5C0.0394
; #@! TA.AperFunction,Plated,PTH,ComponentDrill
T6C0.0472
; #@! TA.AperFunction,Plated,PTH,ComponentDrill
T7C0.0984
%
G90
G05
T1
X5.4449Y-3.9567
X5.5551Y-3.5039
X5.5945Y-4.0945
X5.626Y-4.315
X5.6575Y-3.6063
X5.689Y-3.8543
X5.7283Y-4.2362
X5.8189Y-3.6378
X5.9252Y-3.8465
X5.9409Y-4.1181
X5.9921Y-4.4803
X6.0709Y-3.5551
X6.0984Y-3.7677
X6.1654Y-4.2953
X6.1811Y-3.9055
X6.189Y-4.189
X6.2323Y-3.752
X6.2323Y-3.8819
X6.2717Y-3.5433
X6.3071Y-4.5
X6.3346Y-3.7717
X6.3504Y-3.9803
X6.4685Y-4.1024
X6.5118Y-4.1417
X6.5276Y-4.0039
X6.5276Y-4.685
X6.6929Y-4.374
X6.7441Y-3.878
X6.7441Y-3.9764
X6.7953Y-4.252
X6.8268Y-4.6378
X6.8937Y-4.3543
X7.0315Y-4.6181
X7.1024Y-4.7008
X7.1457Y-4.0984
X7.1811Y-3.3465
X7.2205Y-4.0197
X7.315Y-4.2913
X7.4843Y-4.2874
X7.8583Y-3.3425
T2
X5.4843Y-4.0807
X5.5472Y-3.8799
T3
X5.7756Y-3.7598
X5.7756Y-3.8583
X5.9803Y-3.6843
X5.9803Y-3.9843
X6.0803Y-3.6843
X6.0803Y-3.9843
X6.1803Y-3.6843
X6.1803Y-3.9843
X6.2803Y-3.6843
X6.2803Y-3.9843
X6.3071Y-4.1575
X6.3071Y-4.2559
X7.0945Y-4.1971
X7.0945Y-4.2955
T4
X5.7874Y-4.3346
X5.7874Y-4.4346
X6.0441Y-4.3346
X6.0441Y-4.4346
X6.5685Y-4.3343
X6.5685Y-4.4343
X6.6469Y-4.4343
X6.7469Y-4.4343
X6.8252Y-4.3343
X6.8252Y-4.4343
X7.3819Y-4.3331
X7.3819Y-4.4331
X7.4602Y-4.4331
X7.5602Y-4.4331
X7.6386Y-4.3331
X7.6386Y-4.4331
T5
X6.1575Y-3.437
X6.2575Y-3.437
X6.3575Y-3.437
X6.4575Y-3.437
X6.5575Y-3.437
T6
X5.4862Y-3.437
X5.9862Y-3.437
X7.0276Y-4.0157
X7.5276Y-4.0157
T7
X5.6677Y-4.5437
X5.9157Y-4.5752
X6.1638Y-4.5437
X6.4488Y-4.5433
X6.6969Y-4.5748
X6.9449Y-4.5433
X7.2622Y-4.5421
X7.5102Y-4.5736
X7.7583Y-4.5421
T0
M30
