%TF.GenerationSoftware,KiCad,Pcbnew,6.99.0-unknown-3b63ce8a48~154~ubuntu22.04.1*%
%TF.CreationDate,2022-10-12T06:00:40-06:00*%
%TF.ProjectId,PS2_ADB,5053325f-4144-4422-9e6b-696361645f70,rev?*%
%TF.SameCoordinates,Original*%
%TF.FileFunction,Copper,L1,Top*%
%TF.FilePolarity,Positive*%
%FSLAX46Y46*%
G04 Gerber Fmt 4.6, Leading zero omitted, Abs format (unit mm)*
G04 Created by KiCad (PCBNEW 6.99.0-unknown-3b63ce8a48~154~ubuntu22.04.1) date 2022-10-12 06:00:40*
%MOMM*%
%LPD*%
G01*
G04 APERTURE LIST*
G04 Aperture macros list*
%AMRoundRect*
0 Rectangle with rounded corners*
0 $1 Rounding radius*
0 $2 $3 $4 $5 $6 $7 $8 $9 X,Y pos of 4 corners*
0 Add a 4 corners polygon primitive as box body*
4,1,4,$2,$3,$4,$5,$6,$7,$8,$9,$2,$3,0*
0 Add four circle primitives for the rounded corners*
1,1,$1+$1,$2,$3*
1,1,$1+$1,$4,$5*
1,1,$1+$1,$6,$7*
1,1,$1+$1,$8,$9*
0 Add four rect primitives between the rounded corners*
20,1,$1+$1,$2,$3,$4,$5,0*
20,1,$1+$1,$4,$5,$6,$7,0*
20,1,$1+$1,$6,$7,$8,$9,0*
20,1,$1+$1,$8,$9,$2,$3,0*%
G04 Aperture macros list end*
%TA.AperFunction,ComponentPad*%
%ADD10C,2.400000*%
%TD*%
%TA.AperFunction,ComponentPad*%
%ADD11O,2.400000X2.400000*%
%TD*%
%TA.AperFunction,ComponentPad*%
%ADD12R,1.600000X1.600000*%
%TD*%
%TA.AperFunction,ComponentPad*%
%ADD13C,1.600000*%
%TD*%
%TA.AperFunction,ComponentPad*%
%ADD14C,1.410000*%
%TD*%
%TA.AperFunction,ComponentPad*%
%ADD15C,3.500000*%
%TD*%
%TA.AperFunction,SMDPad,CuDef*%
%ADD16RoundRect,0.250000X-0.450000X0.325000X-0.450000X-0.325000X0.450000X-0.325000X0.450000X0.325000X0*%
%TD*%
%TA.AperFunction,SMDPad,CuDef*%
%ADD17RoundRect,0.250000X-0.475000X0.337500X-0.475000X-0.337500X0.475000X-0.337500X0.475000X0.337500X0*%
%TD*%
%TA.AperFunction,SMDPad,CuDef*%
%ADD18R,1.600000X1.400000*%
%TD*%
%TA.AperFunction,SMDPad,CuDef*%
%ADD19RoundRect,0.250000X-0.350000X-0.450000X0.350000X-0.450000X0.350000X0.450000X-0.350000X0.450000X0*%
%TD*%
%TA.AperFunction,ComponentPad*%
%ADD20R,1.700000X1.700000*%
%TD*%
%TA.AperFunction,ComponentPad*%
%ADD21O,1.700000X1.700000*%
%TD*%
%TA.AperFunction,ComponentPad*%
%ADD22R,2.400000X2.400000*%
%TD*%
%TA.AperFunction,ComponentPad*%
%ADD23O,1.600000X1.600000*%
%TD*%
%TA.AperFunction,ComponentPad*%
%ADD24C,1.270000*%
%TD*%
%TA.AperFunction,SMDPad,CuDef*%
%ADD25R,2.500000X1.800000*%
%TD*%
%TA.AperFunction,SMDPad,CuDef*%
%ADD26RoundRect,0.250000X0.337500X0.475000X-0.337500X0.475000X-0.337500X-0.475000X0.337500X-0.475000X0*%
%TD*%
%TA.AperFunction,ViaPad*%
%ADD27C,0.800000*%
%TD*%
%TA.AperFunction,Conductor*%
%ADD28C,0.250000*%
%TD*%
%TA.AperFunction,Conductor*%
%ADD29C,0.500000*%
%TD*%
%TA.AperFunction,Conductor*%
%ADD30C,0.330000*%
%TD*%
G04 APERTURE END LIST*
D10*
%TO.P,R2,1*%
%TO.N,Net-(SW1-K)*%
X178500000Y-102000000D03*
D11*
%TO.P,R2,2*%
%TO.N,GND*%
X191199999Y-101999999D03*
%TD*%
D12*
%TO.P,C6,1*%
%TO.N,+5VA*%
X180199999Y-109105112D03*
D13*
%TO.P,C6,2*%
%TO.N,GND*%
X180200000Y-106605113D03*
%TD*%
D12*
%TO.P,C5,1*%
%TO.N,+5VA*%
X160199999Y-108099999D03*
D13*
%TO.P,C5,2*%
%TO.N,GND*%
X160200000Y-105600000D03*
%TD*%
D12*
%TO.P,C3,1*%
%TO.N,+5VA*%
X146699999Y-97999999D03*
D13*
%TO.P,C3,2*%
%TO.N,GND*%
X146700000Y-95500000D03*
%TD*%
D14*
%TO.P,J4,1*%
%TO.N,Net-(J4-Pad1)*%
X147000000Y-112640000D03*
%TO.P,J4,2*%
%TO.N,ADB*%
X153520000Y-112640000D03*
%TO.P,J4,3*%
%TO.N,GND*%
X147000000Y-110100000D03*
%TO.P,J4,4*%
%TO.N,+5V*%
X153520000Y-110100000D03*
D15*
%TO.P,J4,9*%
%TO.N,N/C*%
X143960000Y-115410000D03*
X150260000Y-116210000D03*
X156560000Y-115410000D03*
%TD*%
D16*
%TO.P,F1,1*%
%TO.N,Net-(D1-A)*%
X140600000Y-100200000D03*
%TO.P,F1,2*%
%TO.N,+5V*%
X140600000Y-102250000D03*
%TD*%
D17*
%TO.P,C1,1*%
%TO.N,+5VA*%
X152900000Y-104000000D03*
%TO.P,C1,2*%
%TO.N,GND*%
X152900000Y-106075000D03*
%TD*%
D14*
%TO.P,J3,1*%
%TO.N,PS{slash}2_Mouse*%
X192030000Y-112600000D03*
%TO.P,J3,2*%
%TO.N,unconnected-(J3-Pad2)*%
X189490000Y-112600000D03*
%TO.P,J3,3*%
%TO.N,GND*%
X194020000Y-112600000D03*
%TO.P,J3,4*%
%TO.N,+5VA*%
X187500000Y-112600000D03*
%TO.P,J3,5*%
%TO.N,PS{slash}2_CLK*%
X194020000Y-110060000D03*
%TO.P,J3,6*%
%TO.N,unconnected-(J3-Pad6)*%
X187500000Y-110060000D03*
D15*
%TO.P,J3,9*%
%TO.N,N/C*%
X184460000Y-115370000D03*
X190760000Y-116170000D03*
X197060000Y-115370000D03*
%TD*%
D18*
%TO.P,SW1,1,1*%
%TO.N,Net-(J4-Pad1)*%
X168099999Y-101099999D03*
%TO.P,SW1,2,2*%
%TO.N,unconnected-(SW1-Pad2)*%
X175299999Y-101099999D03*
%TO.P,SW1,3,K*%
%TO.N,Net-(SW1-K)*%
X175299999Y-98099999D03*
%TO.P,SW1,4,A*%
%TO.N,unconnected-(SW1-A)*%
X168099999Y-98099999D03*
%TD*%
D19*
%TO.P,R1,1*%
%TO.N,Net-(SW1-K)*%
X178050000Y-97700000D03*
%TO.P,R1,2*%
%TO.N,GND*%
X180050000Y-97700000D03*
%TD*%
D20*
%TO.P,J5,1,Pin_1*%
%TO.N,PS{slash}2_KBD*%
X156399999Y-87299999D03*
D21*
%TO.P,J5,2,Pin_2*%
%TO.N,+5VA*%
X158939999Y-87299999D03*
%TO.P,J5,3,Pin_3*%
%TO.N,GND*%
X161479999Y-87299999D03*
%TO.P,J5,4,Pin_4*%
%TO.N,ICSPDAT*%
X164019999Y-87299999D03*
%TO.P,J5,5,Pin_5*%
%TO.N,ICSPCLK*%
X166559999Y-87299999D03*
%TD*%
D22*
%TO.P,D1,1,K*%
%TO.N,+5VA*%
X152049999Y-87299999D03*
D11*
%TO.P,D1,2,A*%
%TO.N,Net-(D1-A)*%
X139349999Y-87299999D03*
%TD*%
D12*
%TO.P,U1,1,VDD*%
%TO.N,+5VA*%
X151899999Y-101199999D03*
D23*
%TO.P,U1,2,RA5*%
%TO.N,ADB*%
X154439999Y-101199999D03*
%TO.P,U1,3,RA4*%
%TO.N,PS{slash}2_Mouse*%
X156979999Y-101199999D03*
%TO.P,U1,4,RA3*%
%TO.N,PS{slash}2_KBD*%
X159519999Y-101199999D03*
%TO.P,U1,5,RA2*%
%TO.N,PS{slash}2_CLK*%
X159519999Y-93579999D03*
%TO.P,U1,6,RA1*%
%TO.N,ICSPCLK*%
X156979999Y-93579999D03*
%TO.P,U1,7,RA0*%
%TO.N,ICSPDAT*%
X154439999Y-93579999D03*
%TO.P,U1,8,VSS*%
%TO.N,GND*%
X151899999Y-93579999D03*
%TD*%
D14*
%TO.P,J2,1*%
%TO.N,PS{slash}2_KBD*%
X171370000Y-112630000D03*
%TO.P,J2,2*%
%TO.N,unconnected-(J2-Pad2)*%
X168830000Y-112630000D03*
%TO.P,J2,3*%
%TO.N,GND*%
X173360000Y-112630000D03*
%TO.P,J2,4*%
%TO.N,+5VA*%
X166840000Y-112630000D03*
%TO.P,J2,5*%
%TO.N,PS{slash}2_CLK*%
X173360000Y-110090000D03*
%TO.P,J2,6*%
%TO.N,unconnected-(J2-Pad6)*%
X166840000Y-110090000D03*
D15*
%TO.P,J2,9*%
%TO.N,N/C*%
X163800000Y-115400000D03*
X170100000Y-116200000D03*
X176400000Y-115400000D03*
%TD*%
D24*
%TO.P,F2,1*%
%TO.N,+5V*%
X139300000Y-103650000D03*
%TO.P,F2,2*%
%TO.N,Net-(D1-A)*%
X140900000Y-98550000D03*
%TD*%
D25*
%TO.P,D2,1,K*%
%TO.N,+5VA*%
X147799999Y-87299999D03*
%TO.P,D2,2,A*%
%TO.N,Net-(D1-A)*%
X143799999Y-87299999D03*
%TD*%
D17*
%TO.P,C2,1*%
%TO.N,+5VA*%
X160200000Y-110700000D03*
%TO.P,C2,2*%
%TO.N,GND*%
X160200000Y-112775000D03*
%TD*%
D26*
%TO.P,C4,1*%
%TO.N,+5VA*%
X181237500Y-112400000D03*
%TO.P,C4,2*%
%TO.N,GND*%
X179162500Y-112400000D03*
%TD*%
D27*
%TO.N,GND*%
X160200000Y-114300000D03*
X156600000Y-109100000D03*
X144500000Y-97900000D03*
X143700000Y-91600000D03*
X150900000Y-104600000D03*
X160900000Y-95800000D03*
X145500000Y-107600000D03*
X152200000Y-113800000D03*
X138300000Y-100500000D03*
X190100000Y-108900000D03*
X161300000Y-101100000D03*
X154200000Y-90300000D03*
X147800000Y-92400000D03*
X172600000Y-108000000D03*
X183400000Y-102100000D03*
X141100000Y-89000000D03*
X158300000Y-98600000D03*
X159300000Y-90000000D03*
X170000000Y-111100000D03*
X185800000Y-109000000D03*
X181500000Y-104100000D03*
X199600000Y-84900000D03*
X182400000Y-85000000D03*
X171300000Y-101000000D03*
X142900000Y-109600000D03*
X180400000Y-119400000D03*
X175100000Y-110600000D03*
X158300000Y-95300000D03*
X165400000Y-105200000D03*
X142100000Y-104000000D03*
X157000000Y-99200000D03*
X150500000Y-97700000D03*
X164300000Y-104200000D03*
X154900000Y-95700000D03*
X171300000Y-98500000D03*
X178600000Y-117300000D03*
X173400000Y-117800000D03*
X165800000Y-119000000D03*
X157200000Y-106400000D03*
%TO.N,Net-(J4-Pad1)*%
X165800000Y-101700000D03*
%TD*%
D28*
%TO.N,Net-(SW1-K)*%
X178050000Y-97700000D02*
X178050000Y-100750000D01*
X178050000Y-100750000D02*
X178500000Y-101200000D01*
X178500000Y-101200000D02*
X178500000Y-102000000D01*
D29*
%TO.N,+5VA*%
X155730000Y-106430000D02*
X155730000Y-100230000D01*
X160200000Y-108100000D02*
X157400000Y-108100000D01*
X157400000Y-108100000D02*
X155730000Y-106430000D01*
X160200000Y-110700000D02*
X160200000Y-108100000D01*
X166840000Y-112630000D02*
X162130000Y-112630000D01*
X162130000Y-112630000D02*
X160200000Y-110700000D01*
X151900000Y-101200000D02*
X149900000Y-101200000D01*
X149900000Y-101200000D02*
X146700000Y-98000000D01*
X147800000Y-87300000D02*
X144900000Y-90200000D01*
X144900000Y-90200000D02*
X144900000Y-96200000D01*
X144900000Y-96200000D02*
X146700000Y-98000000D01*
X151900000Y-101200000D02*
X151900000Y-103000000D01*
X151900000Y-103000000D02*
X152900000Y-104000000D01*
X181160000Y-112207500D02*
X181160000Y-113240000D01*
X181160000Y-113240000D02*
X181160000Y-116640000D01*
X180200000Y-109600000D02*
X180200000Y-109105113D01*
X181160000Y-113240000D02*
X181160000Y-110560000D01*
X181160000Y-110560000D02*
X180200000Y-109600000D01*
X160400000Y-108300000D02*
X160200000Y-108100000D01*
X154900000Y-99400000D02*
X153700000Y-99400000D01*
X166840000Y-117940000D02*
X166840000Y-117060000D01*
X152050000Y-87300000D02*
X152050000Y-87050000D01*
X152050000Y-87300000D02*
X152700000Y-87300000D01*
X157300000Y-85400000D02*
X158940000Y-87040000D01*
X166840000Y-117060000D02*
X166840000Y-117840000D01*
X158940000Y-87040000D02*
X158940000Y-87300000D01*
X168250000Y-119350000D02*
X166840000Y-117940000D01*
X178450000Y-119350000D02*
X168250000Y-119350000D01*
X155730000Y-100230000D02*
X154900000Y-99400000D01*
X166840000Y-112630000D02*
X166840000Y-117060000D01*
X187500000Y-112600000D02*
X181552500Y-112600000D01*
X147800000Y-87300000D02*
X152050000Y-87300000D01*
X181160000Y-116640000D02*
X178450000Y-119350000D01*
X181552500Y-112600000D02*
X181160000Y-112207500D01*
X154600000Y-85400000D02*
X157300000Y-85400000D01*
X153700000Y-99400000D02*
X151900000Y-101200000D01*
X152700000Y-87300000D02*
X154600000Y-85400000D01*
D30*
%TO.N,GND*%
X170900000Y-113900000D02*
X170500000Y-113900000D01*
X155800000Y-95000000D02*
X155700000Y-94900000D01*
D28*
X164300000Y-101500000D02*
X164300000Y-101000000D01*
X164600000Y-101800000D02*
X164300000Y-101500000D01*
D30*
X170100000Y-113500000D02*
X170000000Y-111100000D01*
D28*
X170000000Y-102800000D02*
X169900000Y-102900000D01*
X165700000Y-102900000D02*
X164600000Y-101800000D01*
X166000000Y-102900000D02*
X165700000Y-102900000D01*
X190100000Y-109900000D02*
X188700000Y-111300000D01*
D30*
X172100000Y-113900000D02*
X170900000Y-113900000D01*
D28*
X190100000Y-108900000D02*
X190100000Y-111000000D01*
X190100000Y-111000000D02*
X190800000Y-111700000D01*
X171300000Y-101500000D02*
X170000000Y-102800000D01*
D30*
X158300000Y-95300000D02*
X156100000Y-95300000D01*
D28*
X169900000Y-102900000D02*
X166000000Y-102900000D01*
D30*
X158300000Y-102700000D02*
X158200000Y-102800000D01*
X172100000Y-113890000D02*
X172100000Y-113900000D01*
X158300000Y-98600000D02*
X158300000Y-102700000D01*
X170500000Y-113900000D02*
X170100000Y-113500000D01*
D28*
X190800000Y-113500000D02*
X190700000Y-113600000D01*
D30*
X173360000Y-112630000D02*
X172100000Y-113890000D01*
X156100000Y-95300000D02*
X155800000Y-95000000D01*
D28*
X179600000Y-98150000D02*
X180050000Y-97700000D01*
X190800000Y-111700000D02*
X190800000Y-113500000D01*
X188700000Y-111300000D02*
X186600000Y-111300000D01*
X190100000Y-108900000D02*
X190100000Y-109900000D01*
X171300000Y-101000000D02*
X171300000Y-101500000D01*
D30*
X170000000Y-111100000D02*
X170100000Y-111600000D01*
D29*
%TO.N,Net-(D1-A)*%
X139350000Y-87300000D02*
X139350000Y-97000000D01*
X140900000Y-98550000D02*
X140900000Y-99900000D01*
X139350000Y-97000000D02*
X140900000Y-98550000D01*
X143800000Y-87300000D02*
X139350000Y-87300000D01*
X140900000Y-99900000D02*
X140600000Y-100200000D01*
%TO.N,+5V*%
X140600000Y-102350000D02*
X139300000Y-103650000D01*
X139300000Y-118000000D02*
X140100000Y-118800000D01*
X140600000Y-102250000D02*
X140600000Y-102350000D01*
X147100000Y-117300000D02*
X147100000Y-115200000D01*
X139300000Y-103650000D02*
X139300000Y-118000000D01*
X140100000Y-118800000D02*
X145600000Y-118800000D01*
X145600000Y-118800000D02*
X147100000Y-117300000D01*
X147100000Y-115200000D02*
X152200000Y-110100000D01*
X152200000Y-110100000D02*
X153520000Y-110100000D01*
D28*
%TO.N,ICSPDAT*%
X156920000Y-91100000D02*
X160220000Y-91100000D01*
X160220000Y-91100000D02*
X164020000Y-87300000D01*
X154440000Y-93580000D02*
X156920000Y-91100000D01*
%TO.N,ICSPCLK*%
X161860000Y-92000000D02*
X166560000Y-87300000D01*
X158560000Y-92000000D02*
X161860000Y-92000000D01*
X156980000Y-93580000D02*
X158560000Y-92000000D01*
%TO.N,PS{slash}2_KBD*%
X171370000Y-110570000D02*
X171370000Y-112630000D01*
X167600000Y-106800000D02*
X171370000Y-110570000D01*
X165120000Y-106800000D02*
X167600000Y-106800000D01*
X159520000Y-101200000D02*
X165120000Y-106800000D01*
%TO.N,PS{slash}2_CLK*%
X191760000Y-107800000D02*
X175650000Y-107800000D01*
X171890000Y-110090000D02*
X173360000Y-110090000D01*
X175650000Y-107800000D02*
X173360000Y-110090000D01*
X194020000Y-110060000D02*
X191760000Y-107800000D01*
X159520000Y-93580000D02*
X159520000Y-97720000D01*
X159520000Y-97720000D02*
X171890000Y-110090000D01*
%TO.N,ADB*%
X155600000Y-110560000D02*
X153520000Y-112640000D01*
X154440000Y-107740000D02*
X155600000Y-108900000D01*
X154440000Y-101200000D02*
X154440000Y-107740000D01*
X155600000Y-108900000D02*
X155600000Y-110560000D01*
%TO.N,Net-(J4-Pad1)*%
X166500000Y-101700000D02*
X165800000Y-101700000D01*
X167100000Y-101100000D02*
X167600000Y-101100000D01*
X166500000Y-101700000D02*
X167100000Y-101100000D01*
%TO.N,Net-(SW1-K)*%
X178300000Y-97950000D02*
X178050000Y-97700000D01*
X178050000Y-97700000D02*
X177650000Y-98100000D01*
X177650000Y-98100000D02*
X175300000Y-98100000D01*
%TD*%
%TA.AperFunction,Conductor*%
%TO.N,GND*%
G36*
X200941621Y-83820502D02*
G01*
X200988114Y-83874158D01*
X200999500Y-83926500D01*
X200999500Y-119973500D01*
X200979498Y-120041621D01*
X200925842Y-120088114D01*
X200873500Y-120099500D01*
X179077779Y-120099500D01*
X179009658Y-120079498D01*
X178963165Y-120025842D01*
X178953061Y-119955568D01*
X178986127Y-119887037D01*
X178992926Y-119879830D01*
X178995483Y-119877198D01*
X181650771Y-117221910D01*
X181664624Y-117209937D01*
X181678176Y-117199848D01*
X181684058Y-117195469D01*
X181716230Y-117157128D01*
X181723656Y-117149025D01*
X181727581Y-117145100D01*
X181747008Y-117120531D01*
X181749308Y-117117707D01*
X181793313Y-117065264D01*
X181798032Y-117059640D01*
X181801327Y-117053077D01*
X181803177Y-117050265D01*
X181803437Y-117049906D01*
X181803652Y-117049520D01*
X181805416Y-117046660D01*
X181809967Y-117040905D01*
X181842002Y-116972208D01*
X181843595Y-116968917D01*
X181865759Y-116924784D01*
X181877609Y-116901188D01*
X181879303Y-116894042D01*
X181880450Y-116890890D01*
X181880622Y-116890476D01*
X181880735Y-116890076D01*
X181881802Y-116886855D01*
X181884903Y-116880206D01*
X181889765Y-116856663D01*
X181895361Y-116829560D01*
X181900242Y-116805921D01*
X181901022Y-116802403D01*
X181918500Y-116728656D01*
X181918500Y-116721321D01*
X181918890Y-116717983D01*
X181918962Y-116717537D01*
X181918980Y-116717124D01*
X181919276Y-116713739D01*
X181920759Y-116706558D01*
X181918553Y-116630741D01*
X181918500Y-116627077D01*
X181918500Y-113624632D01*
X181938502Y-113556511D01*
X181978353Y-113517391D01*
X182042404Y-113477884D01*
X182042405Y-113477883D01*
X182048652Y-113474030D01*
X182127277Y-113395405D01*
X182189589Y-113361379D01*
X182216372Y-113358500D01*
X182993537Y-113358500D01*
X183061658Y-113378502D01*
X183108151Y-113432158D01*
X183118255Y-113502432D01*
X183088761Y-113567012D01*
X183076618Y-113579229D01*
X182859573Y-113769573D01*
X182856864Y-113772662D01*
X182667085Y-113989062D01*
X182667081Y-113989068D01*
X182664367Y-113992162D01*
X182662078Y-113995588D01*
X182662074Y-113995593D01*
X182607269Y-114077615D01*
X182499885Y-114238327D01*
X182498061Y-114242026D01*
X182498058Y-114242031D01*
X182433928Y-114372074D01*
X182368941Y-114503855D01*
X182367616Y-114507760D01*
X182367615Y-114507761D01*
X182276989Y-114774739D01*
X182273776Y-114784203D01*
X182272972Y-114788247D01*
X182272970Y-114788253D01*
X182217260Y-115068327D01*
X182216017Y-115074574D01*
X182215748Y-115078679D01*
X182215747Y-115078686D01*
X182207070Y-115211080D01*
X182196654Y-115370000D01*
X182196924Y-115374119D01*
X182213581Y-115628253D01*
X182216017Y-115665426D01*
X182216819Y-115669459D01*
X182216820Y-115669465D01*
X182265576Y-115914574D01*
X182273776Y-115955797D01*
X182275103Y-115959706D01*
X182275104Y-115959710D01*
X182329534Y-116120055D01*
X182368941Y-116236145D01*
X182397674Y-116294409D01*
X182494777Y-116491314D01*
X182499885Y-116501673D01*
X182517455Y-116527969D01*
X182644419Y-116717983D01*
X182664367Y-116747838D01*
X182667081Y-116750932D01*
X182667085Y-116750938D01*
X182798852Y-116901188D01*
X182859573Y-116970427D01*
X182862662Y-116973136D01*
X183079062Y-117162915D01*
X183079068Y-117162919D01*
X183082162Y-117165633D01*
X183085588Y-117167922D01*
X183085593Y-117167926D01*
X183263968Y-117287112D01*
X183328327Y-117330115D01*
X183332026Y-117331939D01*
X183332031Y-117331942D01*
X183423631Y-117377114D01*
X183593855Y-117461059D01*
X183597760Y-117462384D01*
X183597761Y-117462385D01*
X183870290Y-117554896D01*
X183870294Y-117554897D01*
X183874203Y-117556224D01*
X183878247Y-117557028D01*
X183878253Y-117557030D01*
X184160535Y-117613180D01*
X184160541Y-117613181D01*
X184164574Y-117613983D01*
X184168679Y-117614252D01*
X184168686Y-117614253D01*
X184455881Y-117633076D01*
X184460000Y-117633346D01*
X184464119Y-117633076D01*
X184751314Y-117614253D01*
X184751321Y-117614252D01*
X184755426Y-117613983D01*
X184759459Y-117613181D01*
X184759465Y-117613180D01*
X185041747Y-117557030D01*
X185041753Y-117557028D01*
X185045797Y-117556224D01*
X185049706Y-117554897D01*
X185049710Y-117554896D01*
X185322239Y-117462385D01*
X185322240Y-117462384D01*
X185326145Y-117461059D01*
X185496369Y-117377114D01*
X185587969Y-117331942D01*
X185587974Y-117331939D01*
X185591673Y-117330115D01*
X185656032Y-117287112D01*
X185834407Y-117167926D01*
X185834412Y-117167922D01*
X185837838Y-117165633D01*
X185840932Y-117162919D01*
X185840938Y-117162915D01*
X186057338Y-116973136D01*
X186060427Y-116970427D01*
X186121148Y-116901188D01*
X186252915Y-116750938D01*
X186252919Y-116750932D01*
X186255633Y-116747838D01*
X186275582Y-116717983D01*
X186402545Y-116527969D01*
X186420115Y-116501673D01*
X186425224Y-116491314D01*
X186522326Y-116294409D01*
X186551059Y-116236145D01*
X186573512Y-116170000D01*
X188496654Y-116170000D01*
X188496924Y-116174119D01*
X188513063Y-116420353D01*
X188516017Y-116465426D01*
X188516819Y-116469459D01*
X188516820Y-116469465D01*
X188572809Y-116750938D01*
X188573776Y-116755797D01*
X188575103Y-116759706D01*
X188575104Y-116759710D01*
X188664385Y-117022724D01*
X188668941Y-117036145D01*
X188721252Y-117142222D01*
X188794512Y-117290777D01*
X188799885Y-117301673D01*
X188802179Y-117305106D01*
X188931892Y-117499235D01*
X188964367Y-117547838D01*
X188967081Y-117550932D01*
X188967085Y-117550938D01*
X189106285Y-117709664D01*
X189159573Y-117770427D01*
X189162662Y-117773136D01*
X189379062Y-117962915D01*
X189379068Y-117962919D01*
X189382162Y-117965633D01*
X189385588Y-117967922D01*
X189385593Y-117967926D01*
X189546271Y-118075287D01*
X189628327Y-118130115D01*
X189632026Y-118131939D01*
X189632031Y-118131942D01*
X189735583Y-118183008D01*
X189893855Y-118261059D01*
X189897760Y-118262384D01*
X189897761Y-118262385D01*
X190170290Y-118354896D01*
X190170294Y-118354897D01*
X190174203Y-118356224D01*
X190178247Y-118357028D01*
X190178253Y-118357030D01*
X190460535Y-118413180D01*
X190460541Y-118413181D01*
X190464574Y-118413983D01*
X190468679Y-118414252D01*
X190468686Y-118414253D01*
X190755881Y-118433076D01*
X190760000Y-118433346D01*
X190764119Y-118433076D01*
X191051314Y-118414253D01*
X191051321Y-118414252D01*
X191055426Y-118413983D01*
X191059459Y-118413181D01*
X191059465Y-118413180D01*
X191341747Y-118357030D01*
X191341753Y-118357028D01*
X191345797Y-118356224D01*
X191349706Y-118354897D01*
X191349710Y-118354896D01*
X191622239Y-118262385D01*
X191622240Y-118262384D01*
X191626145Y-118261059D01*
X191784417Y-118183008D01*
X191887969Y-118131942D01*
X191887974Y-118131939D01*
X191891673Y-118130115D01*
X191973729Y-118075287D01*
X192134407Y-117967926D01*
X192134412Y-117967922D01*
X192137838Y-117965633D01*
X192140932Y-117962919D01*
X192140938Y-117962915D01*
X192357338Y-117773136D01*
X192360427Y-117770427D01*
X192413715Y-117709664D01*
X192552915Y-117550938D01*
X192552919Y-117550932D01*
X192555633Y-117547838D01*
X192588109Y-117499235D01*
X192717821Y-117305106D01*
X192720115Y-117301673D01*
X192725489Y-117290777D01*
X192798748Y-117142222D01*
X192851059Y-117036145D01*
X192855615Y-117022724D01*
X192944896Y-116759710D01*
X192944897Y-116759706D01*
X192946224Y-116755797D01*
X192947191Y-116750938D01*
X193003180Y-116469465D01*
X193003181Y-116469459D01*
X193003983Y-116465426D01*
X193006938Y-116420353D01*
X193023076Y-116174119D01*
X193023346Y-116170000D01*
X193021590Y-116143202D01*
X193004253Y-115878686D01*
X193004252Y-115878679D01*
X193003983Y-115874574D01*
X192971141Y-115709465D01*
X192947030Y-115588253D01*
X192947028Y-115588247D01*
X192946224Y-115584203D01*
X192888489Y-115414119D01*
X192873512Y-115370000D01*
X194796654Y-115370000D01*
X194796924Y-115374119D01*
X194813581Y-115628253D01*
X194816017Y-115665426D01*
X194816819Y-115669459D01*
X194816820Y-115669465D01*
X194865576Y-115914574D01*
X194873776Y-115955797D01*
X194875103Y-115959706D01*
X194875104Y-115959710D01*
X194929534Y-116120055D01*
X194968941Y-116236145D01*
X194997674Y-116294409D01*
X195094777Y-116491314D01*
X195099885Y-116501673D01*
X195117455Y-116527969D01*
X195244419Y-116717983D01*
X195264367Y-116747838D01*
X195267081Y-116750932D01*
X195267085Y-116750938D01*
X195398852Y-116901188D01*
X195459573Y-116970427D01*
X195462662Y-116973136D01*
X195679062Y-117162915D01*
X195679068Y-117162919D01*
X195682162Y-117165633D01*
X195685588Y-117167922D01*
X195685593Y-117167926D01*
X195863968Y-117287112D01*
X195928327Y-117330115D01*
X195932026Y-117331939D01*
X195932031Y-117331942D01*
X196023631Y-117377114D01*
X196193855Y-117461059D01*
X196197760Y-117462384D01*
X196197761Y-117462385D01*
X196470290Y-117554896D01*
X196470294Y-117554897D01*
X196474203Y-117556224D01*
X196478247Y-117557028D01*
X196478253Y-117557030D01*
X196760535Y-117613180D01*
X196760541Y-117613181D01*
X196764574Y-117613983D01*
X196768679Y-117614252D01*
X196768686Y-117614253D01*
X197055881Y-117633076D01*
X197060000Y-117633346D01*
X197064119Y-117633076D01*
X197351314Y-117614253D01*
X197351321Y-117614252D01*
X197355426Y-117613983D01*
X197359459Y-117613181D01*
X197359465Y-117613180D01*
X197641747Y-117557030D01*
X197641753Y-117557028D01*
X197645797Y-117556224D01*
X197649706Y-117554897D01*
X197649710Y-117554896D01*
X197922239Y-117462385D01*
X197922240Y-117462384D01*
X197926145Y-117461059D01*
X198096369Y-117377114D01*
X198187969Y-117331942D01*
X198187974Y-117331939D01*
X198191673Y-117330115D01*
X198256032Y-117287112D01*
X198434407Y-117167926D01*
X198434412Y-117167922D01*
X198437838Y-117165633D01*
X198440932Y-117162919D01*
X198440938Y-117162915D01*
X198657338Y-116973136D01*
X198660427Y-116970427D01*
X198721148Y-116901188D01*
X198852915Y-116750938D01*
X198852919Y-116750932D01*
X198855633Y-116747838D01*
X198875582Y-116717983D01*
X199002545Y-116527969D01*
X199020115Y-116501673D01*
X199025224Y-116491314D01*
X199122326Y-116294409D01*
X199151059Y-116236145D01*
X199190466Y-116120055D01*
X199244896Y-115959710D01*
X199244897Y-115959706D01*
X199246224Y-115955797D01*
X199254424Y-115914574D01*
X199303180Y-115669465D01*
X199303181Y-115669459D01*
X199303983Y-115665426D01*
X199306420Y-115628253D01*
X199323076Y-115374119D01*
X199323346Y-115370000D01*
X199312930Y-115211080D01*
X199304253Y-115078686D01*
X199304252Y-115078679D01*
X199303983Y-115074574D01*
X199302741Y-115068327D01*
X199247030Y-114788253D01*
X199247028Y-114788247D01*
X199246224Y-114784203D01*
X199243012Y-114774739D01*
X199152385Y-114507761D01*
X199152384Y-114507760D01*
X199151059Y-114503855D01*
X199086072Y-114372074D01*
X199021942Y-114242031D01*
X199021939Y-114242026D01*
X199020115Y-114238327D01*
X198912731Y-114077615D01*
X198857926Y-113995593D01*
X198857922Y-113995588D01*
X198855633Y-113992162D01*
X198852919Y-113989068D01*
X198852915Y-113989062D01*
X198663136Y-113772662D01*
X198660427Y-113769573D01*
X198633656Y-113746095D01*
X198440938Y-113577085D01*
X198440932Y-113577081D01*
X198437838Y-113574367D01*
X198434412Y-113572078D01*
X198434407Y-113572074D01*
X198240004Y-113442179D01*
X198191673Y-113409885D01*
X198187974Y-113408061D01*
X198187969Y-113408058D01*
X198018864Y-113324665D01*
X197926145Y-113278941D01*
X197922239Y-113277615D01*
X197649710Y-113185104D01*
X197649706Y-113185103D01*
X197645797Y-113183776D01*
X197641753Y-113182972D01*
X197641747Y-113182970D01*
X197359465Y-113126820D01*
X197359459Y-113126819D01*
X197355426Y-113126017D01*
X197351321Y-113125748D01*
X197351314Y-113125747D01*
X197064119Y-113106924D01*
X197060000Y-113106654D01*
X197055881Y-113106924D01*
X196768686Y-113125747D01*
X196768679Y-113125748D01*
X196764574Y-113126017D01*
X196760541Y-113126819D01*
X196760535Y-113126820D01*
X196478253Y-113182970D01*
X196478247Y-113182972D01*
X196474203Y-113183776D01*
X196470294Y-113185103D01*
X196470290Y-113185104D01*
X196197761Y-113277615D01*
X196193855Y-113278941D01*
X196101136Y-113324665D01*
X195932031Y-113408058D01*
X195932026Y-113408061D01*
X195928327Y-113409885D01*
X195879996Y-113442179D01*
X195685593Y-113572074D01*
X195685588Y-113572078D01*
X195682162Y-113574367D01*
X195679068Y-113577081D01*
X195679062Y-113577085D01*
X195486344Y-113746095D01*
X195459573Y-113769573D01*
X195456864Y-113772662D01*
X195267085Y-113989062D01*
X195267081Y-113989068D01*
X195264367Y-113992162D01*
X195262078Y-113995588D01*
X195262074Y-113995593D01*
X195207269Y-114077615D01*
X195099885Y-114238327D01*
X195098061Y-114242026D01*
X195098058Y-114242031D01*
X195033928Y-114372074D01*
X194968941Y-114503855D01*
X194967616Y-114507760D01*
X194967615Y-114507761D01*
X194876989Y-114774739D01*
X194873776Y-114784203D01*
X194872972Y-114788247D01*
X194872970Y-114788253D01*
X194817260Y-115068327D01*
X194816017Y-115074574D01*
X194815748Y-115078679D01*
X194815747Y-115078686D01*
X194807070Y-115211080D01*
X194796654Y-115370000D01*
X192873512Y-115370000D01*
X192852385Y-115307761D01*
X192852384Y-115307760D01*
X192851059Y-115303855D01*
X192754812Y-115108686D01*
X192721942Y-115042031D01*
X192721939Y-115042026D01*
X192720115Y-115038327D01*
X192637946Y-114915352D01*
X192557926Y-114795593D01*
X192557922Y-114795588D01*
X192555633Y-114792162D01*
X192552919Y-114789068D01*
X192552915Y-114789062D01*
X192363136Y-114572662D01*
X192360427Y-114569573D01*
X192326885Y-114540157D01*
X192140938Y-114377085D01*
X192140932Y-114377081D01*
X192137838Y-114374367D01*
X192134412Y-114372078D01*
X192134407Y-114372074D01*
X191936571Y-114239885D01*
X191891673Y-114209885D01*
X191887974Y-114208061D01*
X191887969Y-114208058D01*
X191751687Y-114140852D01*
X191626145Y-114078941D01*
X191622239Y-114077615D01*
X191349710Y-113985104D01*
X191349706Y-113985103D01*
X191345797Y-113983776D01*
X191341753Y-113982972D01*
X191341747Y-113982970D01*
X191059465Y-113926820D01*
X191059459Y-113926819D01*
X191055426Y-113926017D01*
X191051321Y-113925748D01*
X191051314Y-113925747D01*
X190764119Y-113906924D01*
X190760000Y-113906654D01*
X190755881Y-113906924D01*
X190468686Y-113925747D01*
X190468679Y-113925748D01*
X190464574Y-113926017D01*
X190460541Y-113926819D01*
X190460535Y-113926820D01*
X190178253Y-113982970D01*
X190178247Y-113982972D01*
X190174203Y-113983776D01*
X190170294Y-113985103D01*
X190170290Y-113985104D01*
X189897761Y-114077615D01*
X189893855Y-114078941D01*
X189768313Y-114140852D01*
X189632031Y-114208058D01*
X189632026Y-114208061D01*
X189628327Y-114209885D01*
X189583429Y-114239885D01*
X189385593Y-114372074D01*
X189385588Y-114372078D01*
X189382162Y-114374367D01*
X189379068Y-114377081D01*
X189379062Y-114377085D01*
X189193115Y-114540157D01*
X189159573Y-114569573D01*
X189156864Y-114572662D01*
X188967085Y-114789062D01*
X188967081Y-114789068D01*
X188964367Y-114792162D01*
X188962078Y-114795588D01*
X188962074Y-114795593D01*
X188882054Y-114915352D01*
X188799885Y-115038327D01*
X188798061Y-115042026D01*
X188798058Y-115042031D01*
X188765188Y-115108686D01*
X188668941Y-115303855D01*
X188667616Y-115307760D01*
X188667615Y-115307761D01*
X188631512Y-115414119D01*
X188573776Y-115584203D01*
X188572972Y-115588247D01*
X188572970Y-115588253D01*
X188548860Y-115709465D01*
X188516017Y-115874574D01*
X188515748Y-115878679D01*
X188515747Y-115878686D01*
X188498410Y-116143202D01*
X188496654Y-116170000D01*
X186573512Y-116170000D01*
X186590466Y-116120055D01*
X186644896Y-115959710D01*
X186644897Y-115959706D01*
X186646224Y-115955797D01*
X186654424Y-115914574D01*
X186703180Y-115669465D01*
X186703181Y-115669459D01*
X186703983Y-115665426D01*
X186706420Y-115628253D01*
X186723076Y-115374119D01*
X186723346Y-115370000D01*
X186712930Y-115211080D01*
X186704253Y-115078686D01*
X186704252Y-115078679D01*
X186703983Y-115074574D01*
X186702741Y-115068327D01*
X186647030Y-114788253D01*
X186647028Y-114788247D01*
X186646224Y-114784203D01*
X186643012Y-114774739D01*
X186552385Y-114507761D01*
X186552384Y-114507760D01*
X186551059Y-114503855D01*
X186486072Y-114372074D01*
X186421942Y-114242031D01*
X186421939Y-114242026D01*
X186420115Y-114238327D01*
X186312731Y-114077615D01*
X186257926Y-113995593D01*
X186257922Y-113995588D01*
X186255633Y-113992162D01*
X186252919Y-113989068D01*
X186252915Y-113989062D01*
X186063136Y-113772662D01*
X186060427Y-113769573D01*
X185843384Y-113579231D01*
X185805358Y-113519278D01*
X185805780Y-113448283D01*
X185844519Y-113388786D01*
X185909274Y-113359678D01*
X185926463Y-113358500D01*
X186490162Y-113358500D01*
X186558283Y-113378502D01*
X186579257Y-113395405D01*
X186716998Y-113533146D01*
X186721506Y-113536303D01*
X186721509Y-113536305D01*
X186885805Y-113651346D01*
X186890932Y-113654936D01*
X187083373Y-113744672D01*
X187288473Y-113799629D01*
X187500000Y-113818135D01*
X187711527Y-113799629D01*
X187916627Y-113744672D01*
X188109068Y-113654936D01*
X188114195Y-113651346D01*
X188278491Y-113536305D01*
X188278494Y-113536303D01*
X188283002Y-113533146D01*
X188405905Y-113410243D01*
X188468217Y-113376217D01*
X188539032Y-113381282D01*
X188584095Y-113410243D01*
X188706998Y-113533146D01*
X188711506Y-113536303D01*
X188711509Y-113536305D01*
X188875805Y-113651346D01*
X188880932Y-113654936D01*
X189073373Y-113744672D01*
X189278473Y-113799629D01*
X189490000Y-113818135D01*
X189701527Y-113799629D01*
X189906627Y-113744672D01*
X190099068Y-113654936D01*
X190104195Y-113651346D01*
X190268491Y-113536305D01*
X190268494Y-113536303D01*
X190273002Y-113533146D01*
X190423146Y-113383002D01*
X190431536Y-113371021D01*
X190541779Y-113213577D01*
X190541780Y-113213575D01*
X190544936Y-113209068D01*
X190634672Y-113016627D01*
X190638293Y-113003114D01*
X190675244Y-112942492D01*
X190739105Y-112911470D01*
X190809599Y-112919898D01*
X190864346Y-112965101D01*
X190881707Y-113003114D01*
X190885328Y-113016627D01*
X190975064Y-113209068D01*
X190978220Y-113213575D01*
X190978221Y-113213577D01*
X191088465Y-113371021D01*
X191096854Y-113383002D01*
X191246998Y-113533146D01*
X191251506Y-113536303D01*
X191251509Y-113536305D01*
X191415805Y-113651346D01*
X191420932Y-113654936D01*
X191613373Y-113744672D01*
X191818473Y-113799629D01*
X192030000Y-113818135D01*
X192241527Y-113799629D01*
X192446627Y-113744672D01*
X192639068Y-113654936D01*
X192644195Y-113651346D01*
X192692032Y-113617850D01*
X193366704Y-113617850D01*
X193376001Y-113629866D01*
X193406678Y-113651346D01*
X193416164Y-113656824D01*
X193598563Y-113741878D01*
X193608855Y-113745624D01*
X193803245Y-113797710D01*
X193814040Y-113799613D01*
X194014525Y-113817154D01*
X194025475Y-113817154D01*
X194225960Y-113799613D01*
X194236755Y-113797710D01*
X194431145Y-113745624D01*
X194441437Y-113741878D01*
X194623836Y-113656824D01*
X194633322Y-113651346D01*
X194664837Y-113629280D01*
X194673212Y-113618802D01*
X194666144Y-113605354D01*
X194032812Y-112972022D01*
X194018868Y-112964408D01*
X194017035Y-112964539D01*
X194010420Y-112968790D01*
X193373134Y-113606076D01*
X193366704Y-113617850D01*
X192692032Y-113617850D01*
X192808491Y-113536305D01*
X192808494Y-113536303D01*
X192813002Y-113533146D01*
X192963146Y-113383002D01*
X192971536Y-113371021D01*
X193081779Y-113213577D01*
X193081780Y-113213575D01*
X193084936Y-113209068D01*
X193087259Y-113204086D01*
X193087262Y-113204081D01*
X193104568Y-113166967D01*
X193129668Y-113131122D01*
X193647978Y-112612812D01*
X193654356Y-112601132D01*
X194384408Y-112601132D01*
X194384539Y-112602965D01*
X194388790Y-112609580D01*
X195026076Y-113246866D01*
X195037850Y-113253296D01*
X195049866Y-113243999D01*
X195071346Y-113213322D01*
X195076824Y-113203836D01*
X195161878Y-113021437D01*
X195165624Y-113011145D01*
X195217710Y-112816755D01*
X195219613Y-112805960D01*
X195237154Y-112605475D01*
X195237154Y-112594525D01*
X195219613Y-112394040D01*
X195217710Y-112383245D01*
X195165624Y-112188855D01*
X195161878Y-112178563D01*
X195076828Y-111996174D01*
X195071342Y-111986672D01*
X195049278Y-111955163D01*
X195038801Y-111946788D01*
X195025353Y-111953857D01*
X194392022Y-112587188D01*
X194384408Y-112601132D01*
X193654356Y-112601132D01*
X193655592Y-112598868D01*
X193655461Y-112597035D01*
X193651210Y-112590420D01*
X193129667Y-112068877D01*
X193104567Y-112033032D01*
X193087259Y-111995914D01*
X193087257Y-111995911D01*
X193084936Y-111990933D01*
X192963146Y-111816998D01*
X192813002Y-111666854D01*
X192808494Y-111663697D01*
X192808491Y-111663695D01*
X192643577Y-111548221D01*
X192643574Y-111548219D01*
X192639068Y-111545064D01*
X192446627Y-111455328D01*
X192241527Y-111400371D01*
X192030000Y-111381865D01*
X191818473Y-111400371D01*
X191613373Y-111455328D01*
X191517475Y-111500046D01*
X191425914Y-111542741D01*
X191425911Y-111542743D01*
X191420933Y-111545064D01*
X191246998Y-111666854D01*
X191096854Y-111816998D01*
X190975064Y-111990933D01*
X190972743Y-111995911D01*
X190972741Y-111995914D01*
X190963062Y-112016672D01*
X190885328Y-112183373D01*
X190883905Y-112188682D01*
X190883904Y-112188686D01*
X190881707Y-112196886D01*
X190844756Y-112257508D01*
X190780895Y-112288530D01*
X190710401Y-112280102D01*
X190655654Y-112234899D01*
X190638293Y-112196886D01*
X190636096Y-112188686D01*
X190636095Y-112188682D01*
X190634672Y-112183373D01*
X190556938Y-112016672D01*
X190547259Y-111995914D01*
X190547257Y-111995911D01*
X190544936Y-111990933D01*
X190423146Y-111816998D01*
X190273002Y-111666854D01*
X190268494Y-111663697D01*
X190268491Y-111663695D01*
X190103577Y-111548221D01*
X190103574Y-111548219D01*
X190099068Y-111545064D01*
X189906627Y-111455328D01*
X189701527Y-111400371D01*
X189490000Y-111381865D01*
X189278473Y-111400371D01*
X189073373Y-111455328D01*
X188977475Y-111500046D01*
X188885914Y-111542741D01*
X188885911Y-111542743D01*
X188880933Y-111545064D01*
X188706998Y-111666854D01*
X188584095Y-111789757D01*
X188521783Y-111823783D01*
X188450968Y-111818718D01*
X188405905Y-111789757D01*
X188283002Y-111666854D01*
X188278494Y-111663697D01*
X188278491Y-111663695D01*
X188113577Y-111548221D01*
X188113574Y-111548219D01*
X188109068Y-111545064D01*
X187916627Y-111455328D01*
X187911318Y-111453905D01*
X187911314Y-111453904D01*
X187903114Y-111451707D01*
X187842492Y-111414756D01*
X187811470Y-111350895D01*
X187819898Y-111280401D01*
X187865101Y-111225654D01*
X187903114Y-111208293D01*
X187911314Y-111206096D01*
X187911318Y-111206095D01*
X187916627Y-111204672D01*
X188109068Y-111114936D01*
X188113577Y-111111779D01*
X188278491Y-110996305D01*
X188278494Y-110996303D01*
X188283002Y-110993146D01*
X188433146Y-110843002D01*
X188437156Y-110837276D01*
X188551779Y-110673577D01*
X188551780Y-110673575D01*
X188554936Y-110669068D01*
X188644672Y-110476627D01*
X188699629Y-110271527D01*
X188718135Y-110060000D01*
X188699629Y-109848473D01*
X188644672Y-109643373D01*
X188581782Y-109508504D01*
X188557259Y-109455914D01*
X188557257Y-109455911D01*
X188554936Y-109450933D01*
X188433146Y-109276998D01*
X188283002Y-109126854D01*
X188278494Y-109123697D01*
X188278491Y-109123695D01*
X188113577Y-109008221D01*
X188113574Y-109008219D01*
X188109068Y-109005064D01*
X187916627Y-108915328D01*
X187711527Y-108860371D01*
X187500000Y-108841865D01*
X187288473Y-108860371D01*
X187083373Y-108915328D01*
X186991601Y-108958122D01*
X186895914Y-109002741D01*
X186895911Y-109002743D01*
X186890933Y-109005064D01*
X186716998Y-109126854D01*
X186566854Y-109276998D01*
X186445064Y-109450933D01*
X186442743Y-109455911D01*
X186442741Y-109455914D01*
X186418218Y-109508504D01*
X186355328Y-109643373D01*
X186300371Y-109848473D01*
X186281865Y-110060000D01*
X186300371Y-110271527D01*
X186355328Y-110476627D01*
X186445064Y-110669068D01*
X186448220Y-110673575D01*
X186448221Y-110673577D01*
X186562845Y-110837276D01*
X186566854Y-110843002D01*
X186716998Y-110993146D01*
X186721506Y-110996303D01*
X186721509Y-110996305D01*
X186886423Y-111111779D01*
X186890932Y-111114936D01*
X187083373Y-111204672D01*
X187088682Y-111206095D01*
X187088686Y-111206096D01*
X187096886Y-111208293D01*
X187157508Y-111245244D01*
X187188530Y-111309105D01*
X187180102Y-111379599D01*
X187134899Y-111434346D01*
X187096886Y-111451707D01*
X187088686Y-111453904D01*
X187088682Y-111453905D01*
X187083373Y-111455328D01*
X186987475Y-111500046D01*
X186895914Y-111542741D01*
X186895911Y-111542743D01*
X186890933Y-111545064D01*
X186716998Y-111666854D01*
X186579257Y-111804595D01*
X186516945Y-111838621D01*
X186490162Y-111841500D01*
X182437375Y-111841500D01*
X182369254Y-111821498D01*
X182322761Y-111767842D01*
X182317770Y-111755132D01*
X182297412Y-111693695D01*
X182267115Y-111602262D01*
X182194401Y-111484375D01*
X182177884Y-111457596D01*
X182177883Y-111457595D01*
X182174030Y-111451348D01*
X182048652Y-111325970D01*
X182023833Y-111310661D01*
X181982625Y-111285244D01*
X181978353Y-111282609D01*
X181930875Y-111229823D01*
X181918500Y-111175368D01*
X181918500Y-110624442D01*
X181919830Y-110606180D01*
X181920726Y-110600065D01*
X181923341Y-110582211D01*
X181918979Y-110532354D01*
X181918500Y-110521372D01*
X181918500Y-110515820D01*
X181918075Y-110512180D01*
X181918074Y-110512170D01*
X181914865Y-110484713D01*
X181914493Y-110481071D01*
X181908527Y-110412889D01*
X181907887Y-110405574D01*
X181905578Y-110398605D01*
X181904895Y-110395299D01*
X181904826Y-110394873D01*
X181904706Y-110394449D01*
X181903931Y-110391179D01*
X181903079Y-110383887D01*
X181900571Y-110376996D01*
X181900570Y-110376992D01*
X181877146Y-110312635D01*
X181875944Y-110309175D01*
X181863469Y-110271527D01*
X181852114Y-110237262D01*
X181848261Y-110231016D01*
X181846841Y-110227970D01*
X181846670Y-110227558D01*
X181846469Y-110227197D01*
X181844943Y-110224158D01*
X181842435Y-110217268D01*
X181838406Y-110211143D01*
X181838402Y-110211134D01*
X181800772Y-110153921D01*
X181798802Y-110150829D01*
X181762886Y-110092599D01*
X181762882Y-110092593D01*
X181759030Y-110086349D01*
X181753837Y-110081156D01*
X181751758Y-110078527D01*
X181751496Y-110078164D01*
X181751210Y-110077852D01*
X181749036Y-110075261D01*
X181745001Y-110069126D01*
X181689825Y-110017070D01*
X181687198Y-110014517D01*
X181545405Y-109872724D01*
X181511379Y-109810412D01*
X181508500Y-109783629D01*
X181508500Y-108559500D01*
X181528502Y-108491379D01*
X181582158Y-108444886D01*
X181634500Y-108433500D01*
X191445406Y-108433500D01*
X191513527Y-108453502D01*
X191534501Y-108470405D01*
X192788415Y-109724319D01*
X192822441Y-109786631D01*
X192821228Y-109837472D01*
X192822750Y-109837740D01*
X192821794Y-109843163D01*
X192820371Y-109848473D01*
X192801865Y-110060000D01*
X192820371Y-110271527D01*
X192875328Y-110476627D01*
X192965064Y-110669068D01*
X192968220Y-110673575D01*
X192968221Y-110673577D01*
X193082845Y-110837276D01*
X193086854Y-110843002D01*
X193236998Y-110993146D01*
X193241506Y-110996303D01*
X193241509Y-110996305D01*
X193406423Y-111111779D01*
X193410932Y-111114936D01*
X193603373Y-111204672D01*
X193608687Y-111206096D01*
X193608690Y-111206097D01*
X193617854Y-111208553D01*
X193678476Y-111245506D01*
X193709496Y-111309367D01*
X193701066Y-111379862D01*
X193655862Y-111434607D01*
X193617849Y-111451966D01*
X193608859Y-111454375D01*
X193598563Y-111458122D01*
X193416174Y-111543172D01*
X193406672Y-111548658D01*
X193375163Y-111570722D01*
X193366788Y-111581199D01*
X193373857Y-111594647D01*
X194007188Y-112227978D01*
X194021132Y-112235592D01*
X194022965Y-112235461D01*
X194029580Y-112231210D01*
X194666866Y-111593924D01*
X194673296Y-111582150D01*
X194663999Y-111570134D01*
X194633322Y-111548654D01*
X194623836Y-111543176D01*
X194441437Y-111458122D01*
X194431141Y-111454375D01*
X194422151Y-111451966D01*
X194361528Y-111415016D01*
X194330505Y-111351156D01*
X194338932Y-111280661D01*
X194384134Y-111225913D01*
X194422146Y-111208553D01*
X194431310Y-111206097D01*
X194431313Y-111206096D01*
X194436627Y-111204672D01*
X194629068Y-111114936D01*
X194633577Y-111111779D01*
X194798491Y-110996305D01*
X194798494Y-110996303D01*
X194803002Y-110993146D01*
X194953146Y-110843002D01*
X194957156Y-110837276D01*
X195071779Y-110673577D01*
X195071780Y-110673575D01*
X195074936Y-110669068D01*
X195164672Y-110476627D01*
X195219629Y-110271527D01*
X195238135Y-110060000D01*
X195219629Y-109848473D01*
X195164672Y-109643373D01*
X195101782Y-109508504D01*
X195077259Y-109455914D01*
X195077257Y-109455911D01*
X195074936Y-109450933D01*
X194953146Y-109276998D01*
X194803002Y-109126854D01*
X194798494Y-109123697D01*
X194798491Y-109123695D01*
X194633577Y-109008221D01*
X194633574Y-109008219D01*
X194629068Y-109005064D01*
X194436627Y-108915328D01*
X194231527Y-108860371D01*
X194020000Y-108841865D01*
X193808473Y-108860371D01*
X193803163Y-108861794D01*
X193797740Y-108862750D01*
X193797399Y-108860818D01*
X193735064Y-108859342D01*
X193684319Y-108828415D01*
X192992878Y-108136973D01*
X192263652Y-107407747D01*
X192256112Y-107399461D01*
X192252000Y-107392982D01*
X192202348Y-107346356D01*
X192199507Y-107343602D01*
X192179770Y-107323865D01*
X192176573Y-107321385D01*
X192167551Y-107313680D01*
X192135321Y-107283414D01*
X192128375Y-107279595D01*
X192128372Y-107279593D01*
X192117566Y-107273652D01*
X192101047Y-107262801D01*
X192100583Y-107262441D01*
X192085041Y-107250386D01*
X192077772Y-107247241D01*
X192077768Y-107247238D01*
X192044463Y-107232826D01*
X192033813Y-107227609D01*
X191995060Y-107206305D01*
X191975437Y-107201267D01*
X191956734Y-107194863D01*
X191945420Y-107189967D01*
X191945419Y-107189967D01*
X191938145Y-107186819D01*
X191930322Y-107185580D01*
X191930312Y-107185577D01*
X191894476Y-107179901D01*
X191882856Y-107177495D01*
X191847711Y-107168472D01*
X191847710Y-107168472D01*
X191840030Y-107166500D01*
X191819776Y-107166500D01*
X191800065Y-107164949D01*
X191787886Y-107163020D01*
X191780057Y-107161780D01*
X191749855Y-107164635D01*
X191736039Y-107165941D01*
X191724181Y-107166500D01*
X181567925Y-107166500D01*
X181499804Y-107146498D01*
X181453311Y-107092842D01*
X181443207Y-107022568D01*
X181446218Y-107007889D01*
X181491625Y-106838425D01*
X181493528Y-106827632D01*
X181512517Y-106610588D01*
X181512517Y-106599638D01*
X181493528Y-106382594D01*
X181491625Y-106371801D01*
X181435236Y-106161352D01*
X181431490Y-106151060D01*
X181339414Y-105953602D01*
X181333931Y-105944107D01*
X181297491Y-105892065D01*
X181287012Y-105883689D01*
X181273566Y-105890757D01*
X180289095Y-106875228D01*
X180226783Y-106909254D01*
X180155968Y-106904189D01*
X180110905Y-106875228D01*
X179125713Y-105890036D01*
X179113938Y-105883606D01*
X179101923Y-105892902D01*
X179066069Y-105944107D01*
X179060586Y-105953602D01*
X178968510Y-106151060D01*
X178964764Y-106161352D01*
X178908375Y-106371801D01*
X178906472Y-106382594D01*
X178887483Y-106599638D01*
X178887483Y-106610588D01*
X178906472Y-106827632D01*
X178908375Y-106838425D01*
X178953782Y-107007889D01*
X178952092Y-107078866D01*
X178912298Y-107137661D01*
X178847033Y-107165609D01*
X178832075Y-107166500D01*
X175728767Y-107166500D01*
X175717584Y-107165973D01*
X175710091Y-107164298D01*
X175702165Y-107164547D01*
X175702164Y-107164547D01*
X175642014Y-107166438D01*
X175638055Y-107166500D01*
X175610144Y-107166500D01*
X175606210Y-107166997D01*
X175606209Y-107166997D01*
X175606144Y-107167005D01*
X175594307Y-107167938D01*
X175562049Y-107168952D01*
X175558030Y-107169078D01*
X175550111Y-107169327D01*
X175530657Y-107174979D01*
X175511300Y-107178987D01*
X175499070Y-107180532D01*
X175499069Y-107180532D01*
X175491203Y-107181526D01*
X175483832Y-107184445D01*
X175483830Y-107184445D01*
X175450088Y-107197804D01*
X175438858Y-107201649D01*
X175404017Y-107211771D01*
X175404016Y-107211771D01*
X175396407Y-107213982D01*
X175389588Y-107218015D01*
X175389583Y-107218017D01*
X175378972Y-107224293D01*
X175361224Y-107232988D01*
X175342383Y-107240448D01*
X175335967Y-107245110D01*
X175335966Y-107245110D01*
X175306613Y-107266436D01*
X175296693Y-107272952D01*
X175265465Y-107291420D01*
X175265462Y-107291422D01*
X175258638Y-107295458D01*
X175244317Y-107309779D01*
X175229284Y-107322619D01*
X175212893Y-107334528D01*
X175185886Y-107367174D01*
X175184702Y-107368605D01*
X175176712Y-107377384D01*
X173695681Y-108858415D01*
X173633369Y-108892441D01*
X173582528Y-108891228D01*
X173582260Y-108892750D01*
X173576837Y-108891794D01*
X173571527Y-108890371D01*
X173360000Y-108871865D01*
X173148473Y-108890371D01*
X172943373Y-108945328D01*
X172831598Y-108997449D01*
X172755914Y-109032741D01*
X172755911Y-109032743D01*
X172750933Y-109035064D01*
X172576998Y-109156854D01*
X172426854Y-109306998D01*
X172395711Y-109351475D01*
X172359794Y-109402770D01*
X172304337Y-109447099D01*
X172256581Y-109456500D01*
X172204594Y-109456500D01*
X172136473Y-109436498D01*
X172115499Y-109419595D01*
X168214005Y-105518101D01*
X179478576Y-105518101D01*
X179485644Y-105531547D01*
X180187188Y-106233091D01*
X180201132Y-106240705D01*
X180202965Y-106240574D01*
X180209580Y-106236323D01*
X180915077Y-105530826D01*
X180921507Y-105519051D01*
X180912211Y-105507036D01*
X180861006Y-105471182D01*
X180851511Y-105465699D01*
X180654053Y-105373623D01*
X180643761Y-105369877D01*
X180433312Y-105313488D01*
X180422519Y-105311585D01*
X180205475Y-105292596D01*
X180194525Y-105292596D01*
X179977481Y-105311585D01*
X179966688Y-105313488D01*
X179756239Y-105369877D01*
X179745947Y-105373623D01*
X179548489Y-105465699D01*
X179538994Y-105471182D01*
X179486952Y-105507622D01*
X179478576Y-105518101D01*
X168214005Y-105518101D01*
X165497182Y-102801278D01*
X165463157Y-102738967D01*
X165468222Y-102668152D01*
X165510769Y-102611316D01*
X165577289Y-102586505D01*
X165612475Y-102588937D01*
X165698056Y-102607128D01*
X165698061Y-102607128D01*
X165704513Y-102608500D01*
X165895487Y-102608500D01*
X165901939Y-102607128D01*
X165901944Y-102607128D01*
X165988887Y-102588647D01*
X166082288Y-102568794D01*
X166088319Y-102566109D01*
X166250722Y-102493803D01*
X166250724Y-102493802D01*
X166256752Y-102491118D01*
X166276816Y-102476541D01*
X166365400Y-102412180D01*
X166411253Y-102378866D01*
X166415675Y-102373954D01*
X166420577Y-102369541D01*
X166421734Y-102370826D01*
X166474901Y-102338071D01*
X166504137Y-102333683D01*
X166507992Y-102333562D01*
X166511945Y-102333500D01*
X166539856Y-102333500D01*
X166543791Y-102333003D01*
X166543856Y-102332995D01*
X166555693Y-102332062D01*
X166587951Y-102331048D01*
X166591970Y-102330922D01*
X166599889Y-102330673D01*
X166619343Y-102325021D01*
X166638700Y-102321013D01*
X166650930Y-102319468D01*
X166650931Y-102319468D01*
X166658797Y-102318474D01*
X166666168Y-102315555D01*
X166666170Y-102315555D01*
X166699912Y-102302196D01*
X166711142Y-102298351D01*
X166745983Y-102288229D01*
X166745984Y-102288229D01*
X166753593Y-102286018D01*
X166760412Y-102281985D01*
X166760417Y-102281983D01*
X166771028Y-102275707D01*
X166788776Y-102267012D01*
X166807617Y-102259552D01*
X166819873Y-102250648D01*
X166843387Y-102233564D01*
X166853302Y-102227051D01*
X166875165Y-102214121D01*
X166943982Y-102196662D01*
X167014812Y-102221706D01*
X167053796Y-102250889D01*
X167190799Y-102301989D01*
X167227705Y-102305957D01*
X167248012Y-102308140D01*
X167248015Y-102308140D01*
X167251362Y-102308500D01*
X168948638Y-102308500D01*
X168951985Y-102308140D01*
X168951988Y-102308140D01*
X168972295Y-102305957D01*
X169009201Y-102301989D01*
X169146204Y-102250889D01*
X169163739Y-102237763D01*
X169256050Y-102168659D01*
X169263261Y-102163261D01*
X169309590Y-102101373D01*
X169345489Y-102053418D01*
X169345490Y-102053416D01*
X169350889Y-102046204D01*
X169401989Y-101909201D01*
X169408500Y-101848638D01*
X173991500Y-101848638D01*
X173998011Y-101909201D01*
X174049111Y-102046204D01*
X174054510Y-102053416D01*
X174054511Y-102053418D01*
X174090410Y-102101373D01*
X174136739Y-102163261D01*
X174143950Y-102168659D01*
X174236262Y-102237763D01*
X174253796Y-102250889D01*
X174390799Y-102301989D01*
X174427705Y-102305957D01*
X174448012Y-102308140D01*
X174448015Y-102308140D01*
X174451362Y-102308500D01*
X176148638Y-102308500D01*
X176151985Y-102308140D01*
X176151988Y-102308140D01*
X176172295Y-102305957D01*
X176209201Y-102301989D01*
X176346204Y-102250889D01*
X176363739Y-102237763D01*
X176456050Y-102168659D01*
X176463261Y-102163261D01*
X176550889Y-102046204D01*
X176554037Y-102037763D01*
X176556752Y-102032792D01*
X176606955Y-101982591D01*
X176676329Y-101967501D01*
X176742849Y-101992313D01*
X176785395Y-102049150D01*
X176792986Y-102083764D01*
X176805106Y-102245489D01*
X176805845Y-102255353D01*
X176806895Y-102259952D01*
X176806895Y-102259954D01*
X176859886Y-102492119D01*
X176862826Y-102505001D01*
X176864548Y-102509389D01*
X176864550Y-102509395D01*
X176954568Y-102738758D01*
X176956378Y-102743369D01*
X176958738Y-102747456D01*
X177079519Y-102956654D01*
X177084413Y-102965131D01*
X177087345Y-102968808D01*
X177087348Y-102968812D01*
X177241134Y-103161654D01*
X177244069Y-103165334D01*
X177431781Y-103339505D01*
X177529427Y-103406079D01*
X177638823Y-103480664D01*
X177643355Y-103483754D01*
X177647600Y-103485798D01*
X177647603Y-103485800D01*
X177869816Y-103592812D01*
X177874065Y-103594858D01*
X178118757Y-103670335D01*
X178123407Y-103671036D01*
X178123412Y-103671037D01*
X178211296Y-103684283D01*
X178371966Y-103708500D01*
X178628034Y-103708500D01*
X178788704Y-103684283D01*
X178876588Y-103671037D01*
X178876593Y-103671036D01*
X178881243Y-103670335D01*
X179125935Y-103594858D01*
X179130184Y-103592812D01*
X179352396Y-103485801D01*
X179352399Y-103485799D01*
X179356646Y-103483754D01*
X179430536Y-103433376D01*
X179564331Y-103342156D01*
X179564333Y-103342155D01*
X179568219Y-103339505D01*
X179572092Y-103335912D01*
X179752481Y-103168535D01*
X179755931Y-103165334D01*
X179758866Y-103161654D01*
X179912652Y-102968812D01*
X179912655Y-102968808D01*
X179915587Y-102965131D01*
X179920482Y-102956654D01*
X180041262Y-102747456D01*
X180043622Y-102743369D01*
X180045432Y-102738758D01*
X180135450Y-102509395D01*
X180135452Y-102509389D01*
X180137174Y-102505001D01*
X180140114Y-102492119D01*
X180192092Y-102264393D01*
X189508422Y-102264393D01*
X189562255Y-102500253D01*
X189565029Y-102509247D01*
X189655106Y-102738758D01*
X189659190Y-102747238D01*
X189782471Y-102960768D01*
X189787762Y-102968529D01*
X189941502Y-103161312D01*
X189947887Y-103168193D01*
X190128645Y-103335912D01*
X190135982Y-103341763D01*
X190339712Y-103480664D01*
X190347856Y-103485366D01*
X190569999Y-103592344D01*
X190578755Y-103595780D01*
X190814367Y-103668457D01*
X190823524Y-103670548D01*
X190928089Y-103686308D01*
X190941913Y-103684417D01*
X190945934Y-103670893D01*
X191454000Y-103670893D01*
X191457932Y-103684283D01*
X191472130Y-103686275D01*
X191576476Y-103670548D01*
X191585633Y-103668457D01*
X191821245Y-103595780D01*
X191830001Y-103592344D01*
X192052145Y-103485366D01*
X192060289Y-103480664D01*
X192264018Y-103341763D01*
X192271355Y-103335912D01*
X192452113Y-103168193D01*
X192458498Y-103161312D01*
X192612238Y-102968529D01*
X192617529Y-102960768D01*
X192740810Y-102747238D01*
X192744894Y-102738758D01*
X192834971Y-102509247D01*
X192837745Y-102500253D01*
X192891154Y-102266251D01*
X192889159Y-102256917D01*
X192877816Y-102254000D01*
X191472115Y-102254000D01*
X191456876Y-102258475D01*
X191455671Y-102259865D01*
X191454000Y-102267548D01*
X191454000Y-103670893D01*
X190945934Y-103670893D01*
X190946000Y-103670671D01*
X190946000Y-102272115D01*
X190941525Y-102256876D01*
X190940135Y-102255671D01*
X190932452Y-102254000D01*
X189524360Y-102254000D01*
X189509498Y-102258364D01*
X189508422Y-102264393D01*
X180192092Y-102264393D01*
X180193105Y-102259954D01*
X180193105Y-102259952D01*
X180194155Y-102255353D01*
X180194895Y-102245489D01*
X180212939Y-102004697D01*
X180213291Y-102000000D01*
X180210217Y-101958979D01*
X180194508Y-101749352D01*
X180194507Y-101749347D01*
X180194155Y-101744647D01*
X180191668Y-101733749D01*
X189508846Y-101733749D01*
X189510841Y-101743083D01*
X189522184Y-101746000D01*
X190927885Y-101746000D01*
X190943124Y-101741525D01*
X190944329Y-101740135D01*
X190946000Y-101732452D01*
X190946000Y-101727885D01*
X191454000Y-101727885D01*
X191458475Y-101743124D01*
X191459865Y-101744329D01*
X191467548Y-101746000D01*
X192875640Y-101746000D01*
X192890502Y-101741636D01*
X192891578Y-101735607D01*
X192837745Y-101499747D01*
X192834971Y-101490753D01*
X192744894Y-101261242D01*
X192740810Y-101252762D01*
X192617529Y-101039232D01*
X192612238Y-101031471D01*
X192458498Y-100838688D01*
X192452113Y-100831807D01*
X192271355Y-100664088D01*
X192264018Y-100658237D01*
X192060289Y-100519336D01*
X192052145Y-100514634D01*
X191830001Y-100407656D01*
X191821245Y-100404220D01*
X191585633Y-100331543D01*
X191576476Y-100329452D01*
X191471911Y-100313692D01*
X191458087Y-100315583D01*
X191454000Y-100329329D01*
X191454000Y-101727885D01*
X190946000Y-101727885D01*
X190946000Y-100329107D01*
X190942068Y-100315717D01*
X190927870Y-100313725D01*
X190823524Y-100329452D01*
X190814367Y-100331543D01*
X190578755Y-100404220D01*
X190569999Y-100407656D01*
X190347856Y-100514634D01*
X190339712Y-100519336D01*
X190135982Y-100658237D01*
X190128645Y-100664088D01*
X189947887Y-100831807D01*
X189941502Y-100838688D01*
X189787762Y-101031471D01*
X189782471Y-101039232D01*
X189659190Y-101252762D01*
X189655106Y-101261242D01*
X189565029Y-101490753D01*
X189562255Y-101499747D01*
X189508846Y-101733749D01*
X180191668Y-101733749D01*
X180172380Y-101649243D01*
X180138224Y-101499599D01*
X180138224Y-101499598D01*
X180137174Y-101494999D01*
X180135452Y-101490611D01*
X180135450Y-101490605D01*
X180045346Y-101261023D01*
X180045345Y-101261020D01*
X180043622Y-101256631D01*
X179915587Y-101034869D01*
X179908551Y-101026045D01*
X179758866Y-100838346D01*
X179758864Y-100838344D01*
X179755931Y-100834666D01*
X179623798Y-100712065D01*
X179571668Y-100663695D01*
X179571666Y-100663694D01*
X179568219Y-100660495D01*
X179539092Y-100640636D01*
X179360540Y-100518901D01*
X179356646Y-100516246D01*
X179352399Y-100514201D01*
X179352396Y-100514199D01*
X179130184Y-100407188D01*
X179130182Y-100407187D01*
X179125935Y-100405142D01*
X178881243Y-100329665D01*
X178876593Y-100328964D01*
X178876588Y-100328963D01*
X178790721Y-100316021D01*
X178726342Y-100286089D01*
X178688365Y-100226103D01*
X178683500Y-100191428D01*
X178683500Y-98936640D01*
X178703502Y-98868519D01*
X178743352Y-98829400D01*
X178873652Y-98749030D01*
X178961259Y-98661423D01*
X179023571Y-98627397D01*
X179094386Y-98632462D01*
X179139449Y-98661423D01*
X179221468Y-98743442D01*
X179232908Y-98752488D01*
X179371233Y-98837808D01*
X179384435Y-98843964D01*
X179539154Y-98895233D01*
X179552512Y-98898092D01*
X179646307Y-98907675D01*
X179652697Y-98908000D01*
X179777885Y-98908000D01*
X179793124Y-98903525D01*
X179794329Y-98902135D01*
X179796000Y-98894452D01*
X179796000Y-98889885D01*
X180304000Y-98889885D01*
X180308475Y-98905124D01*
X180309865Y-98906329D01*
X180317548Y-98908000D01*
X180447303Y-98908000D01*
X180453693Y-98907675D01*
X180547488Y-98898092D01*
X180560846Y-98895233D01*
X180715565Y-98843964D01*
X180728767Y-98837808D01*
X180867092Y-98752488D01*
X180878532Y-98743442D01*
X180993442Y-98628532D01*
X181002488Y-98617092D01*
X181087808Y-98478767D01*
X181093964Y-98465565D01*
X181145233Y-98310846D01*
X181148092Y-98297488D01*
X181157675Y-98203693D01*
X181158000Y-98197303D01*
X181158000Y-97972115D01*
X181153525Y-97956876D01*
X181152135Y-97955671D01*
X181144452Y-97954000D01*
X180322115Y-97954000D01*
X180306876Y-97958475D01*
X180305671Y-97959865D01*
X180304000Y-97967548D01*
X180304000Y-98889885D01*
X179796000Y-98889885D01*
X179796000Y-97427885D01*
X180304000Y-97427885D01*
X180308475Y-97443124D01*
X180309865Y-97444329D01*
X180317548Y-97446000D01*
X181139885Y-97446000D01*
X181155124Y-97441525D01*
X181156329Y-97440135D01*
X181158000Y-97432452D01*
X181158000Y-97367765D01*
X194245788Y-97367765D01*
X194275414Y-97637018D01*
X194276576Y-97641463D01*
X194276577Y-97641468D01*
X194338623Y-97878797D01*
X194343928Y-97899088D01*
X194345729Y-97903326D01*
X194444244Y-98135150D01*
X194449870Y-98148390D01*
X194452263Y-98152311D01*
X194452266Y-98152317D01*
X194522000Y-98266579D01*
X194590982Y-98379610D01*
X194764255Y-98587820D01*
X194767679Y-98590888D01*
X194767683Y-98590892D01*
X194843663Y-98658970D01*
X194965998Y-98768582D01*
X195026881Y-98808862D01*
X195178544Y-98909201D01*
X195191910Y-98918044D01*
X195324104Y-98980014D01*
X195433007Y-99031066D01*
X195433011Y-99031068D01*
X195437176Y-99033020D01*
X195696569Y-99111060D01*
X195701126Y-99111731D01*
X195701132Y-99111732D01*
X195959999Y-99149829D01*
X195960004Y-99149829D01*
X195964561Y-99150500D01*
X196167631Y-99150500D01*
X196370156Y-99135677D01*
X196374647Y-99134677D01*
X196374651Y-99134676D01*
X196630061Y-99077781D01*
X196630066Y-99077780D01*
X196634553Y-99076780D01*
X196887558Y-98980014D01*
X197123777Y-98847441D01*
X197130675Y-98842115D01*
X197222610Y-98771125D01*
X197338177Y-98681888D01*
X197366884Y-98652113D01*
X197522988Y-98490198D01*
X197526186Y-98486881D01*
X197536305Y-98472738D01*
X197681114Y-98270332D01*
X197683799Y-98266579D01*
X197699614Y-98235819D01*
X197805547Y-98029778D01*
X197805549Y-98029772D01*
X197807656Y-98025675D01*
X197809143Y-98021315D01*
X197809146Y-98021309D01*
X197892722Y-97776329D01*
X197895118Y-97769305D01*
X197896065Y-97764181D01*
X197919552Y-97637018D01*
X197944319Y-97502933D01*
X197950565Y-97332030D01*
X197954044Y-97236837D01*
X197954044Y-97236834D01*
X197954212Y-97232235D01*
X197924586Y-96962982D01*
X197922372Y-96954511D01*
X197857237Y-96705368D01*
X197857237Y-96705367D01*
X197856072Y-96700912D01*
X197794312Y-96555578D01*
X197751930Y-96455845D01*
X197751928Y-96455841D01*
X197750130Y-96451610D01*
X197747737Y-96447689D01*
X197747734Y-96447683D01*
X197621297Y-96240510D01*
X197609018Y-96220390D01*
X197435745Y-96012180D01*
X197432321Y-96009112D01*
X197432317Y-96009108D01*
X197237438Y-95834497D01*
X197234002Y-95831418D01*
X197008090Y-95681956D01*
X196810000Y-95589095D01*
X196766993Y-95568934D01*
X196766989Y-95568932D01*
X196762824Y-95566980D01*
X196503431Y-95488940D01*
X196498874Y-95488269D01*
X196498868Y-95488268D01*
X196240001Y-95450171D01*
X196239996Y-95450171D01*
X196235439Y-95449500D01*
X196032369Y-95449500D01*
X195829844Y-95464323D01*
X195825353Y-95465323D01*
X195825349Y-95465324D01*
X195569939Y-95522219D01*
X195569934Y-95522220D01*
X195565447Y-95523220D01*
X195312442Y-95619986D01*
X195076223Y-95752559D01*
X194861823Y-95918112D01*
X194673814Y-96113119D01*
X194671132Y-96116868D01*
X194671131Y-96116869D01*
X194600869Y-96215077D01*
X194516201Y-96333421D01*
X194514092Y-96337523D01*
X194413692Y-96532803D01*
X194392344Y-96574325D01*
X194390857Y-96578685D01*
X194390854Y-96578691D01*
X194333789Y-96745963D01*
X194304882Y-96830695D01*
X194304045Y-96835229D01*
X194304044Y-96835231D01*
X194302434Y-96843950D01*
X194255681Y-97097067D01*
X194255513Y-97101668D01*
X194246479Y-97348866D01*
X194245788Y-97367765D01*
X181158000Y-97367765D01*
X181158000Y-97202698D01*
X181157675Y-97196307D01*
X181148092Y-97102512D01*
X181145233Y-97089154D01*
X181093964Y-96934435D01*
X181087808Y-96921233D01*
X181002488Y-96782908D01*
X180993442Y-96771468D01*
X180878532Y-96656558D01*
X180867092Y-96647512D01*
X180728767Y-96562192D01*
X180715565Y-96556036D01*
X180560846Y-96504767D01*
X180547488Y-96501908D01*
X180453693Y-96492325D01*
X180447302Y-96492000D01*
X180322115Y-96492000D01*
X180306876Y-96496475D01*
X180305671Y-96497865D01*
X180304000Y-96505548D01*
X180304000Y-97427885D01*
X179796000Y-97427885D01*
X179796000Y-96510115D01*
X179791525Y-96494876D01*
X179790135Y-96493671D01*
X179782452Y-96492000D01*
X179652698Y-96492000D01*
X179646307Y-96492325D01*
X179552512Y-96501908D01*
X179539154Y-96504767D01*
X179384435Y-96556036D01*
X179371233Y-96562192D01*
X179232908Y-96647512D01*
X179221468Y-96656558D01*
X179139449Y-96738577D01*
X179077137Y-96772603D01*
X179006322Y-96767538D01*
X178961259Y-96738577D01*
X178873652Y-96650970D01*
X178722738Y-96557885D01*
X178644711Y-96532030D01*
X178560952Y-96504275D01*
X178560948Y-96504274D01*
X178554426Y-96502113D01*
X178547592Y-96501415D01*
X178547588Y-96501414D01*
X178453729Y-96491825D01*
X178453723Y-96491825D01*
X178450545Y-96491500D01*
X178050063Y-96491500D01*
X177649456Y-96491501D01*
X177646279Y-96491826D01*
X177646270Y-96491826D01*
X177600765Y-96496475D01*
X177545574Y-96502113D01*
X177377262Y-96557885D01*
X177226348Y-96650970D01*
X177100970Y-96776348D01*
X177007885Y-96927262D01*
X176993548Y-96970529D01*
X176956141Y-97083419D01*
X176952113Y-97095574D01*
X176951415Y-97102408D01*
X176951414Y-97102412D01*
X176943180Y-97183008D01*
X176941500Y-97199455D01*
X176941500Y-97340500D01*
X176921498Y-97408621D01*
X176867842Y-97455114D01*
X176815500Y-97466500D01*
X176733918Y-97466500D01*
X176665797Y-97446498D01*
X176619304Y-97392842D01*
X176609092Y-97351298D01*
X176608500Y-97351362D01*
X176602831Y-97298633D01*
X176601989Y-97290799D01*
X176550889Y-97153796D01*
X176511867Y-97101668D01*
X176468659Y-97043950D01*
X176463261Y-97036739D01*
X176394278Y-96985099D01*
X176353418Y-96954511D01*
X176353416Y-96954510D01*
X176346204Y-96949111D01*
X176209201Y-96898011D01*
X176172295Y-96894043D01*
X176151988Y-96891860D01*
X176151985Y-96891860D01*
X176148638Y-96891500D01*
X174451362Y-96891500D01*
X174448015Y-96891860D01*
X174448012Y-96891860D01*
X174427705Y-96894043D01*
X174390799Y-96898011D01*
X174253796Y-96949111D01*
X174246584Y-96954510D01*
X174246582Y-96954511D01*
X174205722Y-96985099D01*
X174136739Y-97036739D01*
X174131341Y-97043950D01*
X174088134Y-97101668D01*
X174049111Y-97153796D01*
X173998011Y-97290799D01*
X173991500Y-97351362D01*
X173991500Y-98848638D01*
X173991860Y-98851985D01*
X173991860Y-98851988D01*
X173993637Y-98868519D01*
X173998011Y-98909201D01*
X174049111Y-99046204D01*
X174054510Y-99053416D01*
X174054511Y-99053418D01*
X174097662Y-99111060D01*
X174136739Y-99163261D01*
X174253796Y-99250889D01*
X174390799Y-99301989D01*
X174427705Y-99305957D01*
X174448012Y-99308140D01*
X174448015Y-99308140D01*
X174451362Y-99308500D01*
X176148638Y-99308500D01*
X176151985Y-99308140D01*
X176151988Y-99308140D01*
X176172295Y-99305957D01*
X176209201Y-99301989D01*
X176346204Y-99250889D01*
X176463261Y-99163261D01*
X176502338Y-99111060D01*
X176545489Y-99053418D01*
X176545490Y-99053416D01*
X176550889Y-99046204D01*
X176601989Y-98909201D01*
X176608500Y-98848638D01*
X176609509Y-98848746D01*
X176631727Y-98785791D01*
X176687800Y-98742244D01*
X176733918Y-98733500D01*
X177165436Y-98733500D01*
X177231583Y-98752259D01*
X177356648Y-98829400D01*
X177404125Y-98882185D01*
X177416500Y-98936640D01*
X177416500Y-100619700D01*
X177396498Y-100687821D01*
X177376202Y-100712065D01*
X177244069Y-100834666D01*
X177241136Y-100838344D01*
X177241134Y-100838346D01*
X177091450Y-101026045D01*
X177084413Y-101034869D01*
X176956378Y-101256631D01*
X176954655Y-101261020D01*
X176954654Y-101261023D01*
X176864550Y-101490605D01*
X176864548Y-101490611D01*
X176862826Y-101494999D01*
X176861776Y-101499598D01*
X176861776Y-101499599D01*
X176857341Y-101519030D01*
X176822682Y-101580992D01*
X176760026Y-101614379D01*
X176689265Y-101608592D01*
X176632867Y-101565468D01*
X176608736Y-101498698D01*
X176608500Y-101490992D01*
X176608500Y-100351362D01*
X176601989Y-100290799D01*
X176550889Y-100153796D01*
X176463261Y-100036739D01*
X176366485Y-99964293D01*
X176353418Y-99954511D01*
X176353416Y-99954510D01*
X176346204Y-99949111D01*
X176209201Y-99898011D01*
X176172295Y-99894043D01*
X176151988Y-99891860D01*
X176151985Y-99891860D01*
X176148638Y-99891500D01*
X174451362Y-99891500D01*
X174448015Y-99891860D01*
X174448012Y-99891860D01*
X174427705Y-99894043D01*
X174390799Y-99898011D01*
X174253796Y-99949111D01*
X174246584Y-99954510D01*
X174246582Y-99954511D01*
X174233515Y-99964293D01*
X174136739Y-100036739D01*
X174049111Y-100153796D01*
X173998011Y-100290799D01*
X173991500Y-100351362D01*
X173991500Y-101848638D01*
X169408500Y-101848638D01*
X169408500Y-100351362D01*
X169401989Y-100290799D01*
X169350889Y-100153796D01*
X169263261Y-100036739D01*
X169166485Y-99964293D01*
X169153418Y-99954511D01*
X169153416Y-99954510D01*
X169146204Y-99949111D01*
X169009201Y-99898011D01*
X168972295Y-99894043D01*
X168951988Y-99891860D01*
X168951985Y-99891860D01*
X168948638Y-99891500D01*
X167251362Y-99891500D01*
X167248015Y-99891860D01*
X167248012Y-99891860D01*
X167227705Y-99894043D01*
X167190799Y-99898011D01*
X167053796Y-99949111D01*
X167046584Y-99954510D01*
X167046582Y-99954511D01*
X167033515Y-99964293D01*
X166936739Y-100036739D01*
X166849111Y-100153796D01*
X166798011Y-100290799D01*
X166791500Y-100351362D01*
X166791500Y-100474584D01*
X166771498Y-100542705D01*
X166729641Y-100583036D01*
X166715468Y-100591418D01*
X166715464Y-100591421D01*
X166708638Y-100595458D01*
X166694317Y-100609779D01*
X166679284Y-100622619D01*
X166662893Y-100634528D01*
X166657840Y-100640636D01*
X166634708Y-100668598D01*
X166626718Y-100677378D01*
X166412394Y-100891702D01*
X166350082Y-100925728D01*
X166279267Y-100920663D01*
X166261344Y-100912219D01*
X166256752Y-100908882D01*
X166250726Y-100906199D01*
X166088319Y-100833891D01*
X166088318Y-100833891D01*
X166082288Y-100831206D01*
X165988887Y-100811353D01*
X165901944Y-100792872D01*
X165901939Y-100792872D01*
X165895487Y-100791500D01*
X165704513Y-100791500D01*
X165698061Y-100792872D01*
X165698056Y-100792872D01*
X165611112Y-100811353D01*
X165517712Y-100831206D01*
X165511682Y-100833891D01*
X165511681Y-100833891D01*
X165349278Y-100906197D01*
X165349276Y-100906198D01*
X165343248Y-100908882D01*
X165337907Y-100912762D01*
X165337906Y-100912763D01*
X165287843Y-100949136D01*
X165188747Y-101021134D01*
X165184326Y-101026044D01*
X165184325Y-101026045D01*
X165172452Y-101039232D01*
X165060960Y-101163056D01*
X164965473Y-101328444D01*
X164906458Y-101510072D01*
X164905768Y-101516633D01*
X164905768Y-101516635D01*
X164896103Y-101608592D01*
X164886496Y-101700000D01*
X164887186Y-101706565D01*
X164906458Y-101889928D01*
X164904837Y-101890098D01*
X164900064Y-101952708D01*
X164857250Y-102009343D01*
X164790614Y-102033841D01*
X164721312Y-102018424D01*
X164693121Y-101997216D01*
X161544543Y-98848638D01*
X166791500Y-98848638D01*
X166791860Y-98851985D01*
X166791860Y-98851988D01*
X166793637Y-98868519D01*
X166798011Y-98909201D01*
X166849111Y-99046204D01*
X166854510Y-99053416D01*
X166854511Y-99053418D01*
X166897662Y-99111060D01*
X166936739Y-99163261D01*
X167053796Y-99250889D01*
X167190799Y-99301989D01*
X167227705Y-99305957D01*
X167248012Y-99308140D01*
X167248015Y-99308140D01*
X167251362Y-99308500D01*
X168948638Y-99308500D01*
X168951985Y-99308140D01*
X168951988Y-99308140D01*
X168972295Y-99305957D01*
X169009201Y-99301989D01*
X169146204Y-99250889D01*
X169263261Y-99163261D01*
X169302338Y-99111060D01*
X169345489Y-99053418D01*
X169345490Y-99053416D01*
X169350889Y-99046204D01*
X169401989Y-98909201D01*
X169406363Y-98868519D01*
X169408140Y-98851988D01*
X169408140Y-98851985D01*
X169408500Y-98848638D01*
X169408500Y-97351362D01*
X169401989Y-97290799D01*
X169350889Y-97153796D01*
X169311867Y-97101668D01*
X169268659Y-97043950D01*
X169263261Y-97036739D01*
X169194278Y-96985099D01*
X169153418Y-96954511D01*
X169153416Y-96954510D01*
X169146204Y-96949111D01*
X169009201Y-96898011D01*
X168972295Y-96894043D01*
X168951988Y-96891860D01*
X168951985Y-96891860D01*
X168948638Y-96891500D01*
X167251362Y-96891500D01*
X167248015Y-96891860D01*
X167248012Y-96891860D01*
X167227705Y-96894043D01*
X167190799Y-96898011D01*
X167053796Y-96949111D01*
X167046584Y-96954510D01*
X167046582Y-96954511D01*
X167005722Y-96985099D01*
X166936739Y-97036739D01*
X166931341Y-97043950D01*
X166888134Y-97101668D01*
X166849111Y-97153796D01*
X166798011Y-97290799D01*
X166791500Y-97351362D01*
X166791500Y-98848638D01*
X161544543Y-98848638D01*
X160190405Y-97494500D01*
X160156379Y-97432188D01*
X160153500Y-97405405D01*
X160153500Y-94799394D01*
X160173502Y-94731273D01*
X160207229Y-94696181D01*
X160359789Y-94589357D01*
X160359792Y-94589355D01*
X160364300Y-94586198D01*
X160526198Y-94424300D01*
X160657523Y-94236749D01*
X160659846Y-94231767D01*
X160659849Y-94231762D01*
X160751961Y-94034225D01*
X160751961Y-94034224D01*
X160754284Y-94029243D01*
X160786916Y-93907462D01*
X160812119Y-93813402D01*
X160812119Y-93813400D01*
X160813543Y-93808087D01*
X160817071Y-93767765D01*
X164345788Y-93767765D01*
X164375414Y-94037018D01*
X164376576Y-94041463D01*
X164376577Y-94041468D01*
X164435934Y-94268510D01*
X164443928Y-94299088D01*
X164445729Y-94303326D01*
X164528910Y-94499066D01*
X164549870Y-94548390D01*
X164552263Y-94552311D01*
X164552266Y-94552317D01*
X164651164Y-94714366D01*
X164690982Y-94779610D01*
X164864255Y-94987820D01*
X164867679Y-94990888D01*
X164867683Y-94990892D01*
X164929129Y-95045947D01*
X165065998Y-95168582D01*
X165291910Y-95318044D01*
X165424104Y-95380014D01*
X165533007Y-95431066D01*
X165533011Y-95431068D01*
X165537176Y-95433020D01*
X165796569Y-95511060D01*
X165801126Y-95511731D01*
X165801132Y-95511732D01*
X166059999Y-95549829D01*
X166060004Y-95549829D01*
X166064561Y-95550500D01*
X166267631Y-95550500D01*
X166470156Y-95535677D01*
X166474647Y-95534677D01*
X166474651Y-95534676D01*
X166730061Y-95477781D01*
X166730066Y-95477780D01*
X166734553Y-95476780D01*
X166987558Y-95380014D01*
X167223777Y-95247441D01*
X167438177Y-95081888D01*
X167626186Y-94886881D01*
X167644421Y-94861394D01*
X167781114Y-94670332D01*
X167783799Y-94666579D01*
X167785908Y-94662477D01*
X167905547Y-94429778D01*
X167905549Y-94429772D01*
X167907656Y-94425675D01*
X167909143Y-94421315D01*
X167909146Y-94421309D01*
X167993628Y-94173672D01*
X167995118Y-94169305D01*
X168044319Y-93902933D01*
X168054212Y-93632235D01*
X168024586Y-93362982D01*
X168021693Y-93351913D01*
X167957237Y-93105368D01*
X167957237Y-93105367D01*
X167956072Y-93100912D01*
X167882800Y-92928489D01*
X167851930Y-92855845D01*
X167851928Y-92855841D01*
X167850130Y-92851610D01*
X167847737Y-92847689D01*
X167847734Y-92847683D01*
X167711409Y-92624308D01*
X167709018Y-92620390D01*
X167535745Y-92412180D01*
X167532321Y-92409112D01*
X167532317Y-92409108D01*
X167394895Y-92285978D01*
X167334002Y-92231418D01*
X167211406Y-92150309D01*
X167111925Y-92084493D01*
X167111923Y-92084492D01*
X167108090Y-92081956D01*
X166972385Y-92018340D01*
X166866993Y-91968934D01*
X166866989Y-91968932D01*
X166862824Y-91966980D01*
X166603431Y-91888940D01*
X166598874Y-91888269D01*
X166598868Y-91888268D01*
X166340001Y-91850171D01*
X166339996Y-91850171D01*
X166335439Y-91849500D01*
X166132369Y-91849500D01*
X165929844Y-91864323D01*
X165925353Y-91865323D01*
X165925349Y-91865324D01*
X165669939Y-91922219D01*
X165669934Y-91922220D01*
X165665447Y-91923220D01*
X165412442Y-92019986D01*
X165176223Y-92152559D01*
X164961823Y-92318112D01*
X164773814Y-92513119D01*
X164771132Y-92516868D01*
X164771131Y-92516869D01*
X164687644Y-92633562D01*
X164616201Y-92733421D01*
X164614092Y-92737523D01*
X164515910Y-92928489D01*
X164492344Y-92974325D01*
X164490857Y-92978685D01*
X164490854Y-92978691D01*
X164478381Y-93015253D01*
X164404882Y-93230695D01*
X164355681Y-93497067D01*
X164345788Y-93767765D01*
X160817071Y-93767765D01*
X160833498Y-93580000D01*
X160813543Y-93351913D01*
X160805028Y-93320135D01*
X160755707Y-93136067D01*
X160755706Y-93136065D01*
X160754284Y-93130757D01*
X160659966Y-92928489D01*
X160659849Y-92928238D01*
X160659846Y-92928233D01*
X160657523Y-92923251D01*
X160654367Y-92918744D01*
X160654366Y-92918742D01*
X160593468Y-92831771D01*
X160570780Y-92764497D01*
X160588065Y-92695636D01*
X160639835Y-92647052D01*
X160696681Y-92633500D01*
X161781233Y-92633500D01*
X161792416Y-92634027D01*
X161799909Y-92635702D01*
X161807835Y-92635453D01*
X161807836Y-92635453D01*
X161867986Y-92633562D01*
X161871945Y-92633500D01*
X161899856Y-92633500D01*
X161903791Y-92633003D01*
X161903856Y-92632995D01*
X161915693Y-92632062D01*
X161947951Y-92631048D01*
X161951970Y-92630922D01*
X161959889Y-92630673D01*
X161979343Y-92625021D01*
X161998700Y-92621013D01*
X162010930Y-92619468D01*
X162010931Y-92619468D01*
X162018797Y-92618474D01*
X162026168Y-92615555D01*
X162026170Y-92615555D01*
X162059912Y-92602196D01*
X162071142Y-92598351D01*
X162105983Y-92588229D01*
X162105984Y-92588229D01*
X162113593Y-92586018D01*
X162120412Y-92581985D01*
X162120417Y-92581983D01*
X162131028Y-92575707D01*
X162148776Y-92567012D01*
X162167617Y-92559552D01*
X162203387Y-92533564D01*
X162213307Y-92527048D01*
X162244535Y-92508580D01*
X162244538Y-92508578D01*
X162251362Y-92504542D01*
X162265683Y-92490221D01*
X162280717Y-92477380D01*
X162290694Y-92470131D01*
X162297107Y-92465472D01*
X162325298Y-92431395D01*
X162333288Y-92422616D01*
X166102559Y-88653346D01*
X166164871Y-88619320D01*
X166221995Y-88620287D01*
X166225365Y-88621444D01*
X166349486Y-88642156D01*
X166442294Y-88657643D01*
X166442296Y-88657643D01*
X166447431Y-88658500D01*
X166672569Y-88658500D01*
X166677704Y-88657643D01*
X166677706Y-88657643D01*
X166889496Y-88622302D01*
X166889501Y-88622301D01*
X166894635Y-88621444D01*
X167107574Y-88548342D01*
X167113253Y-88545269D01*
X167300995Y-88443668D01*
X167305576Y-88441189D01*
X167483240Y-88302906D01*
X167567489Y-88211388D01*
X167632194Y-88141101D01*
X167632197Y-88141097D01*
X167635722Y-88137268D01*
X167724816Y-88000899D01*
X167756008Y-87953157D01*
X167756010Y-87953153D01*
X167758860Y-87948791D01*
X167787326Y-87883896D01*
X167818509Y-87812804D01*
X167849296Y-87742616D01*
X167904564Y-87524368D01*
X167923156Y-87300000D01*
X167904564Y-87075632D01*
X167849296Y-86857384D01*
X167792793Y-86728568D01*
X167760954Y-86655982D01*
X167760952Y-86655978D01*
X167758860Y-86651209D01*
X167754629Y-86644732D01*
X167646024Y-86478500D01*
X167635722Y-86462732D01*
X167632197Y-86458903D01*
X167632194Y-86458899D01*
X167514626Y-86331188D01*
X167483240Y-86297094D01*
X167371573Y-86210179D01*
X167309689Y-86162012D01*
X167309687Y-86162010D01*
X167305576Y-86158811D01*
X167247915Y-86127607D01*
X167112159Y-86054139D01*
X167112156Y-86054138D01*
X167107574Y-86051658D01*
X166894635Y-85978556D01*
X166889501Y-85977699D01*
X166889496Y-85977698D01*
X166677706Y-85942357D01*
X166677704Y-85942357D01*
X166672569Y-85941500D01*
X166447431Y-85941500D01*
X166442296Y-85942357D01*
X166442294Y-85942357D01*
X166230504Y-85977698D01*
X166230499Y-85977699D01*
X166225365Y-85978556D01*
X166012426Y-86051658D01*
X166007844Y-86054138D01*
X166007841Y-86054139D01*
X165872085Y-86127607D01*
X165814424Y-86158811D01*
X165810313Y-86162010D01*
X165810311Y-86162012D01*
X165748427Y-86210179D01*
X165636760Y-86297094D01*
X165605374Y-86331188D01*
X165487806Y-86458899D01*
X165487803Y-86458903D01*
X165484278Y-86462732D01*
X165473976Y-86478500D01*
X165395483Y-86598643D01*
X165341479Y-86644732D01*
X165271132Y-86654307D01*
X165206774Y-86624330D01*
X165184517Y-86598643D01*
X165106024Y-86478500D01*
X165095722Y-86462732D01*
X165092197Y-86458903D01*
X165092194Y-86458899D01*
X164974626Y-86331188D01*
X164943240Y-86297094D01*
X164831573Y-86210179D01*
X164769689Y-86162012D01*
X164769687Y-86162010D01*
X164765576Y-86158811D01*
X164707915Y-86127607D01*
X164572159Y-86054139D01*
X164572156Y-86054138D01*
X164567574Y-86051658D01*
X164354635Y-85978556D01*
X164349501Y-85977699D01*
X164349496Y-85977698D01*
X164137706Y-85942357D01*
X164137704Y-85942357D01*
X164132569Y-85941500D01*
X163907431Y-85941500D01*
X163902296Y-85942357D01*
X163902294Y-85942357D01*
X163690504Y-85977698D01*
X163690499Y-85977699D01*
X163685365Y-85978556D01*
X163472426Y-86051658D01*
X163467844Y-86054138D01*
X163467841Y-86054139D01*
X163332085Y-86127607D01*
X163274424Y-86158811D01*
X163270313Y-86162010D01*
X163270311Y-86162012D01*
X163208427Y-86210179D01*
X163096760Y-86297094D01*
X163065374Y-86331188D01*
X162947806Y-86458899D01*
X162947803Y-86458903D01*
X162944278Y-86462732D01*
X162855483Y-86598643D01*
X162855184Y-86599101D01*
X162801180Y-86645189D01*
X162730832Y-86654764D01*
X162666475Y-86624786D01*
X162644218Y-86599101D01*
X162558177Y-86467407D01*
X162551790Y-86459201D01*
X162406432Y-86301300D01*
X162398789Y-86294263D01*
X162229411Y-86162431D01*
X162220718Y-86156752D01*
X162031957Y-86054599D01*
X162022440Y-86050425D01*
X161819443Y-85980736D01*
X161809373Y-85978185D01*
X161751867Y-85968589D01*
X161738352Y-85970223D01*
X161734000Y-85984449D01*
X161734000Y-88634392D01*
X161729694Y-88634392D01*
X161729700Y-88672585D01*
X161697893Y-88726203D01*
X159994500Y-90429595D01*
X159932188Y-90463621D01*
X159905405Y-90466500D01*
X156998768Y-90466500D01*
X156987585Y-90465973D01*
X156980092Y-90464298D01*
X156972166Y-90464547D01*
X156972165Y-90464547D01*
X156912002Y-90466438D01*
X156908044Y-90466500D01*
X156880144Y-90466500D01*
X156876154Y-90467004D01*
X156864320Y-90467936D01*
X156820111Y-90469326D01*
X156812495Y-90471539D01*
X156812493Y-90471539D01*
X156800652Y-90474979D01*
X156781293Y-90478988D01*
X156779983Y-90479154D01*
X156761203Y-90481526D01*
X156753837Y-90484442D01*
X156753831Y-90484444D01*
X156720098Y-90497800D01*
X156708868Y-90501645D01*
X156674017Y-90511770D01*
X156666407Y-90513981D01*
X156659584Y-90518016D01*
X156648966Y-90524295D01*
X156631213Y-90532992D01*
X156623568Y-90536019D01*
X156612383Y-90540448D01*
X156605968Y-90545109D01*
X156576612Y-90566437D01*
X156566695Y-90572951D01*
X156528638Y-90595458D01*
X156514317Y-90609779D01*
X156499284Y-90622619D01*
X156482893Y-90634528D01*
X156477842Y-90640634D01*
X156454702Y-90668605D01*
X156446712Y-90677384D01*
X154853248Y-92270848D01*
X154790936Y-92304874D01*
X154731541Y-92303459D01*
X154673409Y-92287882D01*
X154673398Y-92287880D01*
X154668087Y-92286457D01*
X154440000Y-92266502D01*
X154211913Y-92286457D01*
X154206600Y-92287881D01*
X154206598Y-92287881D01*
X153996067Y-92344293D01*
X153996065Y-92344294D01*
X153990757Y-92345716D01*
X153985776Y-92348039D01*
X153985775Y-92348039D01*
X153788238Y-92440151D01*
X153788233Y-92440154D01*
X153783251Y-92442477D01*
X153725083Y-92483207D01*
X153600211Y-92570643D01*
X153600208Y-92570645D01*
X153595700Y-92573802D01*
X153433802Y-92735700D01*
X153302477Y-92923251D01*
X153300154Y-92928233D01*
X153300151Y-92928238D01*
X153283919Y-92963049D01*
X153237002Y-93016334D01*
X153168725Y-93035795D01*
X153100765Y-93015253D01*
X153055529Y-92963049D01*
X153039414Y-92928489D01*
X153033931Y-92918993D01*
X152908972Y-92740533D01*
X152901916Y-92732125D01*
X152747875Y-92578084D01*
X152739467Y-92571028D01*
X152561007Y-92446069D01*
X152551511Y-92440586D01*
X152354053Y-92348510D01*
X152343761Y-92344764D01*
X152171497Y-92298606D01*
X152157401Y-92298942D01*
X152154000Y-92306884D01*
X152154000Y-94847967D01*
X152157973Y-94861498D01*
X152166522Y-94862727D01*
X152343761Y-94815236D01*
X152354053Y-94811490D01*
X152551511Y-94719414D01*
X152561007Y-94713931D01*
X152739467Y-94588972D01*
X152747875Y-94581916D01*
X152901916Y-94427875D01*
X152908972Y-94419467D01*
X153033931Y-94241007D01*
X153039414Y-94231511D01*
X153055529Y-94196951D01*
X153102446Y-94143666D01*
X153170723Y-94124205D01*
X153238683Y-94144747D01*
X153283919Y-94196951D01*
X153300151Y-94231762D01*
X153300154Y-94231767D01*
X153302477Y-94236749D01*
X153433802Y-94424300D01*
X153595700Y-94586198D01*
X153600208Y-94589355D01*
X153600211Y-94589357D01*
X153678389Y-94644098D01*
X153783251Y-94717523D01*
X153788233Y-94719846D01*
X153788238Y-94719849D01*
X153958825Y-94799394D01*
X153990757Y-94814284D01*
X153996065Y-94815706D01*
X153996067Y-94815707D01*
X154206598Y-94872119D01*
X154206600Y-94872119D01*
X154211913Y-94873543D01*
X154440000Y-94893498D01*
X154668087Y-94873543D01*
X154673400Y-94872119D01*
X154673402Y-94872119D01*
X154883933Y-94815707D01*
X154883935Y-94815706D01*
X154889243Y-94814284D01*
X154921175Y-94799394D01*
X155091762Y-94719849D01*
X155091767Y-94719846D01*
X155096749Y-94717523D01*
X155201611Y-94644098D01*
X155279789Y-94589357D01*
X155279792Y-94589355D01*
X155284300Y-94586198D01*
X155446198Y-94424300D01*
X155577523Y-94236749D01*
X155579846Y-94231767D01*
X155579849Y-94231762D01*
X155595805Y-94197543D01*
X155642722Y-94144258D01*
X155710999Y-94124797D01*
X155778959Y-94145339D01*
X155824195Y-94197543D01*
X155840151Y-94231762D01*
X155840154Y-94231767D01*
X155842477Y-94236749D01*
X155973802Y-94424300D01*
X156135700Y-94586198D01*
X156140208Y-94589355D01*
X156140211Y-94589357D01*
X156218389Y-94644098D01*
X156323251Y-94717523D01*
X156328233Y-94719846D01*
X156328238Y-94719849D01*
X156498825Y-94799394D01*
X156530757Y-94814284D01*
X156536065Y-94815706D01*
X156536067Y-94815707D01*
X156746598Y-94872119D01*
X156746600Y-94872119D01*
X156751913Y-94873543D01*
X156980000Y-94893498D01*
X157208087Y-94873543D01*
X157213400Y-94872119D01*
X157213402Y-94872119D01*
X157423933Y-94815707D01*
X157423935Y-94815706D01*
X157429243Y-94814284D01*
X157461175Y-94799394D01*
X157631762Y-94719849D01*
X157631767Y-94719846D01*
X157636749Y-94717523D01*
X157741611Y-94644098D01*
X157819789Y-94589357D01*
X157819792Y-94589355D01*
X157824300Y-94586198D01*
X157986198Y-94424300D01*
X158117523Y-94236749D01*
X158119846Y-94231767D01*
X158119849Y-94231762D01*
X158135805Y-94197543D01*
X158182722Y-94144258D01*
X158250999Y-94124797D01*
X158318959Y-94145339D01*
X158364195Y-94197543D01*
X158380151Y-94231762D01*
X158380154Y-94231767D01*
X158382477Y-94236749D01*
X158513802Y-94424300D01*
X158675700Y-94586198D01*
X158680208Y-94589355D01*
X158680211Y-94589357D01*
X158832771Y-94696181D01*
X158877099Y-94751638D01*
X158886500Y-94799394D01*
X158886500Y-97641233D01*
X158885973Y-97652416D01*
X158884298Y-97659909D01*
X158884547Y-97667835D01*
X158884547Y-97667836D01*
X158886438Y-97727986D01*
X158886500Y-97731945D01*
X158886500Y-97759856D01*
X158886997Y-97763790D01*
X158886997Y-97763791D01*
X158887005Y-97763856D01*
X158887938Y-97775693D01*
X158889327Y-97819889D01*
X158894978Y-97839339D01*
X158898987Y-97858700D01*
X158901526Y-97878797D01*
X158904445Y-97886168D01*
X158904445Y-97886170D01*
X158917804Y-97919912D01*
X158921649Y-97931142D01*
X158928290Y-97954000D01*
X158933982Y-97973593D01*
X158938015Y-97980412D01*
X158938017Y-97980417D01*
X158944293Y-97991028D01*
X158952988Y-98008776D01*
X158960448Y-98027617D01*
X158965110Y-98034033D01*
X158965110Y-98034034D01*
X158986436Y-98063387D01*
X158992952Y-98073307D01*
X159015458Y-98111362D01*
X159029779Y-98125683D01*
X159042619Y-98140716D01*
X159054528Y-98157107D01*
X159060634Y-98162158D01*
X159088605Y-98185298D01*
X159097384Y-98193288D01*
X166855500Y-105951405D01*
X166889526Y-106013717D01*
X166884461Y-106084532D01*
X166841914Y-106141368D01*
X166775394Y-106166179D01*
X166766405Y-106166500D01*
X165434594Y-106166500D01*
X165366473Y-106146498D01*
X165345499Y-106129595D01*
X160829152Y-101613248D01*
X160795126Y-101550936D01*
X160796541Y-101491541D01*
X160812118Y-101433409D01*
X160812120Y-101433398D01*
X160813543Y-101428087D01*
X160833498Y-101200000D01*
X160813543Y-100971913D01*
X160795934Y-100906197D01*
X160755707Y-100756067D01*
X160755706Y-100756065D01*
X160754284Y-100750757D01*
X160717834Y-100672589D01*
X160659849Y-100548238D01*
X160659846Y-100548233D01*
X160657523Y-100543251D01*
X160562578Y-100407656D01*
X160529357Y-100360211D01*
X160529355Y-100360208D01*
X160526198Y-100355700D01*
X160364300Y-100193802D01*
X160359792Y-100190645D01*
X160359789Y-100190643D01*
X160281611Y-100135902D01*
X160176749Y-100062477D01*
X160171767Y-100060154D01*
X160171762Y-100060151D01*
X159974225Y-99968039D01*
X159974224Y-99968039D01*
X159969243Y-99965716D01*
X159963935Y-99964294D01*
X159963933Y-99964293D01*
X159753402Y-99907881D01*
X159753400Y-99907881D01*
X159748087Y-99906457D01*
X159520000Y-99886502D01*
X159291913Y-99906457D01*
X159286600Y-99907881D01*
X159286598Y-99907881D01*
X159076067Y-99964293D01*
X159076065Y-99964294D01*
X159070757Y-99965716D01*
X159065776Y-99968039D01*
X159065775Y-99968039D01*
X158868238Y-100060151D01*
X158868233Y-100060154D01*
X158863251Y-100062477D01*
X158758389Y-100135902D01*
X158680211Y-100190643D01*
X158680208Y-100190645D01*
X158675700Y-100193802D01*
X158513802Y-100355700D01*
X158510645Y-100360208D01*
X158510643Y-100360211D01*
X158477422Y-100407656D01*
X158382477Y-100543251D01*
X158380154Y-100548233D01*
X158380151Y-100548238D01*
X158364195Y-100582457D01*
X158317278Y-100635742D01*
X158249001Y-100655203D01*
X158181041Y-100634661D01*
X158135805Y-100582457D01*
X158119849Y-100548238D01*
X158119846Y-100548233D01*
X158117523Y-100543251D01*
X158022578Y-100407656D01*
X157989357Y-100360211D01*
X157989355Y-100360208D01*
X157986198Y-100355700D01*
X157824300Y-100193802D01*
X157819792Y-100190645D01*
X157819789Y-100190643D01*
X157741611Y-100135902D01*
X157636749Y-100062477D01*
X157631767Y-100060154D01*
X157631762Y-100060151D01*
X157434225Y-99968039D01*
X157434224Y-99968039D01*
X157429243Y-99965716D01*
X157423935Y-99964294D01*
X157423933Y-99964293D01*
X157213402Y-99907881D01*
X157213400Y-99907881D01*
X157208087Y-99906457D01*
X156980000Y-99886502D01*
X156751913Y-99906457D01*
X156746600Y-99907881D01*
X156746598Y-99907881D01*
X156559497Y-99958015D01*
X156488521Y-99956325D01*
X156429725Y-99916531D01*
X156414699Y-99893488D01*
X156412435Y-99887268D01*
X156370753Y-99823894D01*
X156368811Y-99820845D01*
X156332884Y-99762597D01*
X156332883Y-99762596D01*
X156329030Y-99756349D01*
X156323838Y-99751157D01*
X156321756Y-99748524D01*
X156321496Y-99748165D01*
X156321210Y-99747852D01*
X156319036Y-99745261D01*
X156315001Y-99739126D01*
X156259825Y-99687070D01*
X156257198Y-99684517D01*
X155481910Y-98909229D01*
X155469937Y-98895376D01*
X155459848Y-98881824D01*
X155455469Y-98875942D01*
X155417128Y-98843770D01*
X155409025Y-98836344D01*
X155405101Y-98832420D01*
X155380539Y-98812998D01*
X155377707Y-98810692D01*
X155375526Y-98808862D01*
X155319640Y-98761968D01*
X155313078Y-98758673D01*
X155310272Y-98756827D01*
X155309916Y-98756570D01*
X155309538Y-98756359D01*
X155306666Y-98754588D01*
X155300906Y-98750033D01*
X155294252Y-98746930D01*
X155294250Y-98746929D01*
X155232207Y-98717998D01*
X155228907Y-98716401D01*
X155161188Y-98682391D01*
X155154048Y-98680699D01*
X155150879Y-98679545D01*
X155150474Y-98679377D01*
X155150078Y-98679265D01*
X155146854Y-98678197D01*
X155140206Y-98675097D01*
X155065921Y-98659758D01*
X155062403Y-98658978D01*
X155015804Y-98647934D01*
X154995792Y-98643191D01*
X154995790Y-98643191D01*
X154988656Y-98641500D01*
X154981321Y-98641500D01*
X154977983Y-98641110D01*
X154977537Y-98641038D01*
X154977124Y-98641020D01*
X154973739Y-98640724D01*
X154966558Y-98639241D01*
X154959231Y-98639454D01*
X154959229Y-98639454D01*
X154890742Y-98641447D01*
X154887077Y-98641500D01*
X153764442Y-98641500D01*
X153746180Y-98640170D01*
X153744155Y-98639873D01*
X153722211Y-98636659D01*
X153672365Y-98641020D01*
X153672354Y-98641021D01*
X153661372Y-98641500D01*
X153655820Y-98641500D01*
X153624692Y-98645138D01*
X153621148Y-98645501D01*
X153545573Y-98652113D01*
X153538605Y-98654422D01*
X153535296Y-98655105D01*
X153534871Y-98655174D01*
X153534461Y-98655290D01*
X153531173Y-98656069D01*
X153523887Y-98656921D01*
X153516993Y-98659430D01*
X153516990Y-98659431D01*
X153452676Y-98682839D01*
X153449215Y-98684042D01*
X153384233Y-98705575D01*
X153384227Y-98705578D01*
X153377261Y-98707886D01*
X153371016Y-98711738D01*
X153367951Y-98713167D01*
X153367556Y-98713331D01*
X153367181Y-98713540D01*
X153364166Y-98715054D01*
X153357268Y-98717565D01*
X153351136Y-98721598D01*
X153293927Y-98759224D01*
X153290838Y-98761192D01*
X153232597Y-98797116D01*
X153232594Y-98797118D01*
X153226348Y-98800971D01*
X153221153Y-98806166D01*
X153218529Y-98808241D01*
X153218163Y-98808505D01*
X153217852Y-98808790D01*
X153215261Y-98810964D01*
X153209126Y-98814999D01*
X153177389Y-98848638D01*
X153157071Y-98870174D01*
X153154517Y-98872802D01*
X152172724Y-99854595D01*
X152110412Y-99888621D01*
X152083629Y-99891500D01*
X151051362Y-99891500D01*
X151048015Y-99891860D01*
X151048012Y-99891860D01*
X151027705Y-99894043D01*
X150990799Y-99898011D01*
X150853796Y-99949111D01*
X150846584Y-99954510D01*
X150846582Y-99954511D01*
X150833515Y-99964293D01*
X150736739Y-100036739D01*
X150649111Y-100153796D01*
X150598011Y-100290799D01*
X150595300Y-100316021D01*
X150593908Y-100328967D01*
X150566740Y-100394560D01*
X150508423Y-100435051D01*
X150468630Y-100441500D01*
X150266371Y-100441500D01*
X150198250Y-100421498D01*
X150177276Y-100404595D01*
X148045405Y-98272724D01*
X148011379Y-98210412D01*
X148008500Y-98183629D01*
X148008500Y-97151362D01*
X148001989Y-97090799D01*
X147950889Y-96953796D01*
X147945026Y-96945963D01*
X147868659Y-96843950D01*
X147863261Y-96836739D01*
X147832901Y-96814012D01*
X147753418Y-96754511D01*
X147753416Y-96754510D01*
X147746204Y-96749111D01*
X147609201Y-96698011D01*
X147585871Y-96695503D01*
X147551991Y-96691860D01*
X147551982Y-96691860D01*
X147548638Y-96691500D01*
X147545272Y-96691500D01*
X147544899Y-96691480D01*
X147477948Y-96667857D01*
X147442204Y-96621840D01*
X147440266Y-96622859D01*
X147434553Y-96611990D01*
X147434396Y-96611788D01*
X147434378Y-96611658D01*
X147414356Y-96573566D01*
X146429885Y-95589095D01*
X146395859Y-95526783D01*
X146397694Y-95501132D01*
X147064408Y-95501132D01*
X147064539Y-95502965D01*
X147068790Y-95509580D01*
X147774287Y-96215077D01*
X147786062Y-96221507D01*
X147798077Y-96212211D01*
X147833931Y-96161006D01*
X147839414Y-96151511D01*
X147931490Y-95954053D01*
X147935236Y-95943761D01*
X147991625Y-95733312D01*
X147993528Y-95722519D01*
X148012517Y-95505475D01*
X148012517Y-95494525D01*
X147993528Y-95277481D01*
X147991625Y-95266688D01*
X147935236Y-95056239D01*
X147931490Y-95045947D01*
X147839414Y-94848489D01*
X147833931Y-94838994D01*
X147797491Y-94786952D01*
X147787012Y-94778576D01*
X147773566Y-94785644D01*
X147072022Y-95487188D01*
X147064408Y-95501132D01*
X146397694Y-95501132D01*
X146400924Y-95455968D01*
X146429885Y-95410905D01*
X147415077Y-94425713D01*
X147421507Y-94413938D01*
X147412211Y-94401923D01*
X147361006Y-94366069D01*
X147351511Y-94360586D01*
X147154053Y-94268510D01*
X147143761Y-94264764D01*
X146933312Y-94208375D01*
X146922519Y-94206472D01*
X146705475Y-94187483D01*
X146694525Y-94187483D01*
X146477481Y-94206472D01*
X146466688Y-94208375D01*
X146256239Y-94264764D01*
X146245947Y-94268510D01*
X146048489Y-94360586D01*
X146038994Y-94366069D01*
X145856771Y-94493663D01*
X145789497Y-94516351D01*
X145720637Y-94499066D01*
X145672052Y-94447296D01*
X145658500Y-94390450D01*
X145658500Y-93846522D01*
X150617273Y-93846522D01*
X150664764Y-94023761D01*
X150668510Y-94034053D01*
X150760586Y-94231511D01*
X150766069Y-94241007D01*
X150891028Y-94419467D01*
X150898084Y-94427875D01*
X151052125Y-94581916D01*
X151060533Y-94588972D01*
X151238993Y-94713931D01*
X151248489Y-94719414D01*
X151445947Y-94811490D01*
X151456239Y-94815236D01*
X151628503Y-94861394D01*
X151642599Y-94861058D01*
X151646000Y-94853116D01*
X151646000Y-93852115D01*
X151641525Y-93836876D01*
X151640135Y-93835671D01*
X151632452Y-93834000D01*
X150632033Y-93834000D01*
X150618502Y-93837973D01*
X150617273Y-93846522D01*
X145658500Y-93846522D01*
X145658500Y-93308503D01*
X150618606Y-93308503D01*
X150618942Y-93322599D01*
X150626884Y-93326000D01*
X151627885Y-93326000D01*
X151643124Y-93321525D01*
X151644329Y-93320135D01*
X151646000Y-93312452D01*
X151646000Y-92312033D01*
X151642027Y-92298502D01*
X151633478Y-92297273D01*
X151456239Y-92344764D01*
X151445947Y-92348510D01*
X151248489Y-92440586D01*
X151238993Y-92446069D01*
X151060533Y-92571028D01*
X151052125Y-92578084D01*
X150898084Y-92732125D01*
X150891028Y-92740533D01*
X150766069Y-92918993D01*
X150760586Y-92928489D01*
X150668510Y-93125947D01*
X150664764Y-93136239D01*
X150618606Y-93308503D01*
X145658500Y-93308503D01*
X145658500Y-90566371D01*
X145678502Y-90498250D01*
X145695405Y-90477276D01*
X147427276Y-88745405D01*
X147489588Y-88711379D01*
X147516371Y-88708500D01*
X149098638Y-88708500D01*
X149101985Y-88708140D01*
X149101988Y-88708140D01*
X149122295Y-88705957D01*
X149159201Y-88701989D01*
X149296204Y-88650889D01*
X149311412Y-88639505D01*
X149406050Y-88568659D01*
X149413261Y-88563261D01*
X149484172Y-88468535D01*
X149495489Y-88453418D01*
X149495490Y-88453416D01*
X149500889Y-88446204D01*
X149551989Y-88309201D01*
X149558500Y-88248638D01*
X149558500Y-88184500D01*
X149578502Y-88116379D01*
X149632158Y-88069886D01*
X149684500Y-88058500D01*
X150215500Y-88058500D01*
X150283621Y-88078502D01*
X150330114Y-88132158D01*
X150341500Y-88184500D01*
X150341500Y-88548638D01*
X150348011Y-88609201D01*
X150399111Y-88746204D01*
X150404510Y-88753416D01*
X150404511Y-88753418D01*
X150428750Y-88785797D01*
X150486739Y-88863261D01*
X150493950Y-88868659D01*
X150567336Y-88923595D01*
X150603796Y-88950889D01*
X150740799Y-89001989D01*
X150777705Y-89005957D01*
X150798012Y-89008140D01*
X150798015Y-89008140D01*
X150801362Y-89008500D01*
X153298638Y-89008500D01*
X153301985Y-89008140D01*
X153301988Y-89008140D01*
X153322295Y-89005957D01*
X153359201Y-89001989D01*
X153496204Y-88950889D01*
X153532665Y-88923595D01*
X153606050Y-88868659D01*
X153613261Y-88863261D01*
X153671250Y-88785797D01*
X153695489Y-88753418D01*
X153695490Y-88753416D01*
X153700889Y-88746204D01*
X153751989Y-88609201D01*
X153758500Y-88548638D01*
X153758500Y-87366371D01*
X153778502Y-87298250D01*
X153795405Y-87277276D01*
X154833541Y-86239140D01*
X154895853Y-86205114D01*
X154966668Y-86210179D01*
X155023504Y-86252726D01*
X155048315Y-86319246D01*
X155047914Y-86341701D01*
X155041500Y-86401362D01*
X155041500Y-88198638D01*
X155048011Y-88259201D01*
X155099111Y-88396204D01*
X155104510Y-88403416D01*
X155104511Y-88403418D01*
X155141941Y-88453418D01*
X155186739Y-88513261D01*
X155193950Y-88518659D01*
X155229497Y-88545269D01*
X155303796Y-88600889D01*
X155440799Y-88651989D01*
X155477705Y-88655957D01*
X155498012Y-88658140D01*
X155498015Y-88658140D01*
X155501362Y-88658500D01*
X157298638Y-88658500D01*
X157301985Y-88658140D01*
X157301988Y-88658140D01*
X157322295Y-88655957D01*
X157359201Y-88651989D01*
X157496204Y-88600889D01*
X157570504Y-88545269D01*
X157606050Y-88518659D01*
X157613261Y-88513261D01*
X157658059Y-88453418D01*
X157695489Y-88403418D01*
X157695490Y-88403416D01*
X157700889Y-88396204D01*
X157744998Y-88277944D01*
X157787545Y-88221108D01*
X157854065Y-88196297D01*
X157923439Y-88211388D01*
X157955755Y-88236638D01*
X157969886Y-88251988D01*
X158016760Y-88302906D01*
X158194424Y-88441189D01*
X158199005Y-88443668D01*
X158386748Y-88545269D01*
X158392426Y-88548342D01*
X158605365Y-88621444D01*
X158610499Y-88622301D01*
X158610504Y-88622302D01*
X158822294Y-88657643D01*
X158822296Y-88657643D01*
X158827431Y-88658500D01*
X159052569Y-88658500D01*
X159057704Y-88657643D01*
X159057706Y-88657643D01*
X159269496Y-88622302D01*
X159269501Y-88622301D01*
X159274635Y-88621444D01*
X159487574Y-88548342D01*
X159493253Y-88545269D01*
X159680995Y-88443668D01*
X159685576Y-88441189D01*
X159863240Y-88302906D01*
X159947489Y-88211388D01*
X160012194Y-88141101D01*
X160012197Y-88141097D01*
X160015722Y-88137268D01*
X160104816Y-88000899D01*
X160158820Y-87954811D01*
X160229168Y-87945236D01*
X160293525Y-87975214D01*
X160315782Y-88000899D01*
X160401823Y-88132593D01*
X160408210Y-88140799D01*
X160553568Y-88298700D01*
X160561211Y-88305737D01*
X160730589Y-88437569D01*
X160739282Y-88443248D01*
X160928043Y-88545401D01*
X160937560Y-88549575D01*
X161140557Y-88619264D01*
X161150627Y-88621815D01*
X161208133Y-88631411D01*
X161221648Y-88629777D01*
X161226000Y-88615551D01*
X161226000Y-85983723D01*
X161222164Y-85970660D01*
X161207416Y-85968709D01*
X161150627Y-85978185D01*
X161140557Y-85980736D01*
X160937560Y-86050425D01*
X160928043Y-86054599D01*
X160739282Y-86156752D01*
X160730589Y-86162431D01*
X160561211Y-86294263D01*
X160553568Y-86301300D01*
X160408210Y-86459201D01*
X160401823Y-86467407D01*
X160315782Y-86599101D01*
X160261778Y-86645189D01*
X160191430Y-86654764D01*
X160127073Y-86624786D01*
X160104816Y-86599101D01*
X160104517Y-86598643D01*
X160015722Y-86462732D01*
X160012197Y-86458903D01*
X160012194Y-86458899D01*
X159894626Y-86331188D01*
X159863240Y-86297094D01*
X159751573Y-86210179D01*
X159689689Y-86162012D01*
X159689687Y-86162010D01*
X159685576Y-86158811D01*
X159627915Y-86127607D01*
X159492159Y-86054139D01*
X159492156Y-86054138D01*
X159487574Y-86051658D01*
X159274635Y-85978556D01*
X159269501Y-85977699D01*
X159269496Y-85977698D01*
X159057706Y-85942357D01*
X159057704Y-85942357D01*
X159052569Y-85941500D01*
X158966371Y-85941500D01*
X158898250Y-85921498D01*
X158877276Y-85904595D01*
X157881910Y-84909229D01*
X157869937Y-84895376D01*
X157859848Y-84881824D01*
X157855469Y-84875942D01*
X157817128Y-84843770D01*
X157809025Y-84836344D01*
X157805101Y-84832420D01*
X157780539Y-84812998D01*
X157777707Y-84810692D01*
X157775526Y-84808862D01*
X157719640Y-84761968D01*
X157713078Y-84758673D01*
X157710272Y-84756827D01*
X157709916Y-84756570D01*
X157709538Y-84756359D01*
X157706666Y-84754588D01*
X157700906Y-84750033D01*
X157694252Y-84746930D01*
X157694250Y-84746929D01*
X157632207Y-84717998D01*
X157628907Y-84716401D01*
X157561188Y-84682391D01*
X157554048Y-84680699D01*
X157550879Y-84679545D01*
X157550474Y-84679377D01*
X157550078Y-84679265D01*
X157546854Y-84678197D01*
X157540206Y-84675097D01*
X157465921Y-84659758D01*
X157462403Y-84658978D01*
X157415804Y-84647934D01*
X157395792Y-84643191D01*
X157395790Y-84643191D01*
X157388656Y-84641500D01*
X157381321Y-84641500D01*
X157377983Y-84641110D01*
X157377537Y-84641038D01*
X157377124Y-84641020D01*
X157373739Y-84640724D01*
X157366558Y-84639241D01*
X157359231Y-84639454D01*
X157359229Y-84639454D01*
X157290742Y-84641447D01*
X157287077Y-84641500D01*
X154664442Y-84641500D01*
X154646180Y-84640170D01*
X154622211Y-84636659D01*
X154572365Y-84641020D01*
X154572354Y-84641021D01*
X154561372Y-84641500D01*
X154555820Y-84641500D01*
X154552180Y-84641925D01*
X154552170Y-84641926D01*
X154524713Y-84645135D01*
X154521071Y-84645507D01*
X154457432Y-84651075D01*
X154445574Y-84652113D01*
X154438605Y-84654422D01*
X154435299Y-84655105D01*
X154434873Y-84655174D01*
X154434449Y-84655294D01*
X154431179Y-84656069D01*
X154423887Y-84656921D01*
X154416996Y-84659429D01*
X154416992Y-84659430D01*
X154352635Y-84682854D01*
X154349182Y-84684054D01*
X154277262Y-84707886D01*
X154271016Y-84711739D01*
X154267970Y-84713159D01*
X154267558Y-84713330D01*
X154267197Y-84713531D01*
X154264158Y-84715057D01*
X154257268Y-84717565D01*
X154251143Y-84721594D01*
X154251134Y-84721598D01*
X154193921Y-84759228D01*
X154190829Y-84761198D01*
X154132599Y-84797114D01*
X154132593Y-84797118D01*
X154126349Y-84800970D01*
X154121156Y-84806163D01*
X154118527Y-84808242D01*
X154118164Y-84808504D01*
X154117852Y-84808790D01*
X154115261Y-84810964D01*
X154109126Y-84814999D01*
X154104089Y-84820338D01*
X154057071Y-84870174D01*
X154054517Y-84872802D01*
X153372724Y-85554595D01*
X153310412Y-85588621D01*
X153283629Y-85591500D01*
X150801362Y-85591500D01*
X150798015Y-85591860D01*
X150798012Y-85591860D01*
X150777705Y-85594043D01*
X150740799Y-85598011D01*
X150603796Y-85649111D01*
X150596584Y-85654510D01*
X150596582Y-85654511D01*
X150526214Y-85707188D01*
X150486739Y-85736739D01*
X150481341Y-85743950D01*
X150427221Y-85816246D01*
X150399111Y-85853796D01*
X150348011Y-85990799D01*
X150341500Y-86051362D01*
X150341500Y-86415500D01*
X150321498Y-86483621D01*
X150267842Y-86530114D01*
X150215500Y-86541500D01*
X149684500Y-86541500D01*
X149616379Y-86521498D01*
X149569886Y-86467842D01*
X149558500Y-86415500D01*
X149558500Y-86351362D01*
X149551989Y-86290799D01*
X149500889Y-86153796D01*
X149489324Y-86138346D01*
X149426631Y-86054599D01*
X149413261Y-86036739D01*
X149382901Y-86014012D01*
X149303418Y-85954511D01*
X149303416Y-85954510D01*
X149296204Y-85949111D01*
X149159201Y-85898011D01*
X149122295Y-85894043D01*
X149101988Y-85891860D01*
X149101985Y-85891860D01*
X149098638Y-85891500D01*
X146501362Y-85891500D01*
X146498015Y-85891860D01*
X146498012Y-85891860D01*
X146477705Y-85894043D01*
X146440799Y-85898011D01*
X146303796Y-85949111D01*
X146296584Y-85954510D01*
X146296582Y-85954511D01*
X146217099Y-86014012D01*
X146186739Y-86036739D01*
X146173369Y-86054599D01*
X146110677Y-86138346D01*
X146099111Y-86153796D01*
X146048011Y-86290799D01*
X146041500Y-86351362D01*
X146041500Y-87933629D01*
X146021498Y-88001750D01*
X146004595Y-88022724D01*
X145773595Y-88253724D01*
X145711283Y-88287750D01*
X145640468Y-88282685D01*
X145583632Y-88240138D01*
X145558821Y-88173618D01*
X145558500Y-88164629D01*
X145558500Y-86351362D01*
X145551989Y-86290799D01*
X145500889Y-86153796D01*
X145489324Y-86138346D01*
X145426631Y-86054599D01*
X145413261Y-86036739D01*
X145382901Y-86014012D01*
X145303418Y-85954511D01*
X145303416Y-85954510D01*
X145296204Y-85949111D01*
X145159201Y-85898011D01*
X145122295Y-85894043D01*
X145101988Y-85891860D01*
X145101985Y-85891860D01*
X145098638Y-85891500D01*
X142501362Y-85891500D01*
X142498015Y-85891860D01*
X142498012Y-85891860D01*
X142477705Y-85894043D01*
X142440799Y-85898011D01*
X142303796Y-85949111D01*
X142296584Y-85954510D01*
X142296582Y-85954511D01*
X142217099Y-86014012D01*
X142186739Y-86036739D01*
X142173369Y-86054599D01*
X142110677Y-86138346D01*
X142099111Y-86153796D01*
X142048011Y-86290799D01*
X142041500Y-86351362D01*
X142041500Y-86415500D01*
X142021498Y-86483621D01*
X141967842Y-86530114D01*
X141915500Y-86541500D01*
X140957632Y-86541500D01*
X140889511Y-86521498D01*
X140848513Y-86478500D01*
X140767943Y-86338949D01*
X140767940Y-86338945D01*
X140765587Y-86334869D01*
X140753129Y-86319246D01*
X140608866Y-86138346D01*
X140608864Y-86138344D01*
X140605931Y-86134666D01*
X140516470Y-86051658D01*
X140421668Y-85963695D01*
X140421666Y-85963694D01*
X140418219Y-85960495D01*
X140414321Y-85957837D01*
X140251140Y-85846582D01*
X140206646Y-85816246D01*
X140202399Y-85814201D01*
X140202396Y-85814199D01*
X139980184Y-85707188D01*
X139980182Y-85707187D01*
X139975935Y-85705142D01*
X139731243Y-85629665D01*
X139726593Y-85628964D01*
X139726588Y-85628963D01*
X139618475Y-85612668D01*
X139478034Y-85591500D01*
X139221966Y-85591500D01*
X139081525Y-85612668D01*
X138973412Y-85628963D01*
X138973407Y-85628964D01*
X138968757Y-85629665D01*
X138724065Y-85705142D01*
X138719818Y-85707187D01*
X138719816Y-85707188D01*
X138497603Y-85814200D01*
X138497600Y-85814202D01*
X138493355Y-85816246D01*
X138281781Y-85960495D01*
X138094069Y-86134666D01*
X138091136Y-86138344D01*
X138091134Y-86138346D01*
X137946872Y-86319246D01*
X137934413Y-86334869D01*
X137932060Y-86338945D01*
X137932057Y-86338949D01*
X137897956Y-86398014D01*
X137806378Y-86556631D01*
X137804655Y-86561020D01*
X137804654Y-86561023D01*
X137743790Y-86716104D01*
X137700284Y-86772208D01*
X137633351Y-86795885D01*
X137564244Y-86779616D01*
X137514902Y-86728568D01*
X137500500Y-86670071D01*
X137500500Y-83926500D01*
X137520502Y-83858379D01*
X137574158Y-83811886D01*
X137626500Y-83800500D01*
X200873500Y-83800500D01*
X200941621Y-83820502D01*
G37*
%TD.AperFunction*%
%TA.AperFunction,Conductor*%
G36*
X137709012Y-87834705D02*
G01*
X137743790Y-87883895D01*
X137806378Y-88043369D01*
X137808738Y-88047456D01*
X137926825Y-88251988D01*
X137934413Y-88265131D01*
X137937345Y-88268808D01*
X137937348Y-88268812D01*
X138071927Y-88437569D01*
X138094069Y-88465334D01*
X138281781Y-88639505D01*
X138493355Y-88783754D01*
X138520171Y-88796668D01*
X138572866Y-88844245D01*
X138591500Y-88910189D01*
X138591500Y-96935558D01*
X138590170Y-96953820D01*
X138586659Y-96977789D01*
X138587299Y-96985099D01*
X138591021Y-97027646D01*
X138591500Y-97038628D01*
X138591500Y-97044180D01*
X138591925Y-97047820D01*
X138591926Y-97047830D01*
X138595135Y-97075287D01*
X138595507Y-97078929D01*
X138597094Y-97097067D01*
X138602113Y-97154426D01*
X138604422Y-97161395D01*
X138605105Y-97164701D01*
X138605174Y-97165127D01*
X138605294Y-97165551D01*
X138606069Y-97168821D01*
X138606921Y-97176113D01*
X138609429Y-97183004D01*
X138609430Y-97183008D01*
X138632854Y-97247365D01*
X138634054Y-97250818D01*
X138657886Y-97322738D01*
X138661739Y-97328984D01*
X138663159Y-97332030D01*
X138663330Y-97332442D01*
X138663531Y-97332803D01*
X138665057Y-97335842D01*
X138667565Y-97342732D01*
X138671594Y-97348857D01*
X138671598Y-97348866D01*
X138709228Y-97406079D01*
X138711198Y-97409171D01*
X138747114Y-97467401D01*
X138747118Y-97467407D01*
X138750970Y-97473651D01*
X138756163Y-97478844D01*
X138758242Y-97481473D01*
X138758504Y-97481836D01*
X138758790Y-97482148D01*
X138760964Y-97484739D01*
X138764999Y-97490874D01*
X138770338Y-97495911D01*
X138820174Y-97542929D01*
X138822802Y-97545483D01*
X139716197Y-98438878D01*
X139750223Y-98501190D01*
X139752564Y-98539600D01*
X139752138Y-98544194D01*
X139752138Y-98544205D01*
X139751601Y-98550000D01*
X139771155Y-98761018D01*
X139772750Y-98766624D01*
X139821124Y-98936640D01*
X139829150Y-98964850D01*
X139831745Y-98970062D01*
X139831748Y-98970069D01*
X139860477Y-99027765D01*
X139872935Y-99097660D01*
X139845628Y-99163195D01*
X139813833Y-99191168D01*
X139717011Y-99250889D01*
X139676348Y-99275970D01*
X139550970Y-99401348D01*
X139457885Y-99552262D01*
X139455578Y-99559225D01*
X139413215Y-99687071D01*
X139402113Y-99720574D01*
X139401415Y-99727408D01*
X139401414Y-99727412D01*
X139391869Y-99820845D01*
X139391500Y-99824455D01*
X139391501Y-100575544D01*
X139391826Y-100578721D01*
X139391826Y-100578730D01*
X139393535Y-100595458D01*
X139402113Y-100679426D01*
X139457885Y-100847738D01*
X139550970Y-100998652D01*
X139676348Y-101124030D01*
X139680898Y-101126837D01*
X139721451Y-101184110D01*
X139724638Y-101255035D01*
X139688974Y-101316424D01*
X139681934Y-101322525D01*
X139676348Y-101325970D01*
X139550970Y-101451348D01*
X139457885Y-101602262D01*
X139455578Y-101609225D01*
X139410256Y-101746000D01*
X139402113Y-101770574D01*
X139401415Y-101777408D01*
X139401414Y-101777412D01*
X139393309Y-101856749D01*
X139391500Y-101874455D01*
X139391501Y-102168659D01*
X139391501Y-102380500D01*
X139371499Y-102448621D01*
X139317844Y-102495114D01*
X139265501Y-102506500D01*
X139194039Y-102506500D01*
X139064115Y-102530787D01*
X138991454Y-102544369D01*
X138991451Y-102544370D01*
X138985726Y-102545440D01*
X138788115Y-102621995D01*
X138783164Y-102625060D01*
X138783161Y-102625062D01*
X138612886Y-102730492D01*
X138612883Y-102730495D01*
X138607935Y-102733558D01*
X138451323Y-102876329D01*
X138323611Y-103045446D01*
X138321015Y-103050660D01*
X138255114Y-103183008D01*
X138229150Y-103235150D01*
X138227556Y-103240753D01*
X138227555Y-103240755D01*
X138198816Y-103341763D01*
X138171155Y-103438982D01*
X138151601Y-103650000D01*
X138171155Y-103861018D01*
X138229150Y-104064850D01*
X138323611Y-104254554D01*
X138451323Y-104423671D01*
X138482953Y-104452506D01*
X138500386Y-104468398D01*
X138537252Y-104529072D01*
X138541500Y-104561513D01*
X138541500Y-117935558D01*
X138540170Y-117953820D01*
X138536659Y-117977789D01*
X138539095Y-118005633D01*
X138541021Y-118027646D01*
X138541500Y-118038621D01*
X138541500Y-118044180D01*
X138541925Y-118047820D01*
X138541926Y-118047830D01*
X138545135Y-118075287D01*
X138545507Y-118078929D01*
X138548761Y-118116113D01*
X138552113Y-118154426D01*
X138554422Y-118161395D01*
X138555105Y-118164701D01*
X138555174Y-118165127D01*
X138555294Y-118165551D01*
X138556069Y-118168821D01*
X138556921Y-118176113D01*
X138559429Y-118183004D01*
X138559430Y-118183008D01*
X138582854Y-118247365D01*
X138584054Y-118250818D01*
X138607886Y-118322738D01*
X138611739Y-118328984D01*
X138613159Y-118332030D01*
X138613330Y-118332442D01*
X138613531Y-118332803D01*
X138615057Y-118335842D01*
X138617565Y-118342732D01*
X138621594Y-118348857D01*
X138621598Y-118348866D01*
X138659228Y-118406079D01*
X138661198Y-118409171D01*
X138697114Y-118467401D01*
X138697118Y-118467407D01*
X138700970Y-118473651D01*
X138706163Y-118478844D01*
X138708242Y-118481473D01*
X138708504Y-118481836D01*
X138708790Y-118482148D01*
X138710964Y-118484739D01*
X138714999Y-118490874D01*
X138720338Y-118495911D01*
X138770174Y-118542929D01*
X138772802Y-118545483D01*
X139518090Y-119290771D01*
X139530063Y-119304624D01*
X139544531Y-119324058D01*
X139550149Y-119328772D01*
X139582871Y-119356229D01*
X139590975Y-119363656D01*
X139594900Y-119367581D01*
X139619469Y-119387008D01*
X139622284Y-119389301D01*
X139680360Y-119438032D01*
X139686923Y-119441327D01*
X139689735Y-119443177D01*
X139690094Y-119443437D01*
X139690480Y-119443652D01*
X139693340Y-119445416D01*
X139699095Y-119449967D01*
X139705745Y-119453068D01*
X139767786Y-119481999D01*
X139771078Y-119483592D01*
X139838812Y-119517609D01*
X139845958Y-119519303D01*
X139849110Y-119520450D01*
X139849524Y-119520622D01*
X139849924Y-119520735D01*
X139853145Y-119521802D01*
X139859794Y-119524903D01*
X139866976Y-119526386D01*
X139866979Y-119526387D01*
X139901429Y-119533500D01*
X139934079Y-119540242D01*
X139937597Y-119541022D01*
X139984196Y-119552066D01*
X140004208Y-119556809D01*
X140004210Y-119556809D01*
X140011344Y-119558500D01*
X140018679Y-119558500D01*
X140022017Y-119558890D01*
X140022463Y-119558962D01*
X140022876Y-119558980D01*
X140026261Y-119559276D01*
X140033442Y-119560759D01*
X140040769Y-119560546D01*
X140040771Y-119560546D01*
X140109258Y-119558553D01*
X140112923Y-119558500D01*
X145535558Y-119558500D01*
X145553821Y-119559830D01*
X145577789Y-119563341D01*
X145627646Y-119558979D01*
X145638628Y-119558500D01*
X145644180Y-119558500D01*
X145647820Y-119558075D01*
X145647830Y-119558074D01*
X145675287Y-119554865D01*
X145678929Y-119554493D01*
X145747111Y-119548527D01*
X145754426Y-119547887D01*
X145761395Y-119545578D01*
X145764701Y-119544895D01*
X145765127Y-119544826D01*
X145765551Y-119544706D01*
X145768821Y-119543931D01*
X145776113Y-119543079D01*
X145783004Y-119540571D01*
X145783008Y-119540570D01*
X145847365Y-119517146D01*
X145850825Y-119515944D01*
X145915773Y-119494422D01*
X145922738Y-119492114D01*
X145928984Y-119488261D01*
X145932030Y-119486841D01*
X145932442Y-119486670D01*
X145932803Y-119486469D01*
X145935842Y-119484943D01*
X145942732Y-119482435D01*
X145948857Y-119478406D01*
X145948866Y-119478402D01*
X146006079Y-119440772D01*
X146009171Y-119438802D01*
X146067401Y-119402886D01*
X146067407Y-119402882D01*
X146073651Y-119399030D01*
X146078844Y-119393837D01*
X146081473Y-119391758D01*
X146081836Y-119391496D01*
X146082148Y-119391210D01*
X146084739Y-119389036D01*
X146090874Y-119385001D01*
X146142930Y-119329825D01*
X146145483Y-119327198D01*
X147590771Y-117881910D01*
X147604624Y-117869937D01*
X147618176Y-117859848D01*
X147624058Y-117855469D01*
X147656230Y-117817128D01*
X147663656Y-117809025D01*
X147667580Y-117805101D01*
X147687002Y-117780539D01*
X147689308Y-117777707D01*
X147738032Y-117719640D01*
X147741327Y-117713078D01*
X147743173Y-117710272D01*
X147743430Y-117709916D01*
X147743641Y-117709538D01*
X147745413Y-117706666D01*
X147749967Y-117700906D01*
X147757002Y-117685819D01*
X147782006Y-117632199D01*
X147783603Y-117628901D01*
X147804631Y-117587030D01*
X147817609Y-117561188D01*
X147819302Y-117554045D01*
X147820453Y-117550882D01*
X147820621Y-117550476D01*
X147820741Y-117550054D01*
X147821800Y-117546860D01*
X147824902Y-117540207D01*
X147840229Y-117465980D01*
X147841022Y-117462403D01*
X147856808Y-117395794D01*
X147858500Y-117388656D01*
X147858500Y-117381320D01*
X147858891Y-117377975D01*
X147858960Y-117377546D01*
X147858979Y-117377114D01*
X147859273Y-117373747D01*
X147860758Y-117366558D01*
X147858553Y-117290776D01*
X147858500Y-117287112D01*
X147858500Y-116924784D01*
X147878502Y-116856663D01*
X147932158Y-116810170D01*
X148002432Y-116800066D01*
X148067012Y-116829560D01*
X148103813Y-116884283D01*
X148164221Y-117062239D01*
X148168941Y-117076145D01*
X148225015Y-117189851D01*
X148296647Y-117335106D01*
X148299885Y-117341673D01*
X148302179Y-117345106D01*
X148459757Y-117580938D01*
X148464367Y-117587838D01*
X148467081Y-117590932D01*
X148467085Y-117590938D01*
X148653179Y-117803136D01*
X148659573Y-117810427D01*
X148662662Y-117813136D01*
X148879062Y-118002915D01*
X148879068Y-118002919D01*
X148882162Y-118005633D01*
X148885588Y-118007922D01*
X148885593Y-118007926D01*
X149015050Y-118094426D01*
X149128327Y-118170115D01*
X149132026Y-118171939D01*
X149132031Y-118171942D01*
X149268313Y-118239148D01*
X149393855Y-118301059D01*
X149397760Y-118302384D01*
X149397761Y-118302385D01*
X149670290Y-118394896D01*
X149670294Y-118394897D01*
X149674203Y-118396224D01*
X149678247Y-118397028D01*
X149678253Y-118397030D01*
X149960535Y-118453180D01*
X149960541Y-118453181D01*
X149964574Y-118453983D01*
X149968679Y-118454252D01*
X149968686Y-118454253D01*
X150255881Y-118473076D01*
X150260000Y-118473346D01*
X150264119Y-118473076D01*
X150551314Y-118454253D01*
X150551321Y-118454252D01*
X150555426Y-118453983D01*
X150559459Y-118453181D01*
X150559465Y-118453180D01*
X150841747Y-118397030D01*
X150841753Y-118397028D01*
X150845797Y-118396224D01*
X150849706Y-118394897D01*
X150849710Y-118394896D01*
X151122239Y-118302385D01*
X151122240Y-118302384D01*
X151126145Y-118301059D01*
X151251687Y-118239148D01*
X151387969Y-118171942D01*
X151387974Y-118171939D01*
X151391673Y-118170115D01*
X151504950Y-118094426D01*
X151634407Y-118007926D01*
X151634412Y-118007922D01*
X151637838Y-118005633D01*
X151640932Y-118002919D01*
X151640938Y-118002915D01*
X151857338Y-117813136D01*
X151860427Y-117810427D01*
X151866821Y-117803136D01*
X152052915Y-117590938D01*
X152052919Y-117590932D01*
X152055633Y-117587838D01*
X152060244Y-117580938D01*
X152217821Y-117345106D01*
X152220115Y-117341673D01*
X152223354Y-117335106D01*
X152294985Y-117189851D01*
X152351059Y-117076145D01*
X152354753Y-117065264D01*
X152444896Y-116799710D01*
X152444897Y-116799706D01*
X152446224Y-116795797D01*
X152447435Y-116789710D01*
X152503180Y-116509465D01*
X152503181Y-116509459D01*
X152503983Y-116505426D01*
X152504639Y-116495426D01*
X152523076Y-116214119D01*
X152523346Y-116210000D01*
X152517451Y-116120055D01*
X152504253Y-115918686D01*
X152504252Y-115918679D01*
X152503983Y-115914574D01*
X152501191Y-115900535D01*
X152447030Y-115628253D01*
X152447028Y-115628247D01*
X152446224Y-115624203D01*
X152444205Y-115618253D01*
X152373512Y-115410000D01*
X154296654Y-115410000D01*
X154296924Y-115414119D01*
X154315362Y-115695426D01*
X154316017Y-115705426D01*
X154316819Y-115709459D01*
X154316820Y-115709465D01*
X154372565Y-115989710D01*
X154373776Y-115995797D01*
X154375103Y-115999706D01*
X154375104Y-115999710D01*
X154465546Y-116266145D01*
X154468941Y-116276145D01*
X154493438Y-116325819D01*
X154596647Y-116535106D01*
X154599885Y-116541673D01*
X154602179Y-116545106D01*
X154759757Y-116780938D01*
X154764367Y-116787838D01*
X154767081Y-116790932D01*
X154767085Y-116790938D01*
X154937992Y-116985819D01*
X154959573Y-117010427D01*
X154962662Y-117013136D01*
X155179062Y-117202915D01*
X155179068Y-117202919D01*
X155182162Y-117205633D01*
X155185588Y-117207922D01*
X155185593Y-117207926D01*
X155188603Y-117209937D01*
X155428327Y-117370115D01*
X155432026Y-117371939D01*
X155432031Y-117371942D01*
X155568313Y-117439148D01*
X155693855Y-117501059D01*
X155697760Y-117502384D01*
X155697761Y-117502385D01*
X155970290Y-117594896D01*
X155970294Y-117594897D01*
X155974203Y-117596224D01*
X155978247Y-117597028D01*
X155978253Y-117597030D01*
X156260535Y-117653180D01*
X156260541Y-117653181D01*
X156264574Y-117653983D01*
X156268679Y-117654252D01*
X156268686Y-117654253D01*
X156555881Y-117673076D01*
X156560000Y-117673346D01*
X156564119Y-117673076D01*
X156851314Y-117654253D01*
X156851321Y-117654252D01*
X156855426Y-117653983D01*
X156859459Y-117653181D01*
X156859465Y-117653180D01*
X157141747Y-117597030D01*
X157141753Y-117597028D01*
X157145797Y-117596224D01*
X157149706Y-117594897D01*
X157149710Y-117594896D01*
X157422239Y-117502385D01*
X157422240Y-117502384D01*
X157426145Y-117501059D01*
X157551687Y-117439148D01*
X157687969Y-117371942D01*
X157687974Y-117371939D01*
X157691673Y-117370115D01*
X157931397Y-117209937D01*
X157934407Y-117207926D01*
X157934412Y-117207922D01*
X157937838Y-117205633D01*
X157940932Y-117202919D01*
X157940938Y-117202915D01*
X158157338Y-117013136D01*
X158160427Y-117010427D01*
X158182008Y-116985819D01*
X158352915Y-116790938D01*
X158352919Y-116790932D01*
X158355633Y-116787838D01*
X158360244Y-116780938D01*
X158517821Y-116545106D01*
X158520115Y-116541673D01*
X158523354Y-116535106D01*
X158626562Y-116325819D01*
X158651059Y-116276145D01*
X158654454Y-116266145D01*
X158744896Y-115999710D01*
X158744897Y-115999706D01*
X158746224Y-115995797D01*
X158747435Y-115989710D01*
X158803180Y-115709465D01*
X158803181Y-115709459D01*
X158803983Y-115705426D01*
X158804639Y-115695426D01*
X158823076Y-115414119D01*
X158823346Y-115410000D01*
X158816147Y-115300157D01*
X158804253Y-115118686D01*
X158804252Y-115118679D01*
X158803983Y-115114574D01*
X158801191Y-115100535D01*
X158747030Y-114828253D01*
X158747028Y-114828247D01*
X158746224Y-114824203D01*
X158744205Y-114818253D01*
X158652385Y-114547761D01*
X158652384Y-114547760D01*
X158651059Y-114543855D01*
X158520115Y-114278327D01*
X158406049Y-114107615D01*
X158357926Y-114035593D01*
X158357922Y-114035588D01*
X158355633Y-114032162D01*
X158352919Y-114029068D01*
X158352915Y-114029062D01*
X158163136Y-113812662D01*
X158160427Y-113809573D01*
X158149024Y-113799573D01*
X157940938Y-113617085D01*
X157940932Y-113617081D01*
X157937838Y-113614367D01*
X157934412Y-113612078D01*
X157934407Y-113612074D01*
X157734174Y-113478283D01*
X157691673Y-113449885D01*
X157687974Y-113448061D01*
X157687969Y-113448058D01*
X157530145Y-113370228D01*
X157426145Y-113318941D01*
X157405668Y-113311990D01*
X157149710Y-113225104D01*
X157149706Y-113225103D01*
X157145797Y-113223776D01*
X157141753Y-113222972D01*
X157141747Y-113222970D01*
X156859465Y-113166820D01*
X156859459Y-113166819D01*
X156855426Y-113166017D01*
X156851321Y-113165748D01*
X156851314Y-113165747D01*
X156760622Y-113159803D01*
X158967000Y-113159803D01*
X158967325Y-113166193D01*
X158976908Y-113259988D01*
X158979767Y-113273346D01*
X159031036Y-113428065D01*
X159037192Y-113441267D01*
X159122512Y-113579592D01*
X159131558Y-113591032D01*
X159246468Y-113705942D01*
X159257908Y-113714988D01*
X159396233Y-113800308D01*
X159409435Y-113806464D01*
X159564154Y-113857733D01*
X159577512Y-113860592D01*
X159671307Y-113870175D01*
X159677697Y-113870500D01*
X159927885Y-113870500D01*
X159943124Y-113866025D01*
X159944329Y-113864635D01*
X159946000Y-113856952D01*
X159946000Y-113047115D01*
X159941525Y-113031876D01*
X159940135Y-113030671D01*
X159932452Y-113029000D01*
X158985115Y-113029000D01*
X158969876Y-113033475D01*
X158968671Y-113034865D01*
X158967000Y-113042548D01*
X158967000Y-113159803D01*
X156760622Y-113159803D01*
X156564119Y-113146924D01*
X156560000Y-113146654D01*
X156555881Y-113146924D01*
X156268686Y-113165747D01*
X156268679Y-113165748D01*
X156264574Y-113166017D01*
X156260541Y-113166819D01*
X156260535Y-113166820D01*
X155978253Y-113222970D01*
X155978247Y-113222972D01*
X155974203Y-113223776D01*
X155970294Y-113225103D01*
X155970290Y-113225104D01*
X155714332Y-113311990D01*
X155693855Y-113318941D01*
X155589855Y-113370228D01*
X155432031Y-113448058D01*
X155432026Y-113448061D01*
X155428327Y-113449885D01*
X155385826Y-113478283D01*
X155185593Y-113612074D01*
X155185588Y-113612078D01*
X155182162Y-113614367D01*
X155179068Y-113617081D01*
X155179062Y-113617085D01*
X154970976Y-113799573D01*
X154959573Y-113809573D01*
X154956864Y-113812662D01*
X154767085Y-114029062D01*
X154767081Y-114029068D01*
X154764367Y-114032162D01*
X154762078Y-114035588D01*
X154762074Y-114035593D01*
X154713951Y-114107615D01*
X154599885Y-114278327D01*
X154468941Y-114543855D01*
X154467616Y-114547760D01*
X154467615Y-114547761D01*
X154375796Y-114818253D01*
X154373776Y-114824203D01*
X154372972Y-114828247D01*
X154372970Y-114828253D01*
X154318810Y-115100535D01*
X154316017Y-115114574D01*
X154315748Y-115118679D01*
X154315747Y-115118686D01*
X154303853Y-115300157D01*
X154296654Y-115410000D01*
X152373512Y-115410000D01*
X152352385Y-115347761D01*
X152352384Y-115347760D01*
X152351059Y-115343855D01*
X152236397Y-115111344D01*
X152221942Y-115082031D01*
X152221939Y-115082026D01*
X152220115Y-115078327D01*
X152111219Y-114915352D01*
X152057926Y-114835593D01*
X152057922Y-114835588D01*
X152055633Y-114832162D01*
X152052919Y-114829068D01*
X152052915Y-114829062D01*
X151863136Y-114612662D01*
X151860427Y-114609573D01*
X151781274Y-114540157D01*
X151640938Y-114417085D01*
X151640932Y-114417081D01*
X151637838Y-114414367D01*
X151634412Y-114412078D01*
X151634407Y-114412074D01*
X151439783Y-114282031D01*
X151391673Y-114249885D01*
X151387974Y-114248061D01*
X151387969Y-114248058D01*
X151251687Y-114180852D01*
X151126145Y-114118941D01*
X151122239Y-114117615D01*
X150849710Y-114025104D01*
X150849706Y-114025103D01*
X150845797Y-114023776D01*
X150841753Y-114022972D01*
X150841747Y-114022970D01*
X150559465Y-113966820D01*
X150559459Y-113966819D01*
X150555426Y-113966017D01*
X150551321Y-113965748D01*
X150551314Y-113965747D01*
X150264119Y-113946924D01*
X150260000Y-113946654D01*
X150255881Y-113946924D01*
X149968686Y-113965747D01*
X149968679Y-113965748D01*
X149964574Y-113966017D01*
X149960541Y-113966819D01*
X149960535Y-113966820D01*
X149815887Y-113995593D01*
X149675516Y-114023515D01*
X149604803Y-114017187D01*
X149548735Y-113973633D01*
X149525116Y-113906680D01*
X149541443Y-113837587D01*
X149561840Y-113810841D01*
X152449172Y-110923510D01*
X152511484Y-110889484D01*
X152582300Y-110894549D01*
X152627362Y-110923510D01*
X152736998Y-111033146D01*
X152741506Y-111036303D01*
X152741509Y-111036305D01*
X152899971Y-111147261D01*
X152910932Y-111154936D01*
X153103373Y-111244672D01*
X153108682Y-111246095D01*
X153108686Y-111246096D01*
X153116886Y-111248293D01*
X153177508Y-111285244D01*
X153208530Y-111349105D01*
X153200102Y-111419599D01*
X153154899Y-111474346D01*
X153116886Y-111491707D01*
X153108686Y-111493904D01*
X153108682Y-111493905D01*
X153103373Y-111495328D01*
X153058302Y-111516345D01*
X152915914Y-111582741D01*
X152915911Y-111582743D01*
X152910933Y-111585064D01*
X152736998Y-111706854D01*
X152586854Y-111856998D01*
X152465064Y-112030933D01*
X152375328Y-112223373D01*
X152320371Y-112428473D01*
X152301865Y-112640000D01*
X152320371Y-112851527D01*
X152375328Y-113056627D01*
X152465064Y-113249068D01*
X152468220Y-113253575D01*
X152468221Y-113253577D01*
X152582581Y-113416899D01*
X152586854Y-113423002D01*
X152736998Y-113573146D01*
X152741506Y-113576303D01*
X152741509Y-113576305D01*
X152899347Y-113686824D01*
X152910932Y-113694936D01*
X153103373Y-113784672D01*
X153308473Y-113839629D01*
X153520000Y-113858135D01*
X153731527Y-113839629D01*
X153936627Y-113784672D01*
X154129068Y-113694936D01*
X154140653Y-113686824D01*
X154298491Y-113576305D01*
X154298494Y-113576303D01*
X154303002Y-113573146D01*
X154453146Y-113423002D01*
X154457420Y-113416899D01*
X154571779Y-113253577D01*
X154571780Y-113253575D01*
X154574936Y-113249068D01*
X154664672Y-113056627D01*
X154719629Y-112851527D01*
X154738135Y-112640000D01*
X154719629Y-112428473D01*
X154718206Y-112423163D01*
X154717250Y-112417740D01*
X154719182Y-112417399D01*
X154720658Y-112355064D01*
X154751585Y-112304319D01*
X155992247Y-111063657D01*
X156000537Y-111056113D01*
X156007018Y-111052000D01*
X156021757Y-111036305D01*
X156053658Y-111002333D01*
X156056413Y-110999491D01*
X156076134Y-110979770D01*
X156078612Y-110976575D01*
X156086318Y-110967553D01*
X156111158Y-110941101D01*
X156116586Y-110935321D01*
X156126346Y-110917568D01*
X156137199Y-110901045D01*
X156144753Y-110891306D01*
X156149613Y-110885041D01*
X156167176Y-110844457D01*
X156172383Y-110833827D01*
X156193695Y-110795060D01*
X156195666Y-110787383D01*
X156195668Y-110787378D01*
X156198732Y-110775442D01*
X156205138Y-110756730D01*
X156206661Y-110753212D01*
X156213181Y-110738145D01*
X156214421Y-110730317D01*
X156214423Y-110730310D01*
X156220099Y-110694476D01*
X156222505Y-110682856D01*
X156231528Y-110647711D01*
X156231528Y-110647710D01*
X156233500Y-110640030D01*
X156233500Y-110619776D01*
X156235051Y-110600065D01*
X156236980Y-110587886D01*
X156238220Y-110580057D01*
X156234059Y-110536038D01*
X156233500Y-110524181D01*
X156233500Y-108978768D01*
X156234027Y-108967585D01*
X156235702Y-108960092D01*
X156233562Y-108892001D01*
X156233500Y-108888044D01*
X156233500Y-108860144D01*
X156232996Y-108856153D01*
X156232063Y-108844311D01*
X156232002Y-108842344D01*
X156230674Y-108800111D01*
X156228462Y-108792497D01*
X156228461Y-108792492D01*
X156225023Y-108780659D01*
X156221012Y-108761295D01*
X156219467Y-108749064D01*
X156218474Y-108741203D01*
X156215557Y-108733836D01*
X156215556Y-108733831D01*
X156202198Y-108700092D01*
X156198354Y-108688865D01*
X156192170Y-108667581D01*
X156186018Y-108646407D01*
X156175707Y-108628972D01*
X156167012Y-108611224D01*
X156159552Y-108592383D01*
X156135662Y-108559500D01*
X156133564Y-108556613D01*
X156127048Y-108546693D01*
X156108580Y-108515465D01*
X156108578Y-108515462D01*
X156104542Y-108508638D01*
X156090221Y-108494317D01*
X156077380Y-108479283D01*
X156070131Y-108469306D01*
X156065472Y-108462893D01*
X156059368Y-108457843D01*
X156059363Y-108457838D01*
X156031402Y-108434707D01*
X156022621Y-108426717D01*
X155110404Y-107514499D01*
X155076379Y-107452187D01*
X155073500Y-107425404D01*
X155073500Y-107150371D01*
X155093502Y-107082250D01*
X155147158Y-107035757D01*
X155217432Y-107025653D01*
X155282012Y-107055147D01*
X155288595Y-107061276D01*
X156818090Y-108590771D01*
X156830063Y-108604624D01*
X156844531Y-108624058D01*
X156850149Y-108628772D01*
X156882871Y-108656229D01*
X156890975Y-108663656D01*
X156894900Y-108667581D01*
X156919469Y-108687008D01*
X156922284Y-108689301D01*
X156980360Y-108738032D01*
X156986923Y-108741327D01*
X156989735Y-108743177D01*
X156990094Y-108743437D01*
X156990480Y-108743652D01*
X156993340Y-108745416D01*
X156999095Y-108749967D01*
X157044487Y-108771134D01*
X157067786Y-108781999D01*
X157071078Y-108783592D01*
X157138812Y-108817609D01*
X157145958Y-108819303D01*
X157149110Y-108820450D01*
X157149524Y-108820622D01*
X157149924Y-108820735D01*
X157153145Y-108821802D01*
X157159794Y-108824903D01*
X157166976Y-108826386D01*
X157166979Y-108826387D01*
X157201429Y-108833500D01*
X157234079Y-108840242D01*
X157237597Y-108841022D01*
X157276522Y-108850247D01*
X157304208Y-108856809D01*
X157304210Y-108856809D01*
X157311344Y-108858500D01*
X157318679Y-108858500D01*
X157322017Y-108858890D01*
X157322463Y-108858962D01*
X157322876Y-108858980D01*
X157326261Y-108859276D01*
X157333442Y-108860759D01*
X157340769Y-108860546D01*
X157340771Y-108860546D01*
X157409258Y-108858553D01*
X157412923Y-108858500D01*
X158768630Y-108858500D01*
X158836751Y-108878502D01*
X158883244Y-108932158D01*
X158893907Y-108971031D01*
X158898011Y-109009201D01*
X158949111Y-109146204D01*
X158954510Y-109153416D01*
X158954511Y-109153418D01*
X158980259Y-109187813D01*
X159036739Y-109263261D01*
X159061117Y-109281510D01*
X159146393Y-109345347D01*
X159153796Y-109350889D01*
X159290799Y-109401989D01*
X159328968Y-109406092D01*
X159394560Y-109433260D01*
X159435051Y-109491577D01*
X159441500Y-109531370D01*
X159441500Y-109575860D01*
X159421498Y-109643981D01*
X159381648Y-109683100D01*
X159251348Y-109763470D01*
X159125970Y-109888848D01*
X159122117Y-109895095D01*
X159122116Y-109895096D01*
X159089506Y-109947965D01*
X159032885Y-110039762D01*
X159012549Y-110101132D01*
X158993530Y-110158531D01*
X158977113Y-110208074D01*
X158976415Y-110214908D01*
X158976414Y-110214912D01*
X158975159Y-110227197D01*
X158966500Y-110311955D01*
X158966501Y-111088044D01*
X158966826Y-111091221D01*
X158966826Y-111091230D01*
X158969546Y-111117850D01*
X158977113Y-111191926D01*
X159032885Y-111360238D01*
X159066512Y-111414756D01*
X159116210Y-111495328D01*
X159125970Y-111511152D01*
X159251348Y-111636530D01*
X159256214Y-111639532D01*
X159296856Y-111696927D01*
X159300046Y-111767852D01*
X159264384Y-111829242D01*
X159255830Y-111836655D01*
X159246468Y-111844058D01*
X159131558Y-111958968D01*
X159122512Y-111970408D01*
X159037192Y-112108733D01*
X159031036Y-112121935D01*
X158979767Y-112276654D01*
X158976908Y-112290012D01*
X158967325Y-112383807D01*
X158967000Y-112390198D01*
X158967000Y-112502885D01*
X158971475Y-112518124D01*
X158972865Y-112519329D01*
X158980548Y-112521000D01*
X160328000Y-112521000D01*
X160396121Y-112541002D01*
X160442614Y-112594658D01*
X160454000Y-112647000D01*
X160454000Y-113852385D01*
X160458475Y-113867624D01*
X160459865Y-113868829D01*
X160467548Y-113870500D01*
X160722303Y-113870500D01*
X160728693Y-113870175D01*
X160822488Y-113860592D01*
X160835846Y-113857733D01*
X160990565Y-113806464D01*
X161003767Y-113800308D01*
X161142092Y-113714988D01*
X161153532Y-113705942D01*
X161268442Y-113591032D01*
X161277488Y-113579592D01*
X161362808Y-113441267D01*
X161368964Y-113428065D01*
X161420231Y-113273350D01*
X161421357Y-113268093D01*
X161455178Y-113205670D01*
X161517378Y-113171440D01*
X161588210Y-113176272D01*
X161624518Y-113198062D01*
X161624899Y-113197580D01*
X161647062Y-113215104D01*
X161649452Y-113216994D01*
X161652284Y-113219301D01*
X161710360Y-113268032D01*
X161716922Y-113271327D01*
X161719728Y-113273173D01*
X161720087Y-113273432D01*
X161720459Y-113273640D01*
X161723338Y-113275416D01*
X161729094Y-113279967D01*
X161735745Y-113283068D01*
X161735746Y-113283069D01*
X161771959Y-113299955D01*
X161788387Y-113307615D01*
X161797769Y-113311990D01*
X161801064Y-113313584D01*
X161868812Y-113347609D01*
X161875954Y-113349302D01*
X161879128Y-113350457D01*
X161879522Y-113350620D01*
X161879941Y-113350739D01*
X161883139Y-113351799D01*
X161889794Y-113354902D01*
X161912924Y-113359678D01*
X161964016Y-113370228D01*
X161967593Y-113371021D01*
X161999113Y-113378491D01*
X162041344Y-113388500D01*
X162048680Y-113388500D01*
X162052025Y-113388891D01*
X162052454Y-113388960D01*
X162052886Y-113388979D01*
X162056253Y-113389273D01*
X162063442Y-113390758D01*
X162139224Y-113388553D01*
X162142888Y-113388500D01*
X162333537Y-113388500D01*
X162401658Y-113408502D01*
X162448151Y-113462158D01*
X162458255Y-113532432D01*
X162428761Y-113597012D01*
X162416618Y-113609229D01*
X162199573Y-113799573D01*
X162196864Y-113802662D01*
X162007085Y-114019062D01*
X162007081Y-114019068D01*
X162004367Y-114022162D01*
X162002078Y-114025588D01*
X162002074Y-114025593D01*
X161880155Y-114208058D01*
X161839885Y-114268327D01*
X161838061Y-114272026D01*
X161838058Y-114272031D01*
X161833127Y-114282031D01*
X161708941Y-114533855D01*
X161707616Y-114537760D01*
X161707615Y-114537761D01*
X161621878Y-114790336D01*
X161613776Y-114814203D01*
X161612972Y-114818247D01*
X161612970Y-114818253D01*
X161561238Y-115078327D01*
X161556017Y-115104574D01*
X161555748Y-115108679D01*
X161555747Y-115108686D01*
X161541232Y-115330157D01*
X161536654Y-115400000D01*
X161536924Y-115404119D01*
X161554051Y-115665426D01*
X161556017Y-115695426D01*
X161556819Y-115699459D01*
X161556820Y-115699465D01*
X161608587Y-115959710D01*
X161613776Y-115985797D01*
X161615103Y-115989706D01*
X161615104Y-115989710D01*
X161698757Y-116236145D01*
X161708941Y-116266145D01*
X161726011Y-116300759D01*
X161826784Y-116505106D01*
X161839885Y-116531673D01*
X161842179Y-116535106D01*
X161989640Y-116755797D01*
X162004367Y-116777838D01*
X162007081Y-116780932D01*
X162007085Y-116780938D01*
X162170555Y-116967338D01*
X162199573Y-117000427D01*
X162202662Y-117003136D01*
X162419062Y-117192915D01*
X162419068Y-117192919D01*
X162422162Y-117195633D01*
X162425588Y-117197922D01*
X162425593Y-117197926D01*
X162443569Y-117209937D01*
X162668327Y-117360115D01*
X162672026Y-117361939D01*
X162672031Y-117361942D01*
X162808313Y-117429148D01*
X162933855Y-117491059D01*
X162937760Y-117492384D01*
X162937761Y-117492385D01*
X163210290Y-117584896D01*
X163210294Y-117584897D01*
X163214203Y-117586224D01*
X163218247Y-117587028D01*
X163218253Y-117587030D01*
X163500535Y-117643180D01*
X163500541Y-117643181D01*
X163504574Y-117643983D01*
X163508679Y-117644252D01*
X163508686Y-117644253D01*
X163795881Y-117663076D01*
X163800000Y-117663346D01*
X163804119Y-117663076D01*
X164091314Y-117644253D01*
X164091321Y-117644252D01*
X164095426Y-117643983D01*
X164099459Y-117643181D01*
X164099465Y-117643180D01*
X164381747Y-117587030D01*
X164381753Y-117587028D01*
X164385797Y-117586224D01*
X164389706Y-117584897D01*
X164389710Y-117584896D01*
X164662239Y-117492385D01*
X164662240Y-117492384D01*
X164666145Y-117491059D01*
X164791687Y-117429148D01*
X164927969Y-117361942D01*
X164927974Y-117361939D01*
X164931673Y-117360115D01*
X165156431Y-117209937D01*
X165174407Y-117197926D01*
X165174412Y-117197922D01*
X165177838Y-117195633D01*
X165180932Y-117192919D01*
X165180938Y-117192915D01*
X165397338Y-117003136D01*
X165400427Y-117000427D01*
X165429445Y-116967338D01*
X165592915Y-116780938D01*
X165592919Y-116780932D01*
X165595633Y-116777838D01*
X165610361Y-116755797D01*
X165757821Y-116535106D01*
X165760115Y-116531673D01*
X165773217Y-116505106D01*
X165842494Y-116364625D01*
X165890562Y-116312376D01*
X165959248Y-116294409D01*
X166026744Y-116316428D01*
X166071620Y-116371443D01*
X166081500Y-116420353D01*
X166081500Y-117875558D01*
X166080170Y-117893820D01*
X166076659Y-117917789D01*
X166080607Y-117962915D01*
X166081021Y-117967646D01*
X166081500Y-117978628D01*
X166081500Y-117984180D01*
X166081925Y-117987820D01*
X166081926Y-117987830D01*
X166085135Y-118015287D01*
X166085507Y-118018929D01*
X166088036Y-118047830D01*
X166092113Y-118094426D01*
X166094422Y-118101395D01*
X166095105Y-118104701D01*
X166095174Y-118105127D01*
X166095294Y-118105551D01*
X166096069Y-118108821D01*
X166096921Y-118116113D01*
X166099429Y-118123004D01*
X166099430Y-118123008D01*
X166122854Y-118187365D01*
X166124054Y-118190818D01*
X166147886Y-118262738D01*
X166151739Y-118268984D01*
X166153159Y-118272030D01*
X166153330Y-118272442D01*
X166153531Y-118272803D01*
X166155057Y-118275842D01*
X166157565Y-118282732D01*
X166161594Y-118288857D01*
X166161598Y-118288866D01*
X166199228Y-118346079D01*
X166201198Y-118349171D01*
X166237114Y-118407401D01*
X166237118Y-118407407D01*
X166240970Y-118413651D01*
X166246163Y-118418844D01*
X166248242Y-118421473D01*
X166248504Y-118421836D01*
X166248790Y-118422148D01*
X166250964Y-118424739D01*
X166254999Y-118430874D01*
X166260338Y-118435911D01*
X166310174Y-118482929D01*
X166312802Y-118485483D01*
X167668090Y-119840771D01*
X167680063Y-119854624D01*
X167694531Y-119874058D01*
X167700149Y-119878772D01*
X167705188Y-119884113D01*
X167703695Y-119885522D01*
X167737337Y-119936087D01*
X167738464Y-120007074D01*
X167701034Y-120067402D01*
X167636930Y-120097917D01*
X167617020Y-120099500D01*
X137626500Y-120099500D01*
X137558379Y-120079498D01*
X137511886Y-120025842D01*
X137500500Y-119973500D01*
X137500500Y-87929929D01*
X137520502Y-87861808D01*
X137574158Y-87815315D01*
X137644432Y-87805211D01*
X137709012Y-87834705D01*
G37*
%TD.AperFunction*%
%TA.AperFunction,Conductor*%
G36*
X178833621Y-108453502D02*
G01*
X178880114Y-108507158D01*
X178891500Y-108559500D01*
X178891500Y-109953751D01*
X178891860Y-109957098D01*
X178891860Y-109957101D01*
X178894043Y-109977408D01*
X178898011Y-110014314D01*
X178949111Y-110151317D01*
X178954510Y-110158529D01*
X178954511Y-110158531D01*
X178996717Y-110214911D01*
X179036739Y-110268374D01*
X179043950Y-110273772D01*
X179099238Y-110315160D01*
X179153796Y-110356002D01*
X179290799Y-110407102D01*
X179327705Y-110411070D01*
X179348012Y-110413253D01*
X179348015Y-110413253D01*
X179351362Y-110413613D01*
X179888742Y-110413613D01*
X179956863Y-110433615D01*
X179977837Y-110450518D01*
X180364595Y-110837276D01*
X180398621Y-110899588D01*
X180401500Y-110926371D01*
X180401500Y-111298628D01*
X180381498Y-111366749D01*
X180364595Y-111387723D01*
X180300970Y-111451348D01*
X180297968Y-111456214D01*
X180240573Y-111496856D01*
X180169648Y-111500046D01*
X180108258Y-111464384D01*
X180100845Y-111455830D01*
X180093442Y-111446468D01*
X179978532Y-111331558D01*
X179967092Y-111322512D01*
X179828767Y-111237192D01*
X179815565Y-111231036D01*
X179660846Y-111179767D01*
X179647488Y-111176908D01*
X179553693Y-111167325D01*
X179547302Y-111167000D01*
X179434615Y-111167000D01*
X179419376Y-111171475D01*
X179418171Y-111172865D01*
X179416500Y-111180548D01*
X179416500Y-113614885D01*
X179420975Y-113630124D01*
X179422365Y-113631329D01*
X179430048Y-113633000D01*
X179547303Y-113633000D01*
X179553693Y-113632675D01*
X179647488Y-113623092D01*
X179660846Y-113620233D01*
X179815565Y-113568964D01*
X179828767Y-113562808D01*
X179967092Y-113477488D01*
X179978532Y-113468442D01*
X180093442Y-113353532D01*
X180100845Y-113344170D01*
X180158787Y-113303143D01*
X180229712Y-113299955D01*
X180291102Y-113335617D01*
X180297447Y-113342941D01*
X180300970Y-113348652D01*
X180364595Y-113412277D01*
X180398621Y-113474589D01*
X180401500Y-113501372D01*
X180401500Y-116273629D01*
X180381498Y-116341750D01*
X180364595Y-116362724D01*
X178172724Y-118554595D01*
X178110412Y-118588621D01*
X178083629Y-118591500D01*
X170844244Y-118591500D01*
X170776123Y-118571498D01*
X170729630Y-118517842D01*
X170719526Y-118447568D01*
X170749020Y-118382988D01*
X170803743Y-118346187D01*
X170962239Y-118292385D01*
X170962240Y-118292384D01*
X170966145Y-118291059D01*
X171091687Y-118229148D01*
X171227969Y-118161942D01*
X171227974Y-118161939D01*
X171231673Y-118160115D01*
X171313334Y-118105551D01*
X171474407Y-117997926D01*
X171474412Y-117997922D01*
X171477838Y-117995633D01*
X171480932Y-117992919D01*
X171480938Y-117992915D01*
X171697338Y-117803136D01*
X171700427Y-117800427D01*
X171703136Y-117797338D01*
X171892915Y-117580938D01*
X171892919Y-117580932D01*
X171895633Y-117577838D01*
X171898446Y-117573629D01*
X172057821Y-117335106D01*
X172060115Y-117331673D01*
X172073217Y-117305106D01*
X172184304Y-117079843D01*
X172191059Y-117066145D01*
X172196655Y-117049661D01*
X172284896Y-116789710D01*
X172284897Y-116789706D01*
X172286224Y-116785797D01*
X172287191Y-116780938D01*
X172343180Y-116499465D01*
X172343181Y-116499459D01*
X172343983Y-116495426D01*
X172345950Y-116465426D01*
X172363076Y-116204119D01*
X172363346Y-116200000D01*
X172354915Y-116071368D01*
X172344253Y-115908686D01*
X172344252Y-115908679D01*
X172343983Y-115904574D01*
X172337213Y-115870535D01*
X172287030Y-115618253D01*
X172287028Y-115618247D01*
X172286224Y-115614203D01*
X172276041Y-115584203D01*
X172213512Y-115400000D01*
X174136654Y-115400000D01*
X174136924Y-115404119D01*
X174154051Y-115665426D01*
X174156017Y-115695426D01*
X174156819Y-115699459D01*
X174156820Y-115699465D01*
X174208587Y-115959710D01*
X174213776Y-115985797D01*
X174215103Y-115989706D01*
X174215104Y-115989710D01*
X174298757Y-116236145D01*
X174308941Y-116266145D01*
X174326011Y-116300759D01*
X174426784Y-116505106D01*
X174439885Y-116531673D01*
X174442179Y-116535106D01*
X174589640Y-116755797D01*
X174604367Y-116777838D01*
X174607081Y-116780932D01*
X174607085Y-116780938D01*
X174770555Y-116967338D01*
X174799573Y-117000427D01*
X174802662Y-117003136D01*
X175019062Y-117192915D01*
X175019068Y-117192919D01*
X175022162Y-117195633D01*
X175025588Y-117197922D01*
X175025593Y-117197926D01*
X175043569Y-117209937D01*
X175268327Y-117360115D01*
X175272026Y-117361939D01*
X175272031Y-117361942D01*
X175408313Y-117429148D01*
X175533855Y-117491059D01*
X175537760Y-117492384D01*
X175537761Y-117492385D01*
X175810290Y-117584896D01*
X175810294Y-117584897D01*
X175814203Y-117586224D01*
X175818247Y-117587028D01*
X175818253Y-117587030D01*
X176100535Y-117643180D01*
X176100541Y-117643181D01*
X176104574Y-117643983D01*
X176108679Y-117644252D01*
X176108686Y-117644253D01*
X176395881Y-117663076D01*
X176400000Y-117663346D01*
X176404119Y-117663076D01*
X176691314Y-117644253D01*
X176691321Y-117644252D01*
X176695426Y-117643983D01*
X176699459Y-117643181D01*
X176699465Y-117643180D01*
X176981747Y-117587030D01*
X176981753Y-117587028D01*
X176985797Y-117586224D01*
X176989706Y-117584897D01*
X176989710Y-117584896D01*
X177262239Y-117492385D01*
X177262240Y-117492384D01*
X177266145Y-117491059D01*
X177391687Y-117429148D01*
X177527969Y-117361942D01*
X177527974Y-117361939D01*
X177531673Y-117360115D01*
X177756431Y-117209937D01*
X177774407Y-117197926D01*
X177774412Y-117197922D01*
X177777838Y-117195633D01*
X177780932Y-117192919D01*
X177780938Y-117192915D01*
X177997338Y-117003136D01*
X178000427Y-117000427D01*
X178029445Y-116967338D01*
X178192915Y-116780938D01*
X178192919Y-116780932D01*
X178195633Y-116777838D01*
X178210361Y-116755797D01*
X178357821Y-116535106D01*
X178360115Y-116531673D01*
X178373217Y-116505106D01*
X178473989Y-116300759D01*
X178491059Y-116266145D01*
X178501243Y-116236145D01*
X178584896Y-115989710D01*
X178584897Y-115989706D01*
X178586224Y-115985797D01*
X178591413Y-115959710D01*
X178643180Y-115699465D01*
X178643181Y-115699459D01*
X178643983Y-115695426D01*
X178645950Y-115665426D01*
X178663076Y-115404119D01*
X178663346Y-115400000D01*
X178658768Y-115330157D01*
X178644253Y-115108686D01*
X178644252Y-115108679D01*
X178643983Y-115104574D01*
X178638763Y-115078327D01*
X178587030Y-114818253D01*
X178587028Y-114818247D01*
X178586224Y-114814203D01*
X178578123Y-114790336D01*
X178492385Y-114537761D01*
X178492384Y-114537760D01*
X178491059Y-114533855D01*
X178366873Y-114282031D01*
X178361942Y-114272031D01*
X178361939Y-114272026D01*
X178360115Y-114268327D01*
X178319845Y-114208058D01*
X178197926Y-114025593D01*
X178197922Y-114025588D01*
X178195633Y-114022162D01*
X178192919Y-114019068D01*
X178192915Y-114019062D01*
X178003136Y-113802662D01*
X178000427Y-113799573D01*
X177973656Y-113776095D01*
X177780938Y-113607085D01*
X177780932Y-113607081D01*
X177777838Y-113604367D01*
X177774412Y-113602078D01*
X177774407Y-113602074D01*
X177545587Y-113449182D01*
X177531673Y-113439885D01*
X177527974Y-113438061D01*
X177527969Y-113438058D01*
X177362354Y-113356386D01*
X177266145Y-113308941D01*
X177190597Y-113283296D01*
X176989710Y-113215104D01*
X176989706Y-113215103D01*
X176985797Y-113213776D01*
X176981753Y-113212972D01*
X176981747Y-113212970D01*
X176699465Y-113156820D01*
X176699459Y-113156819D01*
X176695426Y-113156017D01*
X176691321Y-113155748D01*
X176691314Y-113155747D01*
X176404119Y-113136924D01*
X176400000Y-113136654D01*
X176395881Y-113136924D01*
X176108686Y-113155747D01*
X176108679Y-113155748D01*
X176104574Y-113156017D01*
X176100541Y-113156819D01*
X176100535Y-113156820D01*
X175818253Y-113212970D01*
X175818247Y-113212972D01*
X175814203Y-113213776D01*
X175810294Y-113215103D01*
X175810290Y-113215104D01*
X175609403Y-113283296D01*
X175533855Y-113308941D01*
X175437646Y-113356386D01*
X175272031Y-113438058D01*
X175272026Y-113438061D01*
X175268327Y-113439885D01*
X175254413Y-113449182D01*
X175025593Y-113602074D01*
X175025588Y-113602078D01*
X175022162Y-113604367D01*
X175019068Y-113607081D01*
X175019062Y-113607085D01*
X174826344Y-113776095D01*
X174799573Y-113799573D01*
X174796864Y-113802662D01*
X174607085Y-114019062D01*
X174607081Y-114019068D01*
X174604367Y-114022162D01*
X174602078Y-114025588D01*
X174602074Y-114025593D01*
X174480155Y-114208058D01*
X174439885Y-114268327D01*
X174438061Y-114272026D01*
X174438058Y-114272031D01*
X174433127Y-114282031D01*
X174308941Y-114533855D01*
X174307616Y-114537760D01*
X174307615Y-114537761D01*
X174221878Y-114790336D01*
X174213776Y-114814203D01*
X174212972Y-114818247D01*
X174212970Y-114818253D01*
X174161238Y-115078327D01*
X174156017Y-115104574D01*
X174155748Y-115108679D01*
X174155747Y-115108686D01*
X174141232Y-115330157D01*
X174136654Y-115400000D01*
X172213512Y-115400000D01*
X172192385Y-115337761D01*
X172192384Y-115337760D01*
X172191059Y-115333855D01*
X172086831Y-115122502D01*
X172061942Y-115072031D01*
X172061939Y-115072026D01*
X172060115Y-115068327D01*
X171973576Y-114938812D01*
X171897926Y-114825593D01*
X171897922Y-114825588D01*
X171895633Y-114822162D01*
X171892919Y-114819068D01*
X171892915Y-114819062D01*
X171703136Y-114602662D01*
X171700427Y-114599573D01*
X171636893Y-114543855D01*
X171480938Y-114407085D01*
X171480932Y-114407081D01*
X171477838Y-114404367D01*
X171474412Y-114402078D01*
X171474407Y-114402074D01*
X171279783Y-114272031D01*
X171231673Y-114239885D01*
X171227974Y-114238061D01*
X171227969Y-114238058D01*
X171091687Y-114170852D01*
X170966145Y-114108941D01*
X170877768Y-114078941D01*
X170689710Y-114015104D01*
X170689706Y-114015103D01*
X170685797Y-114013776D01*
X170681753Y-114012972D01*
X170681747Y-114012970D01*
X170399465Y-113956820D01*
X170399459Y-113956819D01*
X170395426Y-113956017D01*
X170391321Y-113955748D01*
X170391314Y-113955747D01*
X170104119Y-113936924D01*
X170100000Y-113936654D01*
X170095881Y-113936924D01*
X169808686Y-113955747D01*
X169808679Y-113955748D01*
X169804574Y-113956017D01*
X169800541Y-113956819D01*
X169800535Y-113956820D01*
X169518253Y-114012970D01*
X169518247Y-114012972D01*
X169514203Y-114013776D01*
X169510294Y-114015103D01*
X169510290Y-114015104D01*
X169322232Y-114078941D01*
X169233855Y-114108941D01*
X169108313Y-114170852D01*
X168972031Y-114238058D01*
X168972026Y-114238061D01*
X168968327Y-114239885D01*
X168920217Y-114272031D01*
X168725593Y-114402074D01*
X168725588Y-114402078D01*
X168722162Y-114404367D01*
X168719068Y-114407081D01*
X168719062Y-114407085D01*
X168563107Y-114543855D01*
X168499573Y-114599573D01*
X168496864Y-114602662D01*
X168307085Y-114819062D01*
X168307081Y-114819068D01*
X168304367Y-114822162D01*
X168302078Y-114825588D01*
X168302074Y-114825593D01*
X168226424Y-114938812D01*
X168139885Y-115068327D01*
X168138061Y-115072026D01*
X168138058Y-115072031D01*
X168113169Y-115122502D01*
X168008941Y-115333855D01*
X168007616Y-115337760D01*
X168007615Y-115337761D01*
X167923960Y-115584203D01*
X167913776Y-115614203D01*
X167912972Y-115618247D01*
X167912970Y-115618253D01*
X167862788Y-115870535D01*
X167856017Y-115904574D01*
X167855748Y-115908679D01*
X167855747Y-115908686D01*
X167850230Y-115992868D01*
X167825816Y-116059534D01*
X167769234Y-116102419D01*
X167698450Y-116107905D01*
X167635936Y-116074251D01*
X167601541Y-116012142D01*
X167598500Y-115984627D01*
X167598500Y-113639838D01*
X167618502Y-113571717D01*
X167635405Y-113550743D01*
X167745905Y-113440243D01*
X167808217Y-113406217D01*
X167879032Y-113411282D01*
X167924095Y-113440243D01*
X168046998Y-113563146D01*
X168051506Y-113566303D01*
X168051509Y-113566305D01*
X168180784Y-113656824D01*
X168220932Y-113684936D01*
X168413373Y-113774672D01*
X168618473Y-113829629D01*
X168830000Y-113848135D01*
X169041527Y-113829629D01*
X169246627Y-113774672D01*
X169439068Y-113684936D01*
X169479216Y-113656824D01*
X169608491Y-113566305D01*
X169608494Y-113566303D01*
X169613002Y-113563146D01*
X169763146Y-113413002D01*
X169778722Y-113390758D01*
X169881779Y-113243577D01*
X169881780Y-113243575D01*
X169884936Y-113239068D01*
X169974672Y-113046627D01*
X169978293Y-113033114D01*
X170015244Y-112972492D01*
X170079105Y-112941470D01*
X170149599Y-112949898D01*
X170204346Y-112995101D01*
X170221707Y-113033114D01*
X170225328Y-113046627D01*
X170315064Y-113239068D01*
X170318220Y-113243575D01*
X170318221Y-113243577D01*
X170421279Y-113390758D01*
X170436854Y-113413002D01*
X170586998Y-113563146D01*
X170591506Y-113566303D01*
X170591509Y-113566305D01*
X170720784Y-113656824D01*
X170760932Y-113684936D01*
X170953373Y-113774672D01*
X171158473Y-113829629D01*
X171370000Y-113848135D01*
X171581527Y-113829629D01*
X171786627Y-113774672D01*
X171979068Y-113684936D01*
X172019216Y-113656824D01*
X172032032Y-113647850D01*
X172706704Y-113647850D01*
X172716001Y-113659866D01*
X172746678Y-113681346D01*
X172756164Y-113686824D01*
X172938563Y-113771878D01*
X172948855Y-113775624D01*
X173143245Y-113827710D01*
X173154040Y-113829613D01*
X173354525Y-113847154D01*
X173365475Y-113847154D01*
X173565960Y-113829613D01*
X173576755Y-113827710D01*
X173771145Y-113775624D01*
X173781437Y-113771878D01*
X173963836Y-113686824D01*
X173973322Y-113681346D01*
X174004837Y-113659280D01*
X174013212Y-113648802D01*
X174006144Y-113635354D01*
X173372812Y-113002022D01*
X173358868Y-112994408D01*
X173357035Y-112994539D01*
X173350420Y-112998790D01*
X172713134Y-113636076D01*
X172706704Y-113647850D01*
X172032032Y-113647850D01*
X172148491Y-113566305D01*
X172148494Y-113566303D01*
X172153002Y-113563146D01*
X172303146Y-113413002D01*
X172318722Y-113390758D01*
X172421779Y-113243577D01*
X172421780Y-113243575D01*
X172424936Y-113239068D01*
X172427259Y-113234086D01*
X172427262Y-113234081D01*
X172444568Y-113196967D01*
X172469668Y-113161122D01*
X172987978Y-112642812D01*
X172994356Y-112631132D01*
X173724408Y-112631132D01*
X173724539Y-112632965D01*
X173728790Y-112639580D01*
X174366076Y-113276866D01*
X174377850Y-113283296D01*
X174389866Y-113273999D01*
X174411346Y-113243322D01*
X174416824Y-113233836D01*
X174501878Y-113051437D01*
X174505624Y-113041145D01*
X174537467Y-112922303D01*
X178067000Y-112922303D01*
X178067325Y-112928693D01*
X178076908Y-113022488D01*
X178079767Y-113035846D01*
X178131036Y-113190565D01*
X178137192Y-113203767D01*
X178222512Y-113342092D01*
X178231558Y-113353532D01*
X178346468Y-113468442D01*
X178357908Y-113477488D01*
X178496233Y-113562808D01*
X178509435Y-113568964D01*
X178664154Y-113620233D01*
X178677512Y-113623092D01*
X178771307Y-113632675D01*
X178777697Y-113633000D01*
X178890385Y-113633000D01*
X178905624Y-113628525D01*
X178906829Y-113627135D01*
X178908500Y-113619452D01*
X178908500Y-112672115D01*
X178904025Y-112656876D01*
X178902635Y-112655671D01*
X178894952Y-112654000D01*
X178085115Y-112654000D01*
X178069876Y-112658475D01*
X178068671Y-112659865D01*
X178067000Y-112667548D01*
X178067000Y-112922303D01*
X174537467Y-112922303D01*
X174557710Y-112846755D01*
X174559613Y-112835960D01*
X174577154Y-112635475D01*
X174577154Y-112624525D01*
X174559613Y-112424040D01*
X174557710Y-112413245D01*
X174505624Y-112218855D01*
X174501878Y-112208563D01*
X174464257Y-112127885D01*
X178067000Y-112127885D01*
X178071475Y-112143124D01*
X178072865Y-112144329D01*
X178080548Y-112146000D01*
X178890385Y-112146000D01*
X178905624Y-112141525D01*
X178906829Y-112140135D01*
X178908500Y-112132452D01*
X178908500Y-111185115D01*
X178904025Y-111169876D01*
X178902635Y-111168671D01*
X178894952Y-111167000D01*
X178777698Y-111167000D01*
X178771307Y-111167325D01*
X178677512Y-111176908D01*
X178664154Y-111179767D01*
X178509435Y-111231036D01*
X178496233Y-111237192D01*
X178357908Y-111322512D01*
X178346468Y-111331558D01*
X178231558Y-111446468D01*
X178222512Y-111457908D01*
X178137192Y-111596233D01*
X178131036Y-111609435D01*
X178079767Y-111764154D01*
X178076908Y-111777512D01*
X178067325Y-111871307D01*
X178067000Y-111877698D01*
X178067000Y-112127885D01*
X174464257Y-112127885D01*
X174416828Y-112026174D01*
X174411342Y-112016672D01*
X174389278Y-111985163D01*
X174378801Y-111976788D01*
X174365353Y-111983857D01*
X173732022Y-112617188D01*
X173724408Y-112631132D01*
X172994356Y-112631132D01*
X172995592Y-112628868D01*
X172995461Y-112627035D01*
X172991210Y-112620420D01*
X172469667Y-112098877D01*
X172444567Y-112063032D01*
X172427259Y-112025914D01*
X172427257Y-112025911D01*
X172424936Y-112020933D01*
X172303146Y-111846998D01*
X172153002Y-111696854D01*
X172115721Y-111670749D01*
X172070358Y-111638986D01*
X172057228Y-111629792D01*
X172012901Y-111574336D01*
X172003500Y-111526580D01*
X172003500Y-110849500D01*
X172023502Y-110781379D01*
X172077158Y-110734886D01*
X172129500Y-110723500D01*
X172256580Y-110723500D01*
X172324701Y-110743502D01*
X172359793Y-110777229D01*
X172416700Y-110858500D01*
X172426854Y-110873002D01*
X172576998Y-111023146D01*
X172581506Y-111026303D01*
X172581509Y-111026305D01*
X172746423Y-111141779D01*
X172750932Y-111144936D01*
X172943373Y-111234672D01*
X172948687Y-111236096D01*
X172948690Y-111236097D01*
X172957854Y-111238553D01*
X173018476Y-111275506D01*
X173049496Y-111339367D01*
X173041066Y-111409862D01*
X172995862Y-111464607D01*
X172957849Y-111481966D01*
X172948859Y-111484375D01*
X172938563Y-111488122D01*
X172756174Y-111573172D01*
X172746672Y-111578658D01*
X172715163Y-111600722D01*
X172706788Y-111611199D01*
X172713857Y-111624647D01*
X173347188Y-112257978D01*
X173361132Y-112265592D01*
X173362965Y-112265461D01*
X173369580Y-112261210D01*
X174006866Y-111623924D01*
X174013296Y-111612150D01*
X174003999Y-111600134D01*
X173973322Y-111578654D01*
X173963836Y-111573176D01*
X173781437Y-111488122D01*
X173771141Y-111484375D01*
X173762151Y-111481966D01*
X173701528Y-111445016D01*
X173670505Y-111381156D01*
X173678932Y-111310661D01*
X173724134Y-111255913D01*
X173762146Y-111238553D01*
X173771310Y-111236097D01*
X173771313Y-111236096D01*
X173776627Y-111234672D01*
X173969068Y-111144936D01*
X173973577Y-111141779D01*
X174138491Y-111026305D01*
X174138494Y-111026303D01*
X174143002Y-111023146D01*
X174293146Y-110873002D01*
X174303301Y-110858500D01*
X174411779Y-110703577D01*
X174411780Y-110703575D01*
X174414936Y-110699068D01*
X174504672Y-110506627D01*
X174559629Y-110301527D01*
X174578135Y-110090000D01*
X174559629Y-109878473D01*
X174558206Y-109873163D01*
X174557250Y-109867740D01*
X174559182Y-109867399D01*
X174560658Y-109805064D01*
X174591585Y-109754319D01*
X175875500Y-108470405D01*
X175937812Y-108436379D01*
X175964595Y-108433500D01*
X178765500Y-108433500D01*
X178833621Y-108453502D01*
G37*
%TD.AperFunction*%
%TA.AperFunction,Conductor*%
G36*
X141983621Y-88078502D02*
G01*
X142030114Y-88132158D01*
X142041500Y-88184500D01*
X142041500Y-88248638D01*
X142048011Y-88309201D01*
X142099111Y-88446204D01*
X142104510Y-88453416D01*
X142104511Y-88453418D01*
X142115828Y-88468535D01*
X142186739Y-88563261D01*
X142193950Y-88568659D01*
X142288589Y-88639505D01*
X142303796Y-88650889D01*
X142440799Y-88701989D01*
X142477705Y-88705957D01*
X142498012Y-88708140D01*
X142498015Y-88708140D01*
X142501362Y-88708500D01*
X145014629Y-88708500D01*
X145082750Y-88728502D01*
X145129243Y-88782158D01*
X145139347Y-88852432D01*
X145109853Y-88917012D01*
X145103724Y-88923595D01*
X144409229Y-89618090D01*
X144395376Y-89630063D01*
X144375942Y-89644531D01*
X144371228Y-89650149D01*
X144343771Y-89682871D01*
X144336344Y-89690975D01*
X144332420Y-89694899D01*
X144330143Y-89697779D01*
X144313006Y-89719452D01*
X144310699Y-89722284D01*
X144261968Y-89780360D01*
X144258673Y-89786922D01*
X144256827Y-89789728D01*
X144256570Y-89790084D01*
X144256359Y-89790462D01*
X144254588Y-89793334D01*
X144250033Y-89799094D01*
X144246930Y-89805748D01*
X144246929Y-89805750D01*
X144217998Y-89867793D01*
X144216404Y-89871086D01*
X144182391Y-89938812D01*
X144180699Y-89945952D01*
X144179545Y-89949121D01*
X144179377Y-89949526D01*
X144179265Y-89949922D01*
X144178197Y-89953146D01*
X144175097Y-89959794D01*
X144173614Y-89966977D01*
X144159763Y-90034056D01*
X144158978Y-90037597D01*
X144141500Y-90111344D01*
X144141500Y-90118679D01*
X144141110Y-90122017D01*
X144141038Y-90122463D01*
X144141020Y-90122876D01*
X144140724Y-90126261D01*
X144139241Y-90133442D01*
X144139454Y-90140769D01*
X144139454Y-90140771D01*
X144141447Y-90209258D01*
X144141500Y-90212923D01*
X144141500Y-96135558D01*
X144140170Y-96153820D01*
X144136659Y-96177789D01*
X144140386Y-96220390D01*
X144141021Y-96227646D01*
X144141500Y-96238628D01*
X144141500Y-96244180D01*
X144141925Y-96247820D01*
X144141926Y-96247830D01*
X144145135Y-96275287D01*
X144145507Y-96278929D01*
X144152113Y-96354426D01*
X144154422Y-96361395D01*
X144155105Y-96364701D01*
X144155174Y-96365127D01*
X144155294Y-96365551D01*
X144156069Y-96368821D01*
X144156921Y-96376113D01*
X144159429Y-96383004D01*
X144159430Y-96383008D01*
X144182854Y-96447365D01*
X144184054Y-96450818D01*
X144207886Y-96522738D01*
X144211739Y-96528984D01*
X144213159Y-96532030D01*
X144213330Y-96532442D01*
X144213531Y-96532803D01*
X144215057Y-96535842D01*
X144217565Y-96542732D01*
X144221594Y-96548857D01*
X144221598Y-96548866D01*
X144259228Y-96606079D01*
X144261198Y-96609171D01*
X144297114Y-96667401D01*
X144297118Y-96667407D01*
X144300970Y-96673651D01*
X144306163Y-96678844D01*
X144308242Y-96681473D01*
X144308504Y-96681836D01*
X144308790Y-96682148D01*
X144310964Y-96684739D01*
X144314999Y-96690874D01*
X144320338Y-96695911D01*
X144370174Y-96742929D01*
X144372802Y-96745483D01*
X145354595Y-97727276D01*
X145388621Y-97789588D01*
X145391500Y-97816371D01*
X145391500Y-98848638D01*
X145391860Y-98851985D01*
X145391860Y-98851988D01*
X145393637Y-98868519D01*
X145398011Y-98909201D01*
X145449111Y-99046204D01*
X145454510Y-99053416D01*
X145454511Y-99053418D01*
X145497662Y-99111060D01*
X145536739Y-99163261D01*
X145653796Y-99250889D01*
X145790799Y-99301989D01*
X145827705Y-99305957D01*
X145848012Y-99308140D01*
X145848015Y-99308140D01*
X145851362Y-99308500D01*
X146883629Y-99308500D01*
X146951750Y-99328502D01*
X146972724Y-99345405D01*
X149318090Y-101690771D01*
X149330063Y-101704624D01*
X149344531Y-101724058D01*
X149370681Y-101746000D01*
X149382871Y-101756229D01*
X149390975Y-101763656D01*
X149394899Y-101767580D01*
X149419452Y-101786994D01*
X149422284Y-101789301D01*
X149480360Y-101838032D01*
X149486922Y-101841327D01*
X149489728Y-101843173D01*
X149490084Y-101843430D01*
X149490462Y-101843641D01*
X149493334Y-101845413D01*
X149499094Y-101849967D01*
X149505747Y-101853069D01*
X149505748Y-101853070D01*
X149567801Y-101882006D01*
X149571099Y-101883603D01*
X149583694Y-101889928D01*
X149638812Y-101917609D01*
X149645955Y-101919302D01*
X149649118Y-101920453D01*
X149649524Y-101920621D01*
X149649946Y-101920741D01*
X149653140Y-101921800D01*
X149659793Y-101924902D01*
X149715144Y-101936331D01*
X149734020Y-101940229D01*
X149737597Y-101941022D01*
X149773821Y-101949607D01*
X149811344Y-101958500D01*
X149818680Y-101958500D01*
X149822025Y-101958891D01*
X149822454Y-101958960D01*
X149822886Y-101958979D01*
X149826253Y-101959273D01*
X149833442Y-101960758D01*
X149909224Y-101958553D01*
X149912888Y-101958500D01*
X150468630Y-101958500D01*
X150536751Y-101978502D01*
X150583244Y-102032158D01*
X150593907Y-102071031D01*
X150598011Y-102109201D01*
X150649111Y-102246204D01*
X150654510Y-102253416D01*
X150654511Y-102253418D01*
X150695476Y-102308140D01*
X150736739Y-102363261D01*
X150743950Y-102368659D01*
X150811724Y-102419394D01*
X150853796Y-102450889D01*
X150990799Y-102501989D01*
X151028968Y-102506092D01*
X151094560Y-102533260D01*
X151135051Y-102591577D01*
X151141500Y-102631370D01*
X151141500Y-102935558D01*
X151140170Y-102953820D01*
X151136659Y-102977789D01*
X151137299Y-102985099D01*
X151141021Y-103027646D01*
X151141500Y-103038628D01*
X151141500Y-103044180D01*
X151141925Y-103047820D01*
X151141926Y-103047830D01*
X151145135Y-103075287D01*
X151145507Y-103078929D01*
X151151075Y-103142568D01*
X151152113Y-103154426D01*
X151154422Y-103161395D01*
X151155105Y-103164701D01*
X151155174Y-103165127D01*
X151155294Y-103165551D01*
X151156069Y-103168821D01*
X151156921Y-103176113D01*
X151159429Y-103183004D01*
X151159430Y-103183008D01*
X151182854Y-103247365D01*
X151184054Y-103250818D01*
X151207886Y-103322738D01*
X151211739Y-103328984D01*
X151213159Y-103332030D01*
X151213330Y-103332442D01*
X151213531Y-103332803D01*
X151215057Y-103335842D01*
X151217565Y-103342732D01*
X151221594Y-103348857D01*
X151221598Y-103348866D01*
X151259228Y-103406079D01*
X151261198Y-103409171D01*
X151297114Y-103467401D01*
X151297118Y-103467407D01*
X151300970Y-103473651D01*
X151306163Y-103478844D01*
X151308242Y-103481473D01*
X151308504Y-103481836D01*
X151308790Y-103482148D01*
X151310964Y-103484739D01*
X151314999Y-103490874D01*
X151320338Y-103495911D01*
X151370174Y-103542929D01*
X151372802Y-103545483D01*
X151629595Y-103802276D01*
X151663621Y-103864588D01*
X151666500Y-103891371D01*
X151666501Y-104388044D01*
X151677113Y-104491926D01*
X151732885Y-104660238D01*
X151825970Y-104811152D01*
X151951348Y-104936530D01*
X151956214Y-104939532D01*
X151996856Y-104996927D01*
X152000046Y-105067852D01*
X151964384Y-105129242D01*
X151955830Y-105136655D01*
X151946468Y-105144058D01*
X151831558Y-105258968D01*
X151822512Y-105270408D01*
X151737192Y-105408733D01*
X151731036Y-105421935D01*
X151679767Y-105576654D01*
X151676908Y-105590012D01*
X151667325Y-105683807D01*
X151667000Y-105690198D01*
X151667000Y-105802885D01*
X151671475Y-105818124D01*
X151672865Y-105819329D01*
X151680548Y-105821000D01*
X153028000Y-105821000D01*
X153096121Y-105841002D01*
X153142614Y-105894658D01*
X153154000Y-105947000D01*
X153154000Y-107152385D01*
X153158475Y-107167624D01*
X153159865Y-107168829D01*
X153167548Y-107170500D01*
X153422303Y-107170500D01*
X153428693Y-107170175D01*
X153522488Y-107160592D01*
X153535849Y-107157732D01*
X153640868Y-107122933D01*
X153711822Y-107120493D01*
X153772832Y-107156802D01*
X153804528Y-107220331D01*
X153806500Y-107242538D01*
X153806500Y-107661233D01*
X153805973Y-107672416D01*
X153804298Y-107679909D01*
X153804547Y-107687835D01*
X153804547Y-107687836D01*
X153806438Y-107747986D01*
X153806500Y-107751945D01*
X153806500Y-107779856D01*
X153806997Y-107783790D01*
X153806997Y-107783791D01*
X153807005Y-107783856D01*
X153807938Y-107795693D01*
X153809327Y-107839889D01*
X153814978Y-107859339D01*
X153818987Y-107878700D01*
X153821526Y-107898797D01*
X153824445Y-107906168D01*
X153824445Y-107906170D01*
X153837804Y-107939912D01*
X153841649Y-107951142D01*
X153853982Y-107993593D01*
X153858015Y-108000412D01*
X153858017Y-108000417D01*
X153864293Y-108011028D01*
X153872988Y-108028776D01*
X153880448Y-108047617D01*
X153885110Y-108054033D01*
X153885110Y-108054034D01*
X153906436Y-108083387D01*
X153912952Y-108093307D01*
X153935458Y-108131362D01*
X153949779Y-108145683D01*
X153962619Y-108160716D01*
X153974528Y-108177107D01*
X153980632Y-108182157D01*
X153980637Y-108182162D01*
X154008598Y-108205293D01*
X154017379Y-108213283D01*
X154929596Y-109125501D01*
X154963621Y-109187813D01*
X154966500Y-109214596D01*
X154966500Y-109852741D01*
X154946498Y-109920862D01*
X154892842Y-109967355D01*
X154822568Y-109977459D01*
X154757988Y-109947965D01*
X154718793Y-109885353D01*
X154676624Y-109727978D01*
X154664672Y-109683373D01*
X154586158Y-109514999D01*
X154577259Y-109495914D01*
X154577257Y-109495911D01*
X154574936Y-109490933D01*
X154453146Y-109316998D01*
X154303002Y-109166854D01*
X154298494Y-109163697D01*
X154298491Y-109163695D01*
X154133577Y-109048221D01*
X154133574Y-109048219D01*
X154129068Y-109045064D01*
X153936627Y-108955328D01*
X153731527Y-108900371D01*
X153520000Y-108881865D01*
X153308473Y-108900371D01*
X153103373Y-108955328D01*
X153053106Y-108978768D01*
X152915914Y-109042741D01*
X152915911Y-109042743D01*
X152910933Y-109045064D01*
X152736998Y-109166854D01*
X152599257Y-109304595D01*
X152536945Y-109338621D01*
X152510162Y-109341500D01*
X152264442Y-109341500D01*
X152246180Y-109340170D01*
X152244155Y-109339873D01*
X152222211Y-109336659D01*
X152172354Y-109341021D01*
X152161372Y-109341500D01*
X152155820Y-109341500D01*
X152124692Y-109345138D01*
X152121148Y-109345501D01*
X152045573Y-109352113D01*
X152038605Y-109354422D01*
X152035296Y-109355105D01*
X152034871Y-109355174D01*
X152034461Y-109355290D01*
X152031173Y-109356069D01*
X152023887Y-109356921D01*
X152016993Y-109359430D01*
X152016990Y-109359431D01*
X151952676Y-109382839D01*
X151949215Y-109384042D01*
X151884233Y-109405575D01*
X151884227Y-109405578D01*
X151877261Y-109407886D01*
X151871016Y-109411738D01*
X151867951Y-109413167D01*
X151867556Y-109413331D01*
X151867183Y-109413539D01*
X151864167Y-109415054D01*
X151857268Y-109417565D01*
X151793894Y-109459247D01*
X151790845Y-109461189D01*
X151734125Y-109496174D01*
X151726349Y-109500970D01*
X151721157Y-109506162D01*
X151718524Y-109508244D01*
X151718165Y-109508504D01*
X151717852Y-109508790D01*
X151715261Y-109510964D01*
X151709126Y-109514999D01*
X151704089Y-109520338D01*
X151657071Y-109570174D01*
X151654517Y-109572802D01*
X148427527Y-112799792D01*
X148365215Y-112833818D01*
X148294400Y-112828753D01*
X148237564Y-112786206D01*
X148212753Y-112719686D01*
X148212911Y-112699716D01*
X148217656Y-112645475D01*
X148218135Y-112640000D01*
X148199629Y-112428473D01*
X148144672Y-112223373D01*
X148054936Y-112030933D01*
X147933146Y-111856998D01*
X147783002Y-111706854D01*
X147778494Y-111703697D01*
X147778491Y-111703695D01*
X147613577Y-111588221D01*
X147613574Y-111588219D01*
X147609068Y-111585064D01*
X147416627Y-111495328D01*
X147411313Y-111493904D01*
X147411310Y-111493903D01*
X147402146Y-111491447D01*
X147341524Y-111454494D01*
X147310504Y-111390633D01*
X147318934Y-111320138D01*
X147364138Y-111265393D01*
X147402151Y-111248034D01*
X147411141Y-111245625D01*
X147421437Y-111241878D01*
X147603836Y-111156824D01*
X147613322Y-111151346D01*
X147644837Y-111129280D01*
X147653212Y-111118802D01*
X147646144Y-111105354D01*
X147012812Y-110472022D01*
X146998868Y-110464408D01*
X146997035Y-110464539D01*
X146990420Y-110468790D01*
X146353134Y-111106076D01*
X146346704Y-111117850D01*
X146356001Y-111129866D01*
X146386678Y-111151346D01*
X146396164Y-111156824D01*
X146578563Y-111241878D01*
X146588859Y-111245625D01*
X146597849Y-111248034D01*
X146658472Y-111284984D01*
X146689495Y-111348844D01*
X146681068Y-111419339D01*
X146635866Y-111474087D01*
X146597854Y-111491447D01*
X146588690Y-111493903D01*
X146588687Y-111493904D01*
X146583373Y-111495328D01*
X146538302Y-111516345D01*
X146395914Y-111582741D01*
X146395911Y-111582743D01*
X146390933Y-111585064D01*
X146216998Y-111706854D01*
X146066854Y-111856998D01*
X145945064Y-112030933D01*
X145855328Y-112223373D01*
X145800371Y-112428473D01*
X145781865Y-112640000D01*
X145800371Y-112851527D01*
X145855328Y-113056627D01*
X145945064Y-113249068D01*
X145948220Y-113253575D01*
X145948221Y-113253577D01*
X146062581Y-113416899D01*
X146066854Y-113423002D01*
X146216998Y-113573146D01*
X146221506Y-113576303D01*
X146221509Y-113576305D01*
X146379347Y-113686824D01*
X146390932Y-113694936D01*
X146583373Y-113784672D01*
X146788473Y-113839629D01*
X147000000Y-113858135D01*
X147005475Y-113857656D01*
X147059716Y-113852911D01*
X147129321Y-113866901D01*
X147180313Y-113916301D01*
X147196503Y-113985427D01*
X147172750Y-114052332D01*
X147159792Y-114067527D01*
X146609229Y-114618090D01*
X146595376Y-114630063D01*
X146575942Y-114644531D01*
X146571228Y-114650149D01*
X146543771Y-114682871D01*
X146536344Y-114690975D01*
X146532420Y-114694899D01*
X146530143Y-114697779D01*
X146513006Y-114719452D01*
X146510699Y-114722284D01*
X146461968Y-114780360D01*
X146458673Y-114786922D01*
X146456827Y-114789728D01*
X146456570Y-114790084D01*
X146456359Y-114790462D01*
X146454588Y-114793334D01*
X146450033Y-114799094D01*
X146446930Y-114805748D01*
X146446929Y-114805750D01*
X146417998Y-114867793D01*
X146416400Y-114871093D01*
X146394172Y-114915352D01*
X146345725Y-114967250D01*
X146276911Y-114984717D01*
X146209577Y-114962207D01*
X146165102Y-114906867D01*
X146157996Y-114883384D01*
X146147030Y-114828255D01*
X146146224Y-114824203D01*
X146144205Y-114818253D01*
X146052385Y-114547761D01*
X146052384Y-114547760D01*
X146051059Y-114543855D01*
X145920115Y-114278327D01*
X145806049Y-114107615D01*
X145757926Y-114035593D01*
X145757922Y-114035588D01*
X145755633Y-114032162D01*
X145752919Y-114029068D01*
X145752915Y-114029062D01*
X145563136Y-113812662D01*
X145560427Y-113809573D01*
X145549024Y-113799573D01*
X145340938Y-113617085D01*
X145340932Y-113617081D01*
X145337838Y-113614367D01*
X145334412Y-113612078D01*
X145334407Y-113612074D01*
X145134174Y-113478283D01*
X145091673Y-113449885D01*
X145087974Y-113448061D01*
X145087969Y-113448058D01*
X144930145Y-113370228D01*
X144826145Y-113318941D01*
X144805668Y-113311990D01*
X144549710Y-113225104D01*
X144549706Y-113225103D01*
X144545797Y-113223776D01*
X144541753Y-113222972D01*
X144541747Y-113222970D01*
X144259465Y-113166820D01*
X144259459Y-113166819D01*
X144255426Y-113166017D01*
X144251321Y-113165748D01*
X144251314Y-113165747D01*
X143964119Y-113146924D01*
X143960000Y-113146654D01*
X143955881Y-113146924D01*
X143668686Y-113165747D01*
X143668679Y-113165748D01*
X143664574Y-113166017D01*
X143660541Y-113166819D01*
X143660535Y-113166820D01*
X143378253Y-113222970D01*
X143378247Y-113222972D01*
X143374203Y-113223776D01*
X143370294Y-113225103D01*
X143370290Y-113225104D01*
X143114332Y-113311990D01*
X143093855Y-113318941D01*
X142989855Y-113370228D01*
X142832031Y-113448058D01*
X142832026Y-113448061D01*
X142828327Y-113449885D01*
X142785826Y-113478283D01*
X142585593Y-113612074D01*
X142585588Y-113612078D01*
X142582162Y-113614367D01*
X142579068Y-113617081D01*
X142579062Y-113617085D01*
X142370976Y-113799573D01*
X142359573Y-113809573D01*
X142356864Y-113812662D01*
X142167085Y-114029062D01*
X142167081Y-114029068D01*
X142164367Y-114032162D01*
X142162078Y-114035588D01*
X142162074Y-114035593D01*
X142113951Y-114107615D01*
X141999885Y-114278327D01*
X141868941Y-114543855D01*
X141867616Y-114547760D01*
X141867615Y-114547761D01*
X141775796Y-114818253D01*
X141773776Y-114824203D01*
X141772972Y-114828247D01*
X141772970Y-114828253D01*
X141718810Y-115100535D01*
X141716017Y-115114574D01*
X141715748Y-115118679D01*
X141715747Y-115118686D01*
X141703853Y-115300157D01*
X141696654Y-115410000D01*
X141696924Y-115414119D01*
X141715362Y-115695426D01*
X141716017Y-115705426D01*
X141716819Y-115709459D01*
X141716820Y-115709465D01*
X141772565Y-115989710D01*
X141773776Y-115995797D01*
X141775103Y-115999706D01*
X141775104Y-115999710D01*
X141865546Y-116266145D01*
X141868941Y-116276145D01*
X141893438Y-116325819D01*
X141996647Y-116535106D01*
X141999885Y-116541673D01*
X142002179Y-116545106D01*
X142159757Y-116780938D01*
X142164367Y-116787838D01*
X142167081Y-116790932D01*
X142167085Y-116790938D01*
X142337992Y-116985819D01*
X142359573Y-117010427D01*
X142362662Y-117013136D01*
X142579062Y-117202915D01*
X142579068Y-117202919D01*
X142582162Y-117205633D01*
X142585588Y-117207922D01*
X142585593Y-117207926D01*
X142588603Y-117209937D01*
X142828327Y-117370115D01*
X142832026Y-117371939D01*
X142832031Y-117371942D01*
X142968313Y-117439148D01*
X143093855Y-117501059D01*
X143097760Y-117502384D01*
X143097761Y-117502385D01*
X143370290Y-117594896D01*
X143370294Y-117594897D01*
X143374203Y-117596224D01*
X143378247Y-117597028D01*
X143378253Y-117597030D01*
X143660535Y-117653180D01*
X143660541Y-117653181D01*
X143664574Y-117653983D01*
X143668679Y-117654252D01*
X143668686Y-117654253D01*
X143955881Y-117673076D01*
X143960000Y-117673346D01*
X143964119Y-117673076D01*
X144251314Y-117654253D01*
X144251321Y-117654252D01*
X144255426Y-117653983D01*
X144259459Y-117653181D01*
X144259465Y-117653180D01*
X144541747Y-117597030D01*
X144541753Y-117597028D01*
X144545797Y-117596224D01*
X144549706Y-117594897D01*
X144549710Y-117594896D01*
X144822239Y-117502385D01*
X144822240Y-117502384D01*
X144826145Y-117501059D01*
X144951687Y-117439148D01*
X145087969Y-117371942D01*
X145087974Y-117371939D01*
X145091673Y-117370115D01*
X145331397Y-117209937D01*
X145334407Y-117207926D01*
X145334412Y-117207922D01*
X145337838Y-117205633D01*
X145340932Y-117202919D01*
X145340938Y-117202915D01*
X145557338Y-117013136D01*
X145560427Y-117010427D01*
X145582008Y-116985819D01*
X145752915Y-116790938D01*
X145752919Y-116790932D01*
X145755633Y-116787838D01*
X145760244Y-116780938D01*
X145917821Y-116545106D01*
X145920115Y-116541673D01*
X145923354Y-116535106D01*
X146026562Y-116325819D01*
X146051059Y-116276145D01*
X146055780Y-116262239D01*
X146096187Y-116143202D01*
X146137024Y-116085126D01*
X146202777Y-116058347D01*
X146272569Y-116071368D01*
X146324242Y-116120055D01*
X146341500Y-116183703D01*
X146341500Y-116933629D01*
X146321498Y-117001750D01*
X146304595Y-117022724D01*
X145322724Y-118004595D01*
X145260412Y-118038621D01*
X145233629Y-118041500D01*
X140466371Y-118041500D01*
X140398250Y-118021498D01*
X140377276Y-118004595D01*
X140095405Y-117722724D01*
X140061379Y-117660412D01*
X140058500Y-117633629D01*
X140058500Y-110105475D01*
X145782846Y-110105475D01*
X145800387Y-110305960D01*
X145802290Y-110316755D01*
X145854376Y-110511145D01*
X145858122Y-110521437D01*
X145943176Y-110703836D01*
X145948654Y-110713322D01*
X145970720Y-110744837D01*
X145981198Y-110753212D01*
X145994646Y-110746144D01*
X146627978Y-110112812D01*
X146634356Y-110101132D01*
X147364408Y-110101132D01*
X147364539Y-110102965D01*
X147368790Y-110109580D01*
X148006076Y-110746866D01*
X148017850Y-110753296D01*
X148029866Y-110743999D01*
X148051346Y-110713322D01*
X148056824Y-110703836D01*
X148141878Y-110521437D01*
X148145624Y-110511145D01*
X148197710Y-110316755D01*
X148199613Y-110305960D01*
X148217154Y-110105475D01*
X148217154Y-110094525D01*
X148199613Y-109894040D01*
X148197710Y-109883245D01*
X148145624Y-109688855D01*
X148141878Y-109678563D01*
X148056828Y-109496174D01*
X148051342Y-109486672D01*
X148029278Y-109455163D01*
X148018801Y-109446788D01*
X148005353Y-109453857D01*
X147372022Y-110087188D01*
X147364408Y-110101132D01*
X146634356Y-110101132D01*
X146635592Y-110098868D01*
X146635461Y-110097035D01*
X146631210Y-110090420D01*
X145993925Y-109453135D01*
X145982150Y-109446705D01*
X145970136Y-109455999D01*
X145948658Y-109486672D01*
X145943172Y-109496174D01*
X145858122Y-109678563D01*
X145854376Y-109688855D01*
X145802290Y-109883245D01*
X145800387Y-109894040D01*
X145782846Y-110094525D01*
X145782846Y-110105475D01*
X140058500Y-110105475D01*
X140058500Y-109081199D01*
X146346788Y-109081199D01*
X146353857Y-109094647D01*
X146987188Y-109727978D01*
X147001132Y-109735592D01*
X147002965Y-109735461D01*
X147009580Y-109731210D01*
X147646866Y-109093924D01*
X147653296Y-109082150D01*
X147643999Y-109070134D01*
X147613322Y-109048654D01*
X147603836Y-109043176D01*
X147421437Y-108958122D01*
X147411145Y-108954376D01*
X147216755Y-108902290D01*
X147205960Y-108900387D01*
X147005475Y-108882846D01*
X146994525Y-108882846D01*
X146794040Y-108900387D01*
X146783245Y-108902290D01*
X146588855Y-108954376D01*
X146578563Y-108958122D01*
X146396174Y-109043172D01*
X146386672Y-109048658D01*
X146355163Y-109070722D01*
X146346788Y-109081199D01*
X140058500Y-109081199D01*
X140058500Y-106459803D01*
X151667000Y-106459803D01*
X151667325Y-106466193D01*
X151676908Y-106559988D01*
X151679767Y-106573346D01*
X151731036Y-106728065D01*
X151737192Y-106741267D01*
X151822512Y-106879592D01*
X151831558Y-106891032D01*
X151946468Y-107005942D01*
X151957908Y-107014988D01*
X152096233Y-107100308D01*
X152109435Y-107106464D01*
X152264154Y-107157733D01*
X152277512Y-107160592D01*
X152371307Y-107170175D01*
X152377697Y-107170500D01*
X152627885Y-107170500D01*
X152643124Y-107166025D01*
X152644329Y-107164635D01*
X152646000Y-107156952D01*
X152646000Y-106347115D01*
X152641525Y-106331876D01*
X152640135Y-106330671D01*
X152632452Y-106329000D01*
X151685115Y-106329000D01*
X151669876Y-106333475D01*
X151668671Y-106334865D01*
X151667000Y-106342548D01*
X151667000Y-106459803D01*
X140058500Y-106459803D01*
X140058500Y-104561513D01*
X140078502Y-104493392D01*
X140099614Y-104468398D01*
X140117047Y-104452506D01*
X140148677Y-104423671D01*
X140276389Y-104254554D01*
X140370850Y-104064850D01*
X140428845Y-103861018D01*
X140437486Y-103767765D01*
X143945788Y-103767765D01*
X143975414Y-104037018D01*
X144043928Y-104299088D01*
X144045729Y-104303326D01*
X144141661Y-104529072D01*
X144149870Y-104548390D01*
X144152263Y-104552311D01*
X144152266Y-104552317D01*
X144221940Y-104666481D01*
X144290982Y-104779610D01*
X144464255Y-104987820D01*
X144467679Y-104990888D01*
X144467683Y-104990892D01*
X144474419Y-104996927D01*
X144665998Y-105168582D01*
X144669842Y-105171125D01*
X144885024Y-105313488D01*
X144891910Y-105318044D01*
X145024104Y-105380014D01*
X145133007Y-105431066D01*
X145133011Y-105431068D01*
X145137176Y-105433020D01*
X145396569Y-105511060D01*
X145401126Y-105511731D01*
X145401132Y-105511732D01*
X145659999Y-105549829D01*
X145660004Y-105549829D01*
X145664561Y-105550500D01*
X145867631Y-105550500D01*
X146070156Y-105535677D01*
X146074647Y-105534677D01*
X146074651Y-105534676D01*
X146330061Y-105477781D01*
X146330066Y-105477780D01*
X146334553Y-105476780D01*
X146587558Y-105380014D01*
X146823777Y-105247441D01*
X147038177Y-105081888D01*
X147226186Y-104886881D01*
X147383799Y-104666579D01*
X147444564Y-104548390D01*
X147505547Y-104429778D01*
X147505549Y-104429772D01*
X147507656Y-104425675D01*
X147509143Y-104421315D01*
X147509146Y-104421309D01*
X147593628Y-104173672D01*
X147595118Y-104169305D01*
X147644319Y-103902933D01*
X147651425Y-103708500D01*
X147654044Y-103636837D01*
X147654044Y-103636834D01*
X147654212Y-103632235D01*
X147624586Y-103362982D01*
X147619144Y-103342163D01*
X147557237Y-103105368D01*
X147557237Y-103105367D01*
X147556072Y-103100912D01*
X147533515Y-103047830D01*
X147451930Y-102855845D01*
X147451928Y-102855841D01*
X147450130Y-102851610D01*
X147447737Y-102847689D01*
X147447734Y-102847683D01*
X147311409Y-102624308D01*
X147309018Y-102620390D01*
X147135745Y-102412180D01*
X147132321Y-102409112D01*
X147132317Y-102409108D01*
X146990436Y-102281983D01*
X146934002Y-102231418D01*
X146737430Y-102101367D01*
X146711925Y-102084493D01*
X146711923Y-102084492D01*
X146708090Y-102081956D01*
X146572385Y-102018340D01*
X146466993Y-101968934D01*
X146466989Y-101968932D01*
X146462824Y-101966980D01*
X146203431Y-101888940D01*
X146198874Y-101888269D01*
X146198868Y-101888268D01*
X145940001Y-101850171D01*
X145939996Y-101850171D01*
X145935439Y-101849500D01*
X145732369Y-101849500D01*
X145529844Y-101864323D01*
X145525353Y-101865323D01*
X145525349Y-101865324D01*
X145269939Y-101922219D01*
X145269934Y-101922220D01*
X145265447Y-101923220D01*
X145012442Y-102019986D01*
X144776223Y-102152559D01*
X144772589Y-102155365D01*
X144772586Y-102155367D01*
X144736532Y-102183207D01*
X144561823Y-102318112D01*
X144373814Y-102513119D01*
X144371132Y-102516868D01*
X144371131Y-102516869D01*
X144303560Y-102611316D01*
X144216201Y-102733421D01*
X144214092Y-102737523D01*
X144095324Y-102968529D01*
X144092344Y-102974325D01*
X144090857Y-102978685D01*
X144090854Y-102978691D01*
X144067267Y-103047830D01*
X144004882Y-103230695D01*
X143955681Y-103497067D01*
X143955513Y-103501668D01*
X143947980Y-103707797D01*
X143945788Y-103767765D01*
X140437486Y-103767765D01*
X140448399Y-103650000D01*
X140447862Y-103644205D01*
X140447862Y-103644194D01*
X140447436Y-103639600D01*
X140461066Y-103569924D01*
X140483803Y-103538878D01*
X140652277Y-103370404D01*
X140714589Y-103336378D01*
X140741372Y-103333499D01*
X141100544Y-103333499D01*
X141103721Y-103333174D01*
X141103730Y-103333174D01*
X141152467Y-103328195D01*
X141204426Y-103322887D01*
X141372738Y-103267115D01*
X141461171Y-103212569D01*
X141517404Y-103177884D01*
X141517405Y-103177883D01*
X141523652Y-103174030D01*
X141649030Y-103048652D01*
X141742115Y-102897738D01*
X141793267Y-102743369D01*
X141795725Y-102735952D01*
X141795726Y-102735948D01*
X141797887Y-102729426D01*
X141808500Y-102625545D01*
X141808499Y-101874456D01*
X141807567Y-101865324D01*
X141802685Y-101817543D01*
X141797887Y-101770574D01*
X141742115Y-101602262D01*
X141649030Y-101451348D01*
X141523652Y-101325970D01*
X141519102Y-101323163D01*
X141478549Y-101265890D01*
X141475362Y-101194965D01*
X141511026Y-101133576D01*
X141518066Y-101127475D01*
X141523652Y-101124030D01*
X141649030Y-100998652D01*
X141742115Y-100847738D01*
X141787072Y-100712065D01*
X141795725Y-100685952D01*
X141795726Y-100685948D01*
X141797887Y-100679426D01*
X141798994Y-100668598D01*
X141808175Y-100578729D01*
X141808175Y-100578723D01*
X141808500Y-100575545D01*
X141808499Y-99824456D01*
X141808131Y-99820845D01*
X141802180Y-99762597D01*
X141797887Y-99720574D01*
X141742115Y-99552262D01*
X141709059Y-99498670D01*
X141690322Y-99430191D01*
X141711581Y-99362452D01*
X141731415Y-99339407D01*
X141748677Y-99323671D01*
X141876389Y-99154554D01*
X141936906Y-99033020D01*
X141968254Y-98970064D01*
X141968255Y-98970062D01*
X141970850Y-98964850D01*
X141978877Y-98936640D01*
X142027250Y-98766624D01*
X142028845Y-98761018D01*
X142048399Y-98550000D01*
X142028845Y-98338982D01*
X142009993Y-98272724D01*
X141972445Y-98140755D01*
X141972444Y-98140753D01*
X141970850Y-98135150D01*
X141876389Y-97945446D01*
X141748677Y-97776329D01*
X141592065Y-97633558D01*
X141587117Y-97630495D01*
X141587114Y-97630492D01*
X141416839Y-97525062D01*
X141416836Y-97525060D01*
X141411885Y-97521995D01*
X141214274Y-97445440D01*
X141208549Y-97444370D01*
X141208546Y-97444369D01*
X141120362Y-97427885D01*
X141005961Y-97406500D01*
X140881371Y-97406500D01*
X140813250Y-97386498D01*
X140792276Y-97369595D01*
X140145405Y-96722724D01*
X140111379Y-96660412D01*
X140108500Y-96633629D01*
X140108500Y-88910189D01*
X140128502Y-88842068D01*
X140179830Y-88796668D01*
X140206646Y-88783754D01*
X140317551Y-88708140D01*
X140414331Y-88642156D01*
X140414333Y-88642155D01*
X140418219Y-88639505D01*
X140428704Y-88629777D01*
X140554278Y-88513261D01*
X140605931Y-88465334D01*
X140628073Y-88437569D01*
X140762652Y-88268812D01*
X140762655Y-88268808D01*
X140765587Y-88265131D01*
X140773176Y-88251988D01*
X140848513Y-88121500D01*
X140899896Y-88072507D01*
X140957632Y-88058500D01*
X141915500Y-88058500D01*
X141983621Y-88078502D01*
G37*
%TD.AperFunction*%
%TA.AperFunction,Conductor*%
G36*
X158318959Y-101765339D02*
G01*
X158364195Y-101817543D01*
X158380151Y-101851762D01*
X158380154Y-101851767D01*
X158382477Y-101856749D01*
X158441191Y-101940601D01*
X158509225Y-102037763D01*
X158513802Y-102044300D01*
X158675700Y-102206198D01*
X158680208Y-102209355D01*
X158680211Y-102209357D01*
X158748075Y-102256876D01*
X158863251Y-102337523D01*
X158868233Y-102339846D01*
X158868238Y-102339849D01*
X159028499Y-102414579D01*
X159070757Y-102434284D01*
X159076065Y-102435706D01*
X159076067Y-102435707D01*
X159286598Y-102492119D01*
X159286600Y-102492119D01*
X159291913Y-102493543D01*
X159520000Y-102513498D01*
X159748087Y-102493543D01*
X159753398Y-102492120D01*
X159753409Y-102492118D01*
X159811541Y-102476541D01*
X159882517Y-102478230D01*
X159933248Y-102509152D01*
X164616348Y-107192253D01*
X164623888Y-107200539D01*
X164628000Y-107207018D01*
X164633777Y-107212443D01*
X164677651Y-107253643D01*
X164680493Y-107256398D01*
X164700230Y-107276135D01*
X164703427Y-107278615D01*
X164712447Y-107286318D01*
X164744679Y-107316586D01*
X164751625Y-107320405D01*
X164751628Y-107320407D01*
X164762434Y-107326348D01*
X164778953Y-107337199D01*
X164794959Y-107349614D01*
X164802228Y-107352759D01*
X164802232Y-107352762D01*
X164835537Y-107367174D01*
X164846187Y-107372391D01*
X164884940Y-107393695D01*
X164892615Y-107395666D01*
X164892616Y-107395666D01*
X164904562Y-107398733D01*
X164923266Y-107405137D01*
X164929298Y-107407747D01*
X164941855Y-107413181D01*
X164949678Y-107414420D01*
X164949688Y-107414423D01*
X164985524Y-107420099D01*
X164997144Y-107422505D01*
X165032289Y-107431528D01*
X165039970Y-107433500D01*
X165060224Y-107433500D01*
X165079934Y-107435051D01*
X165099943Y-107438220D01*
X165107835Y-107437474D01*
X165143961Y-107434059D01*
X165155819Y-107433500D01*
X167285406Y-107433500D01*
X167353527Y-107453502D01*
X167374501Y-107470405D01*
X170699595Y-110795500D01*
X170733621Y-110857812D01*
X170736500Y-110884595D01*
X170736500Y-111526581D01*
X170716498Y-111594702D01*
X170682771Y-111629793D01*
X170586998Y-111696854D01*
X170436854Y-111846998D01*
X170315064Y-112020933D01*
X170312743Y-112025911D01*
X170312741Y-112025914D01*
X170310401Y-112030933D01*
X170225328Y-112213373D01*
X170223905Y-112218682D01*
X170223904Y-112218686D01*
X170221707Y-112226886D01*
X170184756Y-112287508D01*
X170120895Y-112318530D01*
X170050401Y-112310102D01*
X169995654Y-112264899D01*
X169978293Y-112226886D01*
X169976096Y-112218686D01*
X169976095Y-112218682D01*
X169974672Y-112213373D01*
X169889599Y-112030933D01*
X169887259Y-112025914D01*
X169887257Y-112025911D01*
X169884936Y-112020933D01*
X169763146Y-111846998D01*
X169613002Y-111696854D01*
X169608494Y-111693697D01*
X169608491Y-111693695D01*
X169443577Y-111578221D01*
X169443574Y-111578219D01*
X169439068Y-111575064D01*
X169246627Y-111485328D01*
X169041527Y-111430371D01*
X168830000Y-111411865D01*
X168618473Y-111430371D01*
X168413373Y-111485328D01*
X168301598Y-111537449D01*
X168225914Y-111572741D01*
X168225911Y-111572743D01*
X168220933Y-111575064D01*
X168046998Y-111696854D01*
X167924095Y-111819757D01*
X167861783Y-111853783D01*
X167790968Y-111848718D01*
X167745905Y-111819757D01*
X167623002Y-111696854D01*
X167618494Y-111693697D01*
X167618491Y-111693695D01*
X167453577Y-111578221D01*
X167453574Y-111578219D01*
X167449068Y-111575064D01*
X167256627Y-111485328D01*
X167251318Y-111483905D01*
X167251314Y-111483904D01*
X167243114Y-111481707D01*
X167182492Y-111444756D01*
X167151470Y-111380895D01*
X167159898Y-111310401D01*
X167205101Y-111255654D01*
X167243114Y-111238293D01*
X167251314Y-111236096D01*
X167251318Y-111236095D01*
X167256627Y-111234672D01*
X167449068Y-111144936D01*
X167453577Y-111141779D01*
X167618491Y-111026305D01*
X167618494Y-111026303D01*
X167623002Y-111023146D01*
X167773146Y-110873002D01*
X167783301Y-110858500D01*
X167891779Y-110703577D01*
X167891780Y-110703575D01*
X167894936Y-110699068D01*
X167984672Y-110506627D01*
X168039629Y-110301527D01*
X168058135Y-110090000D01*
X168039629Y-109878473D01*
X167984672Y-109673373D01*
X167910821Y-109514999D01*
X167897259Y-109485914D01*
X167897257Y-109485911D01*
X167894936Y-109480933D01*
X167773146Y-109306998D01*
X167623002Y-109156854D01*
X167618494Y-109153697D01*
X167618491Y-109153695D01*
X167453577Y-109038221D01*
X167453574Y-109038219D01*
X167449068Y-109035064D01*
X167256627Y-108945328D01*
X167051527Y-108890371D01*
X166840000Y-108871865D01*
X166628473Y-108890371D01*
X166423373Y-108945328D01*
X166311598Y-108997449D01*
X166235914Y-109032741D01*
X166235911Y-109032743D01*
X166230933Y-109035064D01*
X166056998Y-109156854D01*
X165906854Y-109306998D01*
X165785064Y-109480933D01*
X165782743Y-109485911D01*
X165782741Y-109485914D01*
X165769179Y-109514999D01*
X165695328Y-109673373D01*
X165640371Y-109878473D01*
X165621865Y-110090000D01*
X165640371Y-110301527D01*
X165695328Y-110506627D01*
X165785064Y-110699068D01*
X165788220Y-110703575D01*
X165788221Y-110703577D01*
X165896700Y-110858500D01*
X165906854Y-110873002D01*
X166056998Y-111023146D01*
X166061506Y-111026303D01*
X166061509Y-111026305D01*
X166226423Y-111141779D01*
X166230932Y-111144936D01*
X166423373Y-111234672D01*
X166428682Y-111236095D01*
X166428686Y-111236096D01*
X166436886Y-111238293D01*
X166497508Y-111275244D01*
X166528530Y-111339105D01*
X166520102Y-111409599D01*
X166474899Y-111464346D01*
X166436886Y-111481707D01*
X166428686Y-111483904D01*
X166428682Y-111483905D01*
X166423373Y-111485328D01*
X166311598Y-111537449D01*
X166235914Y-111572741D01*
X166235911Y-111572743D01*
X166230933Y-111575064D01*
X166056998Y-111696854D01*
X165919257Y-111834595D01*
X165856945Y-111868621D01*
X165830162Y-111871500D01*
X162496371Y-111871500D01*
X162428250Y-111851498D01*
X162407276Y-111834595D01*
X161470405Y-110897724D01*
X161436379Y-110835412D01*
X161433500Y-110808629D01*
X161433499Y-110315162D01*
X161433499Y-110311956D01*
X161432977Y-110306837D01*
X161426580Y-110244227D01*
X161422887Y-110208074D01*
X161367115Y-110039762D01*
X161310494Y-109947965D01*
X161277884Y-109895096D01*
X161277883Y-109895095D01*
X161274030Y-109888848D01*
X161148652Y-109763470D01*
X161018352Y-109683100D01*
X160970875Y-109630315D01*
X160958500Y-109575860D01*
X160958500Y-109531370D01*
X160978502Y-109463249D01*
X161032158Y-109416756D01*
X161071031Y-109406093D01*
X161109201Y-109401989D01*
X161246204Y-109350889D01*
X161253608Y-109345347D01*
X161338883Y-109281510D01*
X161363261Y-109263261D01*
X161419741Y-109187813D01*
X161445489Y-109153418D01*
X161445490Y-109153416D01*
X161450889Y-109146204D01*
X161501989Y-109009201D01*
X161507269Y-108960092D01*
X161508140Y-108951988D01*
X161508140Y-108951985D01*
X161508500Y-108948638D01*
X161508500Y-107251362D01*
X161501989Y-107190799D01*
X161450889Y-107053796D01*
X161429822Y-107025653D01*
X161368659Y-106943950D01*
X161363261Y-106936739D01*
X161246204Y-106849111D01*
X161109201Y-106798011D01*
X161085871Y-106795503D01*
X161051991Y-106791860D01*
X161051982Y-106791860D01*
X161048638Y-106791500D01*
X161045272Y-106791500D01*
X161044899Y-106791480D01*
X160977948Y-106767857D01*
X160942204Y-106721840D01*
X160940266Y-106722859D01*
X160934553Y-106711990D01*
X160934396Y-106711788D01*
X160934378Y-106711658D01*
X160914356Y-106673566D01*
X160212812Y-105972022D01*
X160198868Y-105964408D01*
X160197035Y-105964539D01*
X160190420Y-105968790D01*
X159484923Y-106674287D01*
X159462116Y-106716054D01*
X159459951Y-106726001D01*
X159409745Y-106776199D01*
X159356112Y-106791426D01*
X159354731Y-106791500D01*
X159351362Y-106791500D01*
X159348015Y-106791860D01*
X159348012Y-106791860D01*
X159327705Y-106794043D01*
X159290799Y-106798011D01*
X159153796Y-106849111D01*
X159036739Y-106936739D01*
X159031341Y-106943950D01*
X158970179Y-107025653D01*
X158949111Y-107053796D01*
X158898011Y-107190799D01*
X158894055Y-107227604D01*
X158893908Y-107228967D01*
X158866740Y-107294560D01*
X158808423Y-107335051D01*
X158768630Y-107341500D01*
X157766371Y-107341500D01*
X157698250Y-107321498D01*
X157677276Y-107304595D01*
X156525405Y-106152724D01*
X156491379Y-106090412D01*
X156488500Y-106063629D01*
X156488500Y-105605475D01*
X158887483Y-105605475D01*
X158906472Y-105822519D01*
X158908375Y-105833312D01*
X158964764Y-106043761D01*
X158968510Y-106054053D01*
X159060586Y-106251511D01*
X159066069Y-106261006D01*
X159102509Y-106313048D01*
X159112988Y-106321424D01*
X159126434Y-106314356D01*
X159827978Y-105612812D01*
X159834356Y-105601132D01*
X160564408Y-105601132D01*
X160564539Y-105602965D01*
X160568790Y-105609580D01*
X161274287Y-106315077D01*
X161286062Y-106321507D01*
X161298077Y-106312211D01*
X161333931Y-106261006D01*
X161339414Y-106251511D01*
X161431490Y-106054053D01*
X161435236Y-106043761D01*
X161491625Y-105833312D01*
X161493528Y-105822519D01*
X161512517Y-105605475D01*
X161512517Y-105594525D01*
X161493528Y-105377481D01*
X161491625Y-105366688D01*
X161435236Y-105156239D01*
X161431490Y-105145947D01*
X161339414Y-104948489D01*
X161333931Y-104938994D01*
X161297491Y-104886952D01*
X161287012Y-104878576D01*
X161273566Y-104885644D01*
X160572022Y-105587188D01*
X160564408Y-105601132D01*
X159834356Y-105601132D01*
X159835592Y-105598868D01*
X159835461Y-105597035D01*
X159831210Y-105590420D01*
X159125713Y-104884923D01*
X159113938Y-104878493D01*
X159101923Y-104887789D01*
X159066069Y-104938994D01*
X159060586Y-104948489D01*
X158968510Y-105145947D01*
X158964764Y-105156239D01*
X158908375Y-105366688D01*
X158906472Y-105377481D01*
X158887483Y-105594525D01*
X158887483Y-105605475D01*
X156488500Y-105605475D01*
X156488500Y-104512988D01*
X159478576Y-104512988D01*
X159485644Y-104526434D01*
X160187188Y-105227978D01*
X160201132Y-105235592D01*
X160202965Y-105235461D01*
X160209580Y-105231210D01*
X160915077Y-104525713D01*
X160921507Y-104513938D01*
X160912211Y-104501923D01*
X160861006Y-104466069D01*
X160851511Y-104460586D01*
X160654053Y-104368510D01*
X160643761Y-104364764D01*
X160433312Y-104308375D01*
X160422519Y-104306472D01*
X160205475Y-104287483D01*
X160194525Y-104287483D01*
X159977481Y-104306472D01*
X159966688Y-104308375D01*
X159756239Y-104364764D01*
X159745947Y-104368510D01*
X159548489Y-104460586D01*
X159538994Y-104466069D01*
X159486952Y-104502509D01*
X159478576Y-104512988D01*
X156488500Y-104512988D01*
X156488500Y-102587168D01*
X156508502Y-102519047D01*
X156562158Y-102472554D01*
X156632432Y-102462450D01*
X156647105Y-102465460D01*
X156751913Y-102493543D01*
X156980000Y-102513498D01*
X157208087Y-102493543D01*
X157213400Y-102492119D01*
X157213402Y-102492119D01*
X157423933Y-102435707D01*
X157423935Y-102435706D01*
X157429243Y-102434284D01*
X157471501Y-102414579D01*
X157631762Y-102339849D01*
X157631767Y-102339846D01*
X157636749Y-102337523D01*
X157751925Y-102256876D01*
X157819789Y-102209357D01*
X157819792Y-102209355D01*
X157824300Y-102206198D01*
X157986198Y-102044300D01*
X157990776Y-102037763D01*
X158058809Y-101940601D01*
X158117523Y-101856749D01*
X158119846Y-101851767D01*
X158119849Y-101851762D01*
X158135805Y-101817543D01*
X158182722Y-101764258D01*
X158250999Y-101744797D01*
X158318959Y-101765339D01*
G37*
%TD.AperFunction*%
%TD*%
M02*
