%TF.GenerationSoftware,KiCad,Pcbnew,(6.0.2)*%
%TF.CreationDate,2022-04-15T06:16:40-06:00*%
%TF.ProjectId,XCVR_F1_SMD_V1,58435652-5f46-4315-9f53-4d445f56312e,rev?*%
%TF.SameCoordinates,Original*%
%TF.FileFunction,Legend,Top*%
%TF.FilePolarity,Positive*%
%FSLAX46Y46*%
G04 Gerber Fmt 4.6, Leading zero omitted, Abs format (unit mm)*
G04 Created by KiCad (PCBNEW (6.0.2)) date 2022-04-15 06:16:40*
%MOMM*%
%LPD*%
G01*
G04 APERTURE LIST*
%ADD10C,0.150000*%
%ADD11C,0.300000*%
%ADD12C,0.120000*%
G04 APERTURE END LIST*
D10*
X109220000Y-100330000D02*
X109220000Y-97790000D01*
X110490000Y-95250000D02*
X109220000Y-97790000D01*
X112212380Y-97154761D02*
X111212380Y-97154761D01*
X112212380Y-96583333D01*
X111212380Y-96583333D01*
X112212380Y-95964285D02*
X112164761Y-96059523D01*
X112117142Y-96107142D01*
X112021904Y-96154761D01*
X111736190Y-96154761D01*
X111640952Y-96107142D01*
X111593333Y-96059523D01*
X111545714Y-95964285D01*
X111545714Y-95821428D01*
X111593333Y-95726190D01*
X111640952Y-95678571D01*
X111736190Y-95630952D01*
X112021904Y-95630952D01*
X112117142Y-95678571D01*
X112164761Y-95726190D01*
X112212380Y-95821428D01*
X112212380Y-95964285D01*
X111545714Y-95345238D02*
X111545714Y-94964285D01*
X111212380Y-95202380D02*
X112069523Y-95202380D01*
X112164761Y-95154761D01*
X112212380Y-95059523D01*
X112212380Y-94964285D01*
X112164761Y-94202380D02*
X112212380Y-94297619D01*
X112212380Y-94488095D01*
X112164761Y-94583333D01*
X112117142Y-94630952D01*
X112021904Y-94678571D01*
X111736190Y-94678571D01*
X111640952Y-94630952D01*
X111593333Y-94583333D01*
X111545714Y-94488095D01*
X111545714Y-94297619D01*
X111593333Y-94202380D01*
X112212380Y-93773809D02*
X111212380Y-93773809D01*
X112212380Y-93345238D02*
X111688571Y-93345238D01*
X111593333Y-93392857D01*
X111545714Y-93488095D01*
X111545714Y-93630952D01*
X111593333Y-93726190D01*
X111640952Y-93773809D01*
X105410000Y-100330000D02*
X109220000Y-100330000D01*
X105410000Y-97790000D02*
X109220000Y-97790000D01*
X126532640Y-90210640D02*
X131201160Y-90210640D01*
X123431300Y-94470220D02*
X128036320Y-94470220D01*
X126157385Y-88801960D02*
X126728814Y-88801960D01*
X126443100Y-89801960D02*
X126443100Y-88801960D01*
X127633576Y-89801960D02*
X127300242Y-89325770D01*
X127062147Y-89801960D02*
X127062147Y-88801960D01*
X127443100Y-88801960D01*
X127538338Y-88849580D01*
X127585957Y-88897199D01*
X127633576Y-88992437D01*
X127633576Y-89135294D01*
X127585957Y-89230532D01*
X127538338Y-89278151D01*
X127443100Y-89325770D01*
X127062147Y-89325770D01*
X128062147Y-89801960D02*
X128062147Y-88801960D01*
X128395480Y-89516246D01*
X128728814Y-88801960D01*
X128728814Y-89801960D01*
X128966909Y-89897199D02*
X129728814Y-89897199D01*
X130157385Y-88801960D02*
X130347861Y-88801960D01*
X130443100Y-88849580D01*
X130538338Y-88944818D01*
X130585957Y-89135294D01*
X130585957Y-89468627D01*
X130538338Y-89659103D01*
X130443100Y-89754341D01*
X130347861Y-89801960D01*
X130157385Y-89801960D01*
X130062147Y-89754341D01*
X129966909Y-89659103D01*
X129919290Y-89468627D01*
X129919290Y-89135294D01*
X129966909Y-88944818D01*
X130062147Y-88849580D01*
X130157385Y-88801960D01*
X131014528Y-89801960D02*
X131014528Y-88801960D01*
X131585957Y-89801960D01*
X131585957Y-88801960D01*
X122580472Y-94880180D02*
X123151900Y-94880180D01*
X122866186Y-95880180D02*
X122866186Y-94880180D01*
X124056662Y-95880180D02*
X123723329Y-95403990D01*
X123485234Y-95880180D02*
X123485234Y-94880180D01*
X123866186Y-94880180D01*
X123961424Y-94927800D01*
X124009043Y-94975419D01*
X124056662Y-95070657D01*
X124056662Y-95213514D01*
X124009043Y-95308752D01*
X123961424Y-95356371D01*
X123866186Y-95403990D01*
X123485234Y-95403990D01*
X124485234Y-95880180D02*
X124485234Y-94880180D01*
X124818567Y-95594466D01*
X125151900Y-94880180D01*
X125151900Y-95880180D01*
X125389996Y-95975419D02*
X126151900Y-95975419D01*
X126580472Y-94880180D02*
X126770948Y-94880180D01*
X126866186Y-94927800D01*
X126961424Y-95023038D01*
X127009043Y-95213514D01*
X127009043Y-95546847D01*
X126961424Y-95737323D01*
X126866186Y-95832561D01*
X126770948Y-95880180D01*
X126580472Y-95880180D01*
X126485234Y-95832561D01*
X126389996Y-95737323D01*
X126342377Y-95546847D01*
X126342377Y-95213514D01*
X126389996Y-95023038D01*
X126485234Y-94927800D01*
X126580472Y-94880180D01*
X127770948Y-95356371D02*
X127437615Y-95356371D01*
X127437615Y-95880180D02*
X127437615Y-94880180D01*
X127913805Y-94880180D01*
X128628091Y-95356371D02*
X128294758Y-95356371D01*
X128294758Y-95880180D02*
X128294758Y-94880180D01*
X128770948Y-94880180D01*
X185732895Y-70028060D02*
X185256704Y-70028060D01*
X185256704Y-69028060D01*
X186066228Y-69504251D02*
X186399561Y-69504251D01*
X186542419Y-70028060D02*
X186066228Y-70028060D01*
X186066228Y-69028060D01*
X186542419Y-69028060D01*
X186970990Y-70028060D02*
X186970990Y-69028060D01*
X187209085Y-69028060D01*
X187351942Y-69075680D01*
X187447180Y-69170918D01*
X187494800Y-69266156D01*
X187542419Y-69456632D01*
X187542419Y-69599489D01*
X187494800Y-69789965D01*
X187447180Y-69885203D01*
X187351942Y-69980441D01*
X187209085Y-70028060D01*
X186970990Y-70028060D01*
X187970990Y-69647108D02*
X188732895Y-69647108D01*
X162705447Y-140231120D02*
X162705447Y-139231120D01*
X163134019Y-140231120D02*
X163134019Y-139707311D01*
X163086400Y-139612073D01*
X162991161Y-139564454D01*
X162848304Y-139564454D01*
X162753066Y-139612073D01*
X162705447Y-139659692D01*
X163467352Y-139564454D02*
X163848304Y-139564454D01*
X163610209Y-139231120D02*
X163610209Y-140088263D01*
X163657828Y-140183501D01*
X163753066Y-140231120D01*
X163848304Y-140231120D01*
X164038780Y-139564454D02*
X164419733Y-139564454D01*
X164181638Y-139231120D02*
X164181638Y-140088263D01*
X164229257Y-140183501D01*
X164324495Y-140231120D01*
X164419733Y-140231120D01*
X164753066Y-139564454D02*
X164753066Y-140564454D01*
X164753066Y-139612073D02*
X164848304Y-139564454D01*
X165038780Y-139564454D01*
X165134019Y-139612073D01*
X165181638Y-139659692D01*
X165229257Y-139754930D01*
X165229257Y-140040644D01*
X165181638Y-140135882D01*
X165134019Y-140183501D01*
X165038780Y-140231120D01*
X164848304Y-140231120D01*
X164753066Y-140183501D01*
X165610209Y-140183501D02*
X165705447Y-140231120D01*
X165895923Y-140231120D01*
X165991161Y-140183501D01*
X166038780Y-140088263D01*
X166038780Y-140040644D01*
X165991161Y-139945406D01*
X165895923Y-139897787D01*
X165753066Y-139897787D01*
X165657828Y-139850168D01*
X165610209Y-139754930D01*
X165610209Y-139707311D01*
X165657828Y-139612073D01*
X165753066Y-139564454D01*
X165895923Y-139564454D01*
X165991161Y-139612073D01*
X166467352Y-140135882D02*
X166514971Y-140183501D01*
X166467352Y-140231120D01*
X166419733Y-140183501D01*
X166467352Y-140135882D01*
X166467352Y-140231120D01*
X166467352Y-139612073D02*
X166514971Y-139659692D01*
X166467352Y-139707311D01*
X166419733Y-139659692D01*
X166467352Y-139612073D01*
X166467352Y-139707311D01*
X167657828Y-139183501D02*
X166800685Y-140469216D01*
X168705447Y-139183501D02*
X167848304Y-140469216D01*
X169467352Y-140231120D02*
X169467352Y-139707311D01*
X169419733Y-139612073D01*
X169324495Y-139564454D01*
X169134019Y-139564454D01*
X169038780Y-139612073D01*
X169467352Y-140183501D02*
X169372114Y-140231120D01*
X169134019Y-140231120D01*
X169038780Y-140183501D01*
X168991161Y-140088263D01*
X168991161Y-139993025D01*
X169038780Y-139897787D01*
X169134019Y-139850168D01*
X169372114Y-139850168D01*
X169467352Y-139802549D01*
X169943542Y-139564454D02*
X169943542Y-140231120D01*
X169943542Y-139659692D02*
X169991161Y-139612073D01*
X170086400Y-139564454D01*
X170229257Y-139564454D01*
X170324495Y-139612073D01*
X170372114Y-139707311D01*
X170372114Y-140231120D01*
X171276876Y-140231120D02*
X171276876Y-139231120D01*
X171276876Y-140183501D02*
X171181638Y-140231120D01*
X170991161Y-140231120D01*
X170895923Y-140183501D01*
X170848304Y-140135882D01*
X170800685Y-140040644D01*
X170800685Y-139754930D01*
X170848304Y-139659692D01*
X170895923Y-139612073D01*
X170991161Y-139564454D01*
X171181638Y-139564454D01*
X171276876Y-139612073D01*
X171753066Y-140231120D02*
X171753066Y-139564454D01*
X171753066Y-139754930D02*
X171800685Y-139659692D01*
X171848304Y-139612073D01*
X171943542Y-139564454D01*
X172038780Y-139564454D01*
X172514971Y-140231120D02*
X172419733Y-140183501D01*
X172372114Y-140135882D01*
X172324495Y-140040644D01*
X172324495Y-139754930D01*
X172372114Y-139659692D01*
X172419733Y-139612073D01*
X172514971Y-139564454D01*
X172657828Y-139564454D01*
X172753066Y-139612073D01*
X172800685Y-139659692D01*
X172848304Y-139754930D01*
X172848304Y-140040644D01*
X172800685Y-140135882D01*
X172753066Y-140183501D01*
X172657828Y-140231120D01*
X172514971Y-140231120D01*
X173705447Y-140231120D02*
X173705447Y-139231120D01*
X173705447Y-140183501D02*
X173610209Y-140231120D01*
X173419733Y-140231120D01*
X173324495Y-140183501D01*
X173276876Y-140135882D01*
X173229257Y-140040644D01*
X173229257Y-139754930D01*
X173276876Y-139659692D01*
X173324495Y-139612073D01*
X173419733Y-139564454D01*
X173610209Y-139564454D01*
X173705447Y-139612073D01*
X174610209Y-140231120D02*
X174610209Y-139707311D01*
X174562590Y-139612073D01*
X174467352Y-139564454D01*
X174276876Y-139564454D01*
X174181638Y-139612073D01*
X174610209Y-140183501D02*
X174514971Y-140231120D01*
X174276876Y-140231120D01*
X174181638Y-140183501D01*
X174134019Y-140088263D01*
X174134019Y-139993025D01*
X174181638Y-139897787D01*
X174276876Y-139850168D01*
X174514971Y-139850168D01*
X174610209Y-139802549D01*
X175086400Y-140135882D02*
X175134019Y-140183501D01*
X175086400Y-140231120D01*
X175038780Y-140183501D01*
X175086400Y-140135882D01*
X175086400Y-140231120D01*
X175467352Y-139564454D02*
X175657828Y-140231120D01*
X175848304Y-139754930D01*
X176038780Y-140231120D01*
X176229257Y-139564454D01*
X176753066Y-140231120D02*
X176657828Y-140183501D01*
X176610209Y-140135882D01*
X176562590Y-140040644D01*
X176562590Y-139754930D01*
X176610209Y-139659692D01*
X176657828Y-139612073D01*
X176753066Y-139564454D01*
X176895923Y-139564454D01*
X176991161Y-139612073D01*
X177038780Y-139659692D01*
X177086400Y-139754930D01*
X177086400Y-140040644D01*
X177038780Y-140135882D01*
X176991161Y-140183501D01*
X176895923Y-140231120D01*
X176753066Y-140231120D01*
X177514971Y-140231120D02*
X177514971Y-139564454D01*
X177514971Y-139754930D02*
X177562590Y-139659692D01*
X177610209Y-139612073D01*
X177705447Y-139564454D01*
X177800685Y-139564454D01*
X178134019Y-140231120D02*
X178134019Y-139231120D01*
X178229257Y-139850168D02*
X178514971Y-140231120D01*
X178514971Y-139564454D02*
X178134019Y-139945406D01*
X161566958Y-141539496D02*
X161471720Y-141491877D01*
X161281243Y-141491877D01*
X161186005Y-141539496D01*
X161090767Y-141634734D01*
X161043148Y-141729972D01*
X161043148Y-141920448D01*
X161090767Y-142015686D01*
X161186005Y-142110924D01*
X161281243Y-142158543D01*
X161471720Y-142158543D01*
X161566958Y-142110924D01*
X161376481Y-141158543D02*
X161138386Y-141206162D01*
X160900291Y-141349020D01*
X160757434Y-141587115D01*
X160709815Y-141825210D01*
X160757434Y-142063305D01*
X160900291Y-142301400D01*
X161138386Y-142444258D01*
X161376481Y-142491877D01*
X161614577Y-142444258D01*
X161852672Y-142301400D01*
X161995529Y-142063305D01*
X162043148Y-141825210D01*
X161995529Y-141587115D01*
X161852672Y-141349020D01*
X161614577Y-141206162D01*
X161376481Y-141158543D01*
X163090767Y-141301400D02*
X163662196Y-141301400D01*
X163376481Y-142301400D02*
X163376481Y-141301400D01*
X164376481Y-142253781D02*
X164281243Y-142301400D01*
X164090767Y-142301400D01*
X163995529Y-142253781D01*
X163947910Y-142158543D01*
X163947910Y-141777591D01*
X163995529Y-141682353D01*
X164090767Y-141634734D01*
X164281243Y-141634734D01*
X164376481Y-141682353D01*
X164424100Y-141777591D01*
X164424100Y-141872829D01*
X163947910Y-141968067D01*
X165281243Y-142253781D02*
X165186005Y-142301400D01*
X164995529Y-142301400D01*
X164900291Y-142253781D01*
X164852672Y-142206162D01*
X164805053Y-142110924D01*
X164805053Y-141825210D01*
X164852672Y-141729972D01*
X164900291Y-141682353D01*
X164995529Y-141634734D01*
X165186005Y-141634734D01*
X165281243Y-141682353D01*
X165709815Y-142301400D02*
X165709815Y-141301400D01*
X166138386Y-142301400D02*
X166138386Y-141777591D01*
X166090767Y-141682353D01*
X165995529Y-141634734D01*
X165852672Y-141634734D01*
X165757434Y-141682353D01*
X165709815Y-141729972D01*
X167376481Y-142301400D02*
X167376481Y-141301400D01*
X167376481Y-141682353D02*
X167471720Y-141634734D01*
X167662196Y-141634734D01*
X167757434Y-141682353D01*
X167805053Y-141729972D01*
X167852672Y-141825210D01*
X167852672Y-142110924D01*
X167805053Y-142206162D01*
X167757434Y-142253781D01*
X167662196Y-142301400D01*
X167471720Y-142301400D01*
X167376481Y-142253781D01*
X168186005Y-141634734D02*
X168424100Y-142301400D01*
X168662196Y-141634734D02*
X168424100Y-142301400D01*
X168328862Y-142539496D01*
X168281243Y-142587115D01*
X168186005Y-142634734D01*
X169757434Y-142015686D02*
X170233624Y-142015686D01*
X169662196Y-142301400D02*
X169995529Y-141301400D01*
X170328862Y-142301400D01*
X170662196Y-141634734D02*
X170662196Y-142301400D01*
X170662196Y-141729972D02*
X170709815Y-141682353D01*
X170805053Y-141634734D01*
X170947910Y-141634734D01*
X171043148Y-141682353D01*
X171090767Y-141777591D01*
X171090767Y-142301400D01*
X171995529Y-142301400D02*
X171995529Y-141301400D01*
X171995529Y-142253781D02*
X171900291Y-142301400D01*
X171709815Y-142301400D01*
X171614577Y-142253781D01*
X171566958Y-142206162D01*
X171519339Y-142110924D01*
X171519339Y-141825210D01*
X171566958Y-141729972D01*
X171614577Y-141682353D01*
X171709815Y-141634734D01*
X171900291Y-141634734D01*
X171995529Y-141682353D01*
X172471720Y-142301400D02*
X172471720Y-141634734D01*
X172471720Y-141825210D02*
X172519339Y-141729972D01*
X172566958Y-141682353D01*
X172662196Y-141634734D01*
X172757434Y-141634734D01*
X173233624Y-142301400D02*
X173138386Y-142253781D01*
X173090767Y-142206162D01*
X173043148Y-142110924D01*
X173043148Y-141825210D01*
X173090767Y-141729972D01*
X173138386Y-141682353D01*
X173233624Y-141634734D01*
X173376481Y-141634734D01*
X173471720Y-141682353D01*
X173519339Y-141729972D01*
X173566958Y-141825210D01*
X173566958Y-142110924D01*
X173519339Y-142206162D01*
X173471720Y-142253781D01*
X173376481Y-142301400D01*
X173233624Y-142301400D01*
X174424100Y-142301400D02*
X174424100Y-141301400D01*
X174424100Y-142253781D02*
X174328862Y-142301400D01*
X174138386Y-142301400D01*
X174043148Y-142253781D01*
X173995529Y-142206162D01*
X173947910Y-142110924D01*
X173947910Y-141825210D01*
X173995529Y-141729972D01*
X174043148Y-141682353D01*
X174138386Y-141634734D01*
X174328862Y-141634734D01*
X174424100Y-141682353D01*
X175328862Y-142301400D02*
X175328862Y-141777591D01*
X175281243Y-141682353D01*
X175186005Y-141634734D01*
X174995529Y-141634734D01*
X174900291Y-141682353D01*
X175328862Y-142253781D02*
X175233624Y-142301400D01*
X174995529Y-142301400D01*
X174900291Y-142253781D01*
X174852672Y-142158543D01*
X174852672Y-142063305D01*
X174900291Y-141968067D01*
X174995529Y-141920448D01*
X175233624Y-141920448D01*
X175328862Y-141872829D01*
X175852672Y-142253781D02*
X175852672Y-142301400D01*
X175805053Y-142396639D01*
X175757434Y-142444258D01*
X177519339Y-142301400D02*
X177043148Y-142301400D01*
X177043148Y-141301400D01*
X178328862Y-142301400D02*
X177852672Y-142301400D01*
X177852672Y-141301400D01*
X179233624Y-142206162D02*
X179186005Y-142253781D01*
X179043148Y-142301400D01*
X178947910Y-142301400D01*
X178805053Y-142253781D01*
X178709815Y-142158543D01*
X178662196Y-142063305D01*
X178614577Y-141872829D01*
X178614577Y-141729972D01*
X178662196Y-141539496D01*
X178709815Y-141444258D01*
X178805053Y-141349020D01*
X178947910Y-141301400D01*
X179043148Y-141301400D01*
X179186005Y-141349020D01*
X179233624Y-141396639D01*
X166186005Y-143625686D02*
X166662196Y-143625686D01*
X166090767Y-143911400D02*
X166424100Y-142911400D01*
X166757434Y-143911400D01*
X167090767Y-143244734D02*
X167090767Y-144244734D01*
X167090767Y-143292353D02*
X167186005Y-143244734D01*
X167376481Y-143244734D01*
X167471720Y-143292353D01*
X167519339Y-143339972D01*
X167566958Y-143435210D01*
X167566958Y-143720924D01*
X167519339Y-143816162D01*
X167471720Y-143863781D01*
X167376481Y-143911400D01*
X167186005Y-143911400D01*
X167090767Y-143863781D01*
X167995529Y-143911400D02*
X167995529Y-143244734D01*
X167995529Y-143435210D02*
X168043148Y-143339972D01*
X168090767Y-143292353D01*
X168186005Y-143244734D01*
X168281243Y-143244734D01*
X168614577Y-143911400D02*
X168614577Y-143244734D01*
X168614577Y-142911400D02*
X168566958Y-142959020D01*
X168614577Y-143006639D01*
X168662196Y-142959020D01*
X168614577Y-142911400D01*
X168614577Y-143006639D01*
X169233624Y-143911400D02*
X169138386Y-143863781D01*
X169090767Y-143768543D01*
X169090767Y-142911400D01*
X170328862Y-143006639D02*
X170376481Y-142959020D01*
X170471720Y-142911400D01*
X170709815Y-142911400D01*
X170805053Y-142959020D01*
X170852672Y-143006639D01*
X170900291Y-143101877D01*
X170900291Y-143197115D01*
X170852672Y-143339972D01*
X170281243Y-143911400D01*
X170900291Y-143911400D01*
X171519339Y-142911400D02*
X171614577Y-142911400D01*
X171709815Y-142959020D01*
X171757434Y-143006639D01*
X171805053Y-143101877D01*
X171852672Y-143292353D01*
X171852672Y-143530448D01*
X171805053Y-143720924D01*
X171757434Y-143816162D01*
X171709815Y-143863781D01*
X171614577Y-143911400D01*
X171519339Y-143911400D01*
X171424100Y-143863781D01*
X171376481Y-143816162D01*
X171328862Y-143720924D01*
X171281243Y-143530448D01*
X171281243Y-143292353D01*
X171328862Y-143101877D01*
X171376481Y-143006639D01*
X171424100Y-142959020D01*
X171519339Y-142911400D01*
X172233624Y-143006639D02*
X172281243Y-142959020D01*
X172376481Y-142911400D01*
X172614577Y-142911400D01*
X172709815Y-142959020D01*
X172757434Y-143006639D01*
X172805053Y-143101877D01*
X172805053Y-143197115D01*
X172757434Y-143339972D01*
X172186005Y-143911400D01*
X172805053Y-143911400D01*
X173186005Y-143006639D02*
X173233624Y-142959020D01*
X173328862Y-142911400D01*
X173566958Y-142911400D01*
X173662196Y-142959020D01*
X173709815Y-143006639D01*
X173757434Y-143101877D01*
X173757434Y-143197115D01*
X173709815Y-143339972D01*
X173138386Y-143911400D01*
X173757434Y-143911400D01*
X185732895Y-67442340D02*
X185256704Y-67442340D01*
X185256704Y-66442340D01*
X186066228Y-66918531D02*
X186399561Y-66918531D01*
X186542419Y-67442340D02*
X186066228Y-67442340D01*
X186066228Y-66442340D01*
X186542419Y-66442340D01*
X186970990Y-67442340D02*
X186970990Y-66442340D01*
X187209085Y-66442340D01*
X187351942Y-66489960D01*
X187447180Y-66585198D01*
X187494800Y-66680436D01*
X187542419Y-66870912D01*
X187542419Y-67013769D01*
X187494800Y-67204245D01*
X187447180Y-67299483D01*
X187351942Y-67394721D01*
X187209085Y-67442340D01*
X186970990Y-67442340D01*
X187970990Y-67061388D02*
X188732895Y-67061388D01*
X188351942Y-67442340D02*
X188351942Y-66680436D01*
X157669474Y-134778197D02*
X158069474Y-135978197D01*
X158469474Y-134778197D01*
X159326617Y-135921054D02*
X159212331Y-135978197D01*
X158983760Y-135978197D01*
X158869474Y-135921054D01*
X158812331Y-135806768D01*
X158812331Y-135349625D01*
X158869474Y-135235340D01*
X158983760Y-135178197D01*
X159212331Y-135178197D01*
X159326617Y-135235340D01*
X159383760Y-135349625D01*
X159383760Y-135463911D01*
X158812331Y-135578197D01*
X159898045Y-135978197D02*
X159898045Y-135178197D01*
X159898045Y-135406768D02*
X159955188Y-135292482D01*
X160012331Y-135235340D01*
X160126617Y-135178197D01*
X160240902Y-135178197D01*
X160583760Y-135921054D02*
X160698045Y-135978197D01*
X160926617Y-135978197D01*
X161040902Y-135921054D01*
X161098045Y-135806768D01*
X161098045Y-135749625D01*
X161040902Y-135635340D01*
X160926617Y-135578197D01*
X160755188Y-135578197D01*
X160640902Y-135521054D01*
X160583760Y-135406768D01*
X160583760Y-135349625D01*
X160640902Y-135235340D01*
X160755188Y-135178197D01*
X160926617Y-135178197D01*
X161040902Y-135235340D01*
X161612331Y-135978197D02*
X161612331Y-135178197D01*
X161612331Y-134778197D02*
X161555188Y-134835340D01*
X161612331Y-134892482D01*
X161669474Y-134835340D01*
X161612331Y-134778197D01*
X161612331Y-134892482D01*
X162355188Y-135978197D02*
X162240902Y-135921054D01*
X162183760Y-135863911D01*
X162126617Y-135749625D01*
X162126617Y-135406768D01*
X162183760Y-135292482D01*
X162240902Y-135235340D01*
X162355188Y-135178197D01*
X162526617Y-135178197D01*
X162640902Y-135235340D01*
X162698045Y-135292482D01*
X162755188Y-135406768D01*
X162755188Y-135749625D01*
X162698045Y-135863911D01*
X162640902Y-135921054D01*
X162526617Y-135978197D01*
X162355188Y-135978197D01*
X163269474Y-135178197D02*
X163269474Y-135978197D01*
X163269474Y-135292482D02*
X163326617Y-135235340D01*
X163440902Y-135178197D01*
X163612331Y-135178197D01*
X163726617Y-135235340D01*
X163783760Y-135349625D01*
X163783760Y-135978197D01*
X165612331Y-136435340D02*
X165555188Y-136435340D01*
X165440902Y-136378197D01*
X165383760Y-136263911D01*
X165383760Y-135692482D01*
X165326617Y-135578197D01*
X165212331Y-135521054D01*
X165326617Y-135463911D01*
X165383760Y-135349625D01*
X165383760Y-134778197D01*
X165440902Y-134663911D01*
X165555188Y-134606768D01*
X165612331Y-134606768D01*
X166469474Y-135349625D02*
X166069474Y-135349625D01*
X166069474Y-135978197D02*
X166069474Y-134778197D01*
X166640902Y-134778197D01*
X167726617Y-135978197D02*
X167040902Y-135978197D01*
X167383760Y-135978197D02*
X167383760Y-134778197D01*
X167269474Y-134949625D01*
X167155188Y-135063911D01*
X167040902Y-135121054D01*
X168240902Y-135863911D02*
X168298045Y-135921054D01*
X168240902Y-135978197D01*
X168183760Y-135921054D01*
X168240902Y-135863911D01*
X168240902Y-135978197D01*
X168698045Y-134778197D02*
X169498045Y-135978197D01*
X169498045Y-134778197D02*
X168698045Y-135978197D01*
X170640902Y-135863911D02*
X170583760Y-135921054D01*
X170412331Y-135978197D01*
X170298045Y-135978197D01*
X170126617Y-135921054D01*
X170012331Y-135806768D01*
X169955188Y-135692482D01*
X169898045Y-135463911D01*
X169898045Y-135292482D01*
X169955188Y-135063911D01*
X170012331Y-134949625D01*
X170126617Y-134835340D01*
X170298045Y-134778197D01*
X170412331Y-134778197D01*
X170583760Y-134835340D01*
X170640902Y-134892482D01*
X170983760Y-134778197D02*
X171383760Y-135978197D01*
X171783760Y-134778197D01*
X172869474Y-135978197D02*
X172469474Y-135406768D01*
X172183760Y-135978197D02*
X172183760Y-134778197D01*
X172640902Y-134778197D01*
X172755188Y-134835340D01*
X172812331Y-134892482D01*
X172869474Y-135006768D01*
X172869474Y-135178197D01*
X172812331Y-135292482D01*
X172755188Y-135349625D01*
X172640902Y-135406768D01*
X172183760Y-135406768D01*
X173383760Y-135863911D02*
X173440902Y-135921054D01*
X173383760Y-135978197D01*
X173326617Y-135921054D01*
X173383760Y-135863911D01*
X173383760Y-135978197D01*
X173783760Y-134778197D02*
X174469474Y-134778197D01*
X174126617Y-135978197D02*
X174126617Y-134778197D01*
X174869474Y-135978197D02*
X174869474Y-134778197D01*
X174869474Y-135235340D02*
X174983760Y-135178197D01*
X175212331Y-135178197D01*
X175326617Y-135235340D01*
X175383760Y-135292482D01*
X175440902Y-135406768D01*
X175440902Y-135749625D01*
X175383760Y-135863911D01*
X175326617Y-135921054D01*
X175212331Y-135978197D01*
X174983760Y-135978197D01*
X174869474Y-135921054D01*
X175898045Y-135635340D02*
X176469474Y-135635340D01*
X175783760Y-135978197D02*
X176183760Y-134778197D01*
X176583760Y-135978197D01*
X176983760Y-135863911D02*
X177040902Y-135921054D01*
X176983760Y-135978197D01*
X176926617Y-135921054D01*
X176983760Y-135863911D01*
X176983760Y-135978197D01*
X177555188Y-135978197D02*
X177555188Y-134778197D01*
X177840902Y-134778197D01*
X178012331Y-134835340D01*
X178126617Y-134949625D01*
X178183760Y-135063911D01*
X178240902Y-135292482D01*
X178240902Y-135463911D01*
X178183760Y-135692482D01*
X178126617Y-135806768D01*
X178012331Y-135921054D01*
X177840902Y-135978197D01*
X177555188Y-135978197D01*
X178755188Y-135863911D02*
X178812331Y-135921054D01*
X178755188Y-135978197D01*
X178698045Y-135921054D01*
X178755188Y-135863911D01*
X178755188Y-135978197D01*
X179155188Y-134778197D02*
X179555188Y-135978197D01*
X179955188Y-134778197D01*
X180983760Y-135978197D02*
X180298045Y-135978197D01*
X180640902Y-135978197D02*
X180640902Y-134778197D01*
X180526617Y-134949625D01*
X180412331Y-135063911D01*
X180298045Y-135121054D01*
X181383760Y-136435340D02*
X181440902Y-136435340D01*
X181555188Y-136378197D01*
X181612331Y-136263911D01*
X181612331Y-135692482D01*
X181669474Y-135578197D01*
X181783760Y-135521054D01*
X181669474Y-135463911D01*
X181612331Y-135349625D01*
X181612331Y-134778197D01*
X181555188Y-134663911D01*
X181440902Y-134606768D01*
X181383760Y-134606768D01*
D11*
X159394285Y-147362500D02*
X159322857Y-147291071D01*
X159180000Y-147076785D01*
X159108571Y-146933928D01*
X159037142Y-146719642D01*
X158965714Y-146362500D01*
X158965714Y-146076785D01*
X159037142Y-145719642D01*
X159108571Y-145505357D01*
X159180000Y-145362500D01*
X159322857Y-145148214D01*
X159394285Y-145076785D01*
X160822857Y-146648214D02*
X160751428Y-146719642D01*
X160537142Y-146791071D01*
X160394285Y-146791071D01*
X160180000Y-146719642D01*
X160037142Y-146576785D01*
X159965714Y-146433928D01*
X159894285Y-146148214D01*
X159894285Y-145933928D01*
X159965714Y-145648214D01*
X160037142Y-145505357D01*
X160180000Y-145362500D01*
X160394285Y-145291071D01*
X160537142Y-145291071D01*
X160751428Y-145362500D01*
X160822857Y-145433928D01*
X162322857Y-146648214D02*
X162251428Y-146719642D01*
X162037142Y-146791071D01*
X161894285Y-146791071D01*
X161680000Y-146719642D01*
X161537142Y-146576785D01*
X161465714Y-146433928D01*
X161394285Y-146148214D01*
X161394285Y-145933928D01*
X161465714Y-145648214D01*
X161537142Y-145505357D01*
X161680000Y-145362500D01*
X161894285Y-145291071D01*
X162037142Y-145291071D01*
X162251428Y-145362500D01*
X162322857Y-145433928D01*
X164608571Y-146005357D02*
X164822857Y-146076785D01*
X164894285Y-146148214D01*
X164965714Y-146291071D01*
X164965714Y-146505357D01*
X164894285Y-146648214D01*
X164822857Y-146719642D01*
X164680000Y-146791071D01*
X164108571Y-146791071D01*
X164108571Y-145291071D01*
X164608571Y-145291071D01*
X164751428Y-145362500D01*
X164822857Y-145433928D01*
X164894285Y-145576785D01*
X164894285Y-145719642D01*
X164822857Y-145862500D01*
X164751428Y-145933928D01*
X164608571Y-146005357D01*
X164108571Y-146005357D01*
X165894285Y-146076785D02*
X165894285Y-146791071D01*
X165394285Y-145291071D02*
X165894285Y-146076785D01*
X166394285Y-145291071D01*
X166894285Y-146219642D02*
X168037142Y-146219642D01*
X168751428Y-146791071D02*
X168751428Y-145291071D01*
X169608571Y-146791071D01*
X169608571Y-145291071D01*
X171180000Y-146648214D02*
X171108571Y-146719642D01*
X170894285Y-146791071D01*
X170751428Y-146791071D01*
X170537142Y-146719642D01*
X170394285Y-146576785D01*
X170322857Y-146433928D01*
X170251428Y-146148214D01*
X170251428Y-145933928D01*
X170322857Y-145648214D01*
X170394285Y-145505357D01*
X170537142Y-145362500D01*
X170751428Y-145291071D01*
X170894285Y-145291071D01*
X171108571Y-145362500D01*
X171180000Y-145433928D01*
X171822857Y-146219642D02*
X172965714Y-146219642D01*
X173608571Y-146719642D02*
X173822857Y-146791071D01*
X174180000Y-146791071D01*
X174322857Y-146719642D01*
X174394285Y-146648214D01*
X174465714Y-146505357D01*
X174465714Y-146362500D01*
X174394285Y-146219642D01*
X174322857Y-146148214D01*
X174180000Y-146076785D01*
X173894285Y-146005357D01*
X173751428Y-145933928D01*
X173680000Y-145862500D01*
X173608571Y-145719642D01*
X173608571Y-145576785D01*
X173680000Y-145433928D01*
X173751428Y-145362500D01*
X173894285Y-145291071D01*
X174251428Y-145291071D01*
X174465714Y-145362500D01*
X175037142Y-146362500D02*
X175751428Y-146362500D01*
X174894285Y-146791071D02*
X175394285Y-145291071D01*
X175894285Y-146791071D01*
X178180000Y-145791071D02*
X178180000Y-146791071D01*
X177822857Y-145219642D02*
X177465714Y-146291071D01*
X178394285Y-146291071D01*
X178965714Y-146648214D02*
X179037142Y-146719642D01*
X178965714Y-146791071D01*
X178894285Y-146719642D01*
X178965714Y-146648214D01*
X178965714Y-146791071D01*
X179965714Y-145291071D02*
X180108571Y-145291071D01*
X180251428Y-145362500D01*
X180322857Y-145433928D01*
X180394285Y-145576785D01*
X180465714Y-145862500D01*
X180465714Y-146219642D01*
X180394285Y-146505357D01*
X180322857Y-146648214D01*
X180251428Y-146719642D01*
X180108571Y-146791071D01*
X179965714Y-146791071D01*
X179822857Y-146719642D01*
X179751428Y-146648214D01*
X179680000Y-146505357D01*
X179608571Y-146219642D01*
X179608571Y-145862500D01*
X179680000Y-145576785D01*
X179751428Y-145433928D01*
X179822857Y-145362500D01*
X179965714Y-145291071D01*
X180965714Y-147362500D02*
X181037142Y-147291071D01*
X181180000Y-147076785D01*
X181251428Y-146933928D01*
X181322857Y-146719642D01*
X181394285Y-146362500D01*
X181394285Y-146076785D01*
X181322857Y-145719642D01*
X181251428Y-145505357D01*
X181180000Y-145362500D01*
X181037142Y-145148214D01*
X180965714Y-145076785D01*
X158572857Y-149134642D02*
X158787142Y-149206071D01*
X159144285Y-149206071D01*
X159287142Y-149134642D01*
X159358571Y-149063214D01*
X159430000Y-148920357D01*
X159430000Y-148777500D01*
X159358571Y-148634642D01*
X159287142Y-148563214D01*
X159144285Y-148491785D01*
X158858571Y-148420357D01*
X158715714Y-148348928D01*
X158644285Y-148277500D01*
X158572857Y-148134642D01*
X158572857Y-147991785D01*
X158644285Y-147848928D01*
X158715714Y-147777500D01*
X158858571Y-147706071D01*
X159215714Y-147706071D01*
X159430000Y-147777500D01*
X160001428Y-148777500D02*
X160715714Y-148777500D01*
X159858571Y-149206071D02*
X160358571Y-147706071D01*
X160858571Y-149206071D01*
X162072857Y-149206071D02*
X161358571Y-149206071D01*
X161358571Y-147706071D01*
X162572857Y-148420357D02*
X163072857Y-148420357D01*
X163287142Y-149206071D02*
X162572857Y-149206071D01*
X162572857Y-147706071D01*
X163287142Y-147706071D01*
X165072857Y-149206071D02*
X165072857Y-147706071D01*
X165930000Y-149206071D01*
X165930000Y-147706071D01*
X166930000Y-147706071D02*
X167215714Y-147706071D01*
X167358571Y-147777500D01*
X167501428Y-147920357D01*
X167572857Y-148206071D01*
X167572857Y-148706071D01*
X167501428Y-148991785D01*
X167358571Y-149134642D01*
X167215714Y-149206071D01*
X166930000Y-149206071D01*
X166787142Y-149134642D01*
X166644285Y-148991785D01*
X166572857Y-148706071D01*
X166572857Y-148206071D01*
X166644285Y-147920357D01*
X166787142Y-147777500D01*
X166930000Y-147706071D01*
X168001428Y-147706071D02*
X168858571Y-147706071D01*
X168430000Y-149206071D02*
X168430000Y-147706071D01*
X170501428Y-149206071D02*
X170501428Y-147706071D01*
X171072857Y-147706071D01*
X171215714Y-147777500D01*
X171287142Y-147848928D01*
X171358571Y-147991785D01*
X171358571Y-148206071D01*
X171287142Y-148348928D01*
X171215714Y-148420357D01*
X171072857Y-148491785D01*
X170501428Y-148491785D01*
X172001428Y-148420357D02*
X172501428Y-148420357D01*
X172715714Y-149206071D02*
X172001428Y-149206071D01*
X172001428Y-147706071D01*
X172715714Y-147706071D01*
X174215714Y-149206071D02*
X173715714Y-148491785D01*
X173358571Y-149206071D02*
X173358571Y-147706071D01*
X173930000Y-147706071D01*
X174072857Y-147777500D01*
X174144285Y-147848928D01*
X174215714Y-147991785D01*
X174215714Y-148206071D01*
X174144285Y-148348928D01*
X174072857Y-148420357D01*
X173930000Y-148491785D01*
X173358571Y-148491785D01*
X174858571Y-149206071D02*
X174858571Y-147706071D01*
X175358571Y-148777500D01*
X175858571Y-147706071D01*
X175858571Y-149206071D01*
X176572857Y-149206071D02*
X176572857Y-147706071D01*
X177072857Y-147706071D02*
X177930000Y-147706071D01*
X177501428Y-149206071D02*
X177501428Y-147706071D01*
X178215714Y-147706071D02*
X179072857Y-147706071D01*
X178644285Y-149206071D02*
X178644285Y-147706071D01*
X179572857Y-148420357D02*
X180072857Y-148420357D01*
X180287142Y-149206071D02*
X179572857Y-149206071D01*
X179572857Y-147706071D01*
X180287142Y-147706071D01*
X180930000Y-149206071D02*
X180930000Y-147706071D01*
X181287142Y-147706071D01*
X181501428Y-147777500D01*
X181644285Y-147920357D01*
X181715714Y-148063214D01*
X181787142Y-148348928D01*
X181787142Y-148563214D01*
X181715714Y-148848928D01*
X181644285Y-148991785D01*
X181501428Y-149134642D01*
X181287142Y-149206071D01*
X180930000Y-149206071D01*
D10*
X125087841Y-145944644D02*
X125087841Y-146516073D01*
X125049746Y-146630359D01*
X124973556Y-146706549D01*
X124859270Y-146744644D01*
X124783080Y-146744644D01*
X125849746Y-146744644D02*
X125468794Y-146744644D01*
X125468794Y-145944644D01*
X126573556Y-146668454D02*
X126535460Y-146706549D01*
X126421175Y-146744644D01*
X126344984Y-146744644D01*
X126230699Y-146706549D01*
X126154508Y-146630359D01*
X126116413Y-146554168D01*
X126078318Y-146401787D01*
X126078318Y-146287501D01*
X126116413Y-146135120D01*
X126154508Y-146058930D01*
X126230699Y-145982740D01*
X126344984Y-145944644D01*
X126421175Y-145944644D01*
X126535460Y-145982740D01*
X126573556Y-146020835D01*
X127144984Y-145944644D02*
X127144984Y-146516073D01*
X127106889Y-146630359D01*
X127030699Y-146706549D01*
X126916413Y-146744644D01*
X126840222Y-146744644D01*
X127906889Y-146744644D02*
X127525937Y-146744644D01*
X127525937Y-145944644D01*
X128630699Y-146668454D02*
X128592603Y-146706549D01*
X128478318Y-146744644D01*
X128402127Y-146744644D01*
X128287841Y-146706549D01*
X128211651Y-146630359D01*
X128173556Y-146554168D01*
X128135460Y-146401787D01*
X128135460Y-146287501D01*
X128173556Y-146135120D01*
X128211651Y-146058930D01*
X128287841Y-145982740D01*
X128402127Y-145944644D01*
X128478318Y-145944644D01*
X128592603Y-145982740D01*
X128630699Y-146020835D01*
X129202127Y-145944644D02*
X129202127Y-146516073D01*
X129164032Y-146630359D01*
X129087841Y-146706549D01*
X128973556Y-146744644D01*
X128897365Y-146744644D01*
X129964032Y-146744644D02*
X129583080Y-146744644D01*
X129583080Y-145944644D01*
X130687841Y-146668454D02*
X130649746Y-146706549D01*
X130535460Y-146744644D01*
X130459270Y-146744644D01*
X130344984Y-146706549D01*
X130268794Y-146630359D01*
X130230699Y-146554168D01*
X130192603Y-146401787D01*
X130192603Y-146287501D01*
X130230699Y-146135120D01*
X130268794Y-146058930D01*
X130344984Y-145982740D01*
X130459270Y-145944644D01*
X130535460Y-145944644D01*
X130649746Y-145982740D01*
X130687841Y-146020835D01*
X131259270Y-145944644D02*
X131259270Y-146516073D01*
X131221175Y-146630359D01*
X131144984Y-146706549D01*
X131030699Y-146744644D01*
X130954508Y-146744644D01*
X132021175Y-146744644D02*
X131640222Y-146744644D01*
X131640222Y-145944644D01*
X132744984Y-146668454D02*
X132706889Y-146706549D01*
X132592603Y-146744644D01*
X132516413Y-146744644D01*
X132402127Y-146706549D01*
X132325937Y-146630359D01*
X132287841Y-146554168D01*
X132249746Y-146401787D01*
X132249746Y-146287501D01*
X132287841Y-146135120D01*
X132325937Y-146058930D01*
X132402127Y-145982740D01*
X132516413Y-145944644D01*
X132592603Y-145944644D01*
X132706889Y-145982740D01*
X132744984Y-146020835D01*
X156723426Y-132441904D02*
X156723426Y-131641904D01*
X157066283Y-132441904D02*
X157066283Y-132022857D01*
X157028188Y-131946666D01*
X156951998Y-131908571D01*
X156837712Y-131908571D01*
X156761521Y-131946666D01*
X156723426Y-131984761D01*
X157332950Y-131908571D02*
X157637712Y-131908571D01*
X157447236Y-131641904D02*
X157447236Y-132327619D01*
X157485331Y-132403809D01*
X157561521Y-132441904D01*
X157637712Y-132441904D01*
X157790093Y-131908571D02*
X158094855Y-131908571D01*
X157904379Y-131641904D02*
X157904379Y-132327619D01*
X157942474Y-132403809D01*
X158018664Y-132441904D01*
X158094855Y-132441904D01*
X158361521Y-131908571D02*
X158361521Y-132708571D01*
X158361521Y-131946666D02*
X158437712Y-131908571D01*
X158590093Y-131908571D01*
X158666283Y-131946666D01*
X158704379Y-131984761D01*
X158742474Y-132060952D01*
X158742474Y-132289523D01*
X158704379Y-132365714D01*
X158666283Y-132403809D01*
X158590093Y-132441904D01*
X158437712Y-132441904D01*
X158361521Y-132403809D01*
X159047236Y-132403809D02*
X159123426Y-132441904D01*
X159275807Y-132441904D01*
X159351998Y-132403809D01*
X159390093Y-132327619D01*
X159390093Y-132289523D01*
X159351998Y-132213333D01*
X159275807Y-132175238D01*
X159161521Y-132175238D01*
X159085331Y-132137142D01*
X159047236Y-132060952D01*
X159047236Y-132022857D01*
X159085331Y-131946666D01*
X159161521Y-131908571D01*
X159275807Y-131908571D01*
X159351998Y-131946666D01*
X159732950Y-132365714D02*
X159771045Y-132403809D01*
X159732950Y-132441904D01*
X159694855Y-132403809D01*
X159732950Y-132365714D01*
X159732950Y-132441904D01*
X159732950Y-131946666D02*
X159771045Y-131984761D01*
X159732950Y-132022857D01*
X159694855Y-131984761D01*
X159732950Y-131946666D01*
X159732950Y-132022857D01*
X160685331Y-131603809D02*
X159999617Y-132632380D01*
X161523426Y-131603809D02*
X160837712Y-132632380D01*
X162132950Y-131908571D02*
X162132950Y-132556190D01*
X162094855Y-132632380D01*
X162056760Y-132670476D01*
X161980569Y-132708571D01*
X161866283Y-132708571D01*
X161790093Y-132670476D01*
X162132950Y-132403809D02*
X162056760Y-132441904D01*
X161904379Y-132441904D01*
X161828188Y-132403809D01*
X161790093Y-132365714D01*
X161751998Y-132289523D01*
X161751998Y-132060952D01*
X161790093Y-131984761D01*
X161828188Y-131946666D01*
X161904379Y-131908571D01*
X162056760Y-131908571D01*
X162132950Y-131946666D01*
X162513902Y-132441904D02*
X162513902Y-131908571D01*
X162513902Y-131641904D02*
X162475807Y-131680000D01*
X162513902Y-131718095D01*
X162551998Y-131680000D01*
X162513902Y-131641904D01*
X162513902Y-131718095D01*
X162780569Y-131908571D02*
X163085331Y-131908571D01*
X162894855Y-131641904D02*
X162894855Y-132327619D01*
X162932950Y-132403809D01*
X163009140Y-132441904D01*
X163085331Y-132441904D01*
X163351998Y-132441904D02*
X163351998Y-131641904D01*
X163694855Y-132441904D02*
X163694855Y-132022857D01*
X163656760Y-131946666D01*
X163580569Y-131908571D01*
X163466283Y-131908571D01*
X163390093Y-131946666D01*
X163351998Y-131984761D01*
X164418664Y-131908571D02*
X164418664Y-132441904D01*
X164075807Y-131908571D02*
X164075807Y-132327619D01*
X164113902Y-132403809D01*
X164190093Y-132441904D01*
X164304379Y-132441904D01*
X164380569Y-132403809D01*
X164418664Y-132365714D01*
X164799617Y-132441904D02*
X164799617Y-131641904D01*
X164799617Y-131946666D02*
X164875807Y-131908571D01*
X165028188Y-131908571D01*
X165104379Y-131946666D01*
X165142474Y-131984761D01*
X165180569Y-132060952D01*
X165180569Y-132289523D01*
X165142474Y-132365714D01*
X165104379Y-132403809D01*
X165028188Y-132441904D01*
X164875807Y-132441904D01*
X164799617Y-132403809D01*
X165523426Y-132365714D02*
X165561521Y-132403809D01*
X165523426Y-132441904D01*
X165485331Y-132403809D01*
X165523426Y-132365714D01*
X165523426Y-132441904D01*
X166247236Y-132403809D02*
X166171045Y-132441904D01*
X166018664Y-132441904D01*
X165942474Y-132403809D01*
X165904379Y-132365714D01*
X165866283Y-132289523D01*
X165866283Y-132060952D01*
X165904379Y-131984761D01*
X165942474Y-131946666D01*
X166018664Y-131908571D01*
X166171045Y-131908571D01*
X166247236Y-131946666D01*
X166704379Y-132441904D02*
X166628188Y-132403809D01*
X166590093Y-132365714D01*
X166551998Y-132289523D01*
X166551998Y-132060952D01*
X166590093Y-131984761D01*
X166628188Y-131946666D01*
X166704379Y-131908571D01*
X166818664Y-131908571D01*
X166894855Y-131946666D01*
X166932950Y-131984761D01*
X166971045Y-132060952D01*
X166971045Y-132289523D01*
X166932950Y-132365714D01*
X166894855Y-132403809D01*
X166818664Y-132441904D01*
X166704379Y-132441904D01*
X167313902Y-132441904D02*
X167313902Y-131908571D01*
X167313902Y-131984761D02*
X167351998Y-131946666D01*
X167428188Y-131908571D01*
X167542474Y-131908571D01*
X167618664Y-131946666D01*
X167656760Y-132022857D01*
X167656760Y-132441904D01*
X167656760Y-132022857D02*
X167694855Y-131946666D01*
X167771045Y-131908571D01*
X167885331Y-131908571D01*
X167961521Y-131946666D01*
X167999617Y-132022857D01*
X167999617Y-132441904D01*
X168951998Y-131603809D02*
X168266283Y-132632380D01*
X169523426Y-132403809D02*
X169447236Y-132441904D01*
X169294855Y-132441904D01*
X169218664Y-132403809D01*
X169180569Y-132327619D01*
X169180569Y-132022857D01*
X169218664Y-131946666D01*
X169294855Y-131908571D01*
X169447236Y-131908571D01*
X169523426Y-131946666D01*
X169561521Y-132022857D01*
X169561521Y-132099047D01*
X169180569Y-132175238D01*
X169904379Y-132441904D02*
X169904379Y-131908571D01*
X169904379Y-132060952D02*
X169942474Y-131984761D01*
X169980569Y-131946666D01*
X170056760Y-131908571D01*
X170132950Y-131908571D01*
X170399617Y-132441904D02*
X170399617Y-131908571D01*
X170399617Y-131641904D02*
X170361521Y-131680000D01*
X170399617Y-131718095D01*
X170437712Y-131680000D01*
X170399617Y-131641904D01*
X170399617Y-131718095D01*
X171123426Y-132403809D02*
X171047236Y-132441904D01*
X170894855Y-132441904D01*
X170818664Y-132403809D01*
X170780569Y-132365714D01*
X170742474Y-132289523D01*
X170742474Y-132060952D01*
X170780569Y-131984761D01*
X170818664Y-131946666D01*
X170894855Y-131908571D01*
X171047236Y-131908571D01*
X171123426Y-131946666D01*
X171466283Y-132441904D02*
X171466283Y-131641904D01*
X171809140Y-132441904D02*
X171809140Y-132022857D01*
X171771045Y-131946666D01*
X171694855Y-131908571D01*
X171580569Y-131908571D01*
X171504379Y-131946666D01*
X171466283Y-131984761D01*
X172494855Y-132403809D02*
X172418664Y-132441904D01*
X172266283Y-132441904D01*
X172190093Y-132403809D01*
X172151998Y-132327619D01*
X172151998Y-132022857D01*
X172190093Y-131946666D01*
X172266283Y-131908571D01*
X172418664Y-131908571D01*
X172494855Y-131946666D01*
X172532950Y-132022857D01*
X172532950Y-132099047D01*
X172151998Y-132175238D01*
X172990093Y-132441904D02*
X172913902Y-132403809D01*
X172875807Y-132327619D01*
X172875807Y-131641904D01*
X173637712Y-131908571D02*
X173637712Y-132556190D01*
X173599617Y-132632380D01*
X173561521Y-132670476D01*
X173485331Y-132708571D01*
X173371045Y-132708571D01*
X173294855Y-132670476D01*
X173637712Y-132403809D02*
X173561521Y-132441904D01*
X173409140Y-132441904D01*
X173332950Y-132403809D01*
X173294855Y-132365714D01*
X173256760Y-132289523D01*
X173256760Y-132060952D01*
X173294855Y-131984761D01*
X173332950Y-131946666D01*
X173409140Y-131908571D01*
X173561521Y-131908571D01*
X173637712Y-131946666D01*
X174323426Y-132403809D02*
X174247236Y-132441904D01*
X174094855Y-132441904D01*
X174018664Y-132403809D01*
X173980569Y-132327619D01*
X173980569Y-132022857D01*
X174018664Y-131946666D01*
X174094855Y-131908571D01*
X174247236Y-131908571D01*
X174323426Y-131946666D01*
X174361521Y-132022857D01*
X174361521Y-132099047D01*
X173980569Y-132175238D01*
X174666283Y-132403809D02*
X174742474Y-132441904D01*
X174894855Y-132441904D01*
X174971045Y-132403809D01*
X175009140Y-132327619D01*
X175009140Y-132289523D01*
X174971045Y-132213333D01*
X174894855Y-132175238D01*
X174780569Y-132175238D01*
X174704379Y-132137142D01*
X174666283Y-132060952D01*
X174666283Y-132022857D01*
X174704379Y-131946666D01*
X174780569Y-131908571D01*
X174894855Y-131908571D01*
X174971045Y-131946666D01*
X175466283Y-132441904D02*
X175390093Y-132403809D01*
X175351998Y-132365714D01*
X175313902Y-132289523D01*
X175313902Y-132060952D01*
X175351998Y-131984761D01*
X175390093Y-131946666D01*
X175466283Y-131908571D01*
X175580569Y-131908571D01*
X175656760Y-131946666D01*
X175694855Y-131984761D01*
X175732950Y-132060952D01*
X175732950Y-132289523D01*
X175694855Y-132365714D01*
X175656760Y-132403809D01*
X175580569Y-132441904D01*
X175466283Y-132441904D01*
X176075807Y-131908571D02*
X176075807Y-132441904D01*
X176075807Y-131984761D02*
X176113902Y-131946666D01*
X176190093Y-131908571D01*
X176304379Y-131908571D01*
X176380569Y-131946666D01*
X176418664Y-132022857D01*
X176418664Y-132441904D01*
X177371045Y-131603809D02*
X176685331Y-132632380D01*
X177904379Y-132022857D02*
X178018664Y-132060952D01*
X178056760Y-132099047D01*
X178094855Y-132175238D01*
X178094855Y-132289523D01*
X178056760Y-132365714D01*
X178018664Y-132403809D01*
X177942474Y-132441904D01*
X177637712Y-132441904D01*
X177637712Y-131641904D01*
X177904379Y-131641904D01*
X177980569Y-131680000D01*
X178018664Y-131718095D01*
X178056760Y-131794285D01*
X178056760Y-131870476D01*
X178018664Y-131946666D01*
X177980569Y-131984761D01*
X177904379Y-132022857D01*
X177637712Y-132022857D01*
X178551998Y-132441904D02*
X178475807Y-132403809D01*
X178437712Y-132327619D01*
X178437712Y-131641904D01*
X179199617Y-131908571D02*
X179199617Y-132441904D01*
X178856760Y-131908571D02*
X178856760Y-132327619D01*
X178894855Y-132403809D01*
X178971045Y-132441904D01*
X179085331Y-132441904D01*
X179161521Y-132403809D01*
X179199617Y-132365714D01*
X179885331Y-132403809D02*
X179809140Y-132441904D01*
X179656760Y-132441904D01*
X179580569Y-132403809D01*
X179542474Y-132327619D01*
X179542474Y-132022857D01*
X179580569Y-131946666D01*
X179656760Y-131908571D01*
X179809140Y-131908571D01*
X179885331Y-131946666D01*
X179923426Y-132022857D01*
X179923426Y-132099047D01*
X179542474Y-132175238D01*
X180228188Y-132403809D02*
X180342474Y-132441904D01*
X180532950Y-132441904D01*
X180609140Y-132403809D01*
X180647236Y-132365714D01*
X180685331Y-132289523D01*
X180685331Y-132213333D01*
X180647236Y-132137142D01*
X180609140Y-132099047D01*
X180532950Y-132060952D01*
X180380569Y-132022857D01*
X180304379Y-131984761D01*
X180266283Y-131946666D01*
X180228188Y-131870476D01*
X180228188Y-131794285D01*
X180266283Y-131718095D01*
X180304379Y-131680000D01*
X180380569Y-131641904D01*
X180571045Y-131641904D01*
X180685331Y-131680000D01*
X181485331Y-132365714D02*
X181447236Y-132403809D01*
X181332950Y-132441904D01*
X181256760Y-132441904D01*
X181142474Y-132403809D01*
X181066283Y-132327619D01*
X181028188Y-132251428D01*
X180990093Y-132099047D01*
X180990093Y-131984761D01*
X181028188Y-131832380D01*
X181066283Y-131756190D01*
X181142474Y-131680000D01*
X181256760Y-131641904D01*
X181332950Y-131641904D01*
X181447236Y-131680000D01*
X181485331Y-131718095D01*
X181790093Y-132403809D02*
X181904379Y-132441904D01*
X182094855Y-132441904D01*
X182171045Y-132403809D01*
X182209140Y-132365714D01*
X182247236Y-132289523D01*
X182247236Y-132213333D01*
X182209140Y-132137142D01*
X182171045Y-132099047D01*
X182094855Y-132060952D01*
X181942474Y-132022857D01*
X181866283Y-131984761D01*
X181828188Y-131946666D01*
X181790093Y-131870476D01*
X181790093Y-131794285D01*
X181828188Y-131718095D01*
X181866283Y-131680000D01*
X181942474Y-131641904D01*
X182132950Y-131641904D01*
X182247236Y-131680000D01*
X182590093Y-132441904D02*
X182590093Y-131641904D01*
%TO.C,R6*%
X124501613Y-120142260D02*
X124168280Y-119666070D01*
X123930184Y-120142260D02*
X123930184Y-119142260D01*
X124311137Y-119142260D01*
X124406375Y-119189880D01*
X124453994Y-119237499D01*
X124501613Y-119332737D01*
X124501613Y-119475594D01*
X124453994Y-119570832D01*
X124406375Y-119618451D01*
X124311137Y-119666070D01*
X123930184Y-119666070D01*
X125358756Y-119142260D02*
X125168280Y-119142260D01*
X125073041Y-119189880D01*
X125025422Y-119237499D01*
X124930184Y-119380356D01*
X124882565Y-119570832D01*
X124882565Y-119951784D01*
X124930184Y-120047022D01*
X124977803Y-120094641D01*
X125073041Y-120142260D01*
X125263518Y-120142260D01*
X125358756Y-120094641D01*
X125406375Y-120047022D01*
X125453994Y-119951784D01*
X125453994Y-119713689D01*
X125406375Y-119618451D01*
X125358756Y-119570832D01*
X125263518Y-119523213D01*
X125073041Y-119523213D01*
X124977803Y-119570832D01*
X124930184Y-119618451D01*
X124882565Y-119713689D01*
%TO.C,R4*%
X124565113Y-118491260D02*
X124231780Y-118015070D01*
X123993684Y-118491260D02*
X123993684Y-117491260D01*
X124374637Y-117491260D01*
X124469875Y-117538880D01*
X124517494Y-117586499D01*
X124565113Y-117681737D01*
X124565113Y-117824594D01*
X124517494Y-117919832D01*
X124469875Y-117967451D01*
X124374637Y-118015070D01*
X123993684Y-118015070D01*
X125422256Y-117824594D02*
X125422256Y-118491260D01*
X125184160Y-117443641D02*
X124946065Y-118157927D01*
X125565113Y-118157927D01*
%TO.C,R5*%
X124515613Y-126682760D02*
X124182280Y-126206570D01*
X123944184Y-126682760D02*
X123944184Y-125682760D01*
X124325137Y-125682760D01*
X124420375Y-125730380D01*
X124467994Y-125777999D01*
X124515613Y-125873237D01*
X124515613Y-126016094D01*
X124467994Y-126111332D01*
X124420375Y-126158951D01*
X124325137Y-126206570D01*
X123944184Y-126206570D01*
X125420375Y-125682760D02*
X124944184Y-125682760D01*
X124896565Y-126158951D01*
X124944184Y-126111332D01*
X125039422Y-126063713D01*
X125277518Y-126063713D01*
X125372756Y-126111332D01*
X125420375Y-126158951D01*
X125467994Y-126254189D01*
X125467994Y-126492284D01*
X125420375Y-126587522D01*
X125372756Y-126635141D01*
X125277518Y-126682760D01*
X125039422Y-126682760D01*
X124944184Y-126635141D01*
X124896565Y-126587522D01*
%TO.C,R10*%
X123580922Y-128460760D02*
X123247589Y-127984570D01*
X123009494Y-128460760D02*
X123009494Y-127460760D01*
X123390446Y-127460760D01*
X123485684Y-127508380D01*
X123533303Y-127555999D01*
X123580922Y-127651237D01*
X123580922Y-127794094D01*
X123533303Y-127889332D01*
X123485684Y-127936951D01*
X123390446Y-127984570D01*
X123009494Y-127984570D01*
X124533303Y-128460760D02*
X123961875Y-128460760D01*
X124247589Y-128460760D02*
X124247589Y-127460760D01*
X124152351Y-127603618D01*
X124057113Y-127698856D01*
X123961875Y-127746475D01*
X125152351Y-127460760D02*
X125247589Y-127460760D01*
X125342827Y-127508380D01*
X125390446Y-127555999D01*
X125438065Y-127651237D01*
X125485684Y-127841713D01*
X125485684Y-128079808D01*
X125438065Y-128270284D01*
X125390446Y-128365522D01*
X125342827Y-128413141D01*
X125247589Y-128460760D01*
X125152351Y-128460760D01*
X125057113Y-128413141D01*
X125009494Y-128365522D01*
X124961875Y-128270284D01*
X124914256Y-128079808D01*
X124914256Y-127841713D01*
X124961875Y-127651237D01*
X125009494Y-127555999D01*
X125057113Y-127508380D01*
X125152351Y-127460760D01*
%TO.C,R7*%
X124565113Y-125031760D02*
X124231780Y-124555570D01*
X123993684Y-125031760D02*
X123993684Y-124031760D01*
X124374637Y-124031760D01*
X124469875Y-124079380D01*
X124517494Y-124126999D01*
X124565113Y-124222237D01*
X124565113Y-124365094D01*
X124517494Y-124460332D01*
X124469875Y-124507951D01*
X124374637Y-124555570D01*
X123993684Y-124555570D01*
X124898446Y-124031760D02*
X125565113Y-124031760D01*
X125136541Y-125031760D01*
%TO.C,R8*%
X124515613Y-121729760D02*
X124182280Y-121253570D01*
X123944184Y-121729760D02*
X123944184Y-120729760D01*
X124325137Y-120729760D01*
X124420375Y-120777380D01*
X124467994Y-120824999D01*
X124515613Y-120920237D01*
X124515613Y-121063094D01*
X124467994Y-121158332D01*
X124420375Y-121205951D01*
X124325137Y-121253570D01*
X123944184Y-121253570D01*
X125087041Y-121158332D02*
X124991803Y-121110713D01*
X124944184Y-121063094D01*
X124896565Y-120967856D01*
X124896565Y-120920237D01*
X124944184Y-120824999D01*
X124991803Y-120777380D01*
X125087041Y-120729760D01*
X125277518Y-120729760D01*
X125372756Y-120777380D01*
X125420375Y-120824999D01*
X125467994Y-120920237D01*
X125467994Y-120967856D01*
X125420375Y-121063094D01*
X125372756Y-121110713D01*
X125277518Y-121158332D01*
X125087041Y-121158332D01*
X124991803Y-121205951D01*
X124944184Y-121253570D01*
X124896565Y-121348808D01*
X124896565Y-121539284D01*
X124944184Y-121634522D01*
X124991803Y-121682141D01*
X125087041Y-121729760D01*
X125277518Y-121729760D01*
X125372756Y-121682141D01*
X125420375Y-121634522D01*
X125467994Y-121539284D01*
X125467994Y-121348808D01*
X125420375Y-121253570D01*
X125372756Y-121205951D01*
X125277518Y-121158332D01*
%TO.C,R1*%
X124515613Y-116776760D02*
X124182280Y-116300570D01*
X123944184Y-116776760D02*
X123944184Y-115776760D01*
X124325137Y-115776760D01*
X124420375Y-115824380D01*
X124467994Y-115871999D01*
X124515613Y-115967237D01*
X124515613Y-116110094D01*
X124467994Y-116205332D01*
X124420375Y-116252951D01*
X124325137Y-116300570D01*
X123944184Y-116300570D01*
X125467994Y-116776760D02*
X124896565Y-116776760D01*
X125182280Y-116776760D02*
X125182280Y-115776760D01*
X125087041Y-115919618D01*
X124991803Y-116014856D01*
X124896565Y-116062475D01*
%TO.C,R11*%
X123707922Y-130238760D02*
X123374589Y-129762570D01*
X123136494Y-130238760D02*
X123136494Y-129238760D01*
X123517446Y-129238760D01*
X123612684Y-129286380D01*
X123660303Y-129333999D01*
X123707922Y-129429237D01*
X123707922Y-129572094D01*
X123660303Y-129667332D01*
X123612684Y-129714951D01*
X123517446Y-129762570D01*
X123136494Y-129762570D01*
X124660303Y-130238760D02*
X124088875Y-130238760D01*
X124374589Y-130238760D02*
X124374589Y-129238760D01*
X124279351Y-129381618D01*
X124184113Y-129476856D01*
X124088875Y-129524475D01*
X125612684Y-130238760D02*
X125041256Y-130238760D01*
X125326970Y-130238760D02*
X125326970Y-129238760D01*
X125231732Y-129381618D01*
X125136494Y-129476856D01*
X125041256Y-129524475D01*
%TO.C,R9*%
X124515613Y-123380760D02*
X124182280Y-122904570D01*
X123944184Y-123380760D02*
X123944184Y-122380760D01*
X124325137Y-122380760D01*
X124420375Y-122428380D01*
X124467994Y-122475999D01*
X124515613Y-122571237D01*
X124515613Y-122714094D01*
X124467994Y-122809332D01*
X124420375Y-122856951D01*
X124325137Y-122904570D01*
X123944184Y-122904570D01*
X124991803Y-123380760D02*
X125182280Y-123380760D01*
X125277518Y-123333141D01*
X125325137Y-123285522D01*
X125420375Y-123142665D01*
X125467994Y-122952189D01*
X125467994Y-122571237D01*
X125420375Y-122475999D01*
X125372756Y-122428380D01*
X125277518Y-122380760D01*
X125087041Y-122380760D01*
X124991803Y-122428380D01*
X124944184Y-122475999D01*
X124896565Y-122571237D01*
X124896565Y-122809332D01*
X124944184Y-122904570D01*
X124991803Y-122952189D01*
X125087041Y-122999808D01*
X125277518Y-122999808D01*
X125372756Y-122952189D01*
X125420375Y-122904570D01*
X125467994Y-122809332D01*
%TO.C,J4*%
X139512370Y-142364460D02*
X139988560Y-142364460D01*
X138988560Y-142697793D02*
X139512370Y-142364460D01*
X138988560Y-142031126D01*
X137591560Y-150301936D02*
X137591560Y-150778126D01*
X138067751Y-150825745D01*
X138020132Y-150778126D01*
X137972513Y-150682888D01*
X137972513Y-150444793D01*
X138020132Y-150349555D01*
X138067751Y-150301936D01*
X138162989Y-150254317D01*
X138401084Y-150254317D01*
X138496322Y-150301936D01*
X138543941Y-150349555D01*
X138591560Y-150444793D01*
X138591560Y-150682888D01*
X138543941Y-150778126D01*
X138496322Y-150825745D01*
X137591560Y-149968602D02*
X138591560Y-149635269D01*
X137591560Y-149301936D01*
X138591560Y-142983507D02*
X138591560Y-143554936D01*
X138591560Y-143269221D02*
X137591560Y-143269221D01*
X137734418Y-143364460D01*
X137829656Y-143459698D01*
X137877275Y-143554936D01*
X137686799Y-142602555D02*
X137639180Y-142554936D01*
X137591560Y-142459698D01*
X137591560Y-142221602D01*
X137639180Y-142126364D01*
X137686799Y-142078745D01*
X137782037Y-142031126D01*
X137877275Y-142031126D01*
X138020132Y-142078745D01*
X138591560Y-142650174D01*
X138591560Y-142031126D01*
X137591560Y-141745412D02*
X138591560Y-141412079D01*
X137591560Y-141078745D01*
X137639180Y-146936364D02*
X137591560Y-147031602D01*
X137591560Y-147174460D01*
X137639180Y-147317317D01*
X137734418Y-147412555D01*
X137829656Y-147460174D01*
X138020132Y-147507793D01*
X138162989Y-147507793D01*
X138353465Y-147460174D01*
X138448703Y-147412555D01*
X138543941Y-147317317D01*
X138591560Y-147174460D01*
X138591560Y-147079221D01*
X138543941Y-146936364D01*
X138496322Y-146888745D01*
X138162989Y-146888745D01*
X138162989Y-147079221D01*
X138591560Y-146460174D02*
X137591560Y-146460174D01*
X138591560Y-145888745D01*
X137591560Y-145888745D01*
X138591560Y-145412555D02*
X137591560Y-145412555D01*
X137591560Y-145174460D01*
X137639180Y-145031602D01*
X137734418Y-144936364D01*
X137829656Y-144888745D01*
X138020132Y-144841126D01*
X138162989Y-144841126D01*
X138353465Y-144888745D01*
X138448703Y-144936364D01*
X138543941Y-145031602D01*
X138591560Y-145174460D01*
X138591560Y-145412555D01*
X140115560Y-149674936D02*
X139639370Y-150008269D01*
X140115560Y-150246364D02*
X139115560Y-150246364D01*
X139115560Y-149865412D01*
X139163180Y-149770174D01*
X139210799Y-149722555D01*
X139306037Y-149674936D01*
X139448894Y-149674936D01*
X139544132Y-149722555D01*
X139591751Y-149770174D01*
X139639370Y-149865412D01*
X139639370Y-150246364D01*
%TO.C,C1*%
X117963653Y-90824322D02*
X117916034Y-90871941D01*
X117773177Y-90919560D01*
X117677939Y-90919560D01*
X117535081Y-90871941D01*
X117439843Y-90776703D01*
X117392224Y-90681465D01*
X117344605Y-90490989D01*
X117344605Y-90348132D01*
X117392224Y-90157656D01*
X117439843Y-90062418D01*
X117535081Y-89967180D01*
X117677939Y-89919560D01*
X117773177Y-89919560D01*
X117916034Y-89967180D01*
X117963653Y-90014799D01*
X118916034Y-90919560D02*
X118344605Y-90919560D01*
X118630320Y-90919560D02*
X118630320Y-89919560D01*
X118535081Y-90062418D01*
X118439843Y-90157656D01*
X118344605Y-90205275D01*
%TO.C,C2*%
X111732093Y-101260002D02*
X111684474Y-101307621D01*
X111541617Y-101355240D01*
X111446379Y-101355240D01*
X111303521Y-101307621D01*
X111208283Y-101212383D01*
X111160664Y-101117145D01*
X111113045Y-100926669D01*
X111113045Y-100783812D01*
X111160664Y-100593336D01*
X111208283Y-100498098D01*
X111303521Y-100402860D01*
X111446379Y-100355240D01*
X111541617Y-100355240D01*
X111684474Y-100402860D01*
X111732093Y-100450479D01*
X112113045Y-100450479D02*
X112160664Y-100402860D01*
X112255902Y-100355240D01*
X112493998Y-100355240D01*
X112589236Y-100402860D01*
X112636855Y-100450479D01*
X112684474Y-100545717D01*
X112684474Y-100640955D01*
X112636855Y-100783812D01*
X112065426Y-101355240D01*
X112684474Y-101355240D01*
%TO.C,R3*%
X123970753Y-74432420D02*
X123637420Y-73956230D01*
X123399324Y-74432420D02*
X123399324Y-73432420D01*
X123780277Y-73432420D01*
X123875515Y-73480040D01*
X123923134Y-73527659D01*
X123970753Y-73622897D01*
X123970753Y-73765754D01*
X123923134Y-73860992D01*
X123875515Y-73908611D01*
X123780277Y-73956230D01*
X123399324Y-73956230D01*
X124304086Y-73432420D02*
X124923134Y-73432420D01*
X124589800Y-73813373D01*
X124732658Y-73813373D01*
X124827896Y-73860992D01*
X124875515Y-73908611D01*
X124923134Y-74003849D01*
X124923134Y-74241944D01*
X124875515Y-74337182D01*
X124827896Y-74384801D01*
X124732658Y-74432420D01*
X124446943Y-74432420D01*
X124351705Y-74384801D01*
X124304086Y-74337182D01*
%TO.C,R2*%
X123942753Y-76019920D02*
X123609420Y-75543730D01*
X123371324Y-76019920D02*
X123371324Y-75019920D01*
X123752277Y-75019920D01*
X123847515Y-75067540D01*
X123895134Y-75115159D01*
X123942753Y-75210397D01*
X123942753Y-75353254D01*
X123895134Y-75448492D01*
X123847515Y-75496111D01*
X123752277Y-75543730D01*
X123371324Y-75543730D01*
X124323705Y-75115159D02*
X124371324Y-75067540D01*
X124466562Y-75019920D01*
X124704658Y-75019920D01*
X124799896Y-75067540D01*
X124847515Y-75115159D01*
X124895134Y-75210397D01*
X124895134Y-75305635D01*
X124847515Y-75448492D01*
X124276086Y-76019920D01*
X124895134Y-76019920D01*
%TO.C,R18*%
X123939062Y-84274920D02*
X123605729Y-83798730D01*
X123367634Y-84274920D02*
X123367634Y-83274920D01*
X123748586Y-83274920D01*
X123843824Y-83322540D01*
X123891443Y-83370159D01*
X123939062Y-83465397D01*
X123939062Y-83608254D01*
X123891443Y-83703492D01*
X123843824Y-83751111D01*
X123748586Y-83798730D01*
X123367634Y-83798730D01*
X124891443Y-84274920D02*
X124320015Y-84274920D01*
X124605729Y-84274920D02*
X124605729Y-83274920D01*
X124510491Y-83417778D01*
X124415253Y-83513016D01*
X124320015Y-83560635D01*
X125462872Y-83703492D02*
X125367634Y-83655873D01*
X125320015Y-83608254D01*
X125272396Y-83513016D01*
X125272396Y-83465397D01*
X125320015Y-83370159D01*
X125367634Y-83322540D01*
X125462872Y-83274920D01*
X125653348Y-83274920D01*
X125748586Y-83322540D01*
X125796205Y-83370159D01*
X125843824Y-83465397D01*
X125843824Y-83513016D01*
X125796205Y-83608254D01*
X125748586Y-83655873D01*
X125653348Y-83703492D01*
X125462872Y-83703492D01*
X125367634Y-83751111D01*
X125320015Y-83798730D01*
X125272396Y-83893968D01*
X125272396Y-84084444D01*
X125320015Y-84179682D01*
X125367634Y-84227301D01*
X125462872Y-84274920D01*
X125653348Y-84274920D01*
X125748586Y-84227301D01*
X125796205Y-84179682D01*
X125843824Y-84084444D01*
X125843824Y-83893968D01*
X125796205Y-83798730D01*
X125748586Y-83751111D01*
X125653348Y-83703492D01*
%TO.C,R17*%
X123939062Y-85925920D02*
X123605729Y-85449730D01*
X123367634Y-85925920D02*
X123367634Y-84925920D01*
X123748586Y-84925920D01*
X123843824Y-84973540D01*
X123891443Y-85021159D01*
X123939062Y-85116397D01*
X123939062Y-85259254D01*
X123891443Y-85354492D01*
X123843824Y-85402111D01*
X123748586Y-85449730D01*
X123367634Y-85449730D01*
X124891443Y-85925920D02*
X124320015Y-85925920D01*
X124605729Y-85925920D02*
X124605729Y-84925920D01*
X124510491Y-85068778D01*
X124415253Y-85164016D01*
X124320015Y-85211635D01*
X125224777Y-84925920D02*
X125891443Y-84925920D01*
X125462872Y-85925920D01*
%TO.C,R16*%
X123939062Y-87576920D02*
X123605729Y-87100730D01*
X123367634Y-87576920D02*
X123367634Y-86576920D01*
X123748586Y-86576920D01*
X123843824Y-86624540D01*
X123891443Y-86672159D01*
X123939062Y-86767397D01*
X123939062Y-86910254D01*
X123891443Y-87005492D01*
X123843824Y-87053111D01*
X123748586Y-87100730D01*
X123367634Y-87100730D01*
X124891443Y-87576920D02*
X124320015Y-87576920D01*
X124605729Y-87576920D02*
X124605729Y-86576920D01*
X124510491Y-86719778D01*
X124415253Y-86815016D01*
X124320015Y-86862635D01*
X125748586Y-86576920D02*
X125558110Y-86576920D01*
X125462872Y-86624540D01*
X125415253Y-86672159D01*
X125320015Y-86815016D01*
X125272396Y-87005492D01*
X125272396Y-87386444D01*
X125320015Y-87481682D01*
X125367634Y-87529301D01*
X125462872Y-87576920D01*
X125653348Y-87576920D01*
X125748586Y-87529301D01*
X125796205Y-87481682D01*
X125843824Y-87386444D01*
X125843824Y-87148349D01*
X125796205Y-87053111D01*
X125748586Y-87005492D01*
X125653348Y-86957873D01*
X125462872Y-86957873D01*
X125367634Y-87005492D01*
X125320015Y-87053111D01*
X125272396Y-87148349D01*
%TO.C,R15*%
X123939062Y-82623920D02*
X123605729Y-82147730D01*
X123367634Y-82623920D02*
X123367634Y-81623920D01*
X123748586Y-81623920D01*
X123843824Y-81671540D01*
X123891443Y-81719159D01*
X123939062Y-81814397D01*
X123939062Y-81957254D01*
X123891443Y-82052492D01*
X123843824Y-82100111D01*
X123748586Y-82147730D01*
X123367634Y-82147730D01*
X124891443Y-82623920D02*
X124320015Y-82623920D01*
X124605729Y-82623920D02*
X124605729Y-81623920D01*
X124510491Y-81766778D01*
X124415253Y-81862016D01*
X124320015Y-81909635D01*
X125796205Y-81623920D02*
X125320015Y-81623920D01*
X125272396Y-82100111D01*
X125320015Y-82052492D01*
X125415253Y-82004873D01*
X125653348Y-82004873D01*
X125748586Y-82052492D01*
X125796205Y-82100111D01*
X125843824Y-82195349D01*
X125843824Y-82433444D01*
X125796205Y-82528682D01*
X125748586Y-82576301D01*
X125653348Y-82623920D01*
X125415253Y-82623920D01*
X125320015Y-82576301D01*
X125272396Y-82528682D01*
%TO.C,R14*%
X123939062Y-80972920D02*
X123605729Y-80496730D01*
X123367634Y-80972920D02*
X123367634Y-79972920D01*
X123748586Y-79972920D01*
X123843824Y-80020540D01*
X123891443Y-80068159D01*
X123939062Y-80163397D01*
X123939062Y-80306254D01*
X123891443Y-80401492D01*
X123843824Y-80449111D01*
X123748586Y-80496730D01*
X123367634Y-80496730D01*
X124891443Y-80972920D02*
X124320015Y-80972920D01*
X124605729Y-80972920D02*
X124605729Y-79972920D01*
X124510491Y-80115778D01*
X124415253Y-80211016D01*
X124320015Y-80258635D01*
X125748586Y-80306254D02*
X125748586Y-80972920D01*
X125510491Y-79925301D02*
X125272396Y-80639587D01*
X125891443Y-80639587D01*
%TO.C,R13*%
X123939062Y-79321920D02*
X123605729Y-78845730D01*
X123367634Y-79321920D02*
X123367634Y-78321920D01*
X123748586Y-78321920D01*
X123843824Y-78369540D01*
X123891443Y-78417159D01*
X123939062Y-78512397D01*
X123939062Y-78655254D01*
X123891443Y-78750492D01*
X123843824Y-78798111D01*
X123748586Y-78845730D01*
X123367634Y-78845730D01*
X124891443Y-79321920D02*
X124320015Y-79321920D01*
X124605729Y-79321920D02*
X124605729Y-78321920D01*
X124510491Y-78464778D01*
X124415253Y-78560016D01*
X124320015Y-78607635D01*
X125224777Y-78321920D02*
X125843824Y-78321920D01*
X125510491Y-78702873D01*
X125653348Y-78702873D01*
X125748586Y-78750492D01*
X125796205Y-78798111D01*
X125843824Y-78893349D01*
X125843824Y-79131444D01*
X125796205Y-79226682D01*
X125748586Y-79274301D01*
X125653348Y-79321920D01*
X125367634Y-79321920D01*
X125272396Y-79274301D01*
X125224777Y-79226682D01*
%TO.C,R12*%
X123939062Y-77670920D02*
X123605729Y-77194730D01*
X123367634Y-77670920D02*
X123367634Y-76670920D01*
X123748586Y-76670920D01*
X123843824Y-76718540D01*
X123891443Y-76766159D01*
X123939062Y-76861397D01*
X123939062Y-77004254D01*
X123891443Y-77099492D01*
X123843824Y-77147111D01*
X123748586Y-77194730D01*
X123367634Y-77194730D01*
X124891443Y-77670920D02*
X124320015Y-77670920D01*
X124605729Y-77670920D02*
X124605729Y-76670920D01*
X124510491Y-76813778D01*
X124415253Y-76909016D01*
X124320015Y-76956635D01*
X125272396Y-76766159D02*
X125320015Y-76718540D01*
X125415253Y-76670920D01*
X125653348Y-76670920D01*
X125748586Y-76718540D01*
X125796205Y-76766159D01*
X125843824Y-76861397D01*
X125843824Y-76956635D01*
X125796205Y-77099492D01*
X125224777Y-77670920D01*
X125843824Y-77670920D01*
%TO.C,U3*%
X117343015Y-100704400D02*
X117343015Y-101513924D01*
X117390634Y-101609162D01*
X117438253Y-101656781D01*
X117533491Y-101704400D01*
X117723967Y-101704400D01*
X117819205Y-101656781D01*
X117866824Y-101609162D01*
X117914443Y-101513924D01*
X117914443Y-100704400D01*
X118295396Y-100704400D02*
X118914443Y-100704400D01*
X118581110Y-101085353D01*
X118723967Y-101085353D01*
X118819205Y-101132972D01*
X118866824Y-101180591D01*
X118914443Y-101275829D01*
X118914443Y-101513924D01*
X118866824Y-101609162D01*
X118819205Y-101656781D01*
X118723967Y-101704400D01*
X118438253Y-101704400D01*
X118343015Y-101656781D01*
X118295396Y-101609162D01*
%TO.C,U2*%
X117957695Y-80458060D02*
X117957695Y-81267584D01*
X118005314Y-81362822D01*
X118052933Y-81410441D01*
X118148171Y-81458060D01*
X118338647Y-81458060D01*
X118433885Y-81410441D01*
X118481504Y-81362822D01*
X118529123Y-81267584D01*
X118529123Y-80458060D01*
X118957695Y-80553299D02*
X119005314Y-80505680D01*
X119100552Y-80458060D01*
X119338647Y-80458060D01*
X119433885Y-80505680D01*
X119481504Y-80553299D01*
X119529123Y-80648537D01*
X119529123Y-80743775D01*
X119481504Y-80886632D01*
X118910076Y-81458060D01*
X119529123Y-81458060D01*
%TO.C,U1*%
X118219315Y-122235980D02*
X118219315Y-123045504D01*
X118266934Y-123140742D01*
X118314553Y-123188361D01*
X118409791Y-123235980D01*
X118600267Y-123235980D01*
X118695505Y-123188361D01*
X118743124Y-123140742D01*
X118790743Y-123045504D01*
X118790743Y-122235980D01*
X119790743Y-123235980D02*
X119219315Y-123235980D01*
X119505029Y-123235980D02*
X119505029Y-122235980D01*
X119409791Y-122378838D01*
X119314553Y-122474076D01*
X119219315Y-122521695D01*
%TO.C,F1*%
X179483426Y-67779591D02*
X179150093Y-67779591D01*
X179150093Y-68303400D02*
X179150093Y-67303400D01*
X179626283Y-67303400D01*
X180531045Y-68303400D02*
X179959617Y-68303400D01*
X180245331Y-68303400D02*
X180245331Y-67303400D01*
X180150093Y-67446258D01*
X180054855Y-67541496D01*
X179959617Y-67589115D01*
%TO.C,C3*%
X178058082Y-79779047D02*
X178105701Y-79826666D01*
X178153320Y-79969523D01*
X178153320Y-80064761D01*
X178105701Y-80207619D01*
X178010463Y-80302857D01*
X177915225Y-80350476D01*
X177724749Y-80398095D01*
X177581892Y-80398095D01*
X177391416Y-80350476D01*
X177296178Y-80302857D01*
X177200940Y-80207619D01*
X177153320Y-80064761D01*
X177153320Y-79969523D01*
X177200940Y-79826666D01*
X177248559Y-79779047D01*
X177153320Y-79445714D02*
X177153320Y-78826666D01*
X177534273Y-79160000D01*
X177534273Y-79017142D01*
X177581892Y-78921904D01*
X177629511Y-78874285D01*
X177724749Y-78826666D01*
X177962844Y-78826666D01*
X178058082Y-78874285D01*
X178105701Y-78921904D01*
X178153320Y-79017142D01*
X178153320Y-79302857D01*
X178105701Y-79398095D01*
X178058082Y-79445714D01*
%TO.C,U4*%
X139829635Y-122743980D02*
X139829635Y-123553504D01*
X139877254Y-123648742D01*
X139924873Y-123696361D01*
X140020111Y-123743980D01*
X140210587Y-123743980D01*
X140305825Y-123696361D01*
X140353444Y-123648742D01*
X140401063Y-123553504D01*
X140401063Y-122743980D01*
X141305825Y-123077314D02*
X141305825Y-123743980D01*
X141067730Y-122696361D02*
X140829635Y-123410647D01*
X141448682Y-123410647D01*
%TO.C,U5*%
X141516195Y-80206600D02*
X141516195Y-81016124D01*
X141563814Y-81111362D01*
X141611433Y-81158981D01*
X141706671Y-81206600D01*
X141897147Y-81206600D01*
X141992385Y-81158981D01*
X142040004Y-81111362D01*
X142087623Y-81016124D01*
X142087623Y-80206600D01*
X143040004Y-80206600D02*
X142563814Y-80206600D01*
X142516195Y-80682791D01*
X142563814Y-80635172D01*
X142659052Y-80587553D01*
X142897147Y-80587553D01*
X142992385Y-80635172D01*
X143040004Y-80682791D01*
X143087623Y-80778029D01*
X143087623Y-81016124D01*
X143040004Y-81111362D01*
X142992385Y-81158981D01*
X142897147Y-81206600D01*
X142659052Y-81206600D01*
X142563814Y-81158981D01*
X142516195Y-81111362D01*
%TO.C,C4*%
X140295333Y-113717342D02*
X140247714Y-113764961D01*
X140104857Y-113812580D01*
X140009619Y-113812580D01*
X139866761Y-113764961D01*
X139771523Y-113669723D01*
X139723904Y-113574485D01*
X139676285Y-113384009D01*
X139676285Y-113241152D01*
X139723904Y-113050676D01*
X139771523Y-112955438D01*
X139866761Y-112860200D01*
X140009619Y-112812580D01*
X140104857Y-112812580D01*
X140247714Y-112860200D01*
X140295333Y-112907819D01*
X141152476Y-113145914D02*
X141152476Y-113812580D01*
X140914380Y-112764961D02*
X140676285Y-113479247D01*
X141295333Y-113479247D01*
%TO.C,C5*%
X143524833Y-71807342D02*
X143477214Y-71854961D01*
X143334357Y-71902580D01*
X143239119Y-71902580D01*
X143096261Y-71854961D01*
X143001023Y-71759723D01*
X142953404Y-71664485D01*
X142905785Y-71474009D01*
X142905785Y-71331152D01*
X142953404Y-71140676D01*
X143001023Y-71045438D01*
X143096261Y-70950200D01*
X143239119Y-70902580D01*
X143334357Y-70902580D01*
X143477214Y-70950200D01*
X143524833Y-70997819D01*
X144429595Y-70902580D02*
X143953404Y-70902580D01*
X143905785Y-71378771D01*
X143953404Y-71331152D01*
X144048642Y-71283533D01*
X144286738Y-71283533D01*
X144381976Y-71331152D01*
X144429595Y-71378771D01*
X144477214Y-71474009D01*
X144477214Y-71712104D01*
X144429595Y-71807342D01*
X144381976Y-71854961D01*
X144286738Y-71902580D01*
X144048642Y-71902580D01*
X143953404Y-71854961D01*
X143905785Y-71807342D01*
%TO.C,R19*%
X119801402Y-114963200D02*
X119468069Y-114487010D01*
X119229974Y-114963200D02*
X119229974Y-113963200D01*
X119610926Y-113963200D01*
X119706164Y-114010820D01*
X119753783Y-114058439D01*
X119801402Y-114153677D01*
X119801402Y-114296534D01*
X119753783Y-114391772D01*
X119706164Y-114439391D01*
X119610926Y-114487010D01*
X119229974Y-114487010D01*
X120753783Y-114963200D02*
X120182355Y-114963200D01*
X120468069Y-114963200D02*
X120468069Y-113963200D01*
X120372831Y-114106058D01*
X120277593Y-114201296D01*
X120182355Y-114248915D01*
X121229974Y-114963200D02*
X121420450Y-114963200D01*
X121515688Y-114915581D01*
X121563307Y-114867962D01*
X121658545Y-114725105D01*
X121706164Y-114534629D01*
X121706164Y-114153677D01*
X121658545Y-114058439D01*
X121610926Y-114010820D01*
X121515688Y-113963200D01*
X121325212Y-113963200D01*
X121229974Y-114010820D01*
X121182355Y-114058439D01*
X121134736Y-114153677D01*
X121134736Y-114391772D01*
X121182355Y-114487010D01*
X121229974Y-114534629D01*
X121325212Y-114582248D01*
X121515688Y-114582248D01*
X121610926Y-114534629D01*
X121658545Y-114487010D01*
X121706164Y-114391772D01*
%TO.C,J1*%
X190308906Y-71441879D02*
X190308906Y-72156165D01*
X190261287Y-72299022D01*
X190166049Y-72394260D01*
X190023192Y-72441879D01*
X189927954Y-72441879D01*
X191308906Y-72441879D02*
X190737478Y-72441879D01*
X191023192Y-72441879D02*
X191023192Y-71441879D01*
X190927954Y-71584737D01*
X190832716Y-71679975D01*
X190737478Y-71727594D01*
%TO.C,R21*%
X167440262Y-73133480D02*
X167106929Y-72657290D01*
X166868834Y-73133480D02*
X166868834Y-72133480D01*
X167249786Y-72133480D01*
X167345024Y-72181100D01*
X167392643Y-72228719D01*
X167440262Y-72323957D01*
X167440262Y-72466814D01*
X167392643Y-72562052D01*
X167345024Y-72609671D01*
X167249786Y-72657290D01*
X166868834Y-72657290D01*
X167821215Y-72228719D02*
X167868834Y-72181100D01*
X167964072Y-72133480D01*
X168202167Y-72133480D01*
X168297405Y-72181100D01*
X168345024Y-72228719D01*
X168392643Y-72323957D01*
X168392643Y-72419195D01*
X168345024Y-72562052D01*
X167773596Y-73133480D01*
X168392643Y-73133480D01*
X169345024Y-73133480D02*
X168773596Y-73133480D01*
X169059310Y-73133480D02*
X169059310Y-72133480D01*
X168964072Y-72276338D01*
X168868834Y-72371576D01*
X168773596Y-72419195D01*
%TO.C,C6*%
X117493753Y-72795402D02*
X117446134Y-72843021D01*
X117303277Y-72890640D01*
X117208039Y-72890640D01*
X117065181Y-72843021D01*
X116969943Y-72747783D01*
X116922324Y-72652545D01*
X116874705Y-72462069D01*
X116874705Y-72319212D01*
X116922324Y-72128736D01*
X116969943Y-72033498D01*
X117065181Y-71938260D01*
X117208039Y-71890640D01*
X117303277Y-71890640D01*
X117446134Y-71938260D01*
X117493753Y-71985879D01*
X118350896Y-71890640D02*
X118160420Y-71890640D01*
X118065181Y-71938260D01*
X118017562Y-71985879D01*
X117922324Y-72128736D01*
X117874705Y-72319212D01*
X117874705Y-72700164D01*
X117922324Y-72795402D01*
X117969943Y-72843021D01*
X118065181Y-72890640D01*
X118255658Y-72890640D01*
X118350896Y-72843021D01*
X118398515Y-72795402D01*
X118446134Y-72700164D01*
X118446134Y-72462069D01*
X118398515Y-72366831D01*
X118350896Y-72319212D01*
X118255658Y-72271593D01*
X118065181Y-72271593D01*
X117969943Y-72319212D01*
X117922324Y-72366831D01*
X117874705Y-72462069D01*
%TO.C,C7*%
X119713713Y-95830662D02*
X119666094Y-95878281D01*
X119523237Y-95925900D01*
X119427999Y-95925900D01*
X119285141Y-95878281D01*
X119189903Y-95783043D01*
X119142284Y-95687805D01*
X119094665Y-95497329D01*
X119094665Y-95354472D01*
X119142284Y-95163996D01*
X119189903Y-95068758D01*
X119285141Y-94973520D01*
X119427999Y-94925900D01*
X119523237Y-94925900D01*
X119666094Y-94973520D01*
X119713713Y-95021139D01*
X120047046Y-94925900D02*
X120713713Y-94925900D01*
X120285141Y-95925900D01*
%TO.C,C8*%
X123427193Y-102254322D02*
X123379574Y-102301941D01*
X123236717Y-102349560D01*
X123141479Y-102349560D01*
X122998621Y-102301941D01*
X122903383Y-102206703D01*
X122855764Y-102111465D01*
X122808145Y-101920989D01*
X122808145Y-101778132D01*
X122855764Y-101587656D01*
X122903383Y-101492418D01*
X122998621Y-101397180D01*
X123141479Y-101349560D01*
X123236717Y-101349560D01*
X123379574Y-101397180D01*
X123427193Y-101444799D01*
X123998621Y-101778132D02*
X123903383Y-101730513D01*
X123855764Y-101682894D01*
X123808145Y-101587656D01*
X123808145Y-101540037D01*
X123855764Y-101444799D01*
X123903383Y-101397180D01*
X123998621Y-101349560D01*
X124189098Y-101349560D01*
X124284336Y-101397180D01*
X124331955Y-101444799D01*
X124379574Y-101540037D01*
X124379574Y-101587656D01*
X124331955Y-101682894D01*
X124284336Y-101730513D01*
X124189098Y-101778132D01*
X123998621Y-101778132D01*
X123903383Y-101825751D01*
X123855764Y-101873370D01*
X123808145Y-101968608D01*
X123808145Y-102159084D01*
X123855764Y-102254322D01*
X123903383Y-102301941D01*
X123998621Y-102349560D01*
X124189098Y-102349560D01*
X124284336Y-102301941D01*
X124331955Y-102254322D01*
X124379574Y-102159084D01*
X124379574Y-101968608D01*
X124331955Y-101873370D01*
X124284336Y-101825751D01*
X124189098Y-101778132D01*
%TO.C,C9*%
X187823813Y-74107042D02*
X187776194Y-74154661D01*
X187633337Y-74202280D01*
X187538099Y-74202280D01*
X187395241Y-74154661D01*
X187300003Y-74059423D01*
X187252384Y-73964185D01*
X187204765Y-73773709D01*
X187204765Y-73630852D01*
X187252384Y-73440376D01*
X187300003Y-73345138D01*
X187395241Y-73249900D01*
X187538099Y-73202280D01*
X187633337Y-73202280D01*
X187776194Y-73249900D01*
X187823813Y-73297519D01*
X188300003Y-74202280D02*
X188490480Y-74202280D01*
X188585718Y-74154661D01*
X188633337Y-74107042D01*
X188728575Y-73964185D01*
X188776194Y-73773709D01*
X188776194Y-73392757D01*
X188728575Y-73297519D01*
X188680956Y-73249900D01*
X188585718Y-73202280D01*
X188395241Y-73202280D01*
X188300003Y-73249900D01*
X188252384Y-73297519D01*
X188204765Y-73392757D01*
X188204765Y-73630852D01*
X188252384Y-73726090D01*
X188300003Y-73773709D01*
X188395241Y-73821328D01*
X188585718Y-73821328D01*
X188680956Y-73773709D01*
X188728575Y-73726090D01*
X188776194Y-73630852D01*
%TO.C,C10*%
X140857782Y-133082302D02*
X140810163Y-133129921D01*
X140667306Y-133177540D01*
X140572068Y-133177540D01*
X140429211Y-133129921D01*
X140333973Y-133034683D01*
X140286354Y-132939445D01*
X140238735Y-132748969D01*
X140238735Y-132606112D01*
X140286354Y-132415636D01*
X140333973Y-132320398D01*
X140429211Y-132225160D01*
X140572068Y-132177540D01*
X140667306Y-132177540D01*
X140810163Y-132225160D01*
X140857782Y-132272779D01*
X141810163Y-133177540D02*
X141238735Y-133177540D01*
X141524449Y-133177540D02*
X141524449Y-132177540D01*
X141429211Y-132320398D01*
X141333973Y-132415636D01*
X141238735Y-132463255D01*
X142429211Y-132177540D02*
X142524449Y-132177540D01*
X142619687Y-132225160D01*
X142667306Y-132272779D01*
X142714925Y-132368017D01*
X142762544Y-132558493D01*
X142762544Y-132796588D01*
X142714925Y-132987064D01*
X142667306Y-133082302D01*
X142619687Y-133129921D01*
X142524449Y-133177540D01*
X142429211Y-133177540D01*
X142333973Y-133129921D01*
X142286354Y-133082302D01*
X142238735Y-132987064D01*
X142191116Y-132796588D01*
X142191116Y-132558493D01*
X142238735Y-132368017D01*
X142286354Y-132272779D01*
X142333973Y-132225160D01*
X142429211Y-132177540D01*
%TO.C,C11*%
X180394262Y-120794782D02*
X180346643Y-120842401D01*
X180203786Y-120890020D01*
X180108548Y-120890020D01*
X179965691Y-120842401D01*
X179870453Y-120747163D01*
X179822834Y-120651925D01*
X179775215Y-120461449D01*
X179775215Y-120318592D01*
X179822834Y-120128116D01*
X179870453Y-120032878D01*
X179965691Y-119937640D01*
X180108548Y-119890020D01*
X180203786Y-119890020D01*
X180346643Y-119937640D01*
X180394262Y-119985259D01*
X181346643Y-120890020D02*
X180775215Y-120890020D01*
X181060929Y-120890020D02*
X181060929Y-119890020D01*
X180965691Y-120032878D01*
X180870453Y-120128116D01*
X180775215Y-120175735D01*
X182299024Y-120890020D02*
X181727596Y-120890020D01*
X182013310Y-120890020D02*
X182013310Y-119890020D01*
X181918072Y-120032878D01*
X181822834Y-120128116D01*
X181727596Y-120175735D01*
%TO.C,D1*%
X177332664Y-73362440D02*
X177332664Y-72362440D01*
X177570760Y-72362440D01*
X177713617Y-72410060D01*
X177808855Y-72505298D01*
X177856474Y-72600536D01*
X177904093Y-72791012D01*
X177904093Y-72933869D01*
X177856474Y-73124345D01*
X177808855Y-73219583D01*
X177713617Y-73314821D01*
X177570760Y-73362440D01*
X177332664Y-73362440D01*
X178856474Y-73362440D02*
X178285045Y-73362440D01*
X178570760Y-73362440D02*
X178570760Y-72362440D01*
X178475521Y-72505298D01*
X178380283Y-72600536D01*
X178285045Y-72648155D01*
%TO.C,D2*%
X149563864Y-151082640D02*
X149563864Y-150082640D01*
X149801960Y-150082640D01*
X149944817Y-150130260D01*
X150040055Y-150225498D01*
X150087674Y-150320736D01*
X150135293Y-150511212D01*
X150135293Y-150654069D01*
X150087674Y-150844545D01*
X150040055Y-150939783D01*
X149944817Y-151035021D01*
X149801960Y-151082640D01*
X149563864Y-151082640D01*
X150516245Y-150177879D02*
X150563864Y-150130260D01*
X150659102Y-150082640D01*
X150897198Y-150082640D01*
X150992436Y-150130260D01*
X151040055Y-150177879D01*
X151087674Y-150273117D01*
X151087674Y-150368355D01*
X151040055Y-150511212D01*
X150468626Y-151082640D01*
X151087674Y-151082640D01*
%TO.C,C12*%
X143416942Y-90565242D02*
X143369323Y-90612861D01*
X143226466Y-90660480D01*
X143131228Y-90660480D01*
X142988371Y-90612861D01*
X142893133Y-90517623D01*
X142845514Y-90422385D01*
X142797895Y-90231909D01*
X142797895Y-90089052D01*
X142845514Y-89898576D01*
X142893133Y-89803338D01*
X142988371Y-89708100D01*
X143131228Y-89660480D01*
X143226466Y-89660480D01*
X143369323Y-89708100D01*
X143416942Y-89755719D01*
X144369323Y-90660480D02*
X143797895Y-90660480D01*
X144083609Y-90660480D02*
X144083609Y-89660480D01*
X143988371Y-89803338D01*
X143893133Y-89898576D01*
X143797895Y-89946195D01*
X144750276Y-89755719D02*
X144797895Y-89708100D01*
X144893133Y-89660480D01*
X145131228Y-89660480D01*
X145226466Y-89708100D01*
X145274085Y-89755719D01*
X145321704Y-89850957D01*
X145321704Y-89946195D01*
X145274085Y-90089052D01*
X144702657Y-90660480D01*
X145321704Y-90660480D01*
%TO.C,BP2*%
X161357060Y-125579664D02*
X162166584Y-125579664D01*
X162261822Y-125532045D01*
X162309441Y-125484426D01*
X162357060Y-125389188D01*
X162357060Y-125198712D01*
X162309441Y-125103474D01*
X162261822Y-125055855D01*
X162166584Y-125008236D01*
X161357060Y-125008236D01*
X162309441Y-124579664D02*
X162357060Y-124436807D01*
X162357060Y-124198712D01*
X162309441Y-124103474D01*
X162261822Y-124055855D01*
X162166584Y-124008236D01*
X162071346Y-124008236D01*
X161976108Y-124055855D01*
X161928489Y-124103474D01*
X161880870Y-124198712D01*
X161833251Y-124389188D01*
X161785632Y-124484426D01*
X161738013Y-124532045D01*
X161642775Y-124579664D01*
X161547537Y-124579664D01*
X161452299Y-124532045D01*
X161404680Y-124484426D01*
X161357060Y-124389188D01*
X161357060Y-124151093D01*
X161404680Y-124008236D01*
X161833251Y-123246331D02*
X161880870Y-123103474D01*
X161928489Y-123055855D01*
X162023727Y-123008236D01*
X162166584Y-123008236D01*
X162261822Y-123055855D01*
X162309441Y-123103474D01*
X162357060Y-123198712D01*
X162357060Y-123579664D01*
X161357060Y-123579664D01*
X161357060Y-123246331D01*
X161404680Y-123151093D01*
X161452299Y-123103474D01*
X161547537Y-123055855D01*
X161642775Y-123055855D01*
X161738013Y-123103474D01*
X161785632Y-123151093D01*
X161833251Y-123246331D01*
X161833251Y-123579664D01*
D12*
%TO.C,R6*%
X127241513Y-119179880D02*
X127584047Y-119179880D01*
X127241513Y-120199880D02*
X127584047Y-120199880D01*
%TO.C,R4*%
X127241513Y-117528880D02*
X127584047Y-117528880D01*
X127241513Y-118548880D02*
X127584047Y-118548880D01*
%TO.C,R5*%
X127227513Y-125783880D02*
X127570047Y-125783880D01*
X127227513Y-126803880D02*
X127570047Y-126803880D01*
%TO.C,R10*%
X127227513Y-128518380D02*
X127570047Y-128518380D01*
X127227513Y-127498380D02*
X127570047Y-127498380D01*
%TO.C,R7*%
X127241513Y-125152880D02*
X127584047Y-125152880D01*
X127241513Y-124132880D02*
X127584047Y-124132880D01*
%TO.C,R8*%
X127241513Y-121850880D02*
X127584047Y-121850880D01*
X127241513Y-120830880D02*
X127584047Y-120830880D01*
%TO.C,R1*%
X127227513Y-115877880D02*
X127570047Y-115877880D01*
X127227513Y-116897880D02*
X127570047Y-116897880D01*
%TO.C,R11*%
X127227513Y-129276380D02*
X127570047Y-129276380D01*
X127227513Y-130296380D02*
X127570047Y-130296380D01*
%TO.C,R9*%
X127241513Y-123501880D02*
X127584047Y-123501880D01*
X127241513Y-122481880D02*
X127584047Y-122481880D01*
%TO.C,J4*%
X136742180Y-151381460D02*
X131662180Y-151381460D01*
X136742180Y-140967460D02*
X131662180Y-140967460D01*
X137250180Y-151254460D02*
X137250180Y-141094460D01*
%TO.C,C1*%
X117549516Y-91596800D02*
X118753644Y-91596800D01*
X117549516Y-93416800D02*
X118753644Y-93416800D01*
%TO.C,C2*%
X112500824Y-99992860D02*
X111296696Y-99992860D01*
X112500824Y-98172860D02*
X111296696Y-98172860D01*
%TO.C,R3*%
X127508153Y-73406540D02*
X127850687Y-73406540D01*
X127508153Y-74426540D02*
X127850687Y-74426540D01*
%TO.C,R2*%
X127508153Y-75057540D02*
X127850687Y-75057540D01*
X127508153Y-76077540D02*
X127850687Y-76077540D01*
%TO.C,R18*%
X127850687Y-84332540D02*
X127508153Y-84332540D01*
X127850687Y-83312540D02*
X127508153Y-83312540D01*
%TO.C,R17*%
X127850687Y-85983540D02*
X127508153Y-85983540D01*
X127850687Y-84963540D02*
X127508153Y-84963540D01*
%TO.C,R16*%
X127850687Y-87634540D02*
X127508153Y-87634540D01*
X127850687Y-86614540D02*
X127508153Y-86614540D01*
%TO.C,R15*%
X127850687Y-82681540D02*
X127508153Y-82681540D01*
X127850687Y-81661540D02*
X127508153Y-81661540D01*
%TO.C,R14*%
X127850687Y-81030540D02*
X127508153Y-81030540D01*
X127850687Y-80010540D02*
X127508153Y-80010540D01*
%TO.C,R13*%
X127850687Y-78359540D02*
X127508153Y-78359540D01*
X127850687Y-79379540D02*
X127508153Y-79379540D01*
%TO.C,R12*%
X127864687Y-77728540D02*
X127522153Y-77728540D01*
X127864687Y-76708540D02*
X127522153Y-76708540D01*
%TO.C,U3*%
X114683220Y-103206920D02*
X115943220Y-103206920D01*
X114683220Y-99446920D02*
X114683220Y-103206920D01*
X121503220Y-97196920D02*
X121503220Y-103206920D01*
X121503220Y-103206920D02*
X120243220Y-103206920D01*
D10*
%TO.C,U2*%
X116728420Y-76426540D02*
X116728420Y-76901540D01*
X120878420Y-76426540D02*
X120878420Y-76984040D01*
X116728420Y-85376540D02*
X116728420Y-84819040D01*
X120878420Y-85376540D02*
X120878420Y-84819040D01*
X116728420Y-76426540D02*
X120878420Y-76426540D01*
X116728420Y-76901540D02*
X115603420Y-76901540D01*
X116728420Y-85376540D02*
X120878420Y-85376540D01*
%TO.C,U1*%
X116878280Y-127022380D02*
X116878280Y-126464880D01*
X121028280Y-118072380D02*
X121028280Y-118629880D01*
X121028280Y-127022380D02*
X121028280Y-126464880D01*
X116878280Y-127022380D02*
X121028280Y-127022380D01*
X116878280Y-118547380D02*
X115753280Y-118547380D01*
X116878280Y-118072380D02*
X116878280Y-118547380D01*
X116878280Y-118072380D02*
X121028280Y-118072380D01*
D12*
%TO.C,F1*%
X184048340Y-69809680D02*
X175448340Y-69809680D01*
X175448340Y-69809680D02*
X175448340Y-65709680D01*
X184048340Y-69809680D02*
X184048340Y-65709680D01*
X184048340Y-65709680D02*
X175448340Y-65709680D01*
%TO.C,C3*%
X176744700Y-79497288D02*
X176744700Y-80019792D01*
X175324700Y-79497288D02*
X175324700Y-80019792D01*
%TO.C,REF\u002A\u002A*%
X162026600Y-138142980D02*
X161518600Y-137634980D01*
X160756600Y-139412980D02*
X160502600Y-139412980D01*
X160756600Y-139158980D02*
X160248600Y-138650980D01*
X162026600Y-138904980D02*
X161264600Y-138904980D01*
X162534600Y-137634980D02*
X162534600Y-137380980D01*
X160756600Y-138396980D02*
X161518600Y-138396980D01*
X162026600Y-137888980D02*
X162534600Y-137888980D01*
X161010600Y-138904980D02*
X161010600Y-139412980D01*
X161518600Y-138650980D02*
X161772600Y-138650980D01*
X161010600Y-139412980D02*
X161518600Y-139920980D01*
X161264600Y-137888980D02*
X161010600Y-138142980D01*
X161264600Y-138904980D02*
X160756600Y-138396980D01*
X162534600Y-137888980D02*
X163042600Y-138396980D01*
X161518600Y-138396980D02*
X161518600Y-137634980D01*
X162280600Y-137634980D02*
X161772600Y-137126980D01*
X161772600Y-138650980D02*
X161772600Y-138396980D01*
X162026600Y-138142980D02*
X162026600Y-138904980D01*
%TO.C,U4*%
X137384840Y-129440720D02*
X137384840Y-129240720D01*
X137384840Y-116720720D02*
X137384840Y-116920720D01*
X140544840Y-129440720D02*
X137384840Y-129440720D01*
X143704840Y-116720720D02*
X143704840Y-116920720D01*
X137384840Y-116920720D02*
X136094840Y-116920720D01*
X140544840Y-116720720D02*
X137384840Y-116720720D01*
X140544840Y-116720720D02*
X143704840Y-116720720D01*
X143704840Y-129440720D02*
X143704840Y-129240720D01*
X140544840Y-129440720D02*
X143704840Y-129440720D01*
%TO.C,U5*%
X142387320Y-87162480D02*
X145547320Y-87162480D01*
X142387320Y-74442480D02*
X145547320Y-74442480D01*
X142387320Y-74442480D02*
X139227320Y-74442480D01*
X142387320Y-87162480D02*
X139227320Y-87162480D01*
X145547320Y-87162480D02*
X145547320Y-86962480D01*
X139227320Y-74642480D02*
X137937320Y-74642480D01*
X139227320Y-74442480D02*
X139227320Y-74642480D01*
X139227320Y-87162480D02*
X139227320Y-86962480D01*
X145547320Y-74442480D02*
X145547320Y-74642480D01*
%TO.C,C4*%
X140364468Y-114362160D02*
X140886972Y-114362160D01*
X140364468Y-115782160D02*
X140886972Y-115782160D01*
%TO.C,C5*%
X143435328Y-72243880D02*
X143957832Y-72243880D01*
X143435328Y-73663880D02*
X143957832Y-73663880D01*
%TO.C,R19*%
X120714292Y-115594060D02*
X120191788Y-115594060D01*
X120714292Y-117014060D02*
X120191788Y-117014060D01*
%TO.C,J1*%
X191972240Y-69659499D02*
X191972240Y-70989499D01*
X189312240Y-68389499D02*
X189312240Y-65789499D01*
X191972240Y-70989499D02*
X190642240Y-70989499D01*
X191972240Y-68389499D02*
X189312240Y-68389499D01*
X191972240Y-65789499D02*
X189312240Y-65789499D01*
X191972240Y-68389499D02*
X191972240Y-65789499D01*
%TO.C,R21*%
X168344372Y-71741100D02*
X167821868Y-71741100D01*
X168344372Y-70321100D02*
X167821868Y-70321100D01*
%TO.C,C6*%
X117921672Y-73496100D02*
X117399168Y-73496100D01*
X117921672Y-74916100D02*
X117399168Y-74916100D01*
%TO.C,C7*%
X116823749Y-94745740D02*
X117346253Y-94745740D01*
X116823749Y-96165740D02*
X117346253Y-96165740D01*
%TO.C,C8*%
X124306400Y-99589332D02*
X124306400Y-99066828D01*
X122886400Y-99589332D02*
X122886400Y-99066828D01*
%TO.C,C9*%
X187729228Y-74689900D02*
X188251732Y-74689900D01*
X187729228Y-76109900D02*
X188251732Y-76109900D01*
%TO.C,C10*%
X141258548Y-130100000D02*
X141781052Y-130100000D01*
X141258548Y-131520000D02*
X141781052Y-131520000D01*
%TO.C,C11*%
X180775868Y-122797640D02*
X181298372Y-122797640D01*
X180775868Y-121377640D02*
X181298372Y-121377640D01*
%TO.C,D1*%
X174670760Y-73760060D02*
X180070760Y-73760060D01*
X174670760Y-73760060D02*
X174670760Y-77060060D01*
X174670760Y-77060060D02*
X180070760Y-77060060D01*
%TO.C,D2*%
X153701960Y-146480260D02*
X148301960Y-146480260D01*
X153701960Y-149780260D02*
X148301960Y-149780260D01*
X153701960Y-149780260D02*
X153701960Y-146480260D01*
%TO.C,J2*%
X126050040Y-90950740D02*
X131190040Y-90950740D01*
X126050040Y-93610740D02*
X126050040Y-90950740D01*
X124780040Y-93610740D02*
X123450040Y-93610740D01*
X123450040Y-93610740D02*
X123450040Y-92280740D01*
X131190040Y-93610740D02*
X131190040Y-90950740D01*
X126050040Y-93610740D02*
X131190040Y-93610740D01*
%TO.C,C12*%
X143780768Y-89157880D02*
X144303272Y-89157880D01*
X143780768Y-87737880D02*
X144303272Y-87737880D01*
%TO.C,BP2*%
X160126680Y-122285760D02*
X160126680Y-125587760D01*
X163682680Y-122285760D02*
X160126680Y-122285760D01*
X163682680Y-125587760D02*
X163682680Y-122285760D01*
X171024680Y-124063760D02*
G75*
G03*
X171024680Y-124063760I-1500000J0D01*
G01*
%TD*%
M02*
