%TF.GenerationSoftware,KiCad,Pcbnew,(6.0.2)*%
%TF.CreationDate,2022-04-15T06:16:40-06:00*%
%TF.ProjectId,XCVR_F1_SMD_V1,58435652-5f46-4315-9f53-4d445f56312e,rev?*%
%TF.SameCoordinates,Original*%
%TF.FileFunction,Legend,Bot*%
%TF.FilePolarity,Positive*%
%FSLAX46Y46*%
G04 Gerber Fmt 4.6, Leading zero omitted, Abs format (unit mm)*
G04 Created by KiCad (PCBNEW (6.0.2)) date 2022-04-15 06:16:40*
%MOMM*%
%LPD*%
G01*
G04 APERTURE LIST*
%ADD10C,0.300000*%
G04 APERTURE END LIST*
D10*
X180965714Y-147362500D02*
X181037142Y-147291071D01*
X181180000Y-147076785D01*
X181251428Y-146933928D01*
X181322857Y-146719642D01*
X181394285Y-146362500D01*
X181394285Y-146076785D01*
X181322857Y-145719642D01*
X181251428Y-145505357D01*
X181180000Y-145362500D01*
X181037142Y-145148214D01*
X180965714Y-145076785D01*
X179537142Y-146648214D02*
X179608571Y-146719642D01*
X179822857Y-146791071D01*
X179965714Y-146791071D01*
X180180000Y-146719642D01*
X180322857Y-146576785D01*
X180394285Y-146433928D01*
X180465714Y-146148214D01*
X180465714Y-145933928D01*
X180394285Y-145648214D01*
X180322857Y-145505357D01*
X180180000Y-145362500D01*
X179965714Y-145291071D01*
X179822857Y-145291071D01*
X179608571Y-145362500D01*
X179537142Y-145433928D01*
X178037142Y-146648214D02*
X178108571Y-146719642D01*
X178322857Y-146791071D01*
X178465714Y-146791071D01*
X178680000Y-146719642D01*
X178822857Y-146576785D01*
X178894285Y-146433928D01*
X178965714Y-146148214D01*
X178965714Y-145933928D01*
X178894285Y-145648214D01*
X178822857Y-145505357D01*
X178680000Y-145362500D01*
X178465714Y-145291071D01*
X178322857Y-145291071D01*
X178108571Y-145362500D01*
X178037142Y-145433928D01*
X175751428Y-146005357D02*
X175537142Y-146076785D01*
X175465714Y-146148214D01*
X175394285Y-146291071D01*
X175394285Y-146505357D01*
X175465714Y-146648214D01*
X175537142Y-146719642D01*
X175680000Y-146791071D01*
X176251428Y-146791071D01*
X176251428Y-145291071D01*
X175751428Y-145291071D01*
X175608571Y-145362500D01*
X175537142Y-145433928D01*
X175465714Y-145576785D01*
X175465714Y-145719642D01*
X175537142Y-145862500D01*
X175608571Y-145933928D01*
X175751428Y-146005357D01*
X176251428Y-146005357D01*
X174465714Y-146076785D02*
X174465714Y-146791071D01*
X174965714Y-145291071D02*
X174465714Y-146076785D01*
X173965714Y-145291071D01*
X173465714Y-146219642D02*
X172322857Y-146219642D01*
X171608571Y-146791071D02*
X171608571Y-145291071D01*
X170751428Y-146791071D01*
X170751428Y-145291071D01*
X169180000Y-146648214D02*
X169251428Y-146719642D01*
X169465714Y-146791071D01*
X169608571Y-146791071D01*
X169822857Y-146719642D01*
X169965714Y-146576785D01*
X170037142Y-146433928D01*
X170108571Y-146148214D01*
X170108571Y-145933928D01*
X170037142Y-145648214D01*
X169965714Y-145505357D01*
X169822857Y-145362500D01*
X169608571Y-145291071D01*
X169465714Y-145291071D01*
X169251428Y-145362500D01*
X169180000Y-145433928D01*
X168537142Y-146219642D02*
X167394285Y-146219642D01*
X166751428Y-146719642D02*
X166537142Y-146791071D01*
X166180000Y-146791071D01*
X166037142Y-146719642D01*
X165965714Y-146648214D01*
X165894285Y-146505357D01*
X165894285Y-146362500D01*
X165965714Y-146219642D01*
X166037142Y-146148214D01*
X166180000Y-146076785D01*
X166465714Y-146005357D01*
X166608571Y-145933928D01*
X166680000Y-145862500D01*
X166751428Y-145719642D01*
X166751428Y-145576785D01*
X166680000Y-145433928D01*
X166608571Y-145362500D01*
X166465714Y-145291071D01*
X166108571Y-145291071D01*
X165894285Y-145362500D01*
X165322857Y-146362500D02*
X164608571Y-146362500D01*
X165465714Y-146791071D02*
X164965714Y-145291071D01*
X164465714Y-146791071D01*
X162180000Y-145791071D02*
X162180000Y-146791071D01*
X162537142Y-145219642D02*
X162894285Y-146291071D01*
X161965714Y-146291071D01*
X161394285Y-146648214D02*
X161322857Y-146719642D01*
X161394285Y-146791071D01*
X161465714Y-146719642D01*
X161394285Y-146648214D01*
X161394285Y-146791071D01*
X160394285Y-145291071D02*
X160251428Y-145291071D01*
X160108571Y-145362500D01*
X160037142Y-145433928D01*
X159965714Y-145576785D01*
X159894285Y-145862500D01*
X159894285Y-146219642D01*
X159965714Y-146505357D01*
X160037142Y-146648214D01*
X160108571Y-146719642D01*
X160251428Y-146791071D01*
X160394285Y-146791071D01*
X160537142Y-146719642D01*
X160608571Y-146648214D01*
X160680000Y-146505357D01*
X160751428Y-146219642D01*
X160751428Y-145862500D01*
X160680000Y-145576785D01*
X160608571Y-145433928D01*
X160537142Y-145362500D01*
X160394285Y-145291071D01*
X159394285Y-147362500D02*
X159322857Y-147291071D01*
X159180000Y-147076785D01*
X159108571Y-146933928D01*
X159037142Y-146719642D01*
X158965714Y-146362500D01*
X158965714Y-146076785D01*
X159037142Y-145719642D01*
X159108571Y-145505357D01*
X159180000Y-145362500D01*
X159322857Y-145148214D01*
X159394285Y-145076785D01*
X181787142Y-149134642D02*
X181572857Y-149206071D01*
X181215714Y-149206071D01*
X181072857Y-149134642D01*
X181001428Y-149063214D01*
X180930000Y-148920357D01*
X180930000Y-148777500D01*
X181001428Y-148634642D01*
X181072857Y-148563214D01*
X181215714Y-148491785D01*
X181501428Y-148420357D01*
X181644285Y-148348928D01*
X181715714Y-148277500D01*
X181787142Y-148134642D01*
X181787142Y-147991785D01*
X181715714Y-147848928D01*
X181644285Y-147777500D01*
X181501428Y-147706071D01*
X181144285Y-147706071D01*
X180930000Y-147777500D01*
X180358571Y-148777500D02*
X179644285Y-148777500D01*
X180501428Y-149206071D02*
X180001428Y-147706071D01*
X179501428Y-149206071D01*
X178287142Y-149206071D02*
X179001428Y-149206071D01*
X179001428Y-147706071D01*
X177787142Y-148420357D02*
X177287142Y-148420357D01*
X177072857Y-149206071D02*
X177787142Y-149206071D01*
X177787142Y-147706071D01*
X177072857Y-147706071D01*
X175287142Y-149206071D02*
X175287142Y-147706071D01*
X174430000Y-149206071D01*
X174430000Y-147706071D01*
X173430000Y-147706071D02*
X173144285Y-147706071D01*
X173001428Y-147777500D01*
X172858571Y-147920357D01*
X172787142Y-148206071D01*
X172787142Y-148706071D01*
X172858571Y-148991785D01*
X173001428Y-149134642D01*
X173144285Y-149206071D01*
X173430000Y-149206071D01*
X173572857Y-149134642D01*
X173715714Y-148991785D01*
X173787142Y-148706071D01*
X173787142Y-148206071D01*
X173715714Y-147920357D01*
X173572857Y-147777500D01*
X173430000Y-147706071D01*
X172358571Y-147706071D02*
X171501428Y-147706071D01*
X171930000Y-149206071D02*
X171930000Y-147706071D01*
X169858571Y-149206071D02*
X169858571Y-147706071D01*
X169287142Y-147706071D01*
X169144285Y-147777500D01*
X169072857Y-147848928D01*
X169001428Y-147991785D01*
X169001428Y-148206071D01*
X169072857Y-148348928D01*
X169144285Y-148420357D01*
X169287142Y-148491785D01*
X169858571Y-148491785D01*
X168358571Y-148420357D02*
X167858571Y-148420357D01*
X167644285Y-149206071D02*
X168358571Y-149206071D01*
X168358571Y-147706071D01*
X167644285Y-147706071D01*
X166144285Y-149206071D02*
X166644285Y-148491785D01*
X167001428Y-149206071D02*
X167001428Y-147706071D01*
X166430000Y-147706071D01*
X166287142Y-147777500D01*
X166215714Y-147848928D01*
X166144285Y-147991785D01*
X166144285Y-148206071D01*
X166215714Y-148348928D01*
X166287142Y-148420357D01*
X166430000Y-148491785D01*
X167001428Y-148491785D01*
X165501428Y-149206071D02*
X165501428Y-147706071D01*
X165001428Y-148777500D01*
X164501428Y-147706071D01*
X164501428Y-149206071D01*
X163787142Y-149206071D02*
X163787142Y-147706071D01*
X163287142Y-147706071D02*
X162430000Y-147706071D01*
X162858571Y-149206071D02*
X162858571Y-147706071D01*
X162144285Y-147706071D02*
X161287142Y-147706071D01*
X161715714Y-149206071D02*
X161715714Y-147706071D01*
X160787142Y-148420357D02*
X160287142Y-148420357D01*
X160072857Y-149206071D02*
X160787142Y-149206071D01*
X160787142Y-147706071D01*
X160072857Y-147706071D01*
X159430000Y-149206071D02*
X159430000Y-147706071D01*
X159072857Y-147706071D01*
X158858571Y-147777500D01*
X158715714Y-147920357D01*
X158644285Y-148063214D01*
X158572857Y-148348928D01*
X158572857Y-148563214D01*
X158644285Y-148848928D01*
X158715714Y-148991785D01*
X158858571Y-149134642D01*
X159072857Y-149206071D01*
X159430000Y-149206071D01*
M02*
