%TF.GenerationSoftware,KiCad,Pcbnew,(6.0.2)*%
%TF.CreationDate,2022-04-15T06:16:40-06:00*%
%TF.ProjectId,XCVR_F1_SMD_V1,58435652-5f46-4315-9f53-4d445f56312e,rev?*%
%TF.SameCoordinates,Original*%
%TF.FileFunction,Soldermask,Bot*%
%TF.FilePolarity,Negative*%
%FSLAX46Y46*%
G04 Gerber Fmt 4.6, Leading zero omitted, Abs format (unit mm)*
G04 Created by KiCad (PCBNEW (6.0.2)) date 2022-04-15 06:16:40*
%MOMM*%
%LPD*%
G01*
G04 APERTURE LIST*
G04 Aperture macros list*
%AMRoundRect*
0 Rectangle with rounded corners*
0 $1 Rounding radius*
0 $2 $3 $4 $5 $6 $7 $8 $9 X,Y pos of 4 corners*
0 Add a 4 corners polygon primitive as box body*
4,1,4,$2,$3,$4,$5,$6,$7,$8,$9,$2,$3,0*
0 Add four circle primitives for the rounded corners*
1,1,$1+$1,$2,$3*
1,1,$1+$1,$4,$5*
1,1,$1+$1,$6,$7*
1,1,$1+$1,$8,$9*
0 Add four rect primitives between the rounded corners*
20,1,$1+$1,$2,$3,$4,$5,0*
20,1,$1+$1,$4,$5,$6,$7,0*
20,1,$1+$1,$6,$7,$8,$9,0*
20,1,$1+$1,$8,$9,$2,$3,0*%
G04 Aperture macros list end*
%ADD10R,3.800000X0.750000*%
%ADD11C,1.524000*%
%ADD12C,3.200000*%
%ADD13C,1.270000*%
%ADD14R,1.700000X1.700000*%
%ADD15O,1.700000X1.700000*%
%ADD16C,1.650000*%
%ADD17C,1.150000*%
%ADD18RoundRect,0.412500X0.412500X0.412500X-0.412500X0.412500X-0.412500X-0.412500X0.412500X-0.412500X0*%
G04 APERTURE END LIST*
D10*
%TO.C,J3*%
X107017820Y-129484120D03*
X107017820Y-126944120D03*
X107017820Y-124404120D03*
X107017820Y-121864120D03*
X107017820Y-119324120D03*
X107017820Y-116784120D03*
X107017820Y-114244120D03*
X107017820Y-111704120D03*
X107017820Y-109164120D03*
X107017820Y-106624120D03*
X107017820Y-104084120D03*
X107017820Y-101544120D03*
X107017820Y-99004120D03*
X107017820Y-96464120D03*
X107017820Y-93924120D03*
X107017820Y-91384120D03*
X107017820Y-88844120D03*
X107017820Y-86304120D03*
X107017820Y-83764120D03*
X107017820Y-81224120D03*
X107017820Y-78684120D03*
X107017820Y-76144120D03*
X107017820Y-73604120D03*
X107017820Y-71064120D03*
X107017820Y-68524120D03*
%TD*%
D11*
%TO.C,J4*%
X134917180Y-149919060D03*
X134917180Y-147419060D03*
X134917180Y-144919060D03*
X134917180Y-142419060D03*
%TD*%
D12*
%TO.C,REF\u002A\u002A*%
X149900640Y-138628120D03*
%TD*%
%TO.C,REF\u002A\u002A*%
X126138940Y-107116880D03*
%TD*%
%TO.C,REF\u002A\u002A*%
X184279540Y-81127600D03*
%TD*%
D13*
%TO.C,F1*%
X182298340Y-68559680D03*
X177218340Y-67416680D03*
%TD*%
D14*
%TO.C,J1*%
X190642240Y-69659499D03*
D15*
X190642240Y-67119499D03*
%TD*%
D16*
%TO.C,SD1*%
X177811080Y-94415780D03*
D17*
X177811080Y-115415780D03*
%TD*%
D14*
%TO.C,J2*%
X124780040Y-92280740D03*
D15*
X127320040Y-92280740D03*
X129860040Y-92280740D03*
%TD*%
D18*
%TO.C,BP2*%
X169524680Y-124063760D03*
D16*
X169524680Y-121523760D03*
X169524680Y-118983760D03*
X169524680Y-116443760D03*
X169524680Y-113903760D03*
X169524680Y-111363760D03*
X169524680Y-108823760D03*
X169524680Y-106283760D03*
X169524680Y-103743760D03*
X169524680Y-101203760D03*
X169524680Y-98663760D03*
X169524680Y-96123760D03*
X169524680Y-93583760D03*
X169524680Y-91043760D03*
X169524680Y-88503760D03*
X169524680Y-85963760D03*
X169524680Y-83423760D03*
X169524680Y-80883760D03*
X169524680Y-78343760D03*
X169524680Y-75803760D03*
X154284680Y-75803760D03*
X154284680Y-78343760D03*
X154284680Y-80883760D03*
X154284680Y-83423760D03*
X154284680Y-85963760D03*
X154284680Y-88503760D03*
X154284680Y-91043760D03*
X154284680Y-93583760D03*
X154284680Y-96123760D03*
X154284680Y-98663760D03*
X154284680Y-101203760D03*
X154284680Y-103743760D03*
X154284680Y-106283760D03*
X154284680Y-108823760D03*
X154284680Y-111363760D03*
X154284680Y-113903760D03*
X154284680Y-116443760D03*
X154284680Y-118983760D03*
X154284680Y-121523760D03*
X154284680Y-124063760D03*
%TD*%
M02*
