M48
; DRILL file {KiCad (6.0.2)} date Fri Apr 15 06:16:41 2022
; FORMAT={-:-/ absolute / inch / decimal}
; #@! TF.CreationDate,2022-04-15T06:16:41-06:00
; #@! TF.GenerationSoftware,Kicad,Pcbnew,(6.0.2)
; #@! TF.FileFunction,Plated,1,2,PTH
FMAT,2
INCH
; #@! TA.AperFunction,Plated,PTH,ViaDrill
T1C0.0157
; #@! TA.AperFunction,Plated,PTH,ComponentDrill
T2C0.0280
; #@! TA.AperFunction,Plated,PTH,ComponentDrill
T3C0.0300
; #@! TA.AperFunction,Plated,PTH,ComponentDrill
T4C0.0354
; #@! TA.AperFunction,Plated,PTH,ComponentDrill
T5C0.0394
%
G90
G05
T1
X4.212Y-3.4465
X4.2126Y-3.0491
X4.2128Y-5.147
X4.2133Y-2.7469
X4.2133Y-3.6471
X4.2133Y-4.2467
X4.2133Y-4.3487
X4.2133Y-4.4485
X4.2133Y-4.5485
X4.2133Y-4.6469
X4.2133Y-4.7465
X4.2133Y-4.8472
X4.2133Y-4.9482
X4.2133Y-5.0498
X4.2139Y-3.1475
X4.2139Y-3.5462
X4.214Y-2.9493
X4.214Y-3.2458
X4.2144Y-2.8455
X4.3259Y-3.4331
X4.3279Y-3.3978
X4.3323Y-3.3079
X4.3367Y-3.6978
X4.3373Y-3.0731
X4.3482Y-3.2223
X4.3712Y-3.5432
X4.3733Y-3.0715
X4.3784Y-4.2185
X4.3805Y-4.0358
X4.3826Y-4.1214
X4.3859Y-3.2212
X4.3918Y-2.9704
X4.3924Y-2.858
X4.3975Y-2.7292
X4.4295Y-3.0696
X4.4316Y-3.2707
X4.4322Y-3.2347
X4.5588Y-3.9369
X4.5588Y-3.9812
X4.5732Y-3.5214
X4.6002Y-4.5655
X4.6247Y-4.59
X4.7538Y-3.4974
X4.7699Y-3.6413
X4.7762Y-2.8545
X4.806Y-3.8844
X4.8252Y-2.7447
X4.843Y-4.5384
X4.8895Y-4.6233
X4.8903Y-4.4226
X4.9244Y-4.5375
X4.9628Y-3.8851
X5.0396Y-3.883
X5.072Y-2.8589
X5.1075Y-4.615
X5.1075Y-4.6793
X5.1075Y-4.7459
X5.1075Y-4.8113
X5.1075Y-4.8739
X5.1075Y-4.9405
X5.1075Y-5.0059
X5.1075Y-5.0741
X5.1079Y-3.8822
X5.1121Y-3.4654
X5.1131Y-2.9417
X5.1131Y-3.0071
X5.1131Y-3.0729
X5.1131Y-3.1374
X5.1131Y-3.2024
X5.1131Y-3.2674
X5.1131Y-3.3328
X5.1131Y-3.3986
X5.1138Y-2.8724
X5.1406Y-4.7122
X5.1426Y-4.8434
X5.1437Y-2.7754
X5.1463Y-4.9722
X5.1468Y-5.0397
X5.147Y-5.1097
X5.1562Y-4.6472
X5.157Y-4.5822
X5.1571Y-4.7791
X5.1605Y-4.9144
X5.1689Y-3.3001
X5.169Y-3.3651
X5.1691Y-3.4301
X5.1697Y-3.2351
X5.1713Y-3.1701
X5.1724Y-3.1051
X5.1734Y-3.0401
X5.1736Y-2.9751
X5.1744Y-2.9101
X5.2114Y-4.3576
X5.235Y-4.6199
X5.2392Y-4.0815
X5.2433Y-5.0026
X5.277Y-4.7127
X5.2995Y-4.9419
X5.2996Y-4.83
X5.3124Y-4.5568
X5.3153Y-3.6827
X5.3226Y-4.777
X5.3289Y-4.672
X5.3305Y-5.0295
X5.3596Y-3.3328
X5.3614Y-3.0553
X5.3668Y-2.9564
X5.3801Y-4.5532
X5.3853Y-3.6149
X5.4062Y-5.1499
X5.4187Y-2.8676
X5.4336Y-4.5608
X5.4522Y-4.6882
X5.4564Y-4.896
X5.4569Y-4.7974
X5.4585Y-5.0123
X5.492Y-3.8976
X5.51Y-3.5167
X5.5348Y-3.2299
X5.5365Y-3.1346
X5.5415Y-3.3515
X5.5434Y-2.985
X5.5542Y-3.6788
X5.5999Y-4.6492
X5.604Y-5.0088
X5.6046Y-4.7928
X5.605Y-4.8978
X5.6126Y-5.2107
X5.6297Y-4.2832
X5.6858Y-3.357
X5.6868Y-3.1809
X5.6925Y-2.9796
X5.7063Y-3.6796
X5.7093Y-2.8102
X5.7333Y-4.3461
X5.736Y-4.1783
X5.748Y-4.9629
X5.7611Y-4.7263
X5.7635Y-3.8635
X5.7823Y-4.9144
X5.7867Y-5.0185
X5.8007Y-3.608
X5.8028Y-4.2779
X5.8072Y-3.5417
X5.8076Y-4.8576
X5.8121Y-5.1437
X5.8123Y-3.0712
X5.8431Y-3.2758
X5.8441Y-5.0308
X5.846Y-3.805
X5.8612Y-5.0616
X5.9187Y-5.7255
X5.9495Y-5.0292
X5.9571Y-3.7517
X5.9707Y-4.9842
X5.971Y-3.5806
X5.9762Y-3.708
X5.984Y-5.9246
X6.0035Y-4.9965
X6.0102Y-3.7971
X6.0111Y-4.703
X6.0114Y-3.1714
X6.0154Y-3.2515
X6.0162Y-3.3576
X6.0229Y-3.0489
X6.0257Y-5.0207
X6.1313Y-3.4249
X6.1313Y-3.5144
X6.1332Y-3.5995
X6.1349Y-3.3237
X6.1364Y-3.2123
X6.1386Y-3.1045
X6.1386Y-4.0998
X6.1389Y-4.6741
X6.1406Y-3.8897
X6.1469Y-4.589
X6.1503Y-3.0091
X6.1679Y-4.3313
X6.1765Y-3.7775
X6.1947Y-3.6782
X6.2905Y-4.3708
X6.3002Y-3.7826
X6.3232Y-4.3336
X6.3254Y-4.23
X6.3592Y-4.2834
X6.393Y-4.1673
X6.3993Y-3.7384
X6.5147Y-3.8847
X6.5487Y-4.9811
X6.5626Y-4.2904
X6.5694Y-2.8544
X6.5792Y-4.9817
X6.5877Y-4.6565
X6.5884Y-4.5905
X6.5963Y-4.4706
X6.6008Y-4.185
X6.6049Y-3.5633
X6.6121Y-3.8772
X6.6148Y-4.8317
X6.6206Y-4.0375
X6.7586Y-4.5234
X6.7614Y-4.2833
X6.7702Y-3.7885
X6.773Y-3.9598
X6.7901Y-4.7816
X6.7902Y-3.9142
X6.799Y-3.821
X6.8087Y-4.3912
X6.8105Y-4.2108
X6.8147Y-4.3224
X6.831Y-5.7285
X6.9631Y-4.7314
X6.9724Y-5.8821
X7.0412Y-2.6144
X7.1191Y-2.7232
X7.1681Y-2.7743
X7.225Y-2.9689
X7.2306Y-2.8562
X7.2597Y-5.0143
X7.2693Y-4.8328
X7.2706Y-2.9689
X7.2776Y-4.3943
X7.2778Y-2.8562
X7.2808Y-4.0144
X7.2863Y-3.525
X7.3576Y-5.2717
X7.358Y-5.2242
X7.4374Y-3.5294
X7.4392Y-5.018
X7.4406Y-4.0144
X7.4446Y-4.8301
X7.4505Y-4.4008
T2
X6.9771Y-2.6542
X7.1771Y-2.6992
T3
X5.3117Y-5.607
X5.3117Y-5.7055
X5.3117Y-5.8039
X5.3117Y-5.9023
T4
X6.0742Y-2.9844
X6.0742Y-3.0844
X6.0742Y-3.1844
X6.0742Y-3.2844
X6.0742Y-3.3844
X6.0742Y-3.4844
X6.0742Y-3.5844
X6.0742Y-3.6844
X6.0742Y-3.7844
X6.0742Y-3.8844
X6.0742Y-3.9844
X6.0742Y-4.0844
X6.0742Y-4.1844
X6.0742Y-4.2844
X6.0742Y-4.3844
X6.0742Y-4.4844
X6.0742Y-4.5844
X6.0742Y-4.6844
X6.0742Y-4.7844
X6.0742Y-4.8844
X6.6742Y-2.9844
X6.6742Y-3.0844
X6.6742Y-3.1844
X6.6742Y-3.2844
X6.6742Y-3.3844
X6.6742Y-3.4844
X6.6742Y-3.5844
X6.6742Y-3.6844
X6.6742Y-3.7844
X6.6742Y-3.8844
X6.6742Y-3.9844
X6.6742Y-4.0844
X6.6742Y-4.1844
X6.6742Y-4.2844
X6.6742Y-4.3844
X6.6742Y-4.4844
X6.6742Y-4.5844
X6.6742Y-4.6844
X6.6742Y-4.7844
X6.6742Y-4.8844
T5
X4.9126Y-3.6331
X5.0126Y-3.6331
X5.1126Y-3.6331
X7.5056Y-2.6425
X7.5056Y-2.7425
T0
M30
