%TF.GenerationSoftware,KiCad,Pcbnew,(6.0.2)*%
%TF.CreationDate,2022-04-07T06:34:10-06:00*%
%TF.ProjectId,MacPortable_THTV1,4d616350-6f72-4746-9162-6c655f544854,rev?*%
%TF.SameCoordinates,Original*%
%TF.FileFunction,Legend,Bot*%
%TF.FilePolarity,Positive*%
%FSLAX46Y46*%
G04 Gerber Fmt 4.6, Leading zero omitted, Abs format (unit mm)*
G04 Created by KiCad (PCBNEW (6.0.2)) date 2022-04-07 06:34:10*
%MOMM*%
%LPD*%
G01*
G04 APERTURE LIST*
%ADD10C,0.150000*%
G04 APERTURE END LIST*
D10*
X130410476Y-72248333D02*
X130458095Y-72200714D01*
X130553333Y-72057857D01*
X130600952Y-71962619D01*
X130648571Y-71819761D01*
X130696190Y-71581666D01*
X130696190Y-71391190D01*
X130648571Y-71153095D01*
X130600952Y-71010238D01*
X130553333Y-70915000D01*
X130458095Y-70772142D01*
X130410476Y-70724523D01*
X129458095Y-71772142D02*
X129505714Y-71819761D01*
X129648571Y-71867380D01*
X129743809Y-71867380D01*
X129886666Y-71819761D01*
X129981904Y-71724523D01*
X130029523Y-71629285D01*
X130077142Y-71438809D01*
X130077142Y-71295952D01*
X130029523Y-71105476D01*
X129981904Y-71010238D01*
X129886666Y-70915000D01*
X129743809Y-70867380D01*
X129648571Y-70867380D01*
X129505714Y-70915000D01*
X129458095Y-70962619D01*
X128458095Y-71772142D02*
X128505714Y-71819761D01*
X128648571Y-71867380D01*
X128743809Y-71867380D01*
X128886666Y-71819761D01*
X128981904Y-71724523D01*
X129029523Y-71629285D01*
X129077142Y-71438809D01*
X129077142Y-71295952D01*
X129029523Y-71105476D01*
X128981904Y-71010238D01*
X128886666Y-70915000D01*
X128743809Y-70867380D01*
X128648571Y-70867380D01*
X128505714Y-70915000D01*
X128458095Y-70962619D01*
X126934285Y-71343571D02*
X126791428Y-71391190D01*
X126743809Y-71438809D01*
X126696190Y-71534047D01*
X126696190Y-71676904D01*
X126743809Y-71772142D01*
X126791428Y-71819761D01*
X126886666Y-71867380D01*
X127267619Y-71867380D01*
X127267619Y-70867380D01*
X126934285Y-70867380D01*
X126839047Y-70915000D01*
X126791428Y-70962619D01*
X126743809Y-71057857D01*
X126743809Y-71153095D01*
X126791428Y-71248333D01*
X126839047Y-71295952D01*
X126934285Y-71343571D01*
X127267619Y-71343571D01*
X126077142Y-71391190D02*
X126077142Y-71867380D01*
X126410476Y-70867380D02*
X126077142Y-71391190D01*
X125743809Y-70867380D01*
X125410476Y-71486428D02*
X124648571Y-71486428D01*
X124172380Y-71867380D02*
X124172380Y-70867380D01*
X123600952Y-71867380D01*
X123600952Y-70867380D01*
X122553333Y-71772142D02*
X122600952Y-71819761D01*
X122743809Y-71867380D01*
X122839047Y-71867380D01*
X122981904Y-71819761D01*
X123077142Y-71724523D01*
X123124761Y-71629285D01*
X123172380Y-71438809D01*
X123172380Y-71295952D01*
X123124761Y-71105476D01*
X123077142Y-71010238D01*
X122981904Y-70915000D01*
X122839047Y-70867380D01*
X122743809Y-70867380D01*
X122600952Y-70915000D01*
X122553333Y-70962619D01*
X122124761Y-71486428D02*
X121362857Y-71486428D01*
X120934285Y-71819761D02*
X120791428Y-71867380D01*
X120553333Y-71867380D01*
X120458095Y-71819761D01*
X120410476Y-71772142D01*
X120362857Y-71676904D01*
X120362857Y-71581666D01*
X120410476Y-71486428D01*
X120458095Y-71438809D01*
X120553333Y-71391190D01*
X120743809Y-71343571D01*
X120839047Y-71295952D01*
X120886666Y-71248333D01*
X120934285Y-71153095D01*
X120934285Y-71057857D01*
X120886666Y-70962619D01*
X120839047Y-70915000D01*
X120743809Y-70867380D01*
X120505714Y-70867380D01*
X120362857Y-70915000D01*
X119981904Y-71581666D02*
X119505714Y-71581666D01*
X120077142Y-71867380D02*
X119743809Y-70867380D01*
X119410476Y-71867380D01*
X117886666Y-71200714D02*
X117886666Y-71867380D01*
X118124761Y-70819761D02*
X118362857Y-71534047D01*
X117743809Y-71534047D01*
X117362857Y-71772142D02*
X117315238Y-71819761D01*
X117362857Y-71867380D01*
X117410476Y-71819761D01*
X117362857Y-71772142D01*
X117362857Y-71867380D01*
X116696190Y-70867380D02*
X116600952Y-70867380D01*
X116505714Y-70915000D01*
X116458095Y-70962619D01*
X116410476Y-71057857D01*
X116362857Y-71248333D01*
X116362857Y-71486428D01*
X116410476Y-71676904D01*
X116458095Y-71772142D01*
X116505714Y-71819761D01*
X116600952Y-71867380D01*
X116696190Y-71867380D01*
X116791428Y-71819761D01*
X116839047Y-71772142D01*
X116886666Y-71676904D01*
X116934285Y-71486428D01*
X116934285Y-71248333D01*
X116886666Y-71057857D01*
X116839047Y-70962619D01*
X116791428Y-70915000D01*
X116696190Y-70867380D01*
X116029523Y-72248333D02*
X115981904Y-72200714D01*
X115886666Y-72057857D01*
X115839047Y-71962619D01*
X115791428Y-71819761D01*
X115743809Y-71581666D01*
X115743809Y-71391190D01*
X115791428Y-71153095D01*
X115839047Y-71010238D01*
X115886666Y-70915000D01*
X115981904Y-70772142D01*
X116029523Y-70724523D01*
X130958095Y-73429761D02*
X130815238Y-73477380D01*
X130577142Y-73477380D01*
X130481904Y-73429761D01*
X130434285Y-73382142D01*
X130386666Y-73286904D01*
X130386666Y-73191666D01*
X130434285Y-73096428D01*
X130481904Y-73048809D01*
X130577142Y-73001190D01*
X130767619Y-72953571D01*
X130862857Y-72905952D01*
X130910476Y-72858333D01*
X130958095Y-72763095D01*
X130958095Y-72667857D01*
X130910476Y-72572619D01*
X130862857Y-72525000D01*
X130767619Y-72477380D01*
X130529523Y-72477380D01*
X130386666Y-72525000D01*
X130005714Y-73191666D02*
X129529523Y-73191666D01*
X130100952Y-73477380D02*
X129767619Y-72477380D01*
X129434285Y-73477380D01*
X128624761Y-73477380D02*
X129100952Y-73477380D01*
X129100952Y-72477380D01*
X128291428Y-72953571D02*
X127958095Y-72953571D01*
X127815238Y-73477380D02*
X128291428Y-73477380D01*
X128291428Y-72477380D01*
X127815238Y-72477380D01*
X126624761Y-73477380D02*
X126624761Y-72477380D01*
X126053333Y-73477380D01*
X126053333Y-72477380D01*
X125386666Y-72477380D02*
X125196190Y-72477380D01*
X125100952Y-72525000D01*
X125005714Y-72620238D01*
X124958095Y-72810714D01*
X124958095Y-73144047D01*
X125005714Y-73334523D01*
X125100952Y-73429761D01*
X125196190Y-73477380D01*
X125386666Y-73477380D01*
X125481904Y-73429761D01*
X125577142Y-73334523D01*
X125624761Y-73144047D01*
X125624761Y-72810714D01*
X125577142Y-72620238D01*
X125481904Y-72525000D01*
X125386666Y-72477380D01*
X124672380Y-72477380D02*
X124100952Y-72477380D01*
X124386666Y-73477380D02*
X124386666Y-72477380D01*
X123005714Y-73477380D02*
X123005714Y-72477380D01*
X122624761Y-72477380D01*
X122529523Y-72525000D01*
X122481904Y-72572619D01*
X122434285Y-72667857D01*
X122434285Y-72810714D01*
X122481904Y-72905952D01*
X122529523Y-72953571D01*
X122624761Y-73001190D01*
X123005714Y-73001190D01*
X122005714Y-72953571D02*
X121672380Y-72953571D01*
X121529523Y-73477380D02*
X122005714Y-73477380D01*
X122005714Y-72477380D01*
X121529523Y-72477380D01*
X120529523Y-73477380D02*
X120862857Y-73001190D01*
X121100952Y-73477380D02*
X121100952Y-72477380D01*
X120720000Y-72477380D01*
X120624761Y-72525000D01*
X120577142Y-72572619D01*
X120529523Y-72667857D01*
X120529523Y-72810714D01*
X120577142Y-72905952D01*
X120624761Y-72953571D01*
X120720000Y-73001190D01*
X121100952Y-73001190D01*
X120100952Y-73477380D02*
X120100952Y-72477380D01*
X119767619Y-73191666D01*
X119434285Y-72477380D01*
X119434285Y-73477380D01*
X118958095Y-73477380D02*
X118958095Y-72477380D01*
X118624761Y-72477380D02*
X118053333Y-72477380D01*
X118339047Y-73477380D02*
X118339047Y-72477380D01*
X117862857Y-72477380D02*
X117291428Y-72477380D01*
X117577142Y-73477380D02*
X117577142Y-72477380D01*
X116958095Y-72953571D02*
X116624761Y-72953571D01*
X116481904Y-73477380D02*
X116958095Y-73477380D01*
X116958095Y-72477380D01*
X116481904Y-72477380D01*
X116053333Y-73477380D02*
X116053333Y-72477380D01*
X115815238Y-72477380D01*
X115672380Y-72525000D01*
X115577142Y-72620238D01*
X115529523Y-72715476D01*
X115481904Y-72905952D01*
X115481904Y-73048809D01*
X115529523Y-73239285D01*
X115577142Y-73334523D01*
X115672380Y-73429761D01*
X115815238Y-73477380D01*
X116053333Y-73477380D01*
M02*
