%TF.GenerationSoftware,KiCad,Pcbnew,(6.0.2)*%
%TF.CreationDate,2022-04-07T06:34:10-06:00*%
%TF.ProjectId,MacPortable_THTV1,4d616350-6f72-4746-9162-6c655f544854,rev?*%
%TF.SameCoordinates,Original*%
%TF.FileFunction,Soldermask,Top*%
%TF.FilePolarity,Negative*%
%FSLAX46Y46*%
G04 Gerber Fmt 4.6, Leading zero omitted, Abs format (unit mm)*
G04 Created by KiCad (PCBNEW (6.0.2)) date 2022-04-07 06:34:10*
%MOMM*%
%LPD*%
G01*
G04 APERTURE LIST*
G04 Aperture macros list*
%AMRoundRect*
0 Rectangle with rounded corners*
0 $1 Rounding radius*
0 $2 $3 $4 $5 $6 $7 $8 $9 X,Y pos of 4 corners*
0 Add a 4 corners polygon primitive as box body*
4,1,4,$2,$3,$4,$5,$6,$7,$8,$9,$2,$3,0*
0 Add four circle primitives for the rounded corners*
1,1,$1+$1,$2,$3*
1,1,$1+$1,$4,$5*
1,1,$1+$1,$6,$7*
1,1,$1+$1,$8,$9*
0 Add four rect primitives between the rounded corners*
20,1,$1+$1,$2,$3,$4,$5,0*
20,1,$1+$1,$4,$5,$6,$7,0*
20,1,$1+$1,$6,$7,$8,$9,0*
20,1,$1+$1,$8,$9,$2,$3,0*%
G04 Aperture macros list end*
%ADD10C,0.100000*%
%ADD11RoundRect,0.250001X0.462499X0.624999X-0.462499X0.624999X-0.462499X-0.624999X0.462499X-0.624999X0*%
%ADD12RoundRect,0.250001X0.624999X-0.462499X0.624999X0.462499X-0.624999X0.462499X-0.624999X-0.462499X0*%
%ADD13R,1.700000X1.700000*%
%ADD14O,1.700000X1.700000*%
%ADD15O,3.500000X3.500000*%
%ADD16R,2.000000X1.905000*%
%ADD17O,2.000000X1.905000*%
%ADD18R,1.800000X1.800000*%
%ADD19O,1.800000X1.800000*%
%ADD20C,3.200000*%
%ADD21RoundRect,0.412500X-0.412500X-0.412500X0.412500X-0.412500X0.412500X0.412500X-0.412500X0.412500X0*%
%ADD22C,1.650000*%
%ADD23R,0.550000X2.910000*%
%ADD24R,1.000000X0.500000*%
%ADD25R,0.780000X0.720000*%
%ADD26R,1.200000X1.050000*%
%ADD27R,2.390000X1.050000*%
%ADD28R,1.080000X1.050000*%
%ADD29C,1.270000*%
%ADD30C,1.600000*%
%ADD31O,1.600000X1.600000*%
%ADD32C,1.400000*%
%ADD33O,1.400000X1.400000*%
%ADD34R,1.600000X1.600000*%
G04 APERTURE END LIST*
D10*
X161381440Y-132107940D02*
X154980640Y-132107940D01*
X154980640Y-132107940D02*
X154980640Y-122085100D01*
X154980640Y-122085100D02*
X161381440Y-122085100D01*
X161381440Y-122085100D02*
X161381440Y-132107940D01*
G36*
X161381440Y-132107940D02*
G01*
X154980640Y-132107940D01*
X154980640Y-122085100D01*
X161381440Y-122085100D01*
X161381440Y-132107940D01*
G37*
X161381440Y-132107940D02*
X154980640Y-132107940D01*
X154980640Y-122085100D01*
X161381440Y-122085100D01*
X161381440Y-132107940D01*
D11*
%TO.C,C1*%
X138069980Y-131361180D03*
X135094980Y-131361180D03*
%TD*%
D12*
%TO.C,C2*%
X123736100Y-80180840D03*
X123736100Y-77205840D03*
%TD*%
D13*
%TO.C,J2*%
X112156240Y-117589300D03*
D14*
X109616240Y-117589300D03*
X112156240Y-115049300D03*
X109616240Y-115049300D03*
X112156240Y-112509300D03*
X109616240Y-112509300D03*
X112156240Y-109969300D03*
X109616240Y-109969300D03*
X112156240Y-107429300D03*
X109616240Y-107429300D03*
X112156240Y-104889300D03*
X109616240Y-104889300D03*
X112156240Y-102349300D03*
X109616240Y-102349300D03*
X112156240Y-99809300D03*
X109616240Y-99809300D03*
X112156240Y-97269300D03*
X109616240Y-97269300D03*
X112156240Y-94729300D03*
X109616240Y-94729300D03*
X112156240Y-92189300D03*
X109616240Y-92189300D03*
X112156240Y-89649300D03*
X109616240Y-89649300D03*
X112156240Y-87109300D03*
X109616240Y-87109300D03*
X112156240Y-84569300D03*
X109616240Y-84569300D03*
X112156240Y-82029300D03*
X109616240Y-82029300D03*
X112156240Y-79489300D03*
X109616240Y-79489300D03*
X112156240Y-76949300D03*
X109616240Y-76949300D03*
%TD*%
D15*
%TO.C,U1*%
X158552020Y-127096520D03*
D16*
X141892020Y-124556520D03*
D17*
X141892020Y-127096520D03*
X141892020Y-129636520D03*
%TD*%
D18*
%TO.C,D1*%
X121353580Y-132999480D03*
D19*
X121353580Y-122839480D03*
%TD*%
D20*
%TO.C,REF\u002A\u002A*%
X114800380Y-64041020D03*
%TD*%
%TO.C,REF\u002A\u002A*%
X114787680Y-130121660D03*
%TD*%
D21*
%TO.C,BP1*%
X136210040Y-64513460D03*
D22*
X136210040Y-67053460D03*
X136210040Y-69593460D03*
X136210040Y-72133460D03*
X136210040Y-74673460D03*
X136210040Y-77213460D03*
X136210040Y-79753460D03*
X136210040Y-82293460D03*
X136210040Y-84833460D03*
X136210040Y-87373460D03*
X136210040Y-89913460D03*
X136210040Y-92453460D03*
X136210040Y-94993460D03*
X136210040Y-97533460D03*
X136210040Y-100073460D03*
X136210040Y-102613460D03*
X136210040Y-105153460D03*
X136210040Y-107693460D03*
X136210040Y-110233460D03*
X136210040Y-112773460D03*
X151450040Y-112773460D03*
X151450040Y-110233460D03*
X151450040Y-107693460D03*
X151450040Y-105153460D03*
X151450040Y-102613460D03*
X151450040Y-100073460D03*
X151450040Y-97533460D03*
X151450040Y-94993460D03*
X151450040Y-92453460D03*
X151450040Y-89913460D03*
X151450040Y-87373460D03*
X151450040Y-84833460D03*
X151450040Y-82293460D03*
X151450040Y-79753460D03*
X151450040Y-77213460D03*
X151450040Y-74673460D03*
X151450040Y-72133460D03*
X151450040Y-69593460D03*
X151450040Y-67053460D03*
X151450040Y-64513460D03*
%TD*%
D23*
%TO.C,J3*%
X155209460Y-90442240D03*
X155209460Y-86252240D03*
D24*
X162444460Y-84747240D03*
X162444460Y-85847240D03*
X162444460Y-86947240D03*
X162444460Y-88047240D03*
X162444460Y-89147240D03*
X162444460Y-90247240D03*
X162444460Y-91347240D03*
X162444460Y-92447240D03*
D25*
X159764460Y-82987240D03*
D26*
X156454460Y-93622240D03*
D27*
X159639460Y-93622240D03*
D26*
X155884460Y-82977240D03*
D28*
X158494460Y-82987240D03*
%TD*%
D29*
%TO.C,F1*%
X131361180Y-132946140D03*
X126281180Y-131803140D03*
%TD*%
D11*
%TO.C,C3*%
X130107080Y-127815340D03*
X127132080Y-127815340D03*
%TD*%
D30*
%TO.C,R1*%
X138460480Y-123616720D03*
D31*
X128300480Y-123616720D03*
%TD*%
D32*
%TO.C,R2*%
X137772140Y-127850900D03*
D33*
X132692140Y-127850900D03*
%TD*%
D34*
%TO.C,U2*%
X119697500Y-83497420D03*
D31*
X119697500Y-86037420D03*
X119697500Y-88577420D03*
X119697500Y-91117420D03*
X119697500Y-93657420D03*
X119697500Y-96197420D03*
X119697500Y-98737420D03*
X119697500Y-101277420D03*
X119697500Y-103817420D03*
X119697500Y-106357420D03*
X127317500Y-106357420D03*
X127317500Y-103817420D03*
X127317500Y-101277420D03*
X127317500Y-98737420D03*
X127317500Y-96197420D03*
X127317500Y-93657420D03*
X127317500Y-91117420D03*
X127317500Y-88577420D03*
X127317500Y-86037420D03*
X127317500Y-83497420D03*
%TD*%
M02*
