M48
; DRILL file {KiCad (6.0.2)} date Thu Apr  7 06:34:11 2022
; FORMAT={-:-/ absolute / inch / decimal}
; #@! TF.CreationDate,2022-04-07T06:34:11-06:00
; #@! TF.GenerationSoftware,Kicad,Pcbnew,(6.0.2)
; #@! TF.FileFunction,Plated,1,2,PTH
FMAT,2
INCH
; #@! TA.AperFunction,Plated,PTH,ViaDrill
T1C0.0157
; #@! TA.AperFunction,Plated,PTH,ComponentDrill
T2C0.0276
; #@! TA.AperFunction,Plated,PTH,ComponentDrill
T3C0.0280
; #@! TA.AperFunction,Plated,PTH,ComponentDrill
T4C0.0315
; #@! TA.AperFunction,Plated,PTH,ComponentDrill
T5C0.0354
; #@! TA.AperFunction,Plated,PTH,ComponentDrill
T6C0.0394
; #@! TA.AperFunction,Plated,PTH,ComponentDrill
T7C0.0433
%
G90
G05
T1
X4.2791Y-5.2272
X4.2857Y-4.9376
X4.3611Y-2.7289
X4.561Y-4.4849
X4.6736Y-4.7403
X4.6935Y-5.0327
X4.6988Y-4.9138
X4.7182Y-4.3277
X4.7907Y-2.7289
X4.8071Y-5.0341
X4.8169Y-3.3879
X4.8523Y-4.9111
X4.8599Y-4.186
X4.8616Y-4.7171
X4.8927Y-3.4347
X4.9349Y-4.8331
X4.9349Y-4.8852
X5.0081Y-4.494
X5.0516Y-5.296
X5.0808Y-3.9227
X5.0814Y-3.6937
X5.0896Y-4.4184
X5.0957Y-4.6068
X5.0994Y-3.5808
X5.1119Y-3.4337
X5.1333Y-3.6501
X5.1454Y-3.4023
X5.1551Y-4.1332
X5.1627Y-3.8903
X5.1838Y-3.494
X5.1838Y-3.5981
X5.1877Y-3.3439
X5.1886Y-4.0427
X5.1926Y-4.5099
X5.2168Y-3.2816
X5.2586Y-3.9726
X5.2609Y-4.1753
X5.2719Y-2.9863
X5.2831Y-3.0399
X5.2898Y-2.6582
X5.2898Y-2.8624
X5.2905Y-2.759
X5.2976Y-3.7584
X5.3241Y-5.0643
X5.4218Y-3.5105
X5.4316Y-3.2432
X5.4497Y-3.4112
X5.5382Y-3.6222
X5.5703Y-3.5808
X5.5742Y-3.6782
X5.6598Y-2.7721
X5.6637Y-2.5995
X5.6821Y-5.2867
X5.8875Y-3.0666
X6.0551Y-3.3563
X6.1279Y-2.7763
X6.1372Y-3.1313
X6.1505Y-4.5309
X6.1639Y-5.1439
X6.1666Y-4.8638
X6.1707Y-3.4025
X6.2048Y-4.3951
X6.2367Y-3.1366
X6.2398Y-3.553
X6.2408Y-3.5959
X6.2738Y-2.9111
X6.2982Y-5.1359
X6.3019Y-3.4671
X6.3053Y-4.863
T2
X5.2241Y-5.0335
X5.4241Y-5.0335
T3
X4.9717Y-5.1891
X5.1717Y-5.2341
T4
X4.7125Y-3.2873
X4.7125Y-3.3873
X4.7125Y-3.4873
X4.7125Y-3.5873
X4.7125Y-3.6873
X4.7125Y-3.7873
X4.7125Y-3.8873
X4.7125Y-3.9873
X4.7125Y-4.0873
X4.7125Y-4.1873
X5.0125Y-3.2873
X5.0125Y-3.3873
X5.0125Y-3.4873
X5.0125Y-3.5873
X5.0125Y-3.6873
X5.0125Y-3.7873
X5.0125Y-3.8873
X5.0125Y-3.9873
X5.0125Y-4.0873
X5.0125Y-4.1873
X5.0512Y-4.8668
X5.4512Y-4.8668
T5
X4.7777Y-4.8362
X4.7777Y-5.2362
X5.3626Y-2.5399
X5.3626Y-2.6399
X5.3626Y-2.7399
X5.3626Y-2.8399
X5.3626Y-2.9399
X5.3626Y-3.0399
X5.3626Y-3.1399
X5.3626Y-3.2399
X5.3626Y-3.3399
X5.3626Y-3.4399
X5.3626Y-3.5399
X5.3626Y-3.6399
X5.3626Y-3.7399
X5.3626Y-3.8399
X5.3626Y-3.9399
X5.3626Y-4.0399
X5.3626Y-4.1399
X5.3626Y-4.2399
X5.3626Y-4.3399
X5.3626Y-4.4399
X5.9626Y-2.5399
X5.9626Y-2.6399
X5.9626Y-2.7399
X5.9626Y-2.8399
X5.9626Y-2.9399
X5.9626Y-3.0399
X5.9626Y-3.1399
X5.9626Y-3.2399
X5.9626Y-3.3399
X5.9626Y-3.4399
X5.9626Y-3.5399
X5.9626Y-3.6399
X5.9626Y-3.7399
X5.9626Y-3.8399
X5.9626Y-3.9399
X5.9626Y-4.0399
X5.9626Y-4.1399
X5.9626Y-4.2399
X5.9626Y-4.3399
X5.9626Y-4.4399
T6
X4.3156Y-3.0295
X4.3156Y-3.1295
X4.3156Y-3.2295
X4.3156Y-3.3295
X4.3156Y-3.4295
X4.3156Y-3.5295
X4.3156Y-3.6295
X4.3156Y-3.7295
X4.3156Y-3.8295
X4.3156Y-3.9295
X4.3156Y-4.0295
X4.3156Y-4.1295
X4.3156Y-4.2295
X4.3156Y-4.3295
X4.3156Y-4.4295
X4.3156Y-4.5295
X4.3156Y-4.6295
X4.4156Y-3.0295
X4.4156Y-3.1295
X4.4156Y-3.2295
X4.4156Y-3.3295
X4.4156Y-3.4295
X4.4156Y-3.5295
X4.4156Y-3.6295
X4.4156Y-3.7295
X4.4156Y-3.8295
X4.4156Y-3.9295
X4.4156Y-4.0295
X4.4156Y-4.1295
X4.4156Y-4.2295
X4.4156Y-4.3295
X4.4156Y-4.4295
X4.4156Y-4.5295
X4.4156Y-4.6295
T7
X5.5863Y-4.9038
X5.5863Y-5.0038
X5.5863Y-5.1038
T0
M30
