%TF.GenerationSoftware,KiCad,Pcbnew,(6.0.2)*%
%TF.CreationDate,2022-04-07T06:34:10-06:00*%
%TF.ProjectId,MacPortable_THTV1,4d616350-6f72-4746-9162-6c655f544854,rev?*%
%TF.SameCoordinates,Original*%
%TF.FileFunction,Legend,Top*%
%TF.FilePolarity,Positive*%
%FSLAX46Y46*%
G04 Gerber Fmt 4.6, Leading zero omitted, Abs format (unit mm)*
G04 Created by KiCad (PCBNEW (6.0.2)) date 2022-04-07 06:34:10*
%MOMM*%
%LPD*%
G01*
G04 APERTURE LIST*
%ADD10C,0.800000*%
%ADD11C,0.150000*%
%ADD12C,0.120000*%
G04 APERTURE END LIST*
D10*
X127894970Y-80467200D02*
G75*
G03*
X127894970Y-80467200I-562230J0D01*
G01*
D11*
X110865920Y-96034860D02*
X110865920Y-98574860D01*
X110865920Y-98574860D02*
X113405920Y-98574860D01*
X113405920Y-96034860D02*
X110865920Y-96034860D01*
D10*
X120343550Y-80604360D02*
G75*
G03*
X120343550Y-80604360I-562230J0D01*
G01*
D11*
X115666780Y-99217241D02*
X114666780Y-99217241D01*
X115666780Y-98645813D01*
X114666780Y-98645813D01*
X115666780Y-98026765D02*
X115619161Y-98122003D01*
X115571542Y-98169622D01*
X115476304Y-98217241D01*
X115190590Y-98217241D01*
X115095352Y-98169622D01*
X115047733Y-98122003D01*
X115000114Y-98026765D01*
X115000114Y-97883908D01*
X115047733Y-97788670D01*
X115095352Y-97741051D01*
X115190590Y-97693432D01*
X115476304Y-97693432D01*
X115571542Y-97741051D01*
X115619161Y-97788670D01*
X115666780Y-97883908D01*
X115666780Y-98026765D01*
X115000114Y-97407718D02*
X115000114Y-97026765D01*
X114666780Y-97264860D02*
X115523923Y-97264860D01*
X115619161Y-97217241D01*
X115666780Y-97122003D01*
X115666780Y-97026765D01*
X115619161Y-96264860D02*
X115666780Y-96360099D01*
X115666780Y-96550575D01*
X115619161Y-96645813D01*
X115571542Y-96693432D01*
X115476304Y-96741051D01*
X115190590Y-96741051D01*
X115095352Y-96693432D01*
X115047733Y-96645813D01*
X115000114Y-96550575D01*
X115000114Y-96360099D01*
X115047733Y-96264860D01*
X115666780Y-95836289D02*
X114666780Y-95836289D01*
X115666780Y-95407718D02*
X115142971Y-95407718D01*
X115047733Y-95455337D01*
X115000114Y-95550575D01*
X115000114Y-95693432D01*
X115047733Y-95788670D01*
X115095352Y-95836289D01*
X122959880Y-100664067D02*
X123674166Y-100664067D01*
X123817023Y-100711686D01*
X123912261Y-100806924D01*
X123959880Y-100949781D01*
X123959880Y-101045020D01*
X123959880Y-99711686D02*
X123959880Y-100187877D01*
X122959880Y-100187877D01*
X123864642Y-98806924D02*
X123912261Y-98854543D01*
X123959880Y-98997400D01*
X123959880Y-99092639D01*
X123912261Y-99235496D01*
X123817023Y-99330734D01*
X123721785Y-99378353D01*
X123531309Y-99425972D01*
X123388452Y-99425972D01*
X123197976Y-99378353D01*
X123102738Y-99330734D01*
X123007500Y-99235496D01*
X122959880Y-99092639D01*
X122959880Y-98997400D01*
X123007500Y-98854543D01*
X123055119Y-98806924D01*
X122959880Y-98092639D02*
X123674166Y-98092639D01*
X123817023Y-98140258D01*
X123912261Y-98235496D01*
X123959880Y-98378353D01*
X123959880Y-98473591D01*
X123959880Y-97140258D02*
X123959880Y-97616448D01*
X122959880Y-97616448D01*
X123864642Y-96235496D02*
X123912261Y-96283115D01*
X123959880Y-96425972D01*
X123959880Y-96521210D01*
X123912261Y-96664067D01*
X123817023Y-96759305D01*
X123721785Y-96806924D01*
X123531309Y-96854543D01*
X123388452Y-96854543D01*
X123197976Y-96806924D01*
X123102738Y-96759305D01*
X123007500Y-96664067D01*
X122959880Y-96521210D01*
X122959880Y-96425972D01*
X123007500Y-96283115D01*
X123055119Y-96235496D01*
X122959880Y-95521210D02*
X123674166Y-95521210D01*
X123817023Y-95568829D01*
X123912261Y-95664067D01*
X123959880Y-95806924D01*
X123959880Y-95902162D01*
X123959880Y-94568829D02*
X123959880Y-95045020D01*
X122959880Y-95045020D01*
X123864642Y-93664067D02*
X123912261Y-93711686D01*
X123959880Y-93854543D01*
X123959880Y-93949781D01*
X123912261Y-94092639D01*
X123817023Y-94187877D01*
X123721785Y-94235496D01*
X123531309Y-94283115D01*
X123388452Y-94283115D01*
X123197976Y-94235496D01*
X123102738Y-94187877D01*
X123007500Y-94092639D01*
X122959880Y-93949781D01*
X122959880Y-93854543D01*
X123007500Y-93711686D01*
X123055119Y-93664067D01*
X122959880Y-92949781D02*
X123674166Y-92949781D01*
X123817023Y-92997400D01*
X123912261Y-93092639D01*
X123959880Y-93235496D01*
X123959880Y-93330734D01*
X123959880Y-91997400D02*
X123959880Y-92473591D01*
X122959880Y-92473591D01*
X123864642Y-91092639D02*
X123912261Y-91140258D01*
X123959880Y-91283115D01*
X123959880Y-91378353D01*
X123912261Y-91521210D01*
X123817023Y-91616448D01*
X123721785Y-91664067D01*
X123531309Y-91711686D01*
X123388452Y-91711686D01*
X123197976Y-91664067D01*
X123102738Y-91616448D01*
X123007500Y-91521210D01*
X122959880Y-91378353D01*
X122959880Y-91283115D01*
X123007500Y-91140258D01*
X123055119Y-91092639D01*
X159933900Y-78137352D02*
X158933900Y-78137352D01*
X159933900Y-77708780D02*
X159410091Y-77708780D01*
X159314853Y-77756400D01*
X159267234Y-77851638D01*
X159267234Y-77994495D01*
X159314853Y-78089733D01*
X159362472Y-78137352D01*
X159267234Y-77375447D02*
X159267234Y-76994495D01*
X158933900Y-77232590D02*
X159791043Y-77232590D01*
X159886281Y-77184971D01*
X159933900Y-77089733D01*
X159933900Y-76994495D01*
X159267234Y-76804019D02*
X159267234Y-76423066D01*
X158933900Y-76661161D02*
X159791043Y-76661161D01*
X159886281Y-76613542D01*
X159933900Y-76518304D01*
X159933900Y-76423066D01*
X159267234Y-76089733D02*
X160267234Y-76089733D01*
X159314853Y-76089733D02*
X159267234Y-75994495D01*
X159267234Y-75804019D01*
X159314853Y-75708780D01*
X159362472Y-75661161D01*
X159457710Y-75613542D01*
X159743424Y-75613542D01*
X159838662Y-75661161D01*
X159886281Y-75708780D01*
X159933900Y-75804019D01*
X159933900Y-75994495D01*
X159886281Y-76089733D01*
X159886281Y-75232590D02*
X159933900Y-75137352D01*
X159933900Y-74946876D01*
X159886281Y-74851638D01*
X159791043Y-74804019D01*
X159743424Y-74804019D01*
X159648186Y-74851638D01*
X159600567Y-74946876D01*
X159600567Y-75089733D01*
X159552948Y-75184971D01*
X159457710Y-75232590D01*
X159410091Y-75232590D01*
X159314853Y-75184971D01*
X159267234Y-75089733D01*
X159267234Y-74946876D01*
X159314853Y-74851638D01*
X159838662Y-74375447D02*
X159886281Y-74327828D01*
X159933900Y-74375447D01*
X159886281Y-74423066D01*
X159838662Y-74375447D01*
X159933900Y-74375447D01*
X159314853Y-74375447D02*
X159362472Y-74327828D01*
X159410091Y-74375447D01*
X159362472Y-74423066D01*
X159314853Y-74375447D01*
X159410091Y-74375447D01*
X158886281Y-73184971D02*
X160171996Y-74042114D01*
X158886281Y-72137352D02*
X160171996Y-72994495D01*
X159933900Y-71375447D02*
X159410091Y-71375447D01*
X159314853Y-71423066D01*
X159267234Y-71518304D01*
X159267234Y-71708780D01*
X159314853Y-71804019D01*
X159886281Y-71375447D02*
X159933900Y-71470685D01*
X159933900Y-71708780D01*
X159886281Y-71804019D01*
X159791043Y-71851638D01*
X159695805Y-71851638D01*
X159600567Y-71804019D01*
X159552948Y-71708780D01*
X159552948Y-71470685D01*
X159505329Y-71375447D01*
X159267234Y-70899257D02*
X159933900Y-70899257D01*
X159362472Y-70899257D02*
X159314853Y-70851638D01*
X159267234Y-70756400D01*
X159267234Y-70613542D01*
X159314853Y-70518304D01*
X159410091Y-70470685D01*
X159933900Y-70470685D01*
X159933900Y-69565923D02*
X158933900Y-69565923D01*
X159886281Y-69565923D02*
X159933900Y-69661161D01*
X159933900Y-69851638D01*
X159886281Y-69946876D01*
X159838662Y-69994495D01*
X159743424Y-70042114D01*
X159457710Y-70042114D01*
X159362472Y-69994495D01*
X159314853Y-69946876D01*
X159267234Y-69851638D01*
X159267234Y-69661161D01*
X159314853Y-69565923D01*
X159933900Y-69089733D02*
X159267234Y-69089733D01*
X159457710Y-69089733D02*
X159362472Y-69042114D01*
X159314853Y-68994495D01*
X159267234Y-68899257D01*
X159267234Y-68804019D01*
X159933900Y-68327828D02*
X159886281Y-68423066D01*
X159838662Y-68470685D01*
X159743424Y-68518304D01*
X159457710Y-68518304D01*
X159362472Y-68470685D01*
X159314853Y-68423066D01*
X159267234Y-68327828D01*
X159267234Y-68184971D01*
X159314853Y-68089733D01*
X159362472Y-68042114D01*
X159457710Y-67994495D01*
X159743424Y-67994495D01*
X159838662Y-68042114D01*
X159886281Y-68089733D01*
X159933900Y-68184971D01*
X159933900Y-68327828D01*
X159933900Y-67137352D02*
X158933900Y-67137352D01*
X159886281Y-67137352D02*
X159933900Y-67232590D01*
X159933900Y-67423066D01*
X159886281Y-67518304D01*
X159838662Y-67565923D01*
X159743424Y-67613542D01*
X159457710Y-67613542D01*
X159362472Y-67565923D01*
X159314853Y-67518304D01*
X159267234Y-67423066D01*
X159267234Y-67232590D01*
X159314853Y-67137352D01*
X159933900Y-66232590D02*
X159410091Y-66232590D01*
X159314853Y-66280209D01*
X159267234Y-66375447D01*
X159267234Y-66565923D01*
X159314853Y-66661161D01*
X159886281Y-66232590D02*
X159933900Y-66327828D01*
X159933900Y-66565923D01*
X159886281Y-66661161D01*
X159791043Y-66708780D01*
X159695805Y-66708780D01*
X159600567Y-66661161D01*
X159552948Y-66565923D01*
X159552948Y-66327828D01*
X159505329Y-66232590D01*
X159838662Y-65756400D02*
X159886281Y-65708780D01*
X159933900Y-65756400D01*
X159886281Y-65804019D01*
X159838662Y-65756400D01*
X159933900Y-65756400D01*
X159267234Y-65375447D02*
X159933900Y-65184971D01*
X159457710Y-64994495D01*
X159933900Y-64804019D01*
X159267234Y-64613542D01*
X159933900Y-64089733D02*
X159886281Y-64184971D01*
X159838662Y-64232590D01*
X159743424Y-64280209D01*
X159457710Y-64280209D01*
X159362472Y-64232590D01*
X159314853Y-64184971D01*
X159267234Y-64089733D01*
X159267234Y-63946876D01*
X159314853Y-63851638D01*
X159362472Y-63804019D01*
X159457710Y-63756400D01*
X159743424Y-63756400D01*
X159838662Y-63804019D01*
X159886281Y-63851638D01*
X159933900Y-63946876D01*
X159933900Y-64089733D01*
X159933900Y-63327828D02*
X159267234Y-63327828D01*
X159457710Y-63327828D02*
X159362472Y-63280209D01*
X159314853Y-63232590D01*
X159267234Y-63137352D01*
X159267234Y-63042114D01*
X159933900Y-62708780D02*
X158933900Y-62708780D01*
X159552948Y-62613542D02*
X159933900Y-62327828D01*
X159267234Y-62327828D02*
X159648186Y-62708780D01*
X155651916Y-113923981D02*
X155604297Y-114019220D01*
X155604297Y-114209696D01*
X155651916Y-114304934D01*
X155747154Y-114400172D01*
X155842392Y-114447791D01*
X156032868Y-114447791D01*
X156128106Y-114400172D01*
X156223344Y-114304934D01*
X156270963Y-114209696D01*
X156270963Y-114019220D01*
X156223344Y-113923981D01*
X155270963Y-114114458D02*
X155318582Y-114352553D01*
X155461440Y-114590648D01*
X155699535Y-114733505D01*
X155937630Y-114781124D01*
X156175725Y-114733505D01*
X156413820Y-114590648D01*
X156556678Y-114352553D01*
X156604297Y-114114458D01*
X156556678Y-113876362D01*
X156413820Y-113638267D01*
X156175725Y-113495410D01*
X155937630Y-113447791D01*
X155699535Y-113495410D01*
X155461440Y-113638267D01*
X155318582Y-113876362D01*
X155270963Y-114114458D01*
X155413820Y-112400172D02*
X155413820Y-111828743D01*
X156413820Y-112114458D02*
X155413820Y-112114458D01*
X156366201Y-111114458D02*
X156413820Y-111209696D01*
X156413820Y-111400172D01*
X156366201Y-111495410D01*
X156270963Y-111543029D01*
X155890011Y-111543029D01*
X155794773Y-111495410D01*
X155747154Y-111400172D01*
X155747154Y-111209696D01*
X155794773Y-111114458D01*
X155890011Y-111066839D01*
X155985249Y-111066839D01*
X156080487Y-111543029D01*
X156366201Y-110209696D02*
X156413820Y-110304934D01*
X156413820Y-110495410D01*
X156366201Y-110590648D01*
X156318582Y-110638267D01*
X156223344Y-110685886D01*
X155937630Y-110685886D01*
X155842392Y-110638267D01*
X155794773Y-110590648D01*
X155747154Y-110495410D01*
X155747154Y-110304934D01*
X155794773Y-110209696D01*
X156413820Y-109781124D02*
X155413820Y-109781124D01*
X156413820Y-109352553D02*
X155890011Y-109352553D01*
X155794773Y-109400172D01*
X155747154Y-109495410D01*
X155747154Y-109638267D01*
X155794773Y-109733505D01*
X155842392Y-109781124D01*
X156413820Y-108114458D02*
X155413820Y-108114458D01*
X155794773Y-108114458D02*
X155747154Y-108019220D01*
X155747154Y-107828743D01*
X155794773Y-107733505D01*
X155842392Y-107685886D01*
X155937630Y-107638267D01*
X156223344Y-107638267D01*
X156318582Y-107685886D01*
X156366201Y-107733505D01*
X156413820Y-107828743D01*
X156413820Y-108019220D01*
X156366201Y-108114458D01*
X155747154Y-107304934D02*
X156413820Y-107066839D01*
X155747154Y-106828743D02*
X156413820Y-107066839D01*
X156651916Y-107162077D01*
X156699535Y-107209696D01*
X156747154Y-107304934D01*
X156128106Y-105733505D02*
X156128106Y-105257315D01*
X156413820Y-105828743D02*
X155413820Y-105495410D01*
X156413820Y-105162077D01*
X155747154Y-104828743D02*
X156413820Y-104828743D01*
X155842392Y-104828743D02*
X155794773Y-104781124D01*
X155747154Y-104685886D01*
X155747154Y-104543029D01*
X155794773Y-104447791D01*
X155890011Y-104400172D01*
X156413820Y-104400172D01*
X156413820Y-103495410D02*
X155413820Y-103495410D01*
X156366201Y-103495410D02*
X156413820Y-103590648D01*
X156413820Y-103781124D01*
X156366201Y-103876362D01*
X156318582Y-103923981D01*
X156223344Y-103971600D01*
X155937630Y-103971600D01*
X155842392Y-103923981D01*
X155794773Y-103876362D01*
X155747154Y-103781124D01*
X155747154Y-103590648D01*
X155794773Y-103495410D01*
X156413820Y-103019220D02*
X155747154Y-103019220D01*
X155937630Y-103019220D02*
X155842392Y-102971600D01*
X155794773Y-102923981D01*
X155747154Y-102828743D01*
X155747154Y-102733505D01*
X156413820Y-102257315D02*
X156366201Y-102352553D01*
X156318582Y-102400172D01*
X156223344Y-102447791D01*
X155937630Y-102447791D01*
X155842392Y-102400172D01*
X155794773Y-102352553D01*
X155747154Y-102257315D01*
X155747154Y-102114458D01*
X155794773Y-102019220D01*
X155842392Y-101971600D01*
X155937630Y-101923981D01*
X156223344Y-101923981D01*
X156318582Y-101971600D01*
X156366201Y-102019220D01*
X156413820Y-102114458D01*
X156413820Y-102257315D01*
X156413820Y-101066839D02*
X155413820Y-101066839D01*
X156366201Y-101066839D02*
X156413820Y-101162077D01*
X156413820Y-101352553D01*
X156366201Y-101447791D01*
X156318582Y-101495410D01*
X156223344Y-101543029D01*
X155937630Y-101543029D01*
X155842392Y-101495410D01*
X155794773Y-101447791D01*
X155747154Y-101352553D01*
X155747154Y-101162077D01*
X155794773Y-101066839D01*
X156413820Y-100162077D02*
X155890011Y-100162077D01*
X155794773Y-100209696D01*
X155747154Y-100304934D01*
X155747154Y-100495410D01*
X155794773Y-100590648D01*
X156366201Y-100162077D02*
X156413820Y-100257315D01*
X156413820Y-100495410D01*
X156366201Y-100590648D01*
X156270963Y-100638267D01*
X156175725Y-100638267D01*
X156080487Y-100590648D01*
X156032868Y-100495410D01*
X156032868Y-100257315D01*
X155985249Y-100162077D01*
X156366201Y-99638267D02*
X156413820Y-99638267D01*
X156509059Y-99685886D01*
X156556678Y-99733505D01*
X156413820Y-97971600D02*
X156413820Y-98447791D01*
X155413820Y-98447791D01*
X156413820Y-97162077D02*
X156413820Y-97638267D01*
X155413820Y-97638267D01*
X156318582Y-96257315D02*
X156366201Y-96304934D01*
X156413820Y-96447791D01*
X156413820Y-96543029D01*
X156366201Y-96685886D01*
X156270963Y-96781124D01*
X156175725Y-96828743D01*
X155985249Y-96876362D01*
X155842392Y-96876362D01*
X155651916Y-96828743D01*
X155556678Y-96781124D01*
X155461440Y-96685886D01*
X155413820Y-96543029D01*
X155413820Y-96447791D01*
X155461440Y-96304934D01*
X155509059Y-96257315D01*
X157738106Y-109304934D02*
X157738106Y-108828743D01*
X158023820Y-109400172D02*
X157023820Y-109066839D01*
X158023820Y-108733505D01*
X157357154Y-108400172D02*
X158357154Y-108400172D01*
X157404773Y-108400172D02*
X157357154Y-108304934D01*
X157357154Y-108114458D01*
X157404773Y-108019220D01*
X157452392Y-107971600D01*
X157547630Y-107923981D01*
X157833344Y-107923981D01*
X157928582Y-107971600D01*
X157976201Y-108019220D01*
X158023820Y-108114458D01*
X158023820Y-108304934D01*
X157976201Y-108400172D01*
X158023820Y-107495410D02*
X157357154Y-107495410D01*
X157547630Y-107495410D02*
X157452392Y-107447791D01*
X157404773Y-107400172D01*
X157357154Y-107304934D01*
X157357154Y-107209696D01*
X158023820Y-106876362D02*
X157357154Y-106876362D01*
X157023820Y-106876362D02*
X157071440Y-106923981D01*
X157119059Y-106876362D01*
X157071440Y-106828743D01*
X157023820Y-106876362D01*
X157119059Y-106876362D01*
X158023820Y-106257315D02*
X157976201Y-106352553D01*
X157880963Y-106400172D01*
X157023820Y-106400172D01*
X157119059Y-105162077D02*
X157071440Y-105114458D01*
X157023820Y-105019220D01*
X157023820Y-104781124D01*
X157071440Y-104685886D01*
X157119059Y-104638267D01*
X157214297Y-104590648D01*
X157309535Y-104590648D01*
X157452392Y-104638267D01*
X158023820Y-105209696D01*
X158023820Y-104590648D01*
X157023820Y-103971600D02*
X157023820Y-103876362D01*
X157071440Y-103781124D01*
X157119059Y-103733505D01*
X157214297Y-103685886D01*
X157404773Y-103638267D01*
X157642868Y-103638267D01*
X157833344Y-103685886D01*
X157928582Y-103733505D01*
X157976201Y-103781124D01*
X158023820Y-103876362D01*
X158023820Y-103971600D01*
X157976201Y-104066839D01*
X157928582Y-104114458D01*
X157833344Y-104162077D01*
X157642868Y-104209696D01*
X157404773Y-104209696D01*
X157214297Y-104162077D01*
X157119059Y-104114458D01*
X157071440Y-104066839D01*
X157023820Y-103971600D01*
X157119059Y-103257315D02*
X157071440Y-103209696D01*
X157023820Y-103114458D01*
X157023820Y-102876362D01*
X157071440Y-102781124D01*
X157119059Y-102733505D01*
X157214297Y-102685886D01*
X157309535Y-102685886D01*
X157452392Y-102733505D01*
X158023820Y-103304934D01*
X158023820Y-102685886D01*
X157119059Y-102304934D02*
X157071440Y-102257315D01*
X157023820Y-102162077D01*
X157023820Y-101923981D01*
X157071440Y-101828743D01*
X157119059Y-101781124D01*
X157214297Y-101733505D01*
X157309535Y-101733505D01*
X157452392Y-101781124D01*
X158023820Y-102352553D01*
X158023820Y-101733505D01*
X158633820Y-115566839D02*
X159633820Y-115233505D01*
X158633820Y-114900172D01*
X159586201Y-114185886D02*
X159633820Y-114281124D01*
X159633820Y-114471600D01*
X159586201Y-114566839D01*
X159490963Y-114614458D01*
X159110011Y-114614458D01*
X159014773Y-114566839D01*
X158967154Y-114471600D01*
X158967154Y-114281124D01*
X159014773Y-114185886D01*
X159110011Y-114138267D01*
X159205249Y-114138267D01*
X159300487Y-114614458D01*
X159633820Y-113709696D02*
X158967154Y-113709696D01*
X159157630Y-113709696D02*
X159062392Y-113662077D01*
X159014773Y-113614458D01*
X158967154Y-113519220D01*
X158967154Y-113423981D01*
X159586201Y-113138267D02*
X159633820Y-113043029D01*
X159633820Y-112852553D01*
X159586201Y-112757315D01*
X159490963Y-112709696D01*
X159443344Y-112709696D01*
X159348106Y-112757315D01*
X159300487Y-112852553D01*
X159300487Y-112995410D01*
X159252868Y-113090648D01*
X159157630Y-113138267D01*
X159110011Y-113138267D01*
X159014773Y-113090648D01*
X158967154Y-112995410D01*
X158967154Y-112852553D01*
X159014773Y-112757315D01*
X159633820Y-112281124D02*
X158967154Y-112281124D01*
X158633820Y-112281124D02*
X158681440Y-112328743D01*
X158729059Y-112281124D01*
X158681440Y-112233505D01*
X158633820Y-112281124D01*
X158729059Y-112281124D01*
X159633820Y-111662077D02*
X159586201Y-111757315D01*
X159538582Y-111804934D01*
X159443344Y-111852553D01*
X159157630Y-111852553D01*
X159062392Y-111804934D01*
X159014773Y-111757315D01*
X158967154Y-111662077D01*
X158967154Y-111519220D01*
X159014773Y-111423981D01*
X159062392Y-111376362D01*
X159157630Y-111328743D01*
X159443344Y-111328743D01*
X159538582Y-111376362D01*
X159586201Y-111423981D01*
X159633820Y-111519220D01*
X159633820Y-111662077D01*
X158967154Y-110900172D02*
X159633820Y-110900172D01*
X159062392Y-110900172D02*
X159014773Y-110852553D01*
X158967154Y-110757315D01*
X158967154Y-110614458D01*
X159014773Y-110519220D01*
X159110011Y-110471600D01*
X159633820Y-110471600D01*
X160014773Y-108947791D02*
X160014773Y-108995410D01*
X159967154Y-109090648D01*
X159871916Y-109138267D01*
X159395725Y-109138267D01*
X159300487Y-109185886D01*
X159252868Y-109281124D01*
X159205249Y-109185886D01*
X159110011Y-109138267D01*
X158633820Y-109138267D01*
X158538582Y-109090648D01*
X158490963Y-108995410D01*
X158490963Y-108947791D01*
X159110011Y-108233505D02*
X159110011Y-108566839D01*
X159633820Y-108566839D02*
X158633820Y-108566839D01*
X158633820Y-108090648D01*
X159633820Y-107185886D02*
X159633820Y-107757315D01*
X159633820Y-107471600D02*
X158633820Y-107471600D01*
X158776678Y-107566839D01*
X158871916Y-107662077D01*
X158919535Y-107757315D01*
X159538582Y-106757315D02*
X159586201Y-106709696D01*
X159633820Y-106757315D01*
X159586201Y-106804934D01*
X159538582Y-106757315D01*
X159633820Y-106757315D01*
X158633820Y-106423981D02*
X158633820Y-105852553D01*
X159633820Y-106138267D02*
X158633820Y-106138267D01*
X159633820Y-105519220D02*
X158633820Y-105519220D01*
X159014773Y-105519220D02*
X158967154Y-105423981D01*
X158967154Y-105233505D01*
X159014773Y-105138267D01*
X159062392Y-105090648D01*
X159157630Y-105043029D01*
X159443344Y-105043029D01*
X159538582Y-105090648D01*
X159586201Y-105138267D01*
X159633820Y-105233505D01*
X159633820Y-105423981D01*
X159586201Y-105519220D01*
X159348106Y-104662077D02*
X159348106Y-104185886D01*
X159633820Y-104757315D02*
X158633820Y-104423981D01*
X159633820Y-104090648D01*
X159538582Y-103757315D02*
X159586201Y-103709696D01*
X159633820Y-103757315D01*
X159586201Y-103804934D01*
X159538582Y-103757315D01*
X159633820Y-103757315D01*
X159633820Y-103281124D02*
X158633820Y-103281124D01*
X159348106Y-102947791D01*
X158633820Y-102614458D01*
X159633820Y-102614458D01*
X159633820Y-102138267D02*
X158633820Y-102138267D01*
X158633820Y-101757315D01*
X158681440Y-101662077D01*
X158729059Y-101614458D01*
X158824297Y-101566839D01*
X158967154Y-101566839D01*
X159062392Y-101614458D01*
X159110011Y-101662077D01*
X159157630Y-101757315D01*
X159157630Y-102138267D01*
X159538582Y-101138267D02*
X159586201Y-101090648D01*
X159633820Y-101138267D01*
X159586201Y-101185886D01*
X159538582Y-101138267D01*
X159633820Y-101138267D01*
X158633820Y-100804934D02*
X158633820Y-100233505D01*
X159633820Y-100519220D02*
X158633820Y-100519220D01*
X159633820Y-99900172D02*
X158633820Y-99900172D01*
X159110011Y-99900172D02*
X159110011Y-99328743D01*
X159633820Y-99328743D02*
X158633820Y-99328743D01*
X158633820Y-98995410D02*
X158633820Y-98423981D01*
X159633820Y-98709696D02*
X158633820Y-98709696D01*
X159538582Y-98090648D02*
X159586201Y-98043029D01*
X159633820Y-98090648D01*
X159586201Y-98138267D01*
X159538582Y-98090648D01*
X159633820Y-98090648D01*
X158633820Y-97757315D02*
X159633820Y-97423981D01*
X158633820Y-97090648D01*
X159633820Y-96233505D02*
X159633820Y-96804934D01*
X159633820Y-96519220D02*
X158633820Y-96519220D01*
X158776678Y-96614458D01*
X158871916Y-96709696D01*
X158919535Y-96804934D01*
X160014773Y-95900172D02*
X160014773Y-95852553D01*
X159967154Y-95757315D01*
X159871916Y-95709696D01*
X159395725Y-95709696D01*
X159300487Y-95662077D01*
X159252868Y-95566839D01*
X159205249Y-95662077D01*
X159110011Y-95709696D01*
X158633820Y-95709696D01*
X158538582Y-95757315D01*
X158490963Y-95852553D01*
X158490963Y-95900172D01*
X115909523Y-72248333D02*
X115861904Y-72200714D01*
X115766666Y-72057857D01*
X115719047Y-71962619D01*
X115671428Y-71819761D01*
X115623809Y-71581666D01*
X115623809Y-71391190D01*
X115671428Y-71153095D01*
X115719047Y-71010238D01*
X115766666Y-70915000D01*
X115861904Y-70772142D01*
X115909523Y-70724523D01*
X116861904Y-71772142D02*
X116814285Y-71819761D01*
X116671428Y-71867380D01*
X116576190Y-71867380D01*
X116433333Y-71819761D01*
X116338095Y-71724523D01*
X116290476Y-71629285D01*
X116242857Y-71438809D01*
X116242857Y-71295952D01*
X116290476Y-71105476D01*
X116338095Y-71010238D01*
X116433333Y-70915000D01*
X116576190Y-70867380D01*
X116671428Y-70867380D01*
X116814285Y-70915000D01*
X116861904Y-70962619D01*
X117861904Y-71772142D02*
X117814285Y-71819761D01*
X117671428Y-71867380D01*
X117576190Y-71867380D01*
X117433333Y-71819761D01*
X117338095Y-71724523D01*
X117290476Y-71629285D01*
X117242857Y-71438809D01*
X117242857Y-71295952D01*
X117290476Y-71105476D01*
X117338095Y-71010238D01*
X117433333Y-70915000D01*
X117576190Y-70867380D01*
X117671428Y-70867380D01*
X117814285Y-70915000D01*
X117861904Y-70962619D01*
X119385714Y-71343571D02*
X119528571Y-71391190D01*
X119576190Y-71438809D01*
X119623809Y-71534047D01*
X119623809Y-71676904D01*
X119576190Y-71772142D01*
X119528571Y-71819761D01*
X119433333Y-71867380D01*
X119052380Y-71867380D01*
X119052380Y-70867380D01*
X119385714Y-70867380D01*
X119480952Y-70915000D01*
X119528571Y-70962619D01*
X119576190Y-71057857D01*
X119576190Y-71153095D01*
X119528571Y-71248333D01*
X119480952Y-71295952D01*
X119385714Y-71343571D01*
X119052380Y-71343571D01*
X120242857Y-71391190D02*
X120242857Y-71867380D01*
X119909523Y-70867380D02*
X120242857Y-71391190D01*
X120576190Y-70867380D01*
X120909523Y-71486428D02*
X121671428Y-71486428D01*
X122147619Y-71867380D02*
X122147619Y-70867380D01*
X122719047Y-71867380D01*
X122719047Y-70867380D01*
X123766666Y-71772142D02*
X123719047Y-71819761D01*
X123576190Y-71867380D01*
X123480952Y-71867380D01*
X123338095Y-71819761D01*
X123242857Y-71724523D01*
X123195238Y-71629285D01*
X123147619Y-71438809D01*
X123147619Y-71295952D01*
X123195238Y-71105476D01*
X123242857Y-71010238D01*
X123338095Y-70915000D01*
X123480952Y-70867380D01*
X123576190Y-70867380D01*
X123719047Y-70915000D01*
X123766666Y-70962619D01*
X124195238Y-71486428D02*
X124957142Y-71486428D01*
X125385714Y-71819761D02*
X125528571Y-71867380D01*
X125766666Y-71867380D01*
X125861904Y-71819761D01*
X125909523Y-71772142D01*
X125957142Y-71676904D01*
X125957142Y-71581666D01*
X125909523Y-71486428D01*
X125861904Y-71438809D01*
X125766666Y-71391190D01*
X125576190Y-71343571D01*
X125480952Y-71295952D01*
X125433333Y-71248333D01*
X125385714Y-71153095D01*
X125385714Y-71057857D01*
X125433333Y-70962619D01*
X125480952Y-70915000D01*
X125576190Y-70867380D01*
X125814285Y-70867380D01*
X125957142Y-70915000D01*
X126338095Y-71581666D02*
X126814285Y-71581666D01*
X126242857Y-71867380D02*
X126576190Y-70867380D01*
X126909523Y-71867380D01*
X128433333Y-71200714D02*
X128433333Y-71867380D01*
X128195238Y-70819761D02*
X127957142Y-71534047D01*
X128576190Y-71534047D01*
X128957142Y-71772142D02*
X129004761Y-71819761D01*
X128957142Y-71867380D01*
X128909523Y-71819761D01*
X128957142Y-71772142D01*
X128957142Y-71867380D01*
X129623809Y-70867380D02*
X129719047Y-70867380D01*
X129814285Y-70915000D01*
X129861904Y-70962619D01*
X129909523Y-71057857D01*
X129957142Y-71248333D01*
X129957142Y-71486428D01*
X129909523Y-71676904D01*
X129861904Y-71772142D01*
X129814285Y-71819761D01*
X129719047Y-71867380D01*
X129623809Y-71867380D01*
X129528571Y-71819761D01*
X129480952Y-71772142D01*
X129433333Y-71676904D01*
X129385714Y-71486428D01*
X129385714Y-71248333D01*
X129433333Y-71057857D01*
X129480952Y-70962619D01*
X129528571Y-70915000D01*
X129623809Y-70867380D01*
X130290476Y-72248333D02*
X130338095Y-72200714D01*
X130433333Y-72057857D01*
X130480952Y-71962619D01*
X130528571Y-71819761D01*
X130576190Y-71581666D01*
X130576190Y-71391190D01*
X130528571Y-71153095D01*
X130480952Y-71010238D01*
X130433333Y-70915000D01*
X130338095Y-70772142D01*
X130290476Y-70724523D01*
X115361904Y-73429761D02*
X115504761Y-73477380D01*
X115742857Y-73477380D01*
X115838095Y-73429761D01*
X115885714Y-73382142D01*
X115933333Y-73286904D01*
X115933333Y-73191666D01*
X115885714Y-73096428D01*
X115838095Y-73048809D01*
X115742857Y-73001190D01*
X115552380Y-72953571D01*
X115457142Y-72905952D01*
X115409523Y-72858333D01*
X115361904Y-72763095D01*
X115361904Y-72667857D01*
X115409523Y-72572619D01*
X115457142Y-72525000D01*
X115552380Y-72477380D01*
X115790476Y-72477380D01*
X115933333Y-72525000D01*
X116314285Y-73191666D02*
X116790476Y-73191666D01*
X116219047Y-73477380D02*
X116552380Y-72477380D01*
X116885714Y-73477380D01*
X117695238Y-73477380D02*
X117219047Y-73477380D01*
X117219047Y-72477380D01*
X118028571Y-72953571D02*
X118361904Y-72953571D01*
X118504761Y-73477380D02*
X118028571Y-73477380D01*
X118028571Y-72477380D01*
X118504761Y-72477380D01*
X119695238Y-73477380D02*
X119695238Y-72477380D01*
X120266666Y-73477380D01*
X120266666Y-72477380D01*
X120933333Y-72477380D02*
X121123809Y-72477380D01*
X121219047Y-72525000D01*
X121314285Y-72620238D01*
X121361904Y-72810714D01*
X121361904Y-73144047D01*
X121314285Y-73334523D01*
X121219047Y-73429761D01*
X121123809Y-73477380D01*
X120933333Y-73477380D01*
X120838095Y-73429761D01*
X120742857Y-73334523D01*
X120695238Y-73144047D01*
X120695238Y-72810714D01*
X120742857Y-72620238D01*
X120838095Y-72525000D01*
X120933333Y-72477380D01*
X121647619Y-72477380D02*
X122219047Y-72477380D01*
X121933333Y-73477380D02*
X121933333Y-72477380D01*
X123314285Y-73477380D02*
X123314285Y-72477380D01*
X123695238Y-72477380D01*
X123790476Y-72525000D01*
X123838095Y-72572619D01*
X123885714Y-72667857D01*
X123885714Y-72810714D01*
X123838095Y-72905952D01*
X123790476Y-72953571D01*
X123695238Y-73001190D01*
X123314285Y-73001190D01*
X124314285Y-72953571D02*
X124647619Y-72953571D01*
X124790476Y-73477380D02*
X124314285Y-73477380D01*
X124314285Y-72477380D01*
X124790476Y-72477380D01*
X125790476Y-73477380D02*
X125457142Y-73001190D01*
X125219047Y-73477380D02*
X125219047Y-72477380D01*
X125600000Y-72477380D01*
X125695238Y-72525000D01*
X125742857Y-72572619D01*
X125790476Y-72667857D01*
X125790476Y-72810714D01*
X125742857Y-72905952D01*
X125695238Y-72953571D01*
X125600000Y-73001190D01*
X125219047Y-73001190D01*
X126219047Y-73477380D02*
X126219047Y-72477380D01*
X126552380Y-73191666D01*
X126885714Y-72477380D01*
X126885714Y-73477380D01*
X127361904Y-73477380D02*
X127361904Y-72477380D01*
X127695238Y-72477380D02*
X128266666Y-72477380D01*
X127980952Y-73477380D02*
X127980952Y-72477380D01*
X128457142Y-72477380D02*
X129028571Y-72477380D01*
X128742857Y-73477380D02*
X128742857Y-72477380D01*
X129361904Y-72953571D02*
X129695238Y-72953571D01*
X129838095Y-73477380D02*
X129361904Y-73477380D01*
X129361904Y-72477380D01*
X129838095Y-72477380D01*
X130266666Y-73477380D02*
X130266666Y-72477380D01*
X130504761Y-72477380D01*
X130647619Y-72525000D01*
X130742857Y-72620238D01*
X130790476Y-72715476D01*
X130838095Y-72905952D01*
X130838095Y-73048809D01*
X130790476Y-73239285D01*
X130742857Y-73334523D01*
X130647619Y-73429761D01*
X130504761Y-73477380D01*
X130266666Y-73477380D01*
%TO.C,C1*%
X136415813Y-133538322D02*
X136368194Y-133585941D01*
X136225337Y-133633560D01*
X136130099Y-133633560D01*
X135987241Y-133585941D01*
X135892003Y-133490703D01*
X135844384Y-133395465D01*
X135796765Y-133204989D01*
X135796765Y-133062132D01*
X135844384Y-132871656D01*
X135892003Y-132776418D01*
X135987241Y-132681180D01*
X136130099Y-132633560D01*
X136225337Y-132633560D01*
X136368194Y-132681180D01*
X136415813Y-132728799D01*
X137368194Y-133633560D02*
X136796765Y-133633560D01*
X137082480Y-133633560D02*
X137082480Y-132633560D01*
X136987241Y-132776418D01*
X136892003Y-132871656D01*
X136796765Y-132919275D01*
%TO.C,C2*%
X122273242Y-78860006D02*
X122320861Y-78907625D01*
X122368480Y-79050482D01*
X122368480Y-79145720D01*
X122320861Y-79288578D01*
X122225623Y-79383816D01*
X122130385Y-79431435D01*
X121939909Y-79479054D01*
X121797052Y-79479054D01*
X121606576Y-79431435D01*
X121511338Y-79383816D01*
X121416100Y-79288578D01*
X121368480Y-79145720D01*
X121368480Y-79050482D01*
X121416100Y-78907625D01*
X121463719Y-78860006D01*
X121463719Y-78479054D02*
X121416100Y-78431435D01*
X121368480Y-78336197D01*
X121368480Y-78098101D01*
X121416100Y-78002863D01*
X121463719Y-77955244D01*
X121558957Y-77907625D01*
X121654195Y-77907625D01*
X121797052Y-77955244D01*
X122368480Y-78526673D01*
X122368480Y-77907625D01*
%TO.C,U1*%
X161924400Y-127858424D02*
X162733924Y-127858424D01*
X162829162Y-127810805D01*
X162876781Y-127763186D01*
X162924400Y-127667948D01*
X162924400Y-127477472D01*
X162876781Y-127382234D01*
X162829162Y-127334615D01*
X162733924Y-127286996D01*
X161924400Y-127286996D01*
X162924400Y-126286996D02*
X162924400Y-126858424D01*
X162924400Y-126572710D02*
X161924400Y-126572710D01*
X162067258Y-126667948D01*
X162162496Y-126763186D01*
X162210115Y-126858424D01*
%TO.C,D1*%
X119335960Y-128657575D02*
X118335960Y-128657575D01*
X118335960Y-128419480D01*
X118383580Y-128276622D01*
X118478818Y-128181384D01*
X118574056Y-128133765D01*
X118764532Y-128086146D01*
X118907389Y-128086146D01*
X119097865Y-128133765D01*
X119193103Y-128181384D01*
X119288341Y-128276622D01*
X119335960Y-128419480D01*
X119335960Y-128657575D01*
X119335960Y-127133765D02*
X119335960Y-127705194D01*
X119335960Y-127419480D02*
X118335960Y-127419480D01*
X118478818Y-127514718D01*
X118574056Y-127609956D01*
X118621675Y-127705194D01*
%TO.C,BP1*%
X144092420Y-65767364D02*
X144901944Y-65767364D01*
X144997182Y-65719745D01*
X145044801Y-65672126D01*
X145092420Y-65576888D01*
X145092420Y-65386412D01*
X145044801Y-65291174D01*
X144997182Y-65243555D01*
X144901944Y-65195936D01*
X144092420Y-65195936D01*
X145044801Y-64767364D02*
X145092420Y-64624507D01*
X145092420Y-64386412D01*
X145044801Y-64291174D01*
X144997182Y-64243555D01*
X144901944Y-64195936D01*
X144806706Y-64195936D01*
X144711468Y-64243555D01*
X144663849Y-64291174D01*
X144616230Y-64386412D01*
X144568611Y-64576888D01*
X144520992Y-64672126D01*
X144473373Y-64719745D01*
X144378135Y-64767364D01*
X144282897Y-64767364D01*
X144187659Y-64719745D01*
X144140040Y-64672126D01*
X144092420Y-64576888D01*
X144092420Y-64338793D01*
X144140040Y-64195936D01*
X144568611Y-63434031D02*
X144616230Y-63291174D01*
X144663849Y-63243555D01*
X144759087Y-63195936D01*
X144901944Y-63195936D01*
X144997182Y-63243555D01*
X145044801Y-63291174D01*
X145092420Y-63386412D01*
X145092420Y-63767364D01*
X144092420Y-63767364D01*
X144092420Y-63434031D01*
X144140040Y-63338793D01*
X144187659Y-63291174D01*
X144282897Y-63243555D01*
X144378135Y-63243555D01*
X144473373Y-63291174D01*
X144520992Y-63338793D01*
X144568611Y-63434031D01*
X144568611Y-63767364D01*
%TO.C,F1*%
X128591986Y-132216851D02*
X128258653Y-132216851D01*
X128258653Y-132740660D02*
X128258653Y-131740660D01*
X128734843Y-131740660D01*
X129639605Y-132740660D02*
X129068177Y-132740660D01*
X129353891Y-132740660D02*
X129353891Y-131740660D01*
X129258653Y-131883518D01*
X129163415Y-131978756D01*
X129068177Y-132026375D01*
%TO.C,C3*%
X128452913Y-129992482D02*
X128405294Y-130040101D01*
X128262437Y-130087720D01*
X128167199Y-130087720D01*
X128024341Y-130040101D01*
X127929103Y-129944863D01*
X127881484Y-129849625D01*
X127833865Y-129659149D01*
X127833865Y-129516292D01*
X127881484Y-129325816D01*
X127929103Y-129230578D01*
X128024341Y-129135340D01*
X128167199Y-129087720D01*
X128262437Y-129087720D01*
X128405294Y-129135340D01*
X128452913Y-129182959D01*
X128786246Y-129087720D02*
X129405294Y-129087720D01*
X129071960Y-129468673D01*
X129214818Y-129468673D01*
X129310056Y-129516292D01*
X129357675Y-129563911D01*
X129405294Y-129659149D01*
X129405294Y-129897244D01*
X129357675Y-129992482D01*
X129310056Y-130040101D01*
X129214818Y-130087720D01*
X128929103Y-130087720D01*
X128833865Y-130040101D01*
X128786246Y-129992482D01*
%TO.C,R1*%
X133117293Y-124140220D02*
X132783960Y-123664030D01*
X132545864Y-124140220D02*
X132545864Y-123140220D01*
X132926817Y-123140220D01*
X133022055Y-123187840D01*
X133069674Y-123235459D01*
X133117293Y-123330697D01*
X133117293Y-123473554D01*
X133069674Y-123568792D01*
X133022055Y-123616411D01*
X132926817Y-123664030D01*
X132545864Y-123664030D01*
X134069674Y-124140220D02*
X133498245Y-124140220D01*
X133783960Y-124140220D02*
X133783960Y-123140220D01*
X133688721Y-123283078D01*
X133593483Y-123378316D01*
X133498245Y-123425935D01*
%TO.C,R2*%
X135073093Y-129352300D02*
X134739760Y-128876110D01*
X134501664Y-129352300D02*
X134501664Y-128352300D01*
X134882617Y-128352300D01*
X134977855Y-128399920D01*
X135025474Y-128447539D01*
X135073093Y-128542777D01*
X135073093Y-128685634D01*
X135025474Y-128780872D01*
X134977855Y-128828491D01*
X134882617Y-128876110D01*
X134501664Y-128876110D01*
X135454045Y-128447539D02*
X135501664Y-128399920D01*
X135596902Y-128352300D01*
X135834998Y-128352300D01*
X135930236Y-128399920D01*
X135977855Y-128447539D01*
X136025474Y-128542777D01*
X136025474Y-128638015D01*
X135977855Y-128780872D01*
X135406426Y-129352300D01*
X136025474Y-129352300D01*
D12*
%TO.C,C1*%
X137184544Y-130451180D02*
X135980416Y-130451180D01*
X137184544Y-132271180D02*
X135980416Y-132271180D01*
%TO.C,C2*%
X122826100Y-79295404D02*
X122826100Y-78091276D01*
X124646100Y-79295404D02*
X124646100Y-78091276D01*
%TO.C,J2*%
X110886240Y-118919300D02*
X108286240Y-118919300D01*
X113486240Y-116319300D02*
X113486240Y-75619300D01*
X113486240Y-117589300D02*
X113486240Y-118919300D01*
X110886240Y-116319300D02*
X110886240Y-118919300D01*
X113486240Y-75619300D02*
X108286240Y-75619300D01*
X108286240Y-118919300D02*
X108286240Y-75619300D01*
X113486240Y-118919300D02*
X112156240Y-118919300D01*
X113486240Y-116319300D02*
X110886240Y-116319300D01*
%TO.C,U1*%
X145582020Y-129636520D02*
X143042020Y-129636520D01*
X145582020Y-124556520D02*
X143042020Y-124556520D01*
X161472020Y-132216520D02*
X145582020Y-132216520D01*
X161472020Y-121976520D02*
X145582020Y-121976520D01*
X161472020Y-121976520D02*
X161472020Y-132216520D01*
X145582020Y-121976520D02*
X145582020Y-132216520D01*
X145582020Y-127096520D02*
X143042020Y-127096520D01*
%TO.C,REF\u002A\u002A*%
X158610300Y-79880460D02*
X158610300Y-80134460D01*
X157340300Y-78610460D02*
X158102300Y-78610460D01*
X157848300Y-79118460D02*
X157848300Y-78864460D01*
X157594300Y-79118460D02*
X156832300Y-79118460D01*
X158610300Y-79626460D02*
X159118300Y-79118460D01*
X157594300Y-79880460D02*
X157594300Y-79118460D01*
X158102300Y-78610460D02*
X158102300Y-79372460D01*
X157086300Y-78610460D02*
X157086300Y-78102460D01*
X157086300Y-79372460D02*
X157340300Y-79626460D01*
X157086300Y-78102460D02*
X157594300Y-77594460D01*
X158102300Y-79372460D02*
X157594300Y-79880460D01*
X156832300Y-78356460D02*
X156324300Y-78864460D01*
X157340300Y-78610460D02*
X156832300Y-79118460D01*
X158102300Y-79626460D02*
X158610300Y-79626460D01*
X156832300Y-78102460D02*
X156578300Y-78102460D01*
X158356300Y-79880460D02*
X157848300Y-80388460D01*
X157848300Y-78864460D02*
X157594300Y-78864460D01*
%TO.C,D1*%
X119883580Y-130639480D02*
X122823580Y-130639480D01*
X122823580Y-125199480D02*
X119883580Y-125199480D01*
X121353580Y-131859480D02*
X121353580Y-130639480D01*
X119883580Y-125199480D02*
X119883580Y-130639480D01*
X122823580Y-130639480D02*
X122823580Y-125199480D01*
X119883580Y-129739480D02*
X122823580Y-129739480D01*
X119883580Y-129859480D02*
X122823580Y-129859480D01*
X121353580Y-123979480D02*
X121353580Y-125199480D01*
X119883580Y-129619480D02*
X122823580Y-129619480D01*
%TO.C,BP1*%
X142052040Y-62989460D02*
X142052040Y-66291460D01*
X145608040Y-66291460D02*
X145608040Y-62989460D01*
X142052040Y-66291460D02*
X145608040Y-66291460D01*
X137710040Y-64513460D02*
G75*
G03*
X137710040Y-64513460I-1500000J0D01*
G01*
%TO.C,F1*%
X133111180Y-130096140D02*
X124511180Y-130096140D01*
X133111180Y-134196140D02*
X124511180Y-134196140D01*
X124511180Y-134196140D02*
X124511180Y-130096140D01*
X133111180Y-134196140D02*
X133111180Y-130096140D01*
%TO.C,C3*%
X129221644Y-128725340D02*
X128017516Y-128725340D01*
X129221644Y-126905340D02*
X128017516Y-126905340D01*
%TO.C,R1*%
X129340480Y-123616720D02*
X130110480Y-123616720D01*
X136650480Y-122246720D02*
X130110480Y-122246720D01*
X130110480Y-124986720D02*
X136650480Y-124986720D01*
X137420480Y-123616720D02*
X136650480Y-123616720D01*
X130110480Y-122246720D02*
X130110480Y-124986720D01*
X136650480Y-124986720D02*
X136650480Y-122246720D01*
%TO.C,R2*%
X136852140Y-127850900D02*
X133692140Y-127850900D01*
X138692140Y-127850900D02*
G75*
G03*
X138692140Y-127850900I-920000J0D01*
G01*
%TO.C,U2*%
X118367500Y-82107420D02*
X118367500Y-107747420D01*
X120857500Y-107687420D02*
X126157500Y-107687420D01*
X126157500Y-107687420D02*
X126157500Y-82167420D01*
X128647500Y-107747420D02*
X128647500Y-82107420D01*
X126157500Y-82167420D02*
X124507500Y-82167420D01*
X118367500Y-107747420D02*
X128647500Y-107747420D01*
X120857500Y-82167420D02*
X120857500Y-107687420D01*
X128647500Y-82107420D02*
X118367500Y-82107420D01*
X122507500Y-82167420D02*
X120857500Y-82167420D01*
X122507500Y-82167420D02*
G75*
G03*
X124507500Y-82167420I1000000J0D01*
G01*
%TD*%
M02*
